{{ $bn := "svg" }}
{{ $classes := printf "%s %s--%s" $bn $bn . }}

<svg xmlns="http://www.w3.org/2000/svg" viewBox="0 0 844 369" class="{{ $classes }}">
  <g fill-rule="evenodd">
    <path d="M418 10.5h2.5c107.4-.8 187 97.5 166.9 206.7-13.6 77.4-83.9 140.7-166.9 139.2-104 1-182.8-93-167.3-199.1C263.4 78 332 11.7 415.4 10.5h2.6zm-98.1 67.2c-76.7 78.6-44.6 223.8 68.8 251 49.2 10.6 99.1-2.4 133.6-39.6 75.4-78 44.6-222.5-66.8-250.6-49.7-11.3-100.7 2-135.6 39.2zM424 47c.4 1.3 1.9 1.7 2.4 1.6 2.6-.4 5 1.1 7.5 1a7 7 0 015 2c1.2 1 1 2.2.7 3.3-.3 1-1.4 1.3-2.7 1.3-1.6 0-3-.7-4.5-1l-5.6-1.4c-1.8-.5-3.8-.1-5.7-.1-.7-1 1.2-1.4.2-2.5-.8-.7-1.8-1.3-2.5-.8-1 .7-2.4.7-3 2 .4 1 2 1.2 1.6 2.6-1.1.6-2.4.5-3.5.3-6.6-1.3-7.4-1.2-12.8 1.6-1.2.7-2.6 1.4-2.6 2.7.1 1.6 2 2 3.3 2.3 3.8.7 7.4 2.3 11.5 2.6v3c.1 1.2 1 1.9 2 2 1.3 0 2-.8 2-1.7 0-2.2.9-3.4 2.9-4.3 1.6-.6 1.5-1.2 1-3.2-1-3.3 0-5 3.5-5 1 0 2.2-.3 2.8.1 1.3.9 2.7.8 4 1.5 3.5 2 3.5 2 7.7 1 .5-.1.9 0 1.4.3l6 3.6c2.2 1.4 4.5 2.8 7.2 3.5 1.2.3 2.4 1 3.3 2 1.4 1.8 3.6 2.9 4.4 5.2.2.6.9.9 1.6 1.1 2.4.7 4.3 2.2 6.1 4.4-1.9.9-3.4.4-4.8.5h-4.6c-1.1-.1-2-.8-1.9-2.1v-4.1c-1-.6-1.7-.7-2.6.1-.6.7-1.5.3-2.3.3h-7c-2 .1-4 .5-5.4 2 .6 1 1.5.5 2.2.5a4 4 0 014 1.6c1.5 2 3.7 2.9 6.3 2.6h3c.2 1 .6 2.2-.1 3-.7.9-1.7 1.7-2.6 1.8-1.5.1-2.6 1-4 1.5-1.2.4-2.7 1.1-3.3-1.1-.4-1.1-1.6-1.5-2.8-1-1.8 1-3.4 2.3-5.6 2.5-.7 0-1.4 1.1-1.3 2.3 0 .8.4 1.8-.2 2.3-.7.6-1.7 1-2.5 1-1.2 0-1.7 1.4-3 1-.4-.2-.8 0-1 .4-.6 2-2.3 3.2-3.3 4.8a9.2 9.2 0 00-1.5 6c.2 2.2-.6 3.7-2.6 4.5-4.2 1.7-7.6 4.7-11 7.5-3.2 2.6-3.9 3.3-1.6 8.4a18 18 0 012 8.8c-.2 2.2-1.4 3.7-3 5-.3.3-1.3.4-1.8-.1-.5-.6.6-.7.6-1.2 0-.7.3-1.4-.4-1.9-1-.6-1.3-1.7-1.8-2.6-1-1.8-2.2-3.4-2-5.8 0-2.2-2.4-3.5-4.6-4.1-2.7-.7-5.3-.7-8-.8-1.1 0-2 .1-3 1a5.7 5.7 0 01-4.2 1.5c-3 0-5.8.1-8.7 0-1.7-.1-3 .4-4.5 1.2-2 1.2-4.1 2.3-5.7 4.1-.9 1-1.7 2-1.7 3.4-.2 2.8-1.1 5.4-1.9 8-.8 2.6-.6 5-.6 7.6 0 2.9 4.5 8.4 7.1 8.8 2.3.4 4.5-.1 6.4-1.5 1.2-1 2.4-2 3.2-3.3 2-3.5 5.2-4.4 8.9-4.3h3c.9 2 .1 3.9-.8 5.7-1 1.9-2.1 3.8-3 5.8-.2.6-.7 1-.9 1.7-.9 4 0 5.1 4.3 5 1 0 2.1.4 3.2-.3 2.2-1.5 3.8.6 5.7 1.2 2 .6 2.3 2.5 3.3 3.8.4.4-.4 1-.5 1.4-.7 3-2.4 5.8-2 9.1.3 1.3-.5 2.8.6 4 1.6 1.7 3.1 3.6 5.7 4.1 2 .5 2.7.6 4.2-.1a8 8 0 017.6.3c2 1.4 4.8.5 6.2-1.6.5-.7 1-1.6 1.3-2.4.4-1 1-1.5 2-2 3.6-1.8 7.4-2.8 11-4.8 1-.6 3-1.3 4-.9 1.9.9 4.4 1 5.7 3 1.4 2.1 3.7 2.6 5.7 3.2 2.2.6 4.5.9 6.7-.3.4-.3 1-.2 1.6-.2h7.8c1.8.2 3.3.7 4.5 2.6a30 30 0 009 9.5c2 1.4 3.8 2 6.2 2 5 .1 9.4 1.7 13 5.5 1.6 1.6 1.4 4 3.4 5.3a9.7 9.7 0 013.9 5c.6 1.9 2.4 2.8 4.2 3.2 1.8.4 3.4 1.2 4.8 2.2 1.8 1.3 3.7 2.2 5.8 2 3.8-.6 6.7 1 9.4 3.3.9.7 1.6.9 2.7.8 1.4 5.8-.4 11-3.4 15.7a69.5 69.5 0 00-7 14.1c-1.2 3.5-3 6.8-4.8 10l-2.4 4.4c-2.3 4-6.2 5.9-9.9 8.1-3.2 2-6.3 4-9.4 6.2-2.5 1.7-4 4.4-5.7 6.8-1.3 1.7-2.5 3.3-4.4 4.4-1.8 1-3.1 2.5-4.6 3.7a46.1 46.1 0 01-10.3 6.2c-1 .4-2 1-2.6 1.7-4 4.4-9.3 6.1-14.4 8.2a33.8 33.8 0 00-13 7.6c-1.5 1.7-3.5 2.2-5.4 2.9-5 1.7-7.4 1.6-12 .3-2.2-.6-2.7-1.9-1.4-3.4.8-1 1.4-2 1.8-3a58 58 0 015.4-9.4c1.3-1.7 1.7-4 2.3-6.1.8-3 2.6-5.9 3.6-8.9 1.6-4.8 3.3-9.6 2.9-15-.2-2.6-1.2-4.4-3.6-5.6-1.8-.9-3.8-1.6-5.4-2.8-5.1-3.7-9.5-8-12.6-13.7a81 81 0 00-9.3-14c-.8-1-1.6-2-2.2-3.2-2-3.4-2-5-1-10.6l1-5.4a9 9 0 012.4-5.2c2.5-2.5 4.2-5.7 7-8 1.3-1.1 2.2-2.4 1.4-4.5-.4-1.2-.1-2.8 0-4.1 0-2.1 0-4-2-5.5-.7-.6-1.2-1.9-1.5-3-.5-2.4-2-2.7-3.7-1.1-.9.8-.9.8-1.2 3-2.6.5-4.9 0-7.3-1.6-2.8-1.8-5.8-3-8-5.5-.4-.3-1.3-.9-2.1-1-1.2-.3-1.8-1.2-1.5-2.5.2-1.5-.5-2.5-1.5-3.6-3.7-3.6-8.1-6.1-12.6-8.4-.4-.2-.7-.4-1.1-.4-3 .4-4.3-1.3-5.6-3.6a8.9 8.9 0 00-3.9-3.4c-1-.6-2.3-.7-3-.3-3 1.8-5.9.7-8.4-.4-5-2-9.5-5-13.2-9-2.5-2.6-3.8-5.4-2.3-9.3.7-1.7-.3-4-1.3-5.9-1.2-2.4-2.7-4.8-3.2-7.4-.9-5-3.5-9.7-2.6-15 0-.6 0-1.2-.8-1.2-.7 0-.8.3-1 1-.4 2.4-1.7 4.8.1 7.1-.6 2.8 1 5.3 1 8-.1 2.2 1 4.4.7 6.7-.1.4.2.8-.7 1.2.2 0 0 0 0 0-2.5-1.4-3.9-4.8-3-7.5.4-.8.7-1.7 0-2.2-1.3-1-1.3-3-3.6-4l2.6-1.9c.9-.6.6-1.5.5-2.2-.9-3.6-.8-3.6-.2-6.5.4-2 .9-4.4-.3-6.3-1.8-3.1-1-6 0-9a39 39 0 019.6-15.5c2.5-2.8 4.6-5.9 6-9.5 1-2.9 3.4-5.6 6-7.3 1.1-.7 2-1.4 2.8-2.3a27 27 0 016.5-4.5c2.3-1.3 4.9-2.1 7.2-3.4.7-.4 1.5-.6 2-1.1 3.3-3.4 7.8-4 11.9-5.3 2.5-.8 5-2.2 7.9-2 1.2-1.6 3.6.4 4.7-1.5 2.4.6 4.4-1.2 6.7-.8 1.7.3 2.9-1.3 4.6-.9 1.5.3 3 0 4.5 0l.3-.8zm9.4 105.6c.5-.5 1-1.2 1.6-.5.9 1 1.8.5 2.7.6 4.5.6 8.4 2.5 12 5.3-1 .8-1.7 2.2-2.9.8-.7-.8-1.4-1.8-2.6-.5-.4.4-1.3.3-2 .2-2-.3-2.5 1.1-3.1 2.6-1-1.7-2.7-2.3-4.2-1.6-1.3.7-2.8-.6-4 .6-.3.3-1.4.1-1.3-.4.2-1-1.5-1.4-.7-2.6.9-.6 2 0 3-.2 1.3-.2 1.9-1.2 1.2-2.6-.3-.7-.3-1.2.3-1.7zm-17.5 5.4c.3-.7.8-1.7 1.7-1.5 1.5.3 3 .7 4.5 1.4 1 .5 1 2 0 2.9-.7.5-1.3.1-2 .3-1 0-1.9-1-2.8-1.6-.5-.3-1.8 0-1.4-1.5zm-14.7-14.7c2.6.6 5-1 7.4-.8 2.2.3 4.4 1.3 6.5 2 1.5.4 2.8 1.2 4 2 3 2.1 6.2 3.6 9.4 5.1.5.2.8.7 1.3 1-.5 1.2-1.2 1.6-2.4 1.5h-4.9c-1.9-.2-4.4 1-5.1-2.3-.2-.5-1.3-.7-2-1-1.2-.5-2.5-.8-3.3-2-1.2-1.8-3.1-1.8-4.7-1.2-2.3.8-4.4 1-6.7 0-.9-.5-2-.1-3.2-.1-1-3 1.4-3 2.5-4.1.3-.2.8-.2 1.2 0z"/>
    <path fill-rule="nonzero" d="M183 334.6V256H236v-31.4H183V34.3h-46L0 229.2v26.8h146.5v78.7H183zm-36.5-110H38.7L117.4 114a389 389 0 0030-50h1l-1.9 48.2v112.3zm644.4 110V256h53.3v-31.4h-53.3V34.3h-46L608 229.2v26.8h146.5v78.7H791zm-36.4-110H646.7L725.4 114a389 389 0 0030-50h1l-1.9 48.2v112.3z"/>
  </g>
</svg>
