<!-- in order to pass on page parameters from within loops -->
{{- $page := .Page -}}
{{- $site := $page.Site -}}
{{- $p := $page.Site.Params.prefix -}}
<!-- bn - block name -->
{{- $bn := print $p "svg" -}}
{{- $classes := .Block.classes | default $bn -}}

<svg width="4745" height="800" viewBox="0 0 4745 800" xmlns="http://www.w3.org/2000/svg">
  <defs>
    <linearGradient x1="25.219%" y1="51.289%" x2="78.111%" y2="51.208%" id="a"><stop stop-color="#60AECA" offset="0%"/><stop stop-color="#C0DBFF" offset="100%"/></linearGradient>
    <linearGradient x1="27.197%" y1="86.721%" x2="77.017%" y2="86.721%" id="b"><stop stop-color="#2587AD" offset="0%"/><stop stop-color="#6A93C8" offset="100%"/></linearGradient>
    <radialGradient cx="50.896%" cy="11.986%" fx="50.896%" fy="11.986%" r="107.498%" gradientTransform="matrix(.00086 .99999 -.46917 .0161 .565 -.391)" id="c"><stop stop-color="#14A2A7" offset="0%"/><stop stop-color="#14A2A7" offset="0%"/><stop stop-color="#23678F" offset="76.671%"/><stop stop-color="#1B435D" offset="100%"/></radialGradient>
  </defs>
  <g fill="none" fill-rule="evenodd"><path d="M1167.766 799c291.702 2.468 832.96-57.847 1296.086-29.362 463.125 28.484 615.812-14.957 922.671-32.06 306.86-17.103 851.305 103.235 1358.477 32.06V0H0v780.18c217.61-10.542 876.063 16.352 1167.766 18.82z" fill="url(#a)"/><path d="M1149.586 776.85c289.101-20.102 823.805-52.67 1276.305-24.315 452.5 28.355 652.023-11.252 958.882-28.355 306.86-17.103 853.055 99.53 1360.227 28.355V0H0v752.535c208.323 20.103 860.484 44.419 1149.586 24.316z" fill="url(#b)"/><path d="M1263.727 703.629c429.335 1.4 670.546-1.401 1179.293 30.41 508.746 31.811 696.62-5.227 1003.48-22.039s791.328 69.965 1298.5 0V-.45H0V703.63c336.742 104.246 834.39-1.401 1263.727 0z" fill="url(#c)"/></g>
</svg>
