<!-- in order to pass on page parameters from within loops -->
{{- $page := .Page -}}
{{- $site := $page.Site -}}
{{- $p := $page.Site.Params.prefix -}}
<!-- bn - block name -->
{{- $bn := print $p "svg" -}}
{{- $classes := .Block.classes | default $bn -}}

<svg xmlns="http://www.w3.org/2000/svg" viewBox="0 0 688 109" preserveAspectRatio="none" class="{{- $classes -}}">
  <path
    class="{{- $bn -}}__fill-theme-light"
    d="M679.8 55.3c-2-.9-4 0-5.9.3-5 .4-6.3-3.6-8.2-6.6-1.5-2.4 4-5.3 5.2-6.4h.1c.7-.7 1.5-1 2.4-.3h.1c1 .8 2.2 1.1 3.5 1 1.5-1.4 1.1-3.5.5-4.7-3.1-5.6-9.6-9-14-13.5l-.4-.4a22 22 0 00-10.1-6c-14.2-3.5-24.4-9-39.1-10-12.2-.9-24.4-.7-36.5-2-14-1.6-28-2.2-42-3l-2.6-.1c-28.6-1.7-57.3-2.6-85.9-2.3-14 .1-27.9 2.6-41.9 2-14-.5-28.3-3.5-42.4-2.4-17 1.3-34 1-51 1-14.2 0-28.4.5-42.6.6-9.6 0-19.3 2.4-29 2.8-11 .4-22 1.6-33 2.3l-3 .1c-16.8 1-33.5 2.7-50.3 3.5-12.7.5-25.3 1.8-38 3.7l-2.2.3c-15.4 2.5-31 4.3-46.4 6.2C55.6 22.8 44 23.6 32.5 25c-4.8.6-9.5 2.3-14.5 2.1-2.8 0-5 2.3-6.4 5.2-1.7 3.7-2 8.1-5.8 10.6-.6.4-1 1.9-.8 2.7C6 53 2.8 59 .5 65.3c-.7 1.8-.6 3.3 1.3 4.3l.7.4c4.1 2.2 7.2 4.6 5.6 10.9-.6 2 2.9 5.2 5.6 6.9.4.2 1 0 1.4.2l.6.3c9.7 5.4 36.8 14.2 39.7 13.3a21 21 0 018.4-1.3h.7c.9.1 1.8.3 1.6 1-1.8 7 3.7 3.7 5.3 3.5 4.2-.6 8.5.3 12.7-.4.7-.1 1.4.6.9 1.5-.4.5-1 .7-1.6 1.5 4.2-.9 8.1 1 12.2 1.3 6.5.7 12.6-1.5 19-2 5.8-.6 11.7-.3 17.5-1l5.6-.8c8.2-1.1 16.5-2.3 24.9-3 17-1.7 33.9-1 50.8-2.6 13.2-1.1 26.4-4.1 39.6-4.8 5.9-.4 11.8-1 17.7-.7 12.3.7 24.5-.3 36.7-1 13.6-.7 27.2-2 40.7-3.1 9.2-.7 18 1.2 27.1.8 8-.4 16-1.3 24-1 10.6.2 21.3-.6 32-.2 12.5.5 25.1 3.4 37.7 3.7l7.8.2c10.4.3 20.8.5 31.2-.2 7.6-.5 15.1 2.3 22.7 3 19.3 1.6 38.7 2 58 2.5 5.7.2 11.3 1.5 17 1.3l6.1-.2a315 315 0 0118.4-.2c9.3.2 38.5 7.8 44.7 6.2 3.4-1 6.6-3.3 5.8-6.4V99c-1.4-4.5.4-7 3-9.6 1-1 1.2-2.8 2.3-3.7 2.2-2 2.2-3.9 1-6.4l-.5-1c-.8-1.8-1.6-4-1-6.2l.1-.3c1-2.7-1.5-3.2-2.3-4.7-4 .3.2-10-3.4-11.8z"></svg>
