{{- $bn := "svg" -}}
{{- $classes := printf "%s %s--%s" $bn $bn . -}}

<svg xmlns="http://www.w3.org/2000/svg" preserveAspectRatio="none" viewBox="0 0 689 118" class="{{- $classes -}}">
  <path
    class="{{- $bn -}}__fill-theme-light"
    d="M8.4 58.9l.2-.1c2-1 4-2.7 5.9-2.5 4.9.5 6.2-3.6 8-6.9l.1-.2c1.6-2.7.3-3.9-2.4-3.3-.8.2-1.7 1.5-2.4 0-.5-1 .6-2.6-.5-3.7-.7-.7-1.5-1-2.4-.3h-.1c-1 .9-2.1 1.2-3.4 1-1.6-1.4-1.2-3.6-.6-4.9V38c3.2-6.4 5.9-13.3 10.3-18.4 2.3-2.8 6.3-5.5 10.1-6.5 14.2-3.6 28.4-6.4 43-7.3 12.2-.8 24.4-.6 36.6-2 14.8-1.7 29.7-2.2 44.6-3 28.6-1.7 57.2.8 85.9 1.2 14 .3 27.9.3 41.8-.2l5.1-.2C300.1 1.1 312 1 324 2l1.7.1c17 1.6 34 1.2 51 1.4 14.3.2 28.5.8 42.6 1 9.7 0 19.4-.5 29 0 11.2.4 22.3 1.8 33.4 2.6l2.8.2c16.8 1 33.5 3 50.2 4 12.8.7 25.6 2.2 38.2 4.4l2 .3c15.5 2.7 31 4.8 46.6 7 11.5 1.5 20 5.5 31.6 7.2 4.8.7 9.5 2.6 14.5 2.4 2.8 0 5 2.5 6.4 5.7 1.7 4 2.1 8.8 6 11.6.5.4.9 2 .7 3-1 7.7 5.3 11.4 7.6 18.3.7 2 .7 3.6-1.2 4.6l-.7.4c-4.1 2.4-7.2 5-5.5 11.9.5 2-3 5.6-5.6 7.4-.4.3-1 0-1.4.2-9.1 5.8-18.6 1.7-28 1-1.1-.2-2.4-.2-3.5.2-10.6 3.6-21 0-31.6-1.1l-.6-.1c-2-.2-4-2-5.7 1.8-1 2-5.5 2-8.4 3.4 14.3 6.2 29.5 6 44.6 9.4l-1 .2c-3 .8-3.3.7-5.6 0l-.5-.3c-2.6-.8-5.2-1.6-8-1.5h-.4c-.9.2-2.5.2-2.2 1.2 1.8 7.6-3.7 4-5.3 3.7-4.3-.6-8.5.3-12.8-.5-.6-.1-1.4.7-.8 1.6.3.6 1 .9 1.6 1.7-4.3-1-8.2 1-12.2 1.4-6.5.7-12.7-1.8-19-2.4-5.8-.6-11.7-.3-17.6-1.2l-11-1.7c-6.5-1-13-1.9-19.5-2.6-17-1.9-34-1.3-50.8-3-13.2-1.4-26.4-2-39.7-2.9-5.9-.4-11.8-1-17.7-.8-12.2.7-24.5-.4-36.7-1.2-13.6-1-27.2.2-40.7-1-9.2-.9-18 1.2-27.1.7-8-.4-16-1.5-24-1.3-10.7.2-21.4-.8-32-.4l-31.5 1-13.3.3c-10 .2-20.2.4-30.2-.3l-1.8-.2a132 132 0 00-21.4.3l-1.2.1c-19.4 1.8-38.8 2-58.1 2.5-5.7.2-11.3 1.5-17 1.3l-5.7-.3c-6.2-.2-12.5-.5-18.8-.4-9 .2-17.3 2.9-25.8 4.6l-1 .2c-5.8 1.1-11.6 3.5-17.9 1.7-3.4-1-6.6-3.6-5.8-7v-.2C9.5 98.7 7.6 96 5 93c-1-1-1.3-3-2.3-4-2.3-2.3-2.2-4.3-1-7.2l.2-.3c1-2 1.8-4.7 1.1-7.3v-.3c-1-3 1.5-3.5 2.3-5.1 4 .3 7.5-1.5 11.5-2.8l-.5-.3C11 61.5 9.6 62 5.5 69c-1.3-5.5-.5-8.3 2.9-10.1z"></svg>