{{- $bn := "svg" -}}
{{- $classes := printf "%s %s--%s" $bn $bn . -}}
<svg xmlns="http://www.w3.org/2000/svg" viewBox="0 0 4745 800" class="{{- $classes -}}">
  <g fill="none" fill-rule="evenodd">
    <path
      class="{{- $bn -}}__fill-major-accent-4"
      fill-rule="nonzero"
      d="M1167.766,800 C1459.468,802.468 2000.726,742.153 2463.852,770.638 C2926.977,799.122 3079.664,755.681 3386.523,738.578 C3693.383,721.475 4237.828,841.813 4745,770.638 L4745,1 L0,1 L0,781.18 C217.61,770.638 876.063,797.532 1167.766,800 Z"/>
    <path
      class="{{- $bn -}}__fill-major-accent-3"
      fill-rule="nonzero"
      d="M1149.586,777.85 C1438.687,757.748 1973.391,725.18 2425.891,753.535 C2878.391,781.89 3077.914,742.283 3384.773,725.18 C3691.633,708.077 4237.828,824.71 4745,753.535 L4745,1 L0,1 L0,753.535 C208.323,773.638 860.484,797.954 1149.586,777.851 L1149.586,777.85 Z"/>
    <path
      class="{{- $bn -}}__fill-major-accent-2"
      fill-rule="nonzero"
      d="M1263.727,704.629 C1693.062,706.029 1934.273,703.228 2443.02,735.039 C2951.766,766.85 3139.64,729.812 3446.5,713 C3753.36,696.188 4237.828,782.965 4745,713 L4745,0.55 L0,0.55 L0,704.63 C336.742,808.876 834.39,703.229 1263.727,704.63 L1263.727,704.629 Z"/>
  </g>
</svg>