<svg width="1202" height="428" xmlns="http://www.w3.org/2000/svg"><defs><radialGradient cx="125.32%" cy="23.89%" fx="125.32%" fy="23.89%" r="125.519%" gradientTransform="scale(-1 -.75787) rotate(-19.741 -1.592 7.164)" id="b"><stop stop-color="#0E8E9A" offset="0%"/><stop stop-color="#1D5678" offset="100%"/></radialGradient><radialGradient cx="-35.21%" cy="7.544%" fx="-35.21%" fy="7.544%" r="122.81%" gradientTransform="matrix(.69384 .56699 -.69016 .52355 -.056 .236)" id="c"><stop stop-color="#0F919C" offset="0%"/><stop stop-color="#1D5678" offset="100%"/></radialGradient><linearGradient x1="-16.475%" y1="50%" x2="119.014%" y2="50%" id="a"><stop stop-color="#0E909B" offset="0%"/><stop stop-color="#1D5577" offset="15.975%"/><stop stop-color="#1D5779" offset="80.917%"/><stop stop-color="#0E909B" offset="100%"/></linearGradient></defs><g fill="none" fill-rule="evenodd"><path fill="url(#a)" fill-rule="nonzero" d="M1201.725 0l.275 428H0L.499 0z"/><path d="M1202 413c-51.927-60.955-134.224-23.06-212.597-55.243-78.373-32.182-113.03-110.81-96.273-201.662 5.84-31.67 29.02-76.696 56.757-94.241C968.38 50.157 995.931 29.539 1032.541 0H1202v413z" fill="url(#b)" fill-rule="nonzero"/><path d="M269.612 0c-161.334 164.448 85.073 143.924 34.379 307.363C282.887 375.4 177.946 390.406 0 395V0h269.612z" fill="url(#c)" fill-rule="nonzero"/><path fill="#14ABBA" fill-rule="nonzero" opacity=".264" d="M114.416 296L106 284.417 117.584 276 126 287.583z"/><path fill="#14ABBA" fill-rule="nonzero" opacity=".125" d="M1003.574 248L996 237.575l10.426-7.575 7.574 10.425z"/><path fill="#14ABBA" fill-rule="nonzero" opacity=".264" d="M48.072 109.247l-6.62-20.377 20.381-6.623 6.62 20.376zM1170.028 23.688l-1.877 17.897-17.895-1.886 1.876-17.897zM1156.573 378.115l23.528 11.476-11.472 23.524-23.528-11.476z"/><path fill="#14ABBA" opacity=".264" d="M1131.575 291l2.155 9.331 9.331-2.154 1.939 8.398-9.332 2.155 2.155 9.331-8.398 1.939-2.156-9.331-9.33 2.154-1.939-8.398 9.331-2.155-2.154-9.331zM175.051 334.635l-4.039 5.988 5.988 4.039-3.635 5.389-5.989-4.04-4.038 5.989-5.389-3.635 4.038-5.988-5.987-4.039 3.635-5.389 5.988 4.039 4.039-5.988z"/><circle fill="#14ABBA" fill-rule="nonzero" opacity=".125" transform="rotate(45 223.5 293.5)" cx="223.5" cy="293.5" r="5.5"/><circle fill="#14ABBA" fill-rule="nonzero" opacity=".125" transform="rotate(45 949.5 300.5)" cx="949.5" cy="300.5" r="5.5"/><circle fill="#14ABBA" fill-rule="nonzero" opacity=".125" transform="rotate(45 1012.5 41.5)" cx="1012.5" cy="41.5" r="5.5"/><circle fill="#14ABBA" fill-rule="nonzero" opacity=".125" transform="rotate(45 152.5 104.5)" cx="152.5" cy="104.5" r="5.5"/><circle fill="#14ABBA" fill-rule="nonzero" opacity=".264" transform="rotate(45 116.5 403.379)" cx="116.5" cy="403.379" r="7"/><circle fill="#14ABBA" fill-rule="nonzero" opacity=".264" transform="rotate(45 86.5 19.5)" cx="86.5" cy="19.5" r="5.5"/><circle fill="#14ABBA" fill-rule="nonzero" opacity=".264" transform="rotate(45 1041 305)" cx="1041" cy="305" r="9"/><circle stroke="#14ABBA" stroke-width="6" opacity=".532" cx="1085" cy="368" r="16"/><circle stroke="#14ABBA" stroke-width="6" opacity=".532" cx="1087.5" cy="95.5" r="13.5"/><circle stroke="#14ABBA" stroke-width="6" opacity=".532" cx="36.5" cy="34.5" r="15.5"/><circle stroke="#14ABBA" stroke-width="6" opacity=".532" cx="119" cy="50" r="10"/><circle stroke="#14ABBA" stroke-width="6" opacity=".532" cx="36" cy="347" r="16"/></g></svg>
