<svg viewBox="0 0 2621 2304">
    <title>portal page</title>
    <g id="Portal-data-page" stroke="none" stroke-width="1" fill="none" fill-rule="evenodd">
        <rect fill="#FFFFFF" x="0" y="0" width="2621" height="2304"></rect>
        <ellipse id="Oval" fill="#E6EBF1" fill-rule="nonzero" cx="2385" cy="380.5" rx="48" ry="47.5"></ellipse>
        <circle id="Oval" stroke-opacity="0.5" stroke="#00D3A2" stroke-width="15" fill-rule="nonzero" cx="328.5" cy="390.5" r="73.5"></circle>
        <polyline id="Path" stroke="#B2BCC6" stroke-width="4.5" stroke-linecap="round" stroke-linejoin="round" points="2464 375 2476.99497 388 2490 375"></polyline>
        <polygon id="Path" fill="#E6EBF1" fill-rule="nonzero" points="0 0 2621 0 2621 201 0 201"></polygon>
        <g id="Group-2" transform="translate(115.000000, 74.000000)">
            <rect id="Rectangle" fill="#FFFFFF" fill-rule="nonzero" x="464.3" y="0.5" width="1751" height="85" rx="15"></rect>
            <rect id="Rectangle" fill="#E6EBF1" fill-rule="nonzero" x="658.3" y="34.5" width="1011" height="21" rx="6"></rect>
            <path d="M592.599998,41.8988202 L592.599998,38.1953065 C592.599998,31.7361671 587.764674,26.5 581.8,26.5 C575.835324,26.5 571,31.7361671 571,38.1953065 L571,41.8988202 C569.330946,42.942331 568.301977,44.8700175 568.3,46.9570403 L568.3,58.6523468 C568.3,61.8819165 570.717662,64.5 573.7,64.5 L589.899998,64.5 C592.882336,64.5 595.3,61.8819165 595.3,58.6523468 L595.3,46.9667864 C595.301235,44.8762815 594.271836,42.9440724 592.599998,41.8988202 L592.599998,41.8988202 Z M587.199999,44.5 L576.4,44.5 L576.4,38.5 C576.4,35.1862915 578.817662,32.5 581.799999,32.5 C584.782337,32.5 587.199999,35.1862915 587.199999,38.5 L587.199999,44.5 Z" id="Shape" fill="#E6EBF1" fill-rule="nonzero"></path>
            <polyline id="Path" stroke="#B2BCC6" stroke-width="4.5" stroke-linecap="round" stroke-linejoin="round" points="22.3 23.5 0.3 44.5 22.3 65.5"></polyline>
            <polyline id="Path" stroke="#B2BCC6" stroke-width="4.5" stroke-linecap="round" stroke-linejoin="round" points="159.3 64.5 181.3 43.5 159.3 22.5"></polyline>
            <g id="Group" transform="translate(290.300000, 11.500000)" stroke="#B2BCC6" stroke-linecap="round" stroke-linejoin="round" stroke-width="4.5">
                <polyline id="Path" transform="translate(21.800000, 11.415873) rotate(-90.000000) translate(-21.800000, -11.415873) " points="11.1714286 33.015873 32.4285714 11.415873 11.1714286 -10.184127"></polyline>
                <path d="M43.2,23.6190476 L43.2,56.6857143 C43.2,59.2946022 41.0509668,61.4095238 38.4,61.4095238 L4.8,61.4095238 C2.1490332,61.4095238 0,59.2946022 0,56.6857143 L0,23.6190476" id="Path"></path>
            </g>
        </g>
        <rect id="Rectangle" stroke="#E6EBF1" stroke-width="4.5" stroke-linecap="round" stroke-linejoin="round" x="104" y="560" width="2417" height="432"></rect>
        <rect id="Rectangle" stroke="#E6EBF1" stroke-width="4.5" stroke-linecap="round" stroke-linejoin="round" x="1401" y="992" width="1120" height="1312"></rect>
        <path d="M1626.60304,1147.48905 C1635.46439,1147.48905 1642,1142.36446 1642,1134.8405 C1642,1128.85687 1637.81956,1125.03565 1631.57835,1124.47283 L1631.57835,1124.32472 C1636.78917,1123.22871 1640.52802,1119.64446 1640.52802,1114.2829 C1640.52802,1107.91419 1635.19943,1103.14507 1626.54416,1103.14507 C1618.24217,1103.14507 1612.44255,1107.91419 1611.91263,1115.37891 L1618.09497,1115.37891 C1618.4188,1111.11336 1621.83381,1108.5955 1626.54416,1108.5955 C1631.54891,1108.5955 1634.11016,1111.20222 1634.11016,1115.20118 C1634.11016,1119.20014 1630.81292,1122.07346 1625.95537,1122.07346 L1620.98006,1122.07346 L1620.98006,1127.22767 L1626.132,1127.22767 C1631.81387,1127.22767 1635.31719,1129.95288 1635.28775,1134.8405 C1635.25831,1138.98756 1631.78443,1141.94975 1626.60304,1141.94975 C1621.27445,1141.94975 1617.65337,1139.25416 1617.32953,1135.07747 L1611,1135.07747 C1611.41216,1142.4237 1617.50617,1147.48905 1626.60304,1147.48905 Z M1663.02899,1147.48905 C1673.08696,1147.48905 1679,1138.86907 1679,1125.243 C1679,1111.7058 1673.02899,1103.14507 1663.02899,1103.14507 C1653.02899,1103.14507 1647,1111.73542 1647,1125.27262 C1647,1138.8987 1652.94203,1147.48905 1663.02899,1147.48905 Z M1663.51459,1142.44996 C1657.41475,1142.44996 1654,1136.13064 1654,1125.77646 C1654,1115.57062 1657.5023,1109.19197 1663.51459,1109.19197 C1669.52688,1109.19197 1673,1115.54096 1673,1125.77646 C1673,1136.16031 1669.58525,1142.44996 1663.51459,1142.44996 Z M1700.72622,1147.48905 C1709.71758,1147.48905 1716,1141.44557 1716,1132.74886 C1716,1124.61227 1710.26513,1118.71619 1702.31124,1118.71619 C1698.21902,1118.71619 1694.76081,1120.33761 1692.88761,1123.19721 L1692.74352,1123.19721 L1694.01153,1109.72468 L1713.57925,1109.72468 L1713.57925,1104.15288 L1688.79539,1104.15288 L1686.74928,1128.68056 L1692.39769,1128.68056 C1694.15562,1125.55564 1697.12392,1123.93422 1700.8415,1123.93422 C1706.02882,1123.93422 1709.68876,1127.67823 1709.68876,1132.92574 C1709.68876,1138.23221 1706.05764,1141.97622 1700.78386,1141.97622 C1696.14409,1141.97622 1692.62824,1139.08714 1692.16715,1134.87144 L1686,1134.87144 C1686.37464,1142.3005 1692.42651,1147.48905 1700.72622,1147.48905 Z M1744.93441,1147.48905 C1749.41171,1147.48905 1752.92331,1145.20507 1754.73764,1141.64564 L1754.85469,1141.64564 L1754.85469,1146.95513 L1761,1146.95513 L1761,1104.15288 L1754.64985,1104.15288 L1754.64985,1120.94157 L1754.5328,1120.94157 C1752.80626,1117.50078 1749.29465,1115.24647 1744.87588,1115.24647 C1737.15035,1115.24647 1732,1121.50515 1732,1131.35293 C1732,1141.20071 1737.15035,1147.48905 1744.93441,1147.48905 Z M1746.01441,1142.44996 C1741.08468,1142.44996 1738,1138.37542 1738,1131.86787 C1738,1125.38964 1741.08468,1121.28579 1746.01441,1121.28579 C1750.8,1121.28579 1754,1125.47758 1754,1131.86787 C1754,1138.31679 1750.8,1142.44996 1746.01441,1142.44996 Z M1776.17897,1147.48905 C1780.19239,1147.48905 1784.0604,1145.29758 1785.83445,1141.83268 L1785.97987,1141.83268 L1785.97987,1146.95599 L1792,1146.95599 L1792,1125.48549 C1792,1119.23683 1787.25951,1115.23888 1779.8434,1115.23888 C1772.28188,1115.23888 1767.57047,1119.38491 1767.22148,1125.01166 L1773.15436,1125.01166 C1773.70694,1122.2279 1775.97539,1120.45103 1779.61074,1120.45103 C1783.44966,1120.45103 1785.7472,1122.52404 1785.7472,1125.98894 L1785.7472,1128.38771 L1777.37136,1128.89115 C1770.10067,1129.30576 1766,1132.65219 1766,1138.10126 C1766,1143.69839 1770.18792,1147.48905 1776.17897,1147.48905 Z M1778.41432,1143.45778 C1775.14317,1143.45778 1773,1141.77808 1773,1139.20255 C1773,1136.683 1775.05857,1135.08729 1778.69631,1134.83534 L1786,1134.38742 L1786,1136.711 C1786,1140.5463 1782.67245,1143.45778 1778.41432,1143.45778 Z M1809.39123,1146.48123 C1810.82281,1146.48123 1812.25439,1146.36411 1812.97018,1146.18844 L1812.97018,1141.18171 C1812.55263,1141.26955 1811.50877,1141.32811 1810.85263,1141.32811 C1808.22807,1141.32811 1807.03509,1140.12766 1807.03509,1137.46326 L1807.03509,1120.48138 L1813,1120.48138 L1813,1115.47465 L1807.03509,1115.47465 L1807.03509,1108.18416 L1800.56316,1108.18416 L1800.56316,1115.47465 L1796,1115.47465 L1796,1120.48138 L1800.56316,1120.48138 L1800.56316,1138.16596 C1800.56316,1144.10962 1803.0386,1146.48123 1809.39123,1146.48123 Z M1827.17897,1147.48905 C1831.19239,1147.48905 1835.0604,1145.29758 1836.83445,1141.83268 L1836.97987,1141.83268 L1836.97987,1146.95599 L1843,1146.95599 L1843,1125.48549 C1843,1119.23683 1838.25951,1115.23888 1830.8434,1115.23888 C1823.28188,1115.23888 1818.57047,1119.38491 1818.22148,1125.01166 L1824.15436,1125.01166 C1824.70694,1122.2279 1826.97539,1120.45103 1830.61074,1120.45103 C1834.44966,1120.45103 1836.7472,1122.52404 1836.7472,1125.98894 L1836.7472,1128.38771 L1828.37136,1128.89115 C1821.10067,1129.30576 1817,1132.65219 1817,1138.10126 C1817,1143.69839 1821.18792,1147.48905 1827.17897,1147.48905 Z M1829.41432,1143.45778 C1826.14317,1143.45778 1824,1141.77808 1824,1139.20255 C1824,1136.683 1826.05857,1135.08729 1829.69631,1134.83534 L1837,1134.38742 L1837,1136.711 C1837,1140.5463 1833.67245,1143.45778 1829.41432,1143.45778 Z M1872.70161,1147.48905 C1879.84447,1147.48905 1885,1143.5871 1885,1137.91155 C1885,1133.4184 1882.63825,1130.93534 1876.44585,1129.45733 L1871.52074,1128.30448 C1868.23733,1127.53592 1866.85484,1126.20571 1866.85484,1124.25474 C1866.85484,1121.77168 1869.10138,1120.08675 1872.4712,1120.08675 C1875.95622,1120.08675 1878.11636,1121.9786 1878.46198,1124.99374 L1884.30876,1124.99374 C1884.10714,1119.25907 1879.52765,1115.23888 1872.4712,1115.23888 C1865.50115,1115.23888 1860.77765,1119.05214 1860.77765,1124.60946 C1860.77765,1129.13217 1863.62903,1131.96995 1869.3894,1133.32972 L1874.31452,1134.51212 C1877.62673,1135.28069 1878.75,1136.4631 1878.75,1138.47319 C1878.75,1141.01537 1876.44585,1142.61162 1872.70161,1142.61162 C1868.89977,1142.61162 1866.73963,1141.01537 1866.16359,1137.76374 L1860,1137.76374 C1860.57604,1143.67578 1865.12673,1147.48905 1872.70161,1147.48905 Z M1903.45161,1147.48905 C1910.47347,1147.48905 1915.77627,1143.4393 1916.65036,1137.76374 L1910.67742,1137.76374 C1909.83247,1140.48328 1907.18106,1142.31601 1903.59729,1142.31601 C1898.55671,1142.31601 1895.35172,1138.73923 1895.35172,1133.32972 L1895.35172,1132.94543 L1917,1132.94543 L1917,1130.75798 C1917,1121.32828 1911.69719,1115.23888 1903.18939,1115.23888 C1894.5359,1115.23888 1889,1121.74212 1889,1131.49698 C1889,1141.31097 1894.44849,1147.48905 1903.45161,1147.48905 Z M1911,1128.34051 L1896,1128.34051 C1896.31369,1123.66188 1899.3365,1120.27797 1903.64259,1120.27797 C1907.94867,1120.27797 1910.85741,1123.60303 1911,1128.34051 Z M1932.39123,1146.48123 C1933.82281,1146.48123 1935.25439,1146.36411 1935.97018,1146.18844 L1935.97018,1141.18171 C1935.55263,1141.26955 1934.50877,1141.32811 1933.85263,1141.32811 C1931.22807,1141.32811 1930.03509,1140.12766 1930.03509,1137.46326 L1930.03509,1120.48138 L1936,1120.48138 L1936,1115.47465 L1930.03509,1115.47465 L1930.03509,1108.18416 L1923.56316,1108.18416 L1923.56316,1115.47465 L1919,1115.47465 L1919,1120.48138 L1923.56316,1120.48138 L1923.56316,1138.16596 C1923.56316,1144.10962 1926.0386,1146.48123 1932.39123,1146.48123 Z M1952.70161,1147.48905 C1959.84447,1147.48905 1965,1143.5871 1965,1137.91155 C1965,1133.4184 1962.63825,1130.93534 1956.44585,1129.45733 L1951.52074,1128.30448 C1948.23733,1127.53592 1946.85484,1126.20571 1946.85484,1124.25474 C1946.85484,1121.77168 1949.10138,1120.08675 1952.4712,1120.08675 C1955.95622,1120.08675 1958.11636,1121.9786 1958.46198,1124.99374 L1964.30876,1124.99374 C1964.10714,1119.25907 1959.52765,1115.23888 1952.4712,1115.23888 C1945.50115,1115.23888 1940.77765,1119.05214 1940.77765,1124.60946 C1940.77765,1129.13217 1943.62903,1131.96995 1949.3894,1133.32972 L1954.31452,1134.51212 C1957.62673,1135.28069 1958.75,1136.4631 1958.75,1138.47319 C1958.75,1141.01537 1956.44585,1142.61162 1952.70161,1142.61162 C1948.89977,1142.61162 1946.73963,1141.01537 1946.16359,1137.76374 L1940,1137.76374 C1940.57604,1143.67578 1945.12673,1147.48905 1952.70161,1147.48905 Z M1985.51406,1111.20761 C1987.45382,1111.20761 1989,1109.61461 1989,1107.68025 C1989,1105.71744 1987.45382,1104.15288 1985.51406,1104.15288 C1983.5743,1104.15288 1982,1105.71744 1982,1107.68025 C1982,1109.61461 1983.5743,1111.20761 1985.51406,1111.20761 Z M1989,1147.48905 L1989,1116.2467 L1983,1116.2467 L1983,1147.48905 L1989,1147.48905 Z M2001.19184,1146.48123 L2001.19184,1128.58257 C2001.19184,1123.82323 2004.0011,1120.66979 2008.35832,1120.66979 C2012.65821,1120.66979 2014.77949,1123.21006 2014.77949,1127.82341 L2014.77949,1146.48123 L2021,1146.48123 L2021,1126.59708 C2021,1119.56025 2017.18743,1115.23888 2010.53693,1115.23888 C2005.89305,1115.23888 2002.68247,1117.39957 2001.04851,1120.90338 L2000.90518,1120.90338 L2000.90518,1115.76445 L1995,1115.76445 L1995,1146.48123 L2001.19184,1146.48123 Z M2042.57916,1159.58286 C2048.91383,1159.58286 2051.93587,1157.17917 2054.5511,1149.70429 L2066,1117.25452 L2059.37475,1117.25452 L2051.64529,1142.34666 L2051.52906,1142.34666 L2043.7996,1117.25452 L2037,1117.25452 L2048.04208,1148.12138 C2048.04208,1148.15069 2047.48998,1149.96811 2047.48998,1150.02674 C2046.53106,1153.19257 2044.96192,1154.42373 2042.05611,1154.42373 C2041.53307,1154.42373 2040.48697,1154.42373 2040.02204,1154.30647 L2040.02204,1159.43629 C2040.48697,1159.52423 2042.05611,1159.58286 2042.57916,1159.58286 Z M2083.5,1147.48905 C2092.24649,1147.48905 2098,1141.37009 2098,1131.34918 C2098,1121.35784 2092.21743,1115.23888 2083.5,1115.23888 C2074.78257,1115.23888 2069,1121.35784 2069,1131.34918 C2069,1141.37009 2074.75351,1147.48905 2083.5,1147.48905 Z M2083,1142.44996 C2078.15412,1142.44996 2075,1138.59146 2075,1131.85347 C2075,1125.14429 2078.15412,1121.28579 2083,1121.28579 C2087.84588,1121.28579 2091,1125.14429 2091,1131.85347 C2091,1138.59146 2087.87455,1142.44996 2083,1142.44996 Z M2113.57773,1147.48905 C2118.19294,1147.48905 2121.2602,1145.41789 2122.92282,1141.74232 L2123.06615,1141.74232 L2123.06615,1146.93479 L2129,1146.93479 L2129,1116.2467 L2122.80816,1116.2467 L2122.80816,1134.12864 C2122.80816,1138.91272 2120.11356,1142.0632 2115.64168,1142.0632 C2111.37045,1142.0632 2109.19184,1139.55448 2109.19184,1134.88709 L2109.19184,1116.2467 L2103,1116.2467 L2103,1136.11228 C2103,1143.14254 2107.01323,1147.48905 2113.57773,1147.48905 Z M2142.42379,1146.48123 L2142.42379,1128.06899 C2142.42379,1123.71435 2144.98141,1120.99636 2149.11524,1120.99636 C2150.36431,1120.99636 2151.49442,1121.14249 2152,1121.34707 L2152,1115.47269 C2151.52416,1115.38501 2150.72119,1115.23888 2149.79926,1115.23888 C2146.11152,1115.23888 2143.31599,1117.37236 2142.27509,1120.96713 L2142.12639,1120.96713 L2142.12639,1115.73572 L2136,1115.73572 L2136,1146.48123 L2142.42379,1146.48123 Z M2174.32089,1156.55941 L2174.32089,1141.36675 L2174.4672,1141.36675 C2176.22301,1144.77854 2179.73461,1146.93642 2184.15338,1146.93642 C2191.87891,1146.93642 2197,1140.78354 2197,1131.07307 C2197,1121.3626 2191.84965,1115.23888 2184.03633,1115.23888 C2179.58829,1115.23888 2176.04743,1117.48424 2174.2331,1121.01267 L2174.11604,1121.01267 L2174.11604,1115.73461 L2168,1115.73461 L2168,1156.55941 L2174.32089,1156.55941 Z M2182.97112,1142.44996 C2178.1769,1142.44996 2175,1138.28748 2175,1131.86787 C2175,1125.5069 2178.20578,1121.28579 2182.97112,1121.28579 C2187.90975,1121.28579 2191,1125.41896 2191,1131.86787 C2191,1138.3461 2187.90975,1142.44996 2182.97112,1142.44996 Z M2215.5,1147.48905 C2224.24649,1147.48905 2230,1141.37009 2230,1131.34918 C2230,1121.35784 2224.21743,1115.23888 2215.5,1115.23888 C2206.78257,1115.23888 2201,1121.35784 2201,1131.34918 C2201,1141.37009 2206.75351,1147.48905 2215.5,1147.48905 Z M2215,1142.44996 C2210.15412,1142.44996 2207,1138.59146 2207,1131.85347 C2207,1125.14429 2210.15412,1121.28579 2215,1121.28579 C2219.84588,1121.28579 2223,1125.14429 2223,1131.85347 C2223,1138.59146 2219.87455,1142.44996 2215,1142.44996 Z M2240.42379,1146.48123 L2240.42379,1128.06899 C2240.42379,1123.71435 2242.98141,1120.99636 2247.11524,1120.99636 C2248.36431,1120.99636 2249.49442,1121.14249 2250,1121.34707 L2250,1115.47269 C2249.52416,1115.38501 2248.72119,1115.23888 2247.79926,1115.23888 C2244.11152,1115.23888 2241.31599,1117.37236 2240.27509,1120.96713 L2240.12639,1120.96713 L2240.12639,1115.73572 L2234,1115.73572 L2234,1146.48123 L2240.42379,1146.48123 Z M2264.39123,1146.48123 C2265.82281,1146.48123 2267.25439,1146.36411 2267.97018,1146.18844 L2267.97018,1141.18171 C2267.55263,1141.26955 2266.50877,1141.32811 2265.85263,1141.32811 C2263.22807,1141.32811 2262.03509,1140.12766 2262.03509,1137.46326 L2262.03509,1120.48138 L2268,1120.48138 L2268,1115.47465 L2262.03509,1115.47465 L2262.03509,1108.18416 L2255.56316,1108.18416 L2255.56316,1115.47465 L2251,1115.47465 L2251,1120.48138 L2255.56316,1120.48138 L2255.56316,1138.16596 C2255.56316,1144.10962 2258.0386,1146.48123 2264.39123,1146.48123 Z M2282.17897,1147.48905 C2286.19239,1147.48905 2290.0604,1145.29758 2291.83445,1141.83268 L2291.97987,1141.83268 L2291.97987,1146.95599 L2298,1146.95599 L2298,1125.48549 C2298,1119.23683 2293.25951,1115.23888 2285.8434,1115.23888 C2278.28188,1115.23888 2273.57047,1119.38491 2273.22148,1125.01166 L2279.15436,1125.01166 C2279.70694,1122.2279 2281.97539,1120.45103 2285.61074,1120.45103 C2289.44966,1120.45103 2291.7472,1122.52404 2291.7472,1125.98894 L2291.7472,1128.38771 L2283.37136,1128.89115 C2276.10067,1129.30576 2272,1132.65219 2272,1138.10126 C2272,1143.69839 2276.18792,1147.48905 2282.17897,1147.48905 Z M2284.41432,1143.45778 C2281.14317,1143.45778 2279,1141.77808 2279,1139.20255 C2279,1136.683 2281.05857,1135.08729 2284.69631,1134.83534 L2292,1134.38742 L2292,1136.711 C2292,1140.5463 2288.67245,1143.45778 2284.41432,1143.45778 Z M2311,1146.48123 L2311,1104.15288 L2305,1104.15288 L2305,1146.48123 L2311,1146.48123 Z" id="305datasetsinyourportal" fill="#747D90" fill-rule="nonzero"></path>
        <g id="filter" transform="translate(255.000000, 747.000000)">
            <path d="M75.3279422,105.743717 C85.1774729,105.743717 91.4506859,100.760631 91.4506859,92.834319 C91.4506859,86.7147397 87.8157401,83.1886964 78.9628881,81.3236818 L74.3312635,80.3620336 C68.8495307,79.1963994 66.6802888,77.1565397 66.6802888,74.0967501 C66.6802888,70.2501574 70.3152347,67.8606074 75.2693141,67.8606074 C80.399278,67.8606074 83.8876534,70.4541433 84.2980505,74.6795671 L90.6592058,74.6795671 C90.4540072,67.336072 84.3273646,62.2947043 75.3572563,62.2947043 C66.3578339,62.2947043 59.9966787,67.2486494 59.9966787,74.4464403 C59.9966787,80.5077379 63.8368231,84.4126123 72.3085921,86.1902043 L76.9109025,87.1518525 C82.5685199,88.3757684 84.7963899,90.4156281 84.7963899,93.6794037 C84.7963899,97.4385739 80.9562455,100.177814 75.591769,100.177814 C69.9634657,100.177814 65.9767509,97.6717007 65.3904693,93.5045586 L59,93.5045586 C59.4103971,100.993758 65.7715523,105.743717 75.3279422,105.743717 Z M102.912491,115.185354 L102.912491,100.002969 L103.059061,100.002969 C104.817906,103.412449 108.335596,105.568872 112.762022,105.568872 C120.500939,105.568872 125.630903,99.4201519 125.630903,89.7162476 C125.630903,80.0123434 120.471625,73.8927641 112.644765,73.8927641 C108.189025,73.8927641 104.642022,76.1366098 102.824549,79.6626531 L102.707292,79.6626531 L102.707292,74.3881586 L96.5806498,74.3881586 L96.5806498,115.185354 L102.912491,115.185354 Z M110.973863,100.236096 C106.107726,100.236096 102.883177,96.0980946 102.883177,89.7162476 C102.883177,83.3926824 106.13704,79.1963994 110.973863,79.1963994 C115.98657,79.1963994 119.123177,83.3052598 119.123177,89.7162476 C119.123177,96.1563763 115.98657,100.236096 110.973863,100.236096 Z M143.659061,105.627154 C150.723755,105.627154 156.058917,101.634857 156.938339,96.0398129 L150.928953,96.0398129 C150.078845,98.7207714 147.411264,100.527504 143.805632,100.527504 C138.734296,100.527504 135.509747,97.001461 135.509747,91.6686848 L135.509747,91.2898537 L157.290108,91.2898537 L157.290108,89.1334306 C157.290108,79.8374982 151.954946,73.8344824 143.395235,73.8344824 C134.688953,73.8344824 129.119278,80.2454702 129.119278,89.8619519 C129.119278,99.5367153 134.601011,105.627154 143.659061,105.627154 Z M150.958267,86.8895848 L135.539061,86.8895848 C135.861516,82.2561891 138.968809,78.9049909 143.395235,78.9049909 C147.821661,78.9049909 150.811697,82.1979074 150.958267,86.8895848 Z M175.376895,105.627154 C182.793357,105.627154 188.040578,101.197744 188.714801,94.6701928 L182.617473,94.6701928 C181.884621,98.2253769 179.334296,100.352659 175.435523,100.352659 C170.510758,100.352659 167.256895,96.4477848 167.256895,89.7162476 C167.256895,83.1304147 170.481444,79.079836 175.376895,79.079836 C179.510181,79.079836 181.972563,81.673372 182.617473,84.9371476 L188.656173,84.9371476 C188.099206,78.9049909 183.262383,73.8344824 175.318267,73.8344824 C166.553357,73.8344824 160.807798,79.9832025 160.807798,89.7162476 C160.807798,99.6241379 166.553357,105.627154 175.376895,105.627154 Z M196.570975,69.4342135 C198.593646,69.4342135 200.205921,67.8023257 200.205921,65.8207476 C200.205921,63.8100287 198.593646,62.2072818 196.570975,62.2072818 C194.548303,62.2072818 192.906715,63.8100287 192.906715,65.8207476 C192.906715,67.8023257 194.548303,69.4342135 196.570975,69.4342135 Z M199.736895,105.044337 L199.736895,74.3881586 L193.405054,74.3881586 L193.405054,105.044337 L199.736895,105.044337 Z M219.377329,105.627154 C226.442022,105.627154 231.777184,101.634857 232.656606,96.0398129 L226.64722,96.0398129 C225.797112,98.7207714 223.129531,100.527504 219.523899,100.527504 C214.452563,100.527504 211.228014,97.001461 211.228014,91.6686848 L211.228014,91.2898537 L233.008375,91.2898537 L233.008375,89.1334306 C233.008375,79.8374982 227.673213,73.8344824 219.113502,73.8344824 C210.40722,73.8344824 204.837545,80.2454702 204.837545,89.8619519 C204.837545,99.5367153 210.319278,105.627154 219.377329,105.627154 Z M226.676534,86.8895848 L211.257329,86.8895848 C211.579783,82.2561891 214.687076,78.9049909 219.113502,78.9049909 C223.539928,78.9049909 226.529964,82.1979074 226.676534,86.8895848 Z M249.482888,105.627154 C256.75278,105.627154 262,101.780561 262,96.1855171 C262,91.7561074 259.596245,89.3082757 253.293718,87.851233 L248.281011,86.7147397 C244.939206,85.9570775 243.53213,84.6457391 243.53213,82.7224427 C243.53213,80.274611 245.818628,78.6135824 249.248375,78.6135824 C252.795379,78.6135824 254.993935,80.478597 255.345704,83.4509641 L261.296462,83.4509641 C261.091264,77.7976385 256.430325,73.8344824 249.248375,73.8344824 C242.154368,73.8344824 237.346859,77.5936525 237.346859,83.072133 C237.346859,87.5306836 240.248953,90.3282056 246.111769,91.6686848 L251.124477,92.834319 C254.495596,93.5919812 255.638845,94.7576153 255.638845,96.7391934 C255.638845,99.2453068 253.293718,100.818913 249.482888,100.818913 C245.61343,100.818913 243.414874,99.2453068 242.828592,96.0398129 L236.555379,96.0398129 C237.141661,101.867984 241.773285,105.627154 249.482888,105.627154 Z" id="Species" fill="#747D90" fill-rule="nonzero"></path>
            <rect id="Rectangle" stroke="#B2BCC6" stroke-width="4.5" stroke-linecap="round" stroke-linejoin="round" x="0" y="0.20252379" width="334" height="147" rx="15"></rect>
            <rect id="Rectangle" fill="#E6EBF1" fill-rule="nonzero" x="39" y="20.2246587" width="257" height="13.9942077" rx="6"></rect>
        </g>
        <g id="filter" transform="translate(692.000000, 747.000000)">
            <path d="M70.5650116,105.601487 L70.5650116,89.2958645 L79.5919025,89.2958645 L88.2084802,105.601487 L95.7699668,105.601487 L86.3034545,88.267582 C91.4616779,86.5341915 94.509719,81.8922304 94.509719,76.1632278 C94.509719,68.2601421 89.0877228,63.206868 80.3832209,63.206868 L64,63.206868 L64,105.601487 L70.5650116,105.601487 Z M79.767751,83.9781749 L70.5650116,83.9781749 L70.5650116,68.7302141 L79.5919025,68.7302141 C84.6622016,68.7302141 87.7395508,71.6094052 87.7395508,76.3395048 C87.7395508,81.1871224 84.8380502,83.9781749 79.767751,83.9781749 Z M113.237587,106.189077 C120.300836,106.189077 125.634908,102.164086 126.51415,96.5232217 L120.505993,96.5232217 C119.656058,99.2261357 116.989022,101.047665 113.384127,101.047665 C108.313828,101.047665 105.089939,97.4927452 105.089939,92.1162966 L105.089939,91.7343631 L126.865848,91.7343631 L126.865848,89.56028 C126.865848,80.1882194 121.531776,74.1360422 112.973814,74.1360422 C104.269312,74.1360422 98.7007755,80.5995324 98.7007755,90.2947676 C98.7007755,100.048762 104.181388,106.189077 113.237587,106.189077 Z M120.535301,87.2980585 L105.119247,87.2980585 C105.441636,82.6267179 108.548293,79.2480753 112.973814,79.2480753 C117.399335,79.2480753 120.38876,82.5679589 120.535301,87.2980585 Z M143.336993,106.189077 C150.605398,106.189077 155.851546,102.310983 155.851546,96.6701192 C155.851546,92.2044351 153.448283,89.736557 147.147044,88.267582 L142.135361,87.1217815 C138.794239,86.3579145 137.387451,85.035837 137.387451,83.0967899 C137.387451,80.6289119 139.673482,78.9542803 143.102528,78.9542803 C146.648807,78.9542803 148.846913,80.8345684 149.19861,83.8312774 L155.148152,83.8312774 C154.942995,78.1316543 150.283009,74.1360422 143.102528,74.1360422 C136.009971,74.1360422 131.203444,77.9259978 131.203444,83.4493439 C131.203444,87.9444075 134.104945,90.7648396 139.966563,92.1162966 L144.978246,93.2914766 C148.348676,94.0553436 149.491691,95.2305237 149.491691,97.2283297 C149.491691,99.7549667 147.147044,101.34146 143.336993,101.34146 C139.468325,101.34146 137.270219,99.7549667 136.684057,96.5232217 L130.412126,96.5232217 C130.998288,102.399122 135.628966,106.189077 143.336993,106.189077 Z M173.905328,106.189077 C180.968577,106.189077 186.302649,102.164086 187.181891,96.5232217 L181.173734,96.5232217 C180.323799,99.2261357 177.656763,101.047665 174.051868,101.047665 C168.981569,101.047665 165.75768,97.4927452 165.75768,92.1162966 L165.75768,91.7343631 L187.533588,91.7343631 L187.533588,89.56028 C187.533588,80.1882194 182.199517,74.1360422 173.641555,74.1360422 C164.937053,74.1360422 159.368516,80.5995324 159.368516,90.2947676 C159.368516,100.048762 164.849129,106.189077 173.905328,106.189077 Z M181.203042,87.2980585 L165.786988,87.2980585 C166.109377,82.6267179 169.216034,79.2480753 173.641555,79.2480753 C178.067076,79.2480753 181.056501,82.5679589 181.203042,87.2980585 Z M201.45493,106.130318 C205.499446,106.130318 209.397422,103.956235 211.185215,100.518834 L211.331755,100.518834 L211.331755,105.601487 L217.39853,105.601487 L217.39853,84.3013494 C217.39853,78.1022748 212.621311,74.1360422 205.147749,74.1360422 C197.527646,74.1360422 192.779736,78.2491723 192.428039,83.8312774 L198.406889,83.8312774 C198.963743,81.0696044 201.249773,79.3068343 204.913284,79.3068343 C208.781952,79.3068343 211.097291,81.3633994 211.097291,84.8008009 L211.097291,87.1805405 L202.656562,87.679992 C195.32954,88.091305 191.197099,91.4111886 191.197099,96.8170167 C191.197099,102.369742 195.417464,106.130318 201.45493,106.130318 Z M203.213415,101.106424 C199.813677,101.106424 197.586262,99.3436537 197.586262,96.6407397 C197.586262,93.9965846 199.725753,92.3219531 203.506496,92.0575376 L211.097291,91.5874656 L211.097291,94.0259641 C211.097291,98.0509557 207.638936,101.106424 203.213415,101.106424 Z M229.854467,105.601487 L229.854467,87.092402 C229.854467,82.7148564 232.374962,79.9825629 236.448786,79.9825629 C237.679726,79.9825629 238.793433,80.1294604 239.291671,80.3351169 L239.291671,74.4298372 C238.822741,74.3416987 238.031423,74.1948012 237.122872,74.1948012 C233.48867,74.1948012 230.733709,76.3395048 229.707926,79.9531833 L229.561386,79.9531833 L229.561386,74.6942527 L223.52392,74.6942527 L223.52392,105.601487 L229.854467,105.601487 Z M256.407594,106.189077 C263.82254,106.189077 269.068688,101.723393 269.742774,95.1423852 L263.646692,95.1423852 C262.913989,98.7266842 260.364186,100.871388 256.46621,100.871388 C251.542451,100.871388 248.289254,96.9345347 248.289254,90.1478701 C248.289254,83.5081029 251.513143,79.4243523 256.407594,79.4243523 C260.540034,79.4243523 263.001914,82.0391279 263.646692,85.329632 L269.684158,85.329632 C269.127304,79.2480753 264.291469,74.1360422 256.348978,74.1360422 C247.58586,74.1360422 241.841474,80.3351169 241.841474,90.1478701 C241.841474,100.1369 247.58586,106.189077 256.407594,106.189077 Z M280.791923,105.601487 L280.791923,87.738751 C280.791923,82.8617539 283.664115,79.6300088 288.353409,79.6300088 C292.808238,79.6300088 295.094269,82.3623024 295.094269,86.916125 L295.094269,105.601487 L301.454124,105.601487 L301.454124,85.682186 C301.454124,78.6898648 297.409608,74.1654217 290.63944,74.1654217 C285.950146,74.1654217 282.579716,76.2513663 280.879847,79.8650448 L280.733306,79.8650448 L280.733306,63.206868 L274.461376,63.206868 L274.461376,105.601487 L280.791923,105.601487 Z M320.709538,106.189077 C327.772787,106.189077 333.106859,102.164086 333.986101,96.5232217 L327.977943,96.5232217 C327.128009,99.2261357 324.460973,101.047665 320.856078,101.047665 C315.785779,101.047665 312.561889,97.4927452 312.561889,92.1162966 L312.561889,91.7343631 L334.337798,91.7343631 L334.337798,89.56028 C334.337798,80.1882194 329.003726,74.1360422 320.445765,74.1360422 C311.741263,74.1360422 306.172726,80.5995324 306.172726,90.2947676 C306.172726,100.048762 311.653339,106.189077 320.709538,106.189077 Z M328.007251,87.2980585 L312.591198,87.2980585 C312.913586,82.6267179 316.020244,79.2480753 320.445765,79.2480753 C324.871286,79.2480753 327.860711,82.5679589 328.007251,87.2980585 Z M345.562796,105.601487 L345.562796,87.092402 C345.562796,82.7148564 348.083291,79.9825629 352.157116,79.9825629 C353.388055,79.9825629 354.501763,80.1294604 355,80.3351169 L355,74.4298372 C354.531071,74.3416987 353.739752,74.1948012 352.831202,74.1948012 C349.196999,74.1948012 346.442038,76.3395048 345.416255,79.9531833 L345.269715,79.9531833 L345.269715,74.6942527 L339.232249,74.6942527 L339.232249,105.601487 L345.562796,105.601487 Z" id="Researcher" fill="#747D90" fill-rule="nonzero"></path>
            <rect id="Rectangle" stroke="#B2BCC6" stroke-width="4.5" stroke-linecap="round" stroke-linejoin="round" x="0" y="0.20252379" width="429" height="147" rx="15"></rect>
            <rect id="Rectangle" fill="#E6EBF1" fill-rule="nonzero" x="50" y="20.2246587" width="330" height="13.9942077" rx="6"></rect>
        </g>
        <g id="filter" transform="translate(1223.000000, 747.000000)">
            <path d="M77.5856976,105.601487 L77.5856976,68.8771116 L90.5546055,68.8771116 L90.5546055,63.206868 L58,63.206868 L58,68.8771116 L70.9983158,68.8771116 L70.9983158,105.601487 L77.5856976,105.601487 Z M101.494365,105.601487 L101.494365,87.092402 C101.494365,82.7148564 104.023449,79.9825629 108.111154,79.9825629 C109.346288,79.9825629 110.463791,80.1294604 110.963726,80.3351169 L110.963726,74.4298372 C110.493199,74.3416987 109.699184,74.1948012 108.787537,74.1948012 C105.140951,74.1948012 102.376603,76.3395048 101.347325,79.9531833 L101.200285,79.9531833 L101.200285,74.6942527 L95.1422464,74.6942527 L95.1422464,105.601487 L101.494365,105.601487 Z M123.962042,106.130318 C128.020339,106.130318 131.931597,103.956235 133.725483,100.518834 L133.872522,100.518834 L133.872522,105.601487 L139.959969,105.601487 L139.959969,84.3013494 C139.959969,78.1022748 135.166472,74.1360422 127.667444,74.1360422 C120.021376,74.1360422 115.257287,78.2491723 114.904392,83.8312774 L120.903614,83.8312774 C121.462366,81.0696044 123.756186,79.3068343 127.43218,79.3068343 C131.31403,79.3068343 133.637259,81.3633994 133.637259,84.8008009 L133.637259,87.1805405 L125.167768,87.679992 C117.815779,88.091305 113.669258,91.4111886 113.669258,96.8170167 C113.669258,102.369742 117.904003,106.130318 123.962042,106.130318 Z M125.726519,101.106424 C122.315196,101.106424 120.080192,99.3436537 120.080192,96.6407397 C120.080192,93.9965846 122.226972,92.3219531 126.020599,92.0575376 L133.637259,91.5874656 L133.637259,94.0259641 C133.637259,98.0509557 130.16712,101.106424 125.726519,101.106424 Z M152.45835,105.601487 L152.45835,87.5918535 C152.45835,82.8029949 155.340329,79.6300088 159.810338,79.6300088 C164.221531,79.6300088 166.39772,82.1860254 166.39772,86.8279865 L166.39772,105.601487 L172.779246,105.601487 L172.779246,85.5940475 C172.779246,78.5135878 168.867988,74.1654217 162.045343,74.1654217 C157.281254,74.1654217 153.987563,76.3395048 152.31131,79.8650448 L152.16427,79.8650448 L152.16427,74.6942527 L146.106231,74.6942527 L146.106231,105.601487 L152.45835,105.601487 Z M190.512243,106.189077 C197.805415,106.189077 203.069439,102.310983 203.069439,96.6701192 C203.069439,92.2044351 200.657987,89.736557 194.335277,88.267582 L189.306516,87.1217815 C185.95401,86.3579145 184.542428,85.035837 184.542428,83.0967899 C184.542428,80.6289119 186.836248,78.9542803 190.276979,78.9542803 C193.835341,78.9542803 196.040938,80.8345684 196.393833,83.8312774 L202.363648,83.8312774 C202.157792,78.1316543 197.481928,74.1360422 190.276979,74.1360422 C183.160254,74.1360422 178.337349,77.9259978 178.337349,83.4493439 C178.337349,87.9444075 181.248737,90.7648396 187.130328,92.1162966 L192.159088,93.2914766 C195.541003,94.0553436 196.687913,95.2305237 196.687913,97.2283297 C196.687913,99.7549667 194.335277,101.34146 190.512243,101.34146 C186.630393,101.34146 184.424796,99.7549667 183.836637,96.5232217 L177.543335,96.5232217 C178.131494,102.399122 182.777951,106.189077 190.512243,106.189077 Z M221.184739,106.189077 C228.272056,106.189077 233.624304,102.164086 234.506542,96.5232217 L228.477912,96.5232217 C227.625081,99.2261357 224.948957,101.047665 221.331779,101.047665 C216.244203,101.047665 213.009328,97.4927452 213.009328,92.1162966 L213.009328,91.7343631 L234.859438,91.7343631 L234.859438,89.56028 C234.859438,80.1882194 229.50719,74.1360422 220.920067,74.1360422 C212.185905,74.1360422 206.598394,80.5995324 206.598394,90.2947676 C206.598394,100.048762 212.097681,106.189077 221.184739,106.189077 Z M228.50732,87.2980585 L213.038736,87.2980585 C213.362223,82.6267179 216.479466,79.2480753 220.920067,79.2480753 C225.360668,79.2480753 228.36028,82.5679589 228.50732,87.2980585 Z M253.004146,106.189077 C260.444358,106.189077 265.708382,101.723393 266.384765,95.1423852 L260.26791,95.1423852 C259.532711,98.7266842 256.974219,100.871388 253.062962,100.871388 C248.122425,100.871388 244.858142,96.9345347 244.858142,90.1478701 C244.858142,83.5081029 248.093017,79.4243523 253.004146,79.4243523 C257.150667,79.4243523 259.620935,82.0391279 260.26791,85.329632 L266.325949,85.329632 C265.767198,79.2480753 260.914885,74.1360422 252.94533,74.1360422 C244.152351,74.1360422 238.388392,80.3351169 238.388392,90.1478701 C238.388392,100.1369 244.152351,106.189077 253.004146,106.189077 Z M281.441638,105.807144 C282.853219,105.807144 284.264801,105.689626 284.970592,105.513349 L284.970592,100.489454 C284.558881,100.577593 283.529602,100.636352 282.882627,100.636352 C280.294727,100.636352 279.118409,99.4317922 279.118409,96.7582577 L279.118409,79.7181473 L285,79.7181473 L285,74.6942527 L279.118409,74.6942527 L279.118409,67.3787571 L272.736883,67.3787571 L272.736883,74.6942527 L268.237466,74.6942527 L268.237466,79.7181473 L272.736883,79.7181473 L272.736883,97.4633657 C272.736883,103.427404 275.177743,105.807144 281.441638,105.807144 Z" id="Transect" fill="#747D90" fill-rule="nonzero"></path>
            <rect id="Rectangle" stroke="#B2BCC6" stroke-width="4.5" stroke-linecap="round" stroke-linejoin="round" x="0" y="0.20252379" width="357" height="147" rx="15"></rect>
            <rect id="Rectangle" fill="#E6EBF1" fill-rule="nonzero" x="42" y="20.2246587" width="275" height="13.9942077" rx="6"></rect>
        </g>
        <rect id="Rectangle" fill="#E6EBF1" fill-rule="nonzero" opacity="0.5" x="1525" y="1238" width="856" height="95" rx="6"></rect>
        <rect id="Rectangle" fill-opacity="0.6" fill="#00D3A2" fill-rule="nonzero" opacity="0.5" x="533" y="371" width="690" height="60" rx="6"></rect>
        <rect id="Rectangle-Copy" fill="#E6EBF1" fill-rule="nonzero" opacity="0.5" x="1525" y="1391" width="856" height="95" rx="6"></rect>
        <rect id="Rectangle-Copy-2" fill="#E6EBF1" fill-rule="nonzero" opacity="0.5" x="1525" y="1544" width="856" height="95" rx="6"></rect>
        <rect id="Rectangle" fill="#E6EBF1" fill-rule="nonzero" opacity="0.5" x="1525" y="1850" width="856" height="95" rx="6"></rect>
        <rect id="Rectangle-Copy" fill="#E6EBF1" fill-rule="nonzero" opacity="0.5" x="1525" y="2003" width="856" height="95" rx="6"></rect>
        <rect id="Rectangle-Copy-2" fill="#E6EBF1" fill-rule="nonzero" opacity="0.5" x="1525" y="2156" width="856" height="95" rx="6"></rect>
        <rect id="Rectangle-Copy-3" fill="#E6EBF1" fill-rule="nonzero" opacity="0.5" x="1525" y="1697" width="856" height="95" rx="6"></rect>
        <path d="M266.463929,665.693864 L266.463929,647.976387 L284.355161,647.976387 L284.355161,642.432341 L266.463929,642.432341 L266.463929,629.026899 L286,629.026899 L286,623.36552 L260,623.36552 L260,665.693864 L266.463929,665.693864 Z M294.514056,629.412426 C296.453815,629.412426 298,627.819424 298,625.885064 C298,623.922258 296.453815,622.357702 294.514056,622.357702 C292.574297,622.357702 291,623.922258 291,625.885064 C291,627.819424 292.574297,629.412426 294.514056,629.412426 Z M298,665.693864 L298,634.451515 L292,634.451515 L292,665.693864 L298,665.693864 Z M311,665.693864 L311,623.36552 L305,623.36552 L305,665.693864 L311,665.693864 Z M327.391228,665.693864 C328.822807,665.693864 330.254386,665.576748 330.970175,665.401073 L330.970175,660.394346 C330.552632,660.482183 329.508772,660.540741 328.852632,660.540741 C326.22807,660.540741 325.035088,659.340298 325.035088,656.675899 L325.035088,639.694016 L331,639.694016 L331,634.687288 L325.035088,634.687288 L325.035088,627.39679 L318.563158,627.39679 L318.563158,634.687288 L314,634.687288 L314,639.694016 L318.563158,639.694016 L318.563158,657.378597 C318.563158,663.322256 321.038596,665.693864 327.391228,665.693864 Z M349.451613,665.693864 C356.473465,665.693864 361.776275,661.644118 362.650364,655.968562 L356.677419,655.968562 C355.832466,658.688099 353.181061,660.520831 349.597294,660.520831 C344.556712,660.520831 341.351717,656.944048 341.351717,651.534533 L341.351717,651.150251 L363,651.150251 L363,648.962797 C363,639.533096 357.69719,633.443697 349.189386,633.443697 C340.5359,633.443697 335,639.946939 335,649.701801 C335,659.515784 340.448491,665.693864 349.451613,665.693864 Z M356,646.545327 L341,646.545327 C341.313688,641.866699 344.336502,638.482786 348.642586,638.482786 C352.948669,638.482786 355.857414,641.807848 356,646.545327 Z M375.423792,665.693864 L375.423792,647.281628 C375.423792,642.926988 377.981413,640.208992 382.115242,640.208992 C383.364312,640.208992 384.494424,640.35512 385,640.559701 L385,634.685321 C384.524164,634.597643 383.72119,634.451515 382.799257,634.451515 C379.111524,634.451515 376.315985,636.584996 375.275093,640.179766 L375.126394,640.179766 L375.126394,634.948353 L369,634.948353 L369,665.693864 L375.423792,665.693864 Z M417.15338,665.693864 C424.9667,665.693864 430,659.464847 430,649.557744 C430,639.680302 424.937437,633.451285 417.182644,633.451285 C412.822402,633.451285 409.310797,635.646272 407.467205,639.265034 L407.320888,639.265034 L407.320888,622.357702 L401,622.357702 L401,665.159948 L407.145308,665.159948 L407.145308,659.850453 L407.262361,659.850453 C409.16448,663.469215 412.646821,665.693864 417.15338,665.693864 Z M415.057762,660.654776 C410.3213,660.654776 407,656.492293 407,650.072689 C407,643.711712 410.3213,639.490603 415.057762,639.490603 C419.967509,639.490603 423,643.594459 423,650.072689 C423,656.609546 419.967509,660.654776 415.057762,660.654776 Z M437.579158,676.779859 C443.913828,676.779859 446.935872,674.376172 449.551102,666.901291 L461,634.451515 L454.374749,634.451515 L446.645291,659.543664 L446.529058,659.543664 L438.799599,634.451515 L432,634.451515 L443.042084,665.318375 C443.042084,665.347689 442.48998,667.165111 442.48998,667.223737 C441.531062,670.389569 439.961924,671.620726 437.056112,671.620726 C436.533066,671.620726 435.486974,671.620726 435.022044,671.503473 L435.022044,676.633293 C435.486974,676.721233 437.056112,676.779859 437.579158,676.779859 Z" id="Filterby" fill="#747D90" fill-rule="nonzero"></path>
        <g id="filter" transform="translate(1683.000000, 747.000000)">
            <path d="M82.3518173,106.189077 C92.2157502,106.189077 98.4981361,101.144888 98.4981361,93.1213809 C98.4981361,86.9267618 94.8578751,83.3574813 85.9920783,81.4695973 L81.3536813,80.4961572 C75.8639329,79.3162297 73.6915191,77.2513567 73.6915191,74.1540472 C73.6915191,70.2602866 77.3317801,67.8414353 82.2931034,67.8414353 C87.4305685,67.8414353 90.9240447,70.4667739 91.3350419,74.7440109 L97.7054986,74.7440109 C97.5,67.310468 91.3643989,62.2072818 82.3811743,62.2072818 C73.3685927,62.2072818 66.9981361,67.2219734 66.9981361,74.5080254 C66.9981361,80.6436481 70.8438956,84.5964051 79.3280522,86.3957944 L83.9370923,87.3692346 C89.6029823,88.6081584 91.83411,90.6730314 91.83411,93.9768283 C91.83411,97.7820943 87.9883504,100.554924 82.6160298,100.554924 C76.9794967,100.554924 72.9869525,98.0180798 72.3998136,93.7998392 L66,93.7998392 C66.4109972,101.380873 72.7814539,106.189077 82.3518173,106.189077 Z M116.816869,106.071085 C123.891892,106.071085 129.234856,102.029833 130.115564,96.3661814 L124.09739,96.3661814 C123.246039,99.0800145 120.574557,100.908902 116.963653,100.908902 C111.884902,100.908902 108.655638,97.3396215 108.655638,91.9414534 L108.655638,91.557977 L130.467847,91.557977 L130.467847,89.3751112 C130.467847,79.9651898 125.124884,73.8885635 116.552656,73.8885635 C107.833644,73.8885635 102.255825,80.3781644 102.255825,90.1125659 C102.255825,99.9059637 107.745573,106.071085 116.816869,106.071085 Z M124.126747,87.1037509 L108.684995,87.1037509 C109.007922,82.4135393 112.119758,79.0212479 116.552656,79.0212479 C120.985555,79.0212479 123.979963,82.3545429 124.126747,87.1037509 Z M144.412395,106.012088 C148.463653,106.012088 152.368127,103.829222 154.1589,100.377935 L154.305685,100.377935 L154.305685,105.481121 L160.382572,105.481121 L160.382572,84.0949359 C160.382572,77.8708186 155.59739,73.8885635 148.11137,73.8885635 C140.478565,73.8885635 135.72274,78.0183096 135.370457,83.6229649 L141.359273,83.6229649 C141.917055,80.8501354 144.206897,79.0802443 147.876514,79.0802443 C151.751631,79.0802443 154.070829,81.1451173 154.070829,84.5964051 L154.070829,86.9857582 L145.61603,87.4872273 C138.276794,87.9002019 134.137465,91.233497 134.137465,96.6611632 C134.137465,102.23632 138.364865,106.012088 144.412395,106.012088 Z M146.173812,100.967898 C142.768406,100.967898 140.537279,99.1980072 140.537279,96.4841741 C140.537279,93.8293374 142.680336,92.1479407 146.467381,91.8824571 L154.070829,91.4104861 L154.070829,93.8588355 C154.070829,97.900087 150.60671,100.967898 146.173812,100.967898 Z M178.114166,106.071085 C185.394688,106.071085 190.649581,102.177324 190.649581,96.5136723 C190.649581,92.029948 188.242311,89.5521004 181.930568,88.077191 L176.910531,86.9267618 C173.56384,86.1598089 172.154706,84.8323906 172.154706,82.8855103 C172.154706,80.4076626 174.444548,78.726266 177.87931,78.726266 C181.4315,78.726266 183.633271,80.6141499 183.985555,83.6229649 L189.945014,83.6229649 C189.739515,77.9003168 185.071761,73.8885635 177.87931,73.8885635 C170.77493,73.8885635 165.960391,77.6938295 165.960391,83.2394885 C165.960391,87.752711 168.866729,90.5845369 174.738117,91.9414534 L179.758155,93.1213809 C183.134203,93.8883337 184.279124,95.0682612 184.279124,97.0741378 C184.279124,99.6109818 181.930568,101.203884 178.114166,101.203884 C174.239049,101.203884 172.037279,99.6109818 171.45014,96.3661814 L165.167754,96.3661814 C165.754893,102.265819 170.39329,106.071085 178.114166,106.071085 Z M208.821528,106.071085 C217.657968,106.071085 223.470643,99.9649601 223.470643,89.965075 C223.470643,79.994688 217.628611,73.8885635 208.821528,73.8885635 C200.014445,73.8885635 194.172414,79.994688 194.172414,89.965075 C194.172414,99.9649601 199.985089,106.071085 208.821528,106.071085 Z M208.821528,100.820407 C203.860205,100.820407 200.630941,96.8676505 200.630941,89.965075 C200.630941,83.0919976 203.860205,79.1392406 208.821528,79.1392406 C213.782852,79.1392406 217.012116,83.0919976 217.012116,89.965075 C217.012116,96.8676505 213.812209,100.820407 208.821528,100.820407 Z M234.714352,105.481121 L234.714352,87.3987328 C234.714352,82.5905284 237.591333,79.4047243 242.053588,79.4047243 C246.45713,79.4047243 248.629543,81.9710665 248.629543,86.6317799 L248.629543,105.481121 L255,105.481121 L255,85.3928561 C255,78.2837932 251.095527,73.9180617 244.284716,73.9180617 C239.528891,73.9180617 236.240913,76.1009275 234.567568,79.6407098 L234.420783,79.6407098 L234.420783,74.449029 L228.373253,74.449029 L228.373253,105.481121 L234.714352,105.481121 Z" id="Season" fill="#747D90" fill-rule="nonzero"></path>
            <rect id="Rectangle" stroke="#B2BCC6" stroke-width="4.5" stroke-linecap="round" stroke-linejoin="round" x="0" y="0.20252379" width="334" height="147" rx="15"></rect>
            <rect id="Rectangle" fill="#E6EBF1" fill-rule="nonzero" x="39" y="20.2246587" width="257" height="13.9942077" rx="6"></rect>
        </g>
        <g id="filter" transform="translate(2119.000000, 747.000000)">
            <path d="M72.5255648,105.189491 L72.5255648,63.206868 L66,63.206868 L66,105.189491 L72.5255648,105.189491 Z M95.1028537,105.189491 C107.629608,105.189491 115,97.3923026 115,84.1254446 C115,70.8876806 107.600476,63.206868 95.1028537,63.206868 L80.274673,63.206868 L80.274673,105.189491 L95.1028537,105.189491 Z M94.491082,99.5452576 L86.8002378,99.5452576 L86.8002378,68.8220075 L94.491082,68.8220075 C103.376338,68.8220075 108.328775,74.291677 108.328775,84.1836326 C108.328775,94.1046821 103.40547,99.5452576 94.491082,99.5452576 Z" id="ID" fill="#747D90" fill-rule="nonzero"></path>
            <rect id="Rectangle" stroke="#B2BCC6" stroke-width="4.5" stroke-linecap="round" stroke-linejoin="round" x="0" y="0.20252379" width="192" height="147" rx="15"></rect>
            <rect id="Rectangle" fill="#E6EBF1" fill-rule="nonzero" x="22" y="20.2246587" width="148" height="13.9942077" rx="6"></rect>
        </g>
        <g id="Group-3" transform="translate(2442.000000, 88.000000)" stroke="#B2BCC6" stroke-linecap="round" stroke-linejoin="round" stroke-width="4.5">
            <line x1="0.386075949" y1="0.5" x2="60.6139241" y2="0.5" id="Line"></line>
            <line x1="1.38607595" y1="23.5" x2="61.6139241" y2="23.5" id="Line-Copy"></line>
            <line x1="1.38607595" y1="46.5" x2="61.6139241" y2="46.5" id="Line-Copy-2"></line>
        </g>
        <g id="Group-4" transform="translate(104.000000, 992.000000)">
            <rect id="Rectangle" stroke="#E6EBF1" stroke-width="4.5" stroke-linecap="round" stroke-linejoin="round" x="0" y="0" width="1297" height="1312"></rect>
            <path d="M723.949346,1255.81356 L743.343,1265.714 L764.033397,1275.77112 L762.971,1275.735 L763.491934,1276 L726.866422,1274.6789 L719.85,1268.376 L714.996007,1264.22531 L715.114,1264.122 L714.982038,1264.00439 L723.949346,1255.81356 Z M585.966355,679.058111 L631.968354,679.466899 L651.815553,692.752512 L687.431758,696.022816 L688.734,697.195 L688.893699,697.209157 L697.90391,705.245446 L697.894,705.285 L725.753653,729.964665 L751.855961,732.100894 L752.273,732.133 L752.281838,731.927361 L766.921019,733.072161 L773.813189,747.158184 L773.726,747.387 L773.862719,747.664846 L786.14937,772.638378 L773.307,790.275 L790.49108,777.964089 L791.125,778.22 L791.391674,778.029813 L804.879687,783.47211 L798.577,799.288 L817.641741,788.881961 L818.273,789.136 L818.586129,788.96527 L838.90006,797.154146 L837.759,808.285 L880.666166,810.717705 L880.775,810.783 L881.712213,810.836183 L926.654054,838.098531 L926.654054,858.341842 L899.186562,891.809426 L887.336769,973.799922 L823.664612,1000.04502 L817.493983,1036.9204 L791.298,1079.467 L791.337067,1079.49238 L790.919,1080.167 L791.359322,1080.44355 L778.352537,1101.05085 L747.371,1090.646 L773.316645,1124.30233 L713.794645,1148.30947 L719.091557,1250.69586 L718.132,1250.604 L718.153316,1251.00726 L707.865916,1250.03807 L707.804,1249.951 L696.170091,1248.82469 L657.224646,1201.70212 L657.221,1201.608 L657.05762,1201.41001 L656.024,1166.666 L633.726836,1149.79606 L633.723,1149.723 L633.467249,1149.53017 L624.893897,954.980763 L624.894,954.977 L624.782,954.907 L624.767775,954.939467 L616.048,949.458 L573.95071,923.191645 L514.974784,829.655341 L515.597308,820.39835 L516.382,820.748 L516.384,820.712 L515.679219,820.39835 L517.69969,790.338559 L517.779,790.244 L517.788705,790.110772 L534.412,770.378 L534.360082,770.350218 L545.74467,756.795034 L549.51,733.517 L545.604041,721.41975 L545.734,721.248 L545.724,721.217 L545.571276,721.41975 L545.275,720.509 L544.631402,721.353511 L540.72348,709.409191 L528.025,708.268 L522.445068,716.028315 L521.803,715.815 L521.645225,716.033772 L498.235691,708.305094 L498.45,708.047 L493.197377,706.313561 L493.141,706.242 L492.58775,706.067695 L476.561056,686.748184 L477.743,686.86 L477.399474,686.426288 L501.126363,688.765967 L501.295646,695.632417 L506.903819,698.531584 L506.902,698.533 L516.466,703.449 L523.441784,698.067106 L523.99,698.022 L524.252571,697.819508 L545.407454,696.09018 L548.188,705.539 L548.224,705.537 L547.923538,704.576771 L557.891861,703.960626 L577.447206,679.058111 L585.97,679.104 L585.966355,679.058111 Z M569.63127,789.473895 L537.373,826.343 L535.153,828.912 L535.192,828.929 L569.687,789.503 L569.63127,789.473895 Z M575.376,792.499 L582.803,796.479 L590.569,800.61 L585.907,798.101 L575.376,792.499 Z M1268.01545,454.452188 L1294,455.151 L1294,599.001 L1270.52739,613.845372 L1251.698,600.926 L1270.52739,613.860631 L1294,599.016 L1294,744.155 L1282.81404,744.155328 L1279.31917,729.65949 L1253.81754,726.200833 L1254.256,724.217 L1253.81754,726.195747 L1249.0121,727.467312 L1237.59916,730.519067 L1237.501,729.964 L1237.59916,730.524154 L1206.03612,739.018206 L1159.51067,751.530403 L1127.78381,719.639559 L1127.812,719.613 L1112.65757,704.431645 L1096.87605,688.562517 L1110.14563,675.592556 L1110.14,675.592 L1096.87605,688.557431 L1084.53479,676.146959 L1084.589,675.592 L1084.53479,675.592556 L1085.02626,663.538123 L1085.2993,656.21391 L1086.50066,624.679104 L1087.70202,592.279634 L1087.75663,592.279634 L1088.19348,580.530376 L1128.27527,531.910826 L1128.279,531.91 L1175.56523,474.593773 L1224.82105,469.81269 L1224.82105,469.843207 L1268.01545,454.452188 Z M697.849302,705.245446 L689.992,741.383 L690.05,741.363 L697.894,705.285 L697.849302,705.245446 Z M1142.69161,706.567874 L1153.23083,717.655918 L1159.51067,724.217192 L1153.245,717.643 L1142.69161,706.567874 Z M1142.517,706.72 L1127.812,719.613 L1127.83841,719.639559 L1142.517,706.72 Z M548.188,705.539 L548.006763,705.550622 L550.418,713.153 L548.35625,706.11011 L548.188,705.539 Z M668.852418,163.823245 L668.955,164.417 L669.027549,164.387923 L671.939,181.18 L684.577458,182.40586 L684.47,182.909 L684.754462,182.93751 L681.847,196.561 L708.765628,179.944822 L728.585731,181.993139 L728.107,182.457 L728.767978,182.525523 L707.634937,203.002801 L655.924,208.311 L662.627923,217.563536 L662.48,217.588 L662.802312,218.032697 L629.109584,223.759824 L569.95,264.544 L628.939208,294.421273 L628.936,294.666 L629.109584,294.753828 L628.784,325.221 L645.319458,325.171502 L714.280312,231.519605 L739.778902,231.519605 L758.561589,246.428498 L758.558,246.696 L758.747407,246.846354 L758.48,267.718 L797.21898,253.490605 L797.255,253.952 L797.409403,253.895909 L800.989,298.916 L830.580089,303.699843 L830.573,303.983 L830.774487,304.015905 L830.556058,313.257638 L789.709768,333.506035 L735.375466,335.68804 L701.464308,350.845092 L701.464,359.152 L736.721255,344.222886 L742.235939,349.13477 L742.204,349.179 L742.419813,349.370077 L731.139,365.663 L742.345141,375.085211 L766.806315,376.170513 L766.326,376.327 L766.993115,376.357767 L716.863578,392.760952 L716.814,392.559 L716.682749,392.602906 L714.935522,385.48475 L732.635,377.617 L707.673,381.626 L707.164039,383.108319 L697.026484,384.729011 L548.196209,502.330492 L547.812626,555.205576 L533.236465,554.85105 L533.224,554.768 L532.389064,554.748129 L526.367,512.366 L435.203563,512.100227 L396.527419,556.978208 L396.349,556.656 L396.154675,556.884358 L396.138,556.855 L379.570426,576.222314 L399.54033,616.302035 L440.118,616.286 L454.782735,593.778082 L455.33,593.787 L455.518313,593.500336 L474.275934,593.805512 L473.549656,611.149655 L472.917,611.587 L458.99134,636.072324 L458.915,636.2 L459.014923,636.670184 L456.494,641.003 L499.119,640.618 L499.133569,640.607748 L499.133,640.618 L500.299941,640.607748 L500.005,640.83 L501.18097,688.765967 L477.454081,686.426288 L477.427,686.392 L476.837499,686.333603 L463.143425,668.957778 L463.243,668.878 L459.641167,667.352817 L459.594,667.332 L459.538008,667.523002 L447.431,662.235 L444.79,661.128 L444.425915,661.755448 L422.890532,651.423198 L423.141,650.997 L422.747,650.812 L422.710224,650.873338 L422.547,650.718 L422.442648,650.669887 L422.461,650.637 L422.444,650.621 L422.107008,651.181598 L407.498652,637.237836 L390.89973,641.359897 L324.384393,615.40618 L283.594121,525.73863 L283.099199,503.250497 L270.399828,503.250497 L270.399,527.207 L292.007557,570.118804 L291.853,570.229 L291.931653,570.384113 L280.744241,578.475566 L253.441952,530.130406 L253.428,530.005 L253.361943,529.886495 L249.596,492.803 L249.258876,492.763343 L223.690318,469.12656 L223.690318,416.656648 L223.917,416.435 L223.917666,415.964466 L293.705845,347.401694 L505.636929,347.401694 L530.488729,357.991286 L530.249,358.472 L531.329509,358.929617 L526.846,367.884 L537.587683,367.884059 L547.853863,363.240305 L556.044964,367.884059 L573.35549,368.433375 L573.635,369.305 L574.345623,369.32737 L575.825158,373.900761 L549.467513,379.1123 L527.585,411.849 L537.86072,411.849682 L557.519362,384.816216 L568.113186,378.260028 L577.178004,378.260028 L577.072,379.112 L578.181454,379.1123 L575.935,397.001 L586.570466,396.011072 L598.092615,387.669607 L624.686389,387.669607 L637.300685,379.623145 L678.03776,379.623145 L695.621323,365.42231 L695.610401,365.452828 L710.84,365.452 L710.934,365.178 L695.348286,365.17817 L677.764723,379.379005 L637.027648,379.379005 L624.413353,387.425467 L606.229109,387.425467 L606.169,387.257 L606.061458,387.25792 L600.515,371.781 L586.30289,372.716006 L577.784146,366.856635 L577.749,366.742 L577.619884,366.652464 L572.4,349.463 L530.330368,357.782749 L505.429421,347.198244 L293.44373,347.198244 L293.443,346.959 L293.313339,346.95907 L293.313,338.487 L274.533209,322.621441 L274.567,322.475 L274.40507,322.338506 L284.959411,277.265346 L284.978,277.246 L284.922,277.193 L284.509289,277.605471 L256.997925,252.112846 L166.714,255.033 L88.5078468,289.81507 L73.50175,288.721524 L73.534,288.701 L73,288.662209 L113.983537,263.715097 L92.6058,264.043415 L117.494698,232.8027 L117.923,232.653 L118.0668,232.472586 L168.288,214.925 L128.993205,216.235272 L137.989192,204.602715 L138.187,204.604 L138.593698,204.076002 L185.4,204.612 L185.400771,187.787785 L186.08,187.533 L186.080241,187.143846 L228.291714,171.305235 L332.646339,170.755919 L351.905,178.147 L352.222179,177.89141 L478.404707,175.430373 L544.417116,200.045842 L571.608332,188.14828 L623.042318,197.172084 L652.444,184.083 L646.966184,173.512672 L647.057,173.474 L646.793681,172.96424 L668.852418,163.823245 Z M1231.31932,655.450971 L1257.9677,678.033961 L1243.631,682.946 L1258.017,678.029 L1231.31932,655.450971 Z M1110.14563,675.58747 L1084.5894,675.58747 L1084.589,675.592 L1110.14,675.592 L1110.14563,675.58747 Z M1268.646,641.359 L1183.31947,673.558053 L1231.31932,655.450971 L1268.646,641.359 Z M429.834,639.069 L429.444,639.069 L422.461,650.637 L422.547,650.718 L422.747,650.812 L429.834,639.069 Z M443.157,623.344 L443.011,623.344 L445.137458,638.564591 L444.64,638.564 L444.668,638.768 L445.264,638.768 L443.157,623.344 Z M562.106378,614.608311 L567.785542,619.948883 L567.785,620.302 L568.420222,620.901937 L568.420222,626.188862 L552.352955,626.188862 L546.745587,621.707564 L546.745,621.489 L545.833391,620.762684 L545.833391,614.608311 L562.106378,614.608311 Z M655.118761,616.576271 L655.108,616.591 L655.157284,616.591952 L651.826237,621.729074 L642.706811,621.729074 L642.931,621.382 L642.733255,621.382567 L646.046921,616.576271 L655.118761,616.576271 Z M607.64099,606.002421 L607.64,606.934 L633.685679,609.623777 L631.878,612.095 L629.917521,614.896748 L615.590687,614.896748 L606.608864,621.382567 L606.608,617.202 L586.231901,617.202303 L586.231,616.576 L585.966355,616.576271 L585.966355,613.294732 L595.363,613.294 L590.491273,606.877197 L591.066,606.877 L590.392066,606.002421 L607.64099,606.002421 Z M473.28208,610.946205 L472.746,611.318 L472.741332,611.436787 L469.146,613.942 L468.912,614.366 L472.917,611.587 L473.28208,610.946205 Z M541.13716,574.884628 L586.29743,605.198732 L584.799,605.198 L585.966355,606.002421 L548.60337,606.002421 L549.36,605.198 L548.509151,605.198732 L556.404,597.021 L535.26716,583.551538 L508.556945,583.551538 L509.081,583.073 L508.006887,583.073505 L517.240989,574.884628 L541.13716,574.884628 Z M1157.98166,536.549494 L1157.981,536.571 L1197.95424,564.050897 L1251.571,600.838 L1157.98166,536.549494 Z M1131.00564,549.402471 L1130.95103,549.402471 L1130.95103,578.241559 L1121.0125,592.279634 L1131.00564,578.241559 L1131.00564,549.402471 Z M375.639,519.301 L375.611,519.302 L396.138,556.855 L396.149214,556.843668 L375.639,519.301 Z M1157.92706,536.534235 L1157.92706,549.402471 L1157.98166,549.402471 L1157.981,536.571 L1157.92706,536.534235 Z M1157.981,531.895 L1153.28543,531.895567 L1134.528,531.91 L1157.98166,531.910826 L1157.981,531.895 Z M1224.821,494.196 L1157.98166,528.177512 L1157.981,528.208 L1224.82105,494.226733 L1224.821,494.196 Z M346.034,513.687 L350.404646,519.861478 L350.437,519.86 L346.034,513.687 Z M1230.06335,395.151494 L1256.93016,411.157951 L1218.92345,456.608761 L1180.426,453.928 L1180.42528,453.933389 L1175.51062,453.587524 L1166.71884,439.117117 L1167.64716,406.626094 L1186.103,409.499 L1186.10444,409.494744 L1167.64716,406.621008 L1167.9202,395.568567 L1230.06335,395.151494 Z M1265.72194,425.185853 L1265.72194,434.803969 L1253.81754,434.803969 L1265.72194,425.185853 Z M1294,311.578 L1294,339.848 L1292.316,339.03 L1292.31572,339.055143 L1294,339.875 L1294,401.336 L1265.23048,401.143107 L1256.93016,411.137606 L1230.06335,395.131149 L1227.66063,365.208687 L1209.53099,356.083939 L1209.53099,350.077067 L1224.93026,350.077067 L1266.8687,326.665017 L1276.86184,321.105735 L1293.84472,311.635121 L1292.86179,329.014868 L1292.767,330.962 L1293.84472,311.665639 L1294,311.578 Z M633.128,388.481 L625.855364,388.481927 L613.546,396.275 L620.863875,396.275557 L633.128,388.481 Z M627.138,387.669 L624.686389,387.669607 L623.413,388.481 L625.855364,388.481927 L627.138,387.669 Z M813.262592,328.198547 L813.262,329.318 L814.337678,328.302792 L814.337,328.81 L814.610715,328.552019 L814.61,329.821 L815.326843,329.159806 L815.326,339.812 L822.952377,341.47166 L823.112,341.703 L824.057785,341.913621 L824.206,342.134 L824.330821,342.162848 L824.425,342.304 L825.016628,342.432919 L835.740717,357.997579 L835.003,357.997 L835.088467,358.123528 L783.32071,358.123528 L783.583,357.874 L783.047673,357.874302 L783.934,357.036 L782.070193,357.03632 L813.262592,328.198547 Z M785.173,357.036 L784.47,357.036 L783.583,357.874 L784.267,357.874 L785.173,357.036 Z M270.00626,330.037206 L270.497,330.411 L270.860016,330.121065 L284.58572,340.552369 L284.58572,346.46247 L284.373,346.462 L284.373451,347.152468 L273.861538,347.152468 L263.846552,334.955619 L270.00626,330.037206 Z M823.265,341.925 L823.367,342.074 L824.302,342.277 L824.206,342.134 L823.265,341.925 Z M1273.364,329.821 L1292.316,339.03 L1292.623,333.531 L1292.587,333.549 L1292.31572,339.024626 L1286.90959,336.400116 L1273.364,329.821 Z M1208.76649,272.028422 L1222.47293,272.420064 L1240.43875,310.872182 L1254.80048,313.695056 L1253.81754,322.153505 L1249.28514,322.153505 L1247.86534,329.732031 L1225.69476,333.007581 L1203.90644,336.695119 L1220.39785,322.128073 L1212.26136,311.095978 L1221.49,306.386102 L1221.27157,293.828128 L1208.76649,292.734583 L1208.76649,272.028422 Z M814.337,328.81 L813.262,329.826 L813.262,331.067 L814.337,330.073 L814.337,328.81 Z M1187.85188,293.685713 L1203.90644,294.697879 L1203.90644,302.902014 L1197.08052,305.155227 L1198.3911,321.746604 L1180.80753,319.493391 L1180.80753,327.138039 L1171.57889,327.193987 L1171.57889,304.799189 L1187.85188,293.685713 Z M1294,238.455 L1294,268.258 L1283.46933,245.244182 L1294,238.455 Z M266.284,247.636 L266.1346,247.756794 L276.149586,258.448111 L286.404844,258.448111 L295.235,266.94 L295.36633,266.809759 L286.646,258.407 L276.40624,258.407421 L276.072,258.05 L276.021255,258.050912 L266.284,247.636 Z M1107.09442,85.9612591 L1190.79188,93.8693361 L1189.746,94.855 L1192.11125,95.0774718 L1181.84507,104.690501 L1152.73936,110.234524 L1105.50401,180.170585 L1080.43924,187.062466 L1044.61683,189.122401 L1026.86944,201.782099 L979.524879,214.787664 L945.995973,247.792398 L924.043823,247.792398 L923.682,247.452 L923.471885,247.452785 L904.957158,229.871892 L904.085877,198.566955 L933.546075,182.84799 L933.546075,159.778503 L924.067,144.414 L918.36466,135.248745 L856.767581,134.429858 L856.767,133.45 L856.383226,133.445527 L856.383226,121.885208 L896.734441,110.345349 L947.2143,93.8693361 L1034.77807,93.8693361 L1107.09442,85.9612591 Z M720.849914,148.900264 L731.443737,148.976558 L731.225,149.477 L731.486872,149.479435 L724.341,165.668 L746.023897,149.078284 L755.416359,149.169836 L818.433229,173.141375 L818.435,173.225 L818.524003,173.25886 L819.015738,189.795846 L830.380285,193.589743 L836.772842,204.525976 L836.532,204.672 L836.67208,204.915235 L825.368361,211.939359 L805.793,205.451 L805.793525,228.405503 L805.709,228.438 L805.709719,229.181777 L800.13977,231.434989 L783.575,224.09 L789.019891,235.127407 L788.597,235.296 L788.945266,236.012622 L782.173956,238.769375 L757.327616,219.629782 L728.003475,219.629782 L728.003475,211.939359 L728.044,211.939 L728.044726,211.438075 L756.947828,211.438075 L769.787581,201.803179 L794.738,202.195 L764.913,177.337 L757.384926,171.166711 L695.371654,174.254883 L695.482,174.146 L695.348286,174.15354 L720.849914,148.900264 Z M1151.42878,201.756668 L1163.71543,213.363511 L1163.71543,216.527164 L1138.9237,227.76271 L1097.47673,222.233947 L1097.47673,211.959704 L1109.21731,212.214017 L1113.5859,206.669994 L1134.22747,207.076895 L1151.42878,201.756668 Z M680.462466,211.886199 L681.713,212.391 L682.297132,211.949531 L701.464308,219.639955 L698.078653,227.340551 L696.186,227.154 L696.137373,227.266344 L664.40789,224.120174 L680.462466,211.886199 Z M636.052589,173.435835 L640.659,180.36 L640.959376,180.806367 L625.887751,187.962734 L625.606,187.625 L625.130825,187.854722 L618.99437,180.376884 L636.052589,173.435835 Z M550.966481,151.606154 L567.239468,158.604847 L582.747953,152.999789 L583.008,153.777 L583.32458,153.665712 L586.59,163.236 L595.089211,152.999789 L609.723978,152.999789 L609.169,153.665 L610.469869,153.665712 L595.856,170.928 L614.092565,178.771864 L614.025,178.785 L614.865868,179.140823 L595.303675,183.248415 L569.202435,177.577224 L545.738794,186.893462 L511.653322,174.746656 L512.279,174.6 L511.5236,174.326473 L538.18,168.001 L521.500358,161.574208 L522.21,161.353 L521.309235,161.000475 L550.966481,151.606154 Z M667.007077,145.985838 L666.693,146.766 L667.504266,146.520581 L662.027521,160.181589 L641.116311,166.707022 L631.379875,157.48248 L631.928,157.315 L631.348485,156.768707 L667.007077,145.985838 Z M531.198624,142.954428 L543.867527,148.422156 L542.787,148.764 L543.649211,149.143128 L489.215698,166.707022 L479.657432,156.068291 L479.825,156.028 L479.15783,155.298778 L531.198624,142.954428 Z M695.785145,145.985838 L701.464308,153.004876 L700.186,153.32 L700.532281,153.758872 L672.208412,160.939467 L669.568517,152.069938 L670.848,151.788 L670.720376,151.3671 L695.785145,145.985838 Z M725.790992,127.2954 L726.883,127.718 L727.020543,127.609184 L741.621,133.241 L787.23082,133.241431 L786.762,133.549 L788.563014,133.549935 L772.726886,143.936076 L712.058132,139.485599 L712.305,139.289 L710.853536,139.182371 L725.790992,127.2954 Z M920.375005,85 L919.826,85.296 L921.804922,85.1592667 L890.132665,101.806592 L882.908,103.152 L847.703,109.872 L831.213,117.033 L795.189128,133.062954 L789.46167,128.450326 L753.896881,128.450326 L749.042178,123.837699 L751.076,123.837 L750.283269,123.102759 L780.956,123.102 L774.079353,114.61765 L776.034,114.92 L775.348038,114.094994 L792.495,116.69 L787.279781,107.906954 L788.77,107.878 L788.563014,107.538806 L831.448,106.745 L837.135943,99.5250912 L794.752751,100.363277 L794.752751,93.892063 L920.375005,85 Z M763.254928,97.496368 L772.617,104.414 L773.109137,104.756623 L761.583,111.629 L759.61573,112.876513 L748.732,110.84 L736.249183,108.642525 L740.683,106.903 L763.254928,97.496368 Z" id="Combined-Shape" fill="#E6EBF1" fill-rule="nonzero"></path>
            <g id="map-pin" transform="translate(613.000000, 632.000000)" fill="#2F52BB" fill-opacity="0.7">
                <path d="M36,0 C55.8514286,0 72,14.915 72,33.25 C72,58.1875 36,95 36,95 C36,95 0,58.1875 0,33.25 C0,14.915 16.1485714,0 36,0 Z" id="Combined-Shape"></path>
            </g>
            <g id="map-pin" transform="translate(447.000000, 581.000000)" fill="#2F52BB" fill-opacity="0.7">
                <path d="M36,0 C55.8514286,0 72,14.915 72,33.25 C72,58.1875 36,95 36,95 C36,95 0,58.1875 0,33.25 C0,14.915 16.1485714,0 36,0 Z" id="Combined-Shape"></path>
            </g>
            <g id="map-pin" transform="translate(243.000000, 148.000000)" fill="#2F52BB" fill-opacity="0.7">
                <path d="M36,0 C55.8514286,0 72,14.915 72,33.25 C72,58.1875 36,95 36,95 C36,95 0,58.1875 0,33.25 C0,14.915 16.1485714,0 36,0 Z" id="Combined-Shape"></path>
            </g>
            <g id="map-pin" transform="translate(208.000000, 283.000000)" fill="#2F52BB" fill-opacity="0.7">
                <path d="M36,0 C55.8514286,0 72,14.915 72,33.25 C72,58.1875 36,95 36,95 C36,95 0,58.1875 0,33.25 C0,14.915 16.1485714,0 36,0 Z" id="Combined-Shape"></path>
            </g>
            <g id="map-pin" transform="translate(109.000000, 164.000000)" fill="#2F52BB" fill-opacity="0.7">
                <path d="M36,0 C55.8514286,0 72,14.915 72,33.25 C72,58.1875 36,95 36,95 C36,95 0,58.1875 0,33.25 C0,14.915 16.1485714,0 36,0 Z" id="Combined-Shape"></path>
            </g>
            <g id="map-pin" transform="translate(887.000000, 112.000000)" fill="#2F52BB" fill-opacity="0.7">
                <path d="M36,0 C55.8514286,0 72,14.915 72,33.25 C72,58.1875 36,95 36,95 C36,95 0,58.1875 0,33.25 C0,14.915 16.1485714,0 36,0 Z" id="Combined-Shape"></path>
            </g>
        </g>
    </g>
</svg>
