<?xml version="1.0" standalone="no"?>
<!DOCTYPE svg PUBLIC "-//W3C//DTD SVG 20010904//EN"
 "http://www.w3.org/TR/2001/REC-SVG-20010904/DTD/svg10.dtd">
<svg version="1.0" xmlns="http://www.w3.org/2000/svg"
 width="700.000000pt" height="700.000000pt" viewBox="0 0 700.000000 700.000000"
 preserveAspectRatio="xMidYMid meet">
<metadata>
Created by potrace 1.11, written by Peter Selinger 2001-2013
</metadata>
<g transform="translate(0.000000,700.000000) scale(0.100000,-0.100000)"
fill="#000000" stroke="none">
<path d="M3219 6996 c-2 -2 -44 -7 -94 -11 -202 -15 -532 -83 -732 -151 -284
-95 -571 -233 -801 -384 -41 -28 -78 -50 -83 -50 -4 0 -9 -3 -11 -7 -2 -5 -48
-41 -102 -82 -146 -109 -234 -186 -391 -345 -315 -317 -564 -686 -733 -1086
-40 -97 -99 -258 -122 -340 -7 -25 -19 -63 -26 -86 -19 -62 -72 -328 -84 -429
-6 -49 -13 -101 -16 -115 -26 -156 -25 -720 1 -844 2 -12 7 -41 10 -66 3 -25
9 -70 15 -100 5 -30 12 -71 15 -90 43 -254 170 -624 307 -895 112 -220 176
-325 321 -525 163 -224 448 -515 657 -670 18 -14 45 -34 59 -46 37 -29 195
-135 271 -181 317 -192 702 -343 1062 -417 165 -34 175 -35 238 -42 30 -3 61
-7 67 -9 82 -26 771 -26 913 0 14 2 45 7 70 10 63 8 81 11 115 18 17 4 46 9
65 12 19 3 42 8 50 10 8 2 27 6 41 9 53 9 219 57 336 97 574 196 1103 551
1498 1003 33 38 65 74 70 80 22 24 153 198 200 267 190 277 363 642 454 959
16 58 32 116 34 130 3 14 12 52 20 85 8 33 21 94 27 135 7 41 14 84 16 95 8
43 15 94 30 240 3 22 6 148 8 280 3 247 -2 334 -29 545 -8 59 -27 168 -36 210
-6 25 -13 56 -15 70 -20 103 -110 404 -149 495 -7 17 -27 66 -46 110 -46 113
-175 363 -243 472 -144 233 -298 427 -500 629 -312 311 -625 528 -1031 714
-154 71 -521 193 -640 213 -16 3 -61 12 -100 20 -38 8 -90 18 -115 21 -25 3
-55 8 -67 10 -12 3 -53 8 -90 12 -37 3 -79 8 -93 11 -31 5 -616 13 -621 9z
m571 -497 c41 -4 100 -11 130 -14 49 -5 271 -46 325 -59 175 -42 393 -124 580
-218 101 -50 263 -142 300 -171 6 -4 50 -35 99 -70 273 -190 553 -491 747
-801 227 -363 397 -834 445 -1232 3 -27 7 -60 9 -74 40 -310 19 -750 -51
-1050 -9 -36 -17 -72 -19 -80 -53 -243 -191 -576 -348 -838 -232 -386 -611
-768 -992 -997 -279 -169 -658 -310 -965 -361 -14 -2 -39 -6 -56 -9 -17 -3
-53 -8 -80 -11 -27 -2 -83 -9 -124 -14 -79 -9 -509 -6 -595 4 -27 4 -70 9 -95
11 -228 26 -506 102 -752 205 -782 330 -1373 984 -1642 1819 -39 122 -85 302
-101 401 -3 19 -8 42 -10 50 -2 8 -7 42 -11 75 -3 33 -8 62 -9 65 -2 3 -7 52
-11 110 -14 188 -8 538 11 650 2 14 7 45 10 70 64 502 293 1034 622 1445 501
626 1175 999 1963 1089 132 15 509 18 620 5z"/>
<path d="M3256 6242 c-4 -4 -40 -10 -79 -13 -40 -4 -106 -12 -147 -19 -101
-16 -103 -16 -120 -23 -8 -3 -33 -8 -55 -11 -68 -9 -97 -16 -173 -41 -40 -14
-79 -25 -87 -25 -23 0 -147 -58 -170 -79 -11 -11 -76 -46 -145 -79 -69 -33
-145 -77 -170 -99 -25 -21 -63 -52 -85 -68 -59 -44 -81 -72 -119 -150 -35 -73
-85 -142 -186 -260 -33 -38 -60 -75 -60 -82 0 -6 -3 -13 -7 -15 -12 -5 -40
-65 -64 -133 -25 -75 -26 -138 -1 -193 17 -38 18 -49 7 -115 -7 -39 -11 -81
-9 -92 17 -85 17 -82 -14 -105 l-30 -23 38 -48 c32 -41 37 -53 31 -77 -15 -50
7 -125 42 -143 33 -18 39 5 23 96 -20 121 -29 174 -30 191 -1 10 -6 32 -11 48
-10 38 11 136 31 136 15 0 17 -11 15 -70 -1 -19 8 -71 20 -115 11 -44 25 -98
30 -120 6 -22 30 -83 54 -135 51 -112 51 -109 41 -182 -5 -32 -5 -69 -2 -84
16 -61 164 -186 291 -245 82 -38 142 -47 195 -29 31 10 45 10 67 1 37 -16 75
-50 98 -88 21 -36 47 -52 90 -57 57 -6 196 -88 276 -163 38 -36 49 -53 49 -77
0 -38 8 -51 36 -60 12 -4 32 -16 45 -28 33 -28 120 -85 179 -114 64 -32 126
-33 136 -1 10 34 34 57 60 57 17 0 25 -9 35 -37 6 -21 25 -53 40 -71 26 -29
29 -40 29 -100 0 -37 3 -83 6 -102 5 -31 1 -40 -31 -71 -20 -20 -69 -76 -110
-125 -80 -97 -72 -76 -111 -294 -17 -101 0 -149 98 -275 58 -73 102 -139 149
-222 88 -155 207 -271 358 -349 93 -48 106 -72 98 -189 -3 -44 -7 -89 -10
-100 -13 -50 -61 -184 -82 -225 -12 -25 -32 -77 -44 -117 -13 -40 -34 -89 -48
-110 -15 -21 -49 -81 -78 -133 -28 -52 -57 -105 -65 -116 -19 -31 -7 -51 42
-65 123 -34 268 -1 364 82 63 56 127 91 276 150 127 50 202 91 248 134 19 19
76 55 125 80 84 44 163 97 210 142 11 10 34 27 52 38 17 10 58 52 90 94 83
108 104 125 274 231 84 52 169 111 189 130 43 42 146 223 193 340 60 146 90
206 149 298 27 43 58 114 68 155 12 54 8 149 -7 154 -7 3 -14 3 -16 1 -1 -2
-25 13 -52 33 -55 41 -114 61 -166 56 -42 -4 -80 8 -139 44 -25 15 -56 30 -70
34 -62 17 -88 36 -108 77 -11 24 -38 60 -61 81 -23 21 -47 52 -55 70 -38 88
-148 148 -295 161 -35 3 -83 16 -107 28 -56 27 -140 107 -194 181 -23 32 -53
63 -68 68 -27 11 -207 6 -289 -6 -61 -10 -145 18 -193 63 -67 63 -164 83 -213
44 -7 -5 -60 -28 -119 -52 -111 -44 -128 -56 -157 -112 -10 -18 -34 -41 -53
-51 -35 -17 -37 -17 -89 4 -54 21 -85 21 -159 2 -57 -15 -113 2 -164 50 -44
42 -45 43 -44 107 1 54 19 128 51 210 1 3 -7 20 -18 38 -13 22 -38 42 -75 59
-48 22 -59 24 -88 13 -42 -15 -122 -11 -144 8 -30 25 -21 70 38 187 43 86 55
119 50 139 -6 25 -10 26 -70 26 -89 0 -118 -13 -180 -85 -123 -140 -240 -132
-322 22 -29 55 -28 135 4 268 12 50 24 102 27 116 7 36 71 98 140 134 55 29
64 30 190 31 123 2 136 4 176 27 38 22 53 25 115 22 137 -7 198 -38 208 -108
7 -45 62 -157 77 -157 8 0 10 -13 6 -35 -5 -29 -3 -35 12 -35 21 0 56 35 69
70 16 43 5 124 -27 204 -17 43 -31 88 -31 101 0 38 172 181 272 225 52 23 65
45 71 122 3 42 11 68 33 99 16 23 38 56 50 73 12 17 27 31 35 31 20 0 92 26
107 38 7 5 12 17 11 26 -4 47 2 61 29 67 15 4 48 17 74 30 61 31 70 30 96 -5
24 -32 33 -32 113 3 20 8 38 13 41 11 2 -3 17 8 32 24 20 21 26 35 21 50 -5
18 -14 21 -63 21 -60 0 -109 21 -145 64 -13 15 -31 21 -62 21 -58 1 -64 10
-24 31 25 12 64 18 144 20 60 2 127 6 148 10 l37 7 0 -55 c0 -30 5 -59 12 -66
13 -13 199 -18 211 -5 10 9 -49 62 -92 81 -20 10 -67 49 -105 89 -53 57 -80
77 -124 93 -31 12 -97 45 -147 74 -133 78 -125 76 -177 65 -38 -9 -53 -7 -89
10 -134 61 -193 68 -234 27 -20 -20 -24 -31 -18 -58 12 -58 9 -72 -18 -85 -35
-17 -50 -36 -53 -67 -8 -76 -75 -73 -85 5 -5 35 -10 43 -31 46 -39 5 -222 52
-247 63 -15 6 -23 18 -23 34 0 19 13 30 71 61 76 40 132 46 229 28 63 -12 89
-7 83 17 -3 10 -11 21 -19 24 -23 9 -5 32 36 46 47 16 73 2 64 -34 -5 -21 -2
-23 53 -23 32 0 104 -13 160 -28 107 -29 145 -28 162 4 25 45 -28 96 -110 106
-24 2 -57 7 -74 10 -16 4 -47 8 -67 9 -21 2 -46 10 -55 18 -14 11 -52 15 -169
16 -83 1 -155 -2 -158 -6z"/>
<path d="M3175 4328 c-22 -4 -59 -8 -81 -9 -56 -1 -104 -31 -104 -64 0 -22 4
-25 28 -22 15 2 35 0 44 -5 28 -14 90 -16 128 -3 19 6 41 10 48 9 6 -1 16 -2
22 -3 5 0 20 -12 33 -25 13 -13 45 -33 70 -44 26 -12 47 -27 47 -35 0 -25 43
-35 135 -33 141 3 149 18 38 75 -43 21 -101 54 -129 73 -87 59 -216 99 -279
86z"/>
<path d="M3766 4138 c-14 -8 -16 -17 -12 -43 8 -39 -3 -49 -51 -50 -42 -2 -46
-7 -32 -39 12 -25 15 -26 63 -21 28 4 60 8 72 10 11 3 30 -3 43 -11 21 -15 24
-15 45 5 13 12 36 21 54 21 17 0 34 5 37 10 9 15 19 12 45 -10 28 -24 25 -24
44 -4 15 14 14 17 -6 34 -56 43 -141 77 -218 87 -25 3 -50 9 -55 13 -6 5 -18
4 -29 -2z"/>
<path d="M3408 4029 c-27 -15 -22 -26 25 -49 56 -28 111 -25 115 7 3 18 -4 24
-35 32 -74 19 -88 21 -105 10z"/>
</g>
</svg>
