<svg xmlns="http://www.w3.org/2000/svg" viewBox="0 0 1304 1044">
  <defs/>
  <g fill="none" fill-rule="evenodd">
    <g fill-rule="nonzero" transform="translate(1023 86)">
      <path fill="#B8AA97" d="M138.05 748.79h29.31v22.85h-29.31z"/>
      <path fill="#CAAD3E" d="M80.91 161.8c-3.3-2.48-51.93-65.83-58.27-91.3-6.34-25.49 0 77.94 0 77.94l19.03 49.9 39.24-36.54z"/>
      <path fill="#13ABBA" d="M77.6 529.99l-34.08 59.62L35 404.35l54.3 1.78z"/>
      <path fill="#EED268" d="M112.87 152.28c86.35 18.22 59.5 217.22 42.75 233.52-16.74 16.3-140.1 19.33-152 5.7-11.9-13.63.88-262.11 109.25-239.22z"/>
      <path fill="#B8AA97" d="M125 174.4c-1 6.62-40.08 1.91-38.38-7.19l9.94-53 38.38 7.2s-8.93 46.38-9.94 52.99z"/>
      <ellipse cx="109.35" cy="88.02" fill="#C0B19D" rx="54.17" ry="38.97" transform="rotate(-79.39 109.35 88.02)"/>
      <path fill="#1F2629" d="M80.23 0c10.25 0 14.56 7 41 7 12.86 0 39 2.74 39 36 0 22.34 13 24 13 38 0 7-6.19 24-22 24-7 0-14-12-14-16s4-7 4-10c.08-14.45-46.73-22.48-49.85-35.48-3.39 3.11-11.19 12.7-14.1 18.91-4-2.05-3.54-5.38-8-8.43-3.85-2.61-15.85-9.29-15.85-22.59C53.38 24.8 60.27 0 80.23 0z"/>
      <circle cx="142.68" cy="97.97" r="12.53" fill="#C0B19D"/>
      <path fill="#4BC8D5" d="M152.95 387.79l19.56 363.03h-35.79L41.46 409.9v-20.78z"/>
      <path fill="#F7E08D" d="M171.73 207.19c23 25.92-33.5 100.44-44.39 97.36-12.83-3.63-51.87-40.17-52.18-52.82-.3-12.65 68.2-76.49 96.57-44.54z"/>
      <path fill="#214145" d="M138.05 765.68v18.63L184 842.65l13.74-6.68-28.14-70.29z"/>
    </g>
    <path fill="#D7E8ED" d="M1069.32 888.39l-945.03 1.18-1.09-834.9 945.03-1.19 1.09 834.91"/>
    <path fill="#3082CE" d="M1068.67 213l-946.14 1.4-.17-160.36 946.13-1.4.18 160.36"/>
    <path fill="#1764AE" d="M281.39 128.8h-29.64a11.9 11.9 0 01-11.93-11.77l-.22-99.89a11.85 11.85 0 0111.88-11.79h29.64a11.9 11.9 0 0111.93 11.77l.22 99.88a11.86 11.86 0 01-11.88 11.8M940 128.43l-29.65.03a11.93 11.93 0 01-11.92-11.85l-.16-100.58a11.91 11.91 0 0111.88-11.88l29.65-.03c6.54 0 11.91 5.33 11.92 11.86l.16 100.58A11.91 11.91 0 01940 128.43"/>
    <g fill="#B6D3D9">
      <path d="M237.71 320.87l141.57-1.24.71 81.74-141.56 1.23zM238.81 446.54l141.56-1.23.72 81.73-141.57 1.24zM239.9 572.22l141.57-1.24.71 81.74-141.56 1.24zM241 697.9l141.57-1.24.71 81.73-141.56 1.24zM423.25 319.25L564.8 318l.71 81.74-141.56 1.24zM424.34 444.92l141.57-1.23.71 81.74-141.56 1.23zM425.44 570.6L567 569.36l.72 81.74-141.57 1.24zM426.54 696.27l141.56-1.23.71 81.74L427.25 778zM608.77 317.63l141.56-1.24.72 81.74-141.57 1.24zM609.87 443.3l141.56-1.23.71 81.74-141.56 1.23zM610.96 568.98l141.57-1.24.71 81.74-141.56 1.24zM612.06 694.66l141.56-1.24.72 81.74-141.57 1.23zM794.3 316.01l141.56-1.23.71 81.73-141.56 1.24zM795.39 441.69l141.56-1.24.72 81.74-141.57 1.23zM796.49 567.36l141.56-1.23.71 81.73-141.56 1.24zM797.58 693.04l141.57-1.24.71 81.74-141.56 1.23z"/>
    </g>
    <path fill="#F67165" d="M957.34 330.74c-6.14-8.97-13.16-17.36-21.95-23.87-9.15-6.78-19.82-11.47-30.57-15.07-23.66-7.9-50.01-10.13-74.14-3.02a107.48 107.48 0 00-49.12 30.72c-11.7 12.92-20.4 29.84-20.06 47.61.34 17.35 9.4 33.04 23.32 43.16 14.46 10.51 32.6 15.26 50.16 16.98 18.73 1.83 38 .38 56.24-4.27 15.75-4.02 30.16-10.8 42.51-21.46 10.9-9.4 21.1-21.8 24.13-36.2 3-14.25-3.9-26.7-16-34.18a70.07 70.07 0 00-12.78-6.05c-2.28-.83-3.6 2.7-1.31 3.53 13.22 4.85 27.23 14.05 27.1 29.73-.12 13.36-8.72 25.66-17.73 34.83a94.23 94.23 0 01-37.23 23.34c-16.57 5.6-34.43 7.96-51.89 7.69-31.61-.5-72.83-11.2-81.4-46.46-8.66-35.71 23.24-68.09 53.35-81.12 21.05-9.11 44.55-10.23 66.9-5.76 21.33 4.28 43.05 13.09 57.8 29.6 3.57 3.98 6.76 8.28 9.78 12.7 1.37 2 4.25-.44 2.89-2.43"/>
    <g>
      <path fill="#3F7B83" d="M954.72 389.2l-14.3-13.37 49.36-52.89 14.3 13.38-49.36 52.89"/>
      <path fill="#95B2B8" d="M940.42 375.83l-4.18 19.07 18.48-5.7z"/>
      <path fill="#214145" d="M937.9 387.2l-1.99 8.07 7.92-2.52-5.94-5.55"/>
      <path fill="#95B2B8" d="M998.22 317.37a2.58 2.58 0 00-3.63.13l-4.97 5.4 14.46 13.42 5.08-5.3a2.54 2.54 0 00-.13-3.61l-10.81-10.04z"/>
      <path fill="#B6D3D9" d="M989.62 322.9l-2.22 2.6 14.14 13.51 2.54-2.7z"/>
    </g>
    <g fill="#C0B19D" fill-rule="nonzero" transform="translate(941 28)">
      <path d="M174.94 314.46c-8.3 4.29-20.37 10.45-28.68 26.8-10.45-1.88-62.45-11.26-99.7-10.72-3.48 7.5-9.38 19.3-7 20.91 2.38 1.61 78.8 33.5 132.4 28.67 7 .5 35.16-26 36.07-28.14.91-2.14-33.09-37.52-33.09-37.52z"/>
      <ellipse cx="28.27" cy="337.2" rx="16.27" ry="24.27" transform="rotate(-73.84 28.27 337.2)"/>
      <ellipse cx="51.27" cy="22.05" rx="25.77" ry="22.05"/>
    </g>
  </g>
</svg>
