<svg width="1236px" height="687px" viewBox="0 0 1236 687" version="1.1" xmlns="http://www.w3.org/2000/svg" xmlns:xlink="http://www.w3.org/1999/xlink">
    <defs>
        <linearGradient x1="58.1378536%" y1="0%" x2="43.920312%" y2="36.2955729%" id="linearGradient-1">
            <stop stop-color="#FFFFFF" stop-opacity="0.0845443619" offset="0%"></stop>
            <stop stop-color="#202121" stop-opacity="0.0556435752" offset="100%"></stop>
        </linearGradient>
        <path d="M1162.79738,321.446039 C1161.36171,325.49428 1161.20378,330.880183 1161.19759,335.152079 L1161.20331,337.654792 L1161.20414,339.610623 C1161.24854,346.168253 1161.98344,352.731631 1163.5056,359.11806 C1166.07239,369.885092 1170.6496,379.669069 1176.46035,388.996385 C1179.56997,388.777049 1183.43655,387.312279 1185.23859,387.054635 L1185.79309,386.980958 C1189.18929,386.5647 1194.76518,386.533386 1195.5416,390.79503 C1196.26318,394.757042 1192.07314,395.91417 1188.91018,396.179627 L1188.37415,396.217035 L1187.84689,396.239388 C1184.78057,396.326942 1182.24856,395.537131 1179.78646,394.129439 C1181.90876,397.314395 1184.09086,400.459328 1186.29212,403.591054 L1187.94603,405.937792 L1191.26015,410.626465 L1191.62731,410.455649 C1197.09092,407.822267 1205.94834,399.706896 1209.94772,406.423169 C1214.64142,414.305578 1200.82527,417.326743 1195.78556,415.448068 C1195.16677,415.217936 1194.58813,414.920299 1194.03761,414.578892 C1198.12352,420.4345 1202.10347,426.359581 1205.71639,432.527652 C1208.71684,432.778552 1220.39196,422.624793 1224.61189,429.585884 C1226.72018,433.0635 1224.61817,437.033884 1221.23123,438.717416 C1217.83083,440.408487 1213.84372,439.333679 1210.67295,437.605166 C1209.42642,436.927594 1208.34436,436.01079 1207.37556,434.980274 L1207.08827,434.667834 L1206.93407,434.617255 L1208.11436,436.66161 C1210.867,441.441826 1213.60492,446.292516 1216.2224,451.215655 L1217.33649,453.330013 L1217.60723,453.316937 C1217.98238,453.048943 1218.48998,453.050387 1218.90383,453.243004 L1220.63365,453.127337 C1224.52325,452.874169 1229.21788,452.690682 1232.46251,454.259627 C1235.04445,455.507977 1236.92609,458.364302 1233.90133,460.446723 C1231.44192,462.140404 1226.44715,460.461261 1224.10929,459.276012 C1222.48929,458.454129 1220.91318,456.601727 1219.3077,455.171615 C1219.08898,455.418461 1218.79138,455.534821 1218.48461,455.546676 C1221.73758,461.91237 1224.73147,468.398357 1227.25346,475.004604 C1231.54807,475.478199 1238.43599,472.400332 1240.9249,477.661257 C1243.52037,483.148889 1235.69372,483.843623 1232.4184,482.509157 C1231.31231,482.05873 1230.27002,481.434089 1229.29429,480.716685 C1230.89392,485.756425 1231.80501,490.911286 1232.06554,496.128966 L1232.10478,497.050374 L1232.2349,497.021636 L1232.10515,497.059551 C1232.12426,497.612935 1232.13646,498.166933 1232.14102,498.720833 C1232.36664,498.938086 1232.58524,499.112065 1232.69184,499.18817 C1231.75997,498.102022 1235.15745,498.494469 1237.48707,498.86459 L1238.42431,499.020944 L1239.56967,499.229615 L1240.10272,499.335103 C1242.71599,499.87239 1245.81046,500.832195 1247.06901,503.292878 C1248.23516,505.573548 1247.41318,508.25969 1244.97392,509.251162 C1242.03371,510.446398 1238.55558,508.247675 1236.3862,506.493733 L1236.15279,506.297891 C1235.21123,505.48438 1233.37102,503.652035 1232.09498,501.818765 C1232.0513,502.934192 1231.97954,504.051936 1231.87855,505.171145 C1231.74382,506.66399 1231.58182,508.158913 1231.39236,509.651861 L1232.36276,509.723498 C1233.60485,509.807823 1234.87429,509.878538 1235.25205,510.002783 C1237.59431,510.772809 1239.58898,512.302913 1241.24556,514.053693 C1243.93716,516.902446 1243.37465,521.969115 1238.40213,521.447514 C1234.55887,521.043945 1232.28134,517.088645 1230.86649,513.337717 C1230.57225,515.208348 1230.23296,517.070994 1229.8495,518.917147 C1229.52139,520.496388 1228.85715,522.247151 1228.29317,523.979966 C1228.36354,524.111506 1228.39113,524.274423 1228.36652,524.478526 L1228.46939,524.209564 C1228.48938,524.161749 1228.50013,524.155924 1228.5168,524.192545 L1228.53065,524.227976 L1228.7255,524.802914 C1229.74565,527.875426 1230.37535,531.177941 1229.72069,534.432596 C1229.14098,537.312801 1225.35943,542.041536 1223.02271,537.437768 C1221.9765,535.381001 1225.47493,523.848327 1227.90232,523.735721 C1228.33591,519.71941 1228.61401,515.668305 1228.68908,511.615101 C1228.54142,511.601918 1228.397,511.56548 1228.25988,511.508058 L1228.00859,512.48185 C1227.90462,512.873913 1227.80525,513.2327 1227.72431,513.497567 L1227.67807,513.644732 L1227.61263,513.832011 L1227.4873,514.136517 C1226.17906,517.154674 1222.10264,522.228626 1218.45246,520.001325 C1215.83889,518.406397 1217.9716,515.578639 1219.5297,514.025086 L1219.83208,513.732108 L1220.01677,513.561244 C1222.04431,511.718104 1223.94746,510.965173 1226.16242,510.343809 L1226.8367,510.160388 L1227.566,509.970432 C1227.76969,509.406982 1228.23462,509.172449 1228.70685,509.182422 C1228.69334,502.600496 1228.11991,496.03063 1226.78687,489.612417 L1226.12012,490.925608 C1225.44064,492.254705 1224.76395,493.527471 1224.45944,493.807455 C1222.47686,495.63271 1218.67141,497.490546 1216.17295,495.424726 C1210.92626,491.082285 1219.51932,484.957489 1224.83809,485.468343 C1225.12711,485.235281 1225.41338,485.062332 1225.6872,484.992584 C1225.15469,483.020271 1224.54468,481.065197 1223.84901,479.133292 C1222.8079,476.228823 1221.63774,473.298152 1220.37572,470.358128 C1219.80909,472.2407 1217.92129,476.268767 1217.58523,476.665761 C1215.54194,479.076139 1211.02061,480.906798 1208.49318,478.12615 C1205.85324,475.215107 1209.31837,472.122564 1211.79864,470.603867 L1212.07484,470.438757 L1212.34514,470.284997 C1213.35483,469.725098 1218.08357,467.949437 1219.48695,468.312478 C1216.40017,461.349705 1212.80812,454.356214 1209.0764,447.543268 L1209.0394,447.924839 C1208.75181,450.640407 1207.6723,456.651631 1207.38874,457.585171 L1207.36899,457.645535 L1207.30386,457.822189 C1205.89282,461.556486 1201.77491,466.787167 1197.24403,463.996114 C1192.98839,461.377126 1196.28174,456.00005 1198.74046,453.260795 L1198.86266,453.126055 L1199.09816,452.874338 C1200.59516,451.308838 1202.48517,449.817176 1204.50523,448.987391 C1205.30829,448.657772 1206.50656,448.654845 1207.22026,448.25949 C1207.93525,447.863124 1207.88507,447.082301 1208.63085,446.728351 C1206.61069,443.059166 1204.55474,439.445556 1202.51793,435.922051 C1201.55706,434.259068 1200.56554,432.615199 1199.55656,430.983769 C1198.73773,431.089012 1197.79245,430.407716 1198.12416,429.386827 C1198.17234,429.238523 1198.24211,429.118202 1198.32124,429.011883 C1197.55138,427.795129 1196.77321,426.583301 1195.98431,425.379425 C1195.93586,425.655384 1195.82728,426.033821 1195.63926,426.546117 C1197.03001,425.393177 1195.73071,428.592467 1195.64183,429.355754 C1195.35621,431.802926 1195.4064,434.262454 1194.74181,436.658942 C1193.78039,440.123874 1190.00418,445.350997 1185.88745,442.02869 C1182.36227,439.187678 1184.66674,434.892602 1187.0052,432.059793 L1187.26487,431.751202 L1187.52306,431.455536 C1189.09469,429.688362 1190.98555,428.241301 1192.91893,426.889083 C1193.77581,426.289067 1194.99178,425.055979 1195.61369,424.814781 C1191.21281,418.134735 1186.55686,411.620138 1182.01446,405.03043 C1181.84424,405.349278 1181.68858,405.669043 1181.54786,405.969357 C1181.69579,405.872528 1181.86651,405.854594 1182.06205,405.919558 L1181.92833,408.724557 C1181.58049,415.192267 1180.28845,428.276997 1172.59458,423.289997 C1166.39356,419.263296 1174.78934,407.076447 1181.11395,403.723084 C1178.74436,400.266377 1176.41286,396.783914 1174.17387,393.24095 C1172.5537,390.677397 1171.01533,388.062729 1169.57464,385.401155 C1169.87892,388.428455 1169.90672,392.249124 1168.50689,394.908134 C1166.46935,398.777449 1161.04477,401.490955 1157.39124,397.996948 C1150.51614,391.398086 1165.84099,388.134064 1168.71929,383.791047 C1164.19731,375.114598 1160.81547,365.916348 1159.52983,356.127534 C1158.13135,345.48225 1157.89744,331.620113 1162.79738,321.446039 Z" id="path-2"></path>
        <linearGradient x1="53.3205032%" y1="0%" x2="47.5192939%" y2="36.2955729%" id="linearGradient-3">
            <stop stop-color="#FFFFFF" stop-opacity="0.0845443619" offset="0%"></stop>
            <stop stop-color="#202121" stop-opacity="0.0556435752" offset="100%"></stop>
        </linearGradient>
        <path d="M249.95024,517.479785 C251.424959,520.454101 251.671468,523.807065 251.481302,527.038918 L251.4419,527.644696 C251.430862,527.782458 251.411605,527.699368 251.21851,527.445165 C251.295114,527.635942 251.310631,527.800448 251.276696,527.94572 C252.269949,529.473521 253.364687,530.992711 254.090357,532.433219 C254.912336,534.065147 255.698265,535.72277 256.446603,537.398892 C256.444776,537.345871 256.445955,537.302079 256.449281,537.265569 C256.672678,534.810123 257.714861,532.522371 259.048119,530.514411 C261.218381,527.250965 266.28173,526.659308 266.892072,531.621722 C267.470684,536.330396 262.302814,539.943954 258.45249,542.166546 C258.852761,543.168577 259.237297,544.175829 259.607994,545.185681 C259.995216,546.240615 260.35382,547.301702 260.684708,548.367816 C261.511704,546.075741 262.987502,543.610961 263.61974,542.741493 C265.261242,540.48584 268.051784,537.46183 271.201158,537.855357 C273.813921,538.181716 275.303112,540.563589 274.766982,543.068367 C274.148272,545.957326 271.059272,547.732661 268.574821,548.934151 L267.25447,549.555793 C265.15989,550.516412 261.262689,552.170505 261.942081,550.754296 L261.834424,550.893614 C261.748552,551.009996 261.638786,551.169441 261.530981,551.348272 C261.669935,551.884479 261.801537,552.422757 261.926305,552.962231 L262.061448,552.965272 L261.92832,552.971192 C263.171846,558.365382 263.695973,563.882994 263.441074,569.47573 C264.197874,568.530235 265.042982,567.657112 265.994802,566.935757 C268.813131,564.799047 276.552907,563.444422 275.46618,569.416824 C274.423704,575.142665 266.973873,573.952399 262.948175,575.521383 C262.221939,582.555268 261.008764,589.595125 259.514194,596.585845 C259.813585,596.517896 260.131156,596.553269 260.406318,596.735093 C261.586946,594.938183 262.629914,592.740974 263.981998,591.527808 L264.2925,591.257216 C266.368488,589.496181 270.464114,586.913164 273.137378,587.862621 C276.598048,589.091219 275.519788,592.337223 273.348927,594.21129 C270.201233,596.928895 264.58499,597.892523 260.515364,598.702519 C260.165469,598.995685 259.675538,599.128457 259.243816,598.966688 L258.978911,599.024132 C257.592181,605.245168 256.009847,611.42027 254.385125,617.511434 L253.774166,619.791612 L253.910022,619.702846 C254.616359,618.315559 255.480759,617.01264 256.612321,615.937817 C259.227678,613.447546 262.800744,611.377424 266.522965,612.130782 C270.230221,612.880347 273.288218,616.171403 272.151847,620.076185 C269.877368,627.892282 255.972079,621.106249 253.138805,622.125173 C251.245404,629.018165 248.9346,635.771438 246.503453,642.485033 C246.946851,642.012775 247.428742,641.575516 247.966884,641.193071 C252.348627,638.074039 266.475946,637.416375 263.98229,646.245019 C261.809198,653.938522 250.712693,647.962319 244.843592,647.021645 L242.855916,652.408313 C241.201191,656.898071 239.562679,661.394004 238.030606,665.926157 C240.044474,663.929194 242.285788,662.510962 245.27029,661.80191 L245.785364,661.687038 L246.133989,661.617507 C249.268037,661.022407 253.777147,660.978261 254.111909,665.06922 C254.484921,669.630984 248.441882,670.950149 245.128056,671.348777 C243.320731,671.566316 239.20679,671.152202 236.146358,671.745169 C232.947692,682.258597 231.058726,692.893862 231.366114,703.958349 C231.548755,710.521129 232.537622,717.051072 234.191969,723.396749 L234.697374,725.286151 L235.242934,727.344983 C236.361295,731.525724 237.926365,736.887548 240.432267,740.530027 C233.066038,731.970826 229.704195,718.520489 228.299819,707.875981 C227.008126,698.087964 227.894046,688.327853 230.016316,678.776671 C226.112033,675.326599 210.464571,676.140159 215.397499,667.986741 C218.022221,663.666186 223.964275,664.883246 226.933836,668.093364 C228.974174,670.299466 229.936178,673.997146 230.425789,677.000047 C231.128522,674.056286 231.93775,671.13255 232.839214,668.237018 C234.084927,664.235284 235.435659,660.268046 236.829846,656.315829 C229.852824,654.713658 218.588941,645.115053 223.536477,639.620617 C230.847167,631.515387 236.022955,650.497553 237.177146,653.948812 C237.005082,654.062173 236.835547,654.089033 236.667592,654.033791 C236.88124,654.287452 237.114361,654.556033 237.361309,654.819959 C240.043381,647.279132 242.854581,639.781466 245.376582,632.190006 C244.713437,632.117988 243.21976,631.241631 242.236776,630.883839 C240.019299,630.078091 237.818344,629.169727 235.842881,627.869538 L235.516968,627.650769 L235.186273,627.419902 C232.194313,625.288855 228.85672,621.736572 231.526468,618.079983 C234.643049,613.805392 239.643467,617.87705 241.468919,620.975083 C242.73112,623.117904 243.319212,625.506616 244.228481,627.796477 C244.511881,628.510753 246.594945,631.264747 244.953178,630.511045 C245.267387,630.957221 245.470216,631.29466 245.588433,631.548678 C246.038867,630.18164 246.476877,628.809699 246.905584,627.435151 C246.801642,627.352932 246.703108,627.25477 246.618178,627.12399 C246.033548,626.223739 246.770284,625.321002 247.58845,625.210731 C248.14081,623.373746 248.673083,621.529265 249.170798,619.674257 C250.226258,615.743646 251.276879,611.721049 252.278543,607.654033 C251.466567,607.505166 251.312943,606.737962 250.519734,606.540153 C249.728029,606.342988 248.569831,606.650296 247.708823,606.539756 C245.542832,606.261075 243.331151,605.309411 241.479977,604.184707 L241.187352,604.002518 L240.884098,603.804954 C237.805104,601.75458 233.433078,597.494401 236.810496,593.921781 C240.464614,590.053152 245.796012,594.039808 248.125474,597.281658 L248.234113,597.435435 C248.673837,598.068191 251.627693,604.352627 252.498002,606.751566 C254.339244,599.204925 255.998852,591.52004 257.178347,583.995603 C255.916753,584.709493 250.889563,584.218225 249.769363,583.938732 L249.468479,583.86017 C246.691616,583.102923 242.154868,580.98873 244.019223,577.361718 C245.740842,574.021673 250.581927,574.619746 253.179445,576.41915 C253.606797,576.71564 256.472819,580.117854 257.507386,581.789624 C257.965472,578.623143 258.337245,575.489473 258.591147,572.414513 C258.763094,570.368384 258.846307,568.322047 258.850201,566.279115 C258.567657,566.282613 258.246385,566.189648 257.906893,566.039331 C252.90157,567.909378 243.016097,564.217327 246.960105,558.664908 C248.838759,556.022829 252.995383,556.83244 255.382823,558.08237 C255.871616,558.337878 257.456325,560.126945 258.716699,561.532083 C258.343166,554.987547 257.196651,548.49313 255.506174,542.131981 C255.052609,542.263838 254.542824,542.157628 254.200246,541.666095 L253.446628,541.671369 L252.715009,541.668316 C250.428172,541.639538 248.402771,541.401114 245.978874,540.151523 L245.756256,540.034282 C243.8753,539.02262 240.548559,536.700579 242.801052,534.335755 C245.852091,531.132847 251.366004,535.359113 253.245834,537.924028 L253.357517,538.087988 L253.533132,538.36898 C253.792994,538.796299 254.145776,539.415491 254.472516,540.001272 C254.590101,539.910318 254.720165,539.837745 254.85938,539.786794 C253.737822,535.891129 252.420699,532.050038 250.962385,528.282801 C248.588559,528.802288 242.224459,518.568041 242.702692,516.310576 C243.768247,511.258891 248.644834,514.84776 249.95024,517.479785 Z" id="path-4"></path>
        <radialGradient cx="51.121446%" cy="44.5482337%" fx="51.121446%" fy="44.5482337%" r="85.4586226%" gradientTransform="translate(0.511214,0.445482),scale(0.550600,1.000000),rotate(-1.784044),translate(-0.511214,-0.445482)" id="radialGradient-5">
            <stop stop-color="#E5FEFF" offset="0%"></stop>
            <stop stop-color="#DEFFFE" offset="35.743539%"></stop>
            <stop stop-color="#CEF2F8" offset="100%"></stop>
        </radialGradient>
    </defs>
    <g id="Page-1" stroke="none" stroke-width="1" fill="none" fill-rule="evenodd">
        <g id="homepage" transform="translate(-1774.000000, -36.000000)">
            <g id="leaves-and-blobs" transform="translate(1744.000000, 10.601563)">
                <path d="M932.079426,101.645529 C1152.89295,76.4724532 1284.75781,520.963651 1131.65625,565.020542 C978.554687,609.077433 1062.38606,660.453592 864.032915,660.453592 C665.679769,660.453592 580.163194,710.723044 470.701027,666.550571 C361.23886,622.378098 235.21848,684.008607 157.848792,541.604835 C80.4791041,399.201063 123.246373,200.30452 226.541936,120.237648 C329.837499,40.1707756 711.265902,126.818605 932.079426,101.645529 Z" id="blob-bottom" fill="#C4EEF2" transform="translate(658.001055, 385.071949) scale(-1, 1) rotate(-180.000000) translate(-658.001055, -385.071949) "></path>
                <path d="M1242.31431,323.238415 C1244.34506,325.049751 1245.90177,327.243306 1246.93075,329.66328 C1250.92974,332.429821 1254.07194,334.917306 1254.83647,335.708312 C1275.58596,357.116671 1263.38072,394.608906 1251.23999,417.142853 C1247.61667,423.867821 1243.29233,430.148599 1238.9164,436.396465 C1236.062,440.472346 1228.49443,455.76961 1223.69029,456.935318 C1216.09574,458.780413 1225.80552,446.447597 1226.58188,445.276946 C1231.32548,438.124641 1236.30312,431.085688 1240.75504,423.745412 C1254.05692,401.812591 1269.77595,363.215509 1250.66093,340.223158 C1248.88964,338.091135 1240.86115,333.070912 1234.11478,328.879409 C1231.1355,327.736049 1228.46338,327.228923 1226.97416,328.059976 C1222.09782,330.779408 1237.64533,334.665828 1238.98172,335.31664 C1246.82317,339.132088 1250.13857,343.960883 1243.3838,351.122455 C1238.48807,356.313647 1231.30659,356.28288 1224.61379,356.5038 C1220.33887,356.645835 1216.83892,354.378658 1212.64239,355.253354 C1193.56479,359.229754 1182.26587,368.064062 1171.10528,381.580258 C1162.71042,391.746751 1148.13071,408.96564 1133.74864,397.464476 C1122.25318,388.271806 1125.82426,369.365698 1130.02023,357.42679 C1136.2888,339.594694 1148.62054,321.135514 1166.70438,313.869638 C1189.135,304.858952 1223.63194,306.311967 1242.31431,323.238415 Z" class="svg__leaf" fill="#A3E0E7" transform="translate(1196.017485, 382.760758) scale(-1, 1) rotate(1.000000) translate(-1196.017485, -382.760758) "></path>
                <path d="M128.631434,526.398438 C125.436266,526.398438 122.250839,526.462191 119.059682,526.627168 C116.627206,526.753557 112.910015,526.252475 110.851721,527.759076 C108.713205,529.323837 108.860471,532.527181 109.194543,534.789319 C110.960595,546.752085 115.270864,557.359806 124.287931,565.835133 C138.17167,578.885627 154.087917,585.516571 172.921989,588.469374 C186.151911,590.543606 198.365292,587.663505 208.104367,578.31464 C215.220148,591.438395 220.618585,605.961375 223.327257,620.619133 C224.663544,627.851823 225.071535,634.99727 224.836596,642.361941 C224.685319,647.079155 224.423448,651.785185 223.914605,656.48003 C223.693991,658.520148 222.647081,661.608288 223.45103,663.535998 C224.394224,665.799814 227.575066,666.019037 229.003036,664.08853 C230.191483,662.481825 229.973161,659.326576 230.217269,657.42515 C230.621822,654.266546 230.996578,651.105705 231.264752,647.93256 C231.700248,642.796473 232.022287,637.645845 232,632.490184 C231.944356,620.906584 229.352579,609.277686 225.807295,598.281851 C219.006102,577.186647 207.970853,558.438586 190.808284,543.728818 C180.255519,534.683622 168.177944,531.020581 154.475279,529.054282 C145.944134,527.830099 137.273745,526.398438 128.631434,526.398438" class="svg__leaf" fill="#90CBD4" transform="translate(170.500000, 595.898438) scale(-1, 1) rotate(239.000000) translate(-170.500000, -595.898438) "></path>
                <path d="M1033.07792,712.539591 C989.446031,712.539591 915,645.900308 915,590.555569 C915,586.345918 916.996326,578.398438 921.401504,578.398438 C945.217457,578.36159 1033.07792,649.409578 1033.07792,712.539591 Z" class="svg__leaf" fill="#9DDAE3" transform="translate(974.038958, 645.469014) scale(-1, 1) rotate(-98.000000) translate(-974.038958, -645.469014) "></path>
                <path d="M230,595.323219 C229.908835,590.805291 221.904984,575.525929 208.869383,570.489259 C196.315032,565.638534 177.067862,563.616443 160.082871,557.053816 C150.635722,553.403645 148.226636,547.058235 136.985261,542.714814 C119.069156,535.792425 109.092245,558.014371 107.507249,566.544108 C105.174325,579.098863 111.422378,588.711007 115.392691,590.245049 C120.932299,592.385431 125.555843,591.761812 131.686552,594.130583 C143.670726,598.761004 144.057784,605.337371 154.500732,608.697481 C185.036913,618.48761 217.887227,611.931937 227.516099,598.733729 L230,595.323219 Z" class="svg__leaf" fill="#A3E0E7" transform="translate(168.500000, 577.398438) rotate(-51.000000) translate(-168.500000, -577.398438) "></path>
                <path d="M1082.576,149.62426 C1082.324,145.569461 1085.6544,137.897484 1090.37497,143.208483 C1092.48691,145.580399 1091.93837,162.238443 1088.76649,163.259328 C1089.61378,168.779155 1090.67911,174.289693 1092.01382,179.730227 C1092.21385,179.694883 1092.41782,179.691761 1092.61956,179.719284 L1092.60758,178.353374 C1092.60635,177.823533 1092.61011,177.333499 1092.62152,176.955189 L1092.63559,176.616785 L1092.65373,176.383214 C1093.12918,172.01122 1096.77964,163.135001 1102.59098,164.858325 C1106.75517,166.093396 1104.65624,170.91749 1103.12154,173.498019 L1103.03991,173.634082 L1102.79974,174.020917 C1100.77517,177.200353 1098.53078,178.887917 1095.83069,180.507727 L1095.14603,180.912093 L1094.08166,181.524164 C1094.01151,182.349774 1093.47934,182.829751 1092.85099,182.98578 C1095.19756,191.772004 1098.28071,200.341328 1102.31526,208.435696 L1102.89593,205.683326 C1103.27191,203.955879 1103.64507,202.420075 1103.91049,201.998009 C1105.8879,198.849157 1110.26564,195.003092 1114.30229,196.86631 C1122.78063,200.784729 1113.57798,212.046787 1106.35989,213.271831 C1106.05994,213.686762 1105.74237,214.020416 1105.40475,214.21177 C1106.80713,216.655102 1108.30595,219.047618 1109.90991,221.378472 C1112.31502,224.88444 1114.90015,228.379126 1117.61014,231.853361 L1117.62989,231.421764 C1117.79914,228.543542 1118.78166,223.046168 1119.07063,222.427953 C1120.92134,218.475819 1126.2559,214.40933 1130.58377,217.216912 C1135.23106,220.239205 1131.41796,225.82886 1128.6471,228.684416 L1128.26141,229.071199 C1127.12356,230.181105 1121.49512,234.248514 1119.50985,234.266886 C1126.05745,242.459686 1133.28446,250.512315 1140.63239,258.273718 C1140.0725,255.078014 1139.35494,246.727239 1139.31243,244.581045 L1139.3109,244.327907 L1139.31728,244.168455 L1139.35857,243.740547 C1139.96029,238.244343 1143.55562,229.973854 1150.46693,232.055478 C1157.08725,234.046337 1154.52116,242.551552 1152.21937,247.060432 L1151.94861,247.575051 C1150.52178,250.202831 1148.54883,252.872927 1146.16964,254.70563 C1145.22372,255.433865 1143.6393,255.867486 1142.83488,256.651474 C1142.0291,257.437276 1142.37175,258.462179 1141.51023,259.202371 C1145.48129,263.378629 1149.48005,267.467822 1153.42161,271.44353 C1155.28131,273.320098 1157.17482,275.160142 1159.08702,276.977311 C1160.13319,276.543105 1161.62495,277.114085 1161.54725,278.596576 C1161.53597,278.811938 1161.48622,278.997662 1161.41915,279.16804 C1162.86825,280.517105 1164.32661,281.85661 1165.79635,283.181646 C1165.77772,282.967227 1165.77245,282.703907 1165.78303,282.383312 L1165.80349,281.97057 L1165.84011,281.499628 C1164.52188,283.376033 1164.91443,279.510612 1164.86638,278.063698 L1164.8627,277.974705 L1164.84265,277.747896 C1164.35475,274.376933 1163.41816,271.109891 1163.4496,267.670724 C1163.49577,262.698055 1166.64277,254.362329 1173.26512,257.323432 C1178.99624,259.881401 1177.37084,266.56037 1175.24467,271.189457 L1175.04408,271.61724 L1174.84182,272.031882 C1173.38759,274.955789 1171.39774,277.566617 1169.31808,280.066017 C1168.39661,281.174708 1167.22402,283.257722 1166.48649,283.802898 C1174.67278,291.146825 1183.13802,298.178303 1191.47958,305.350825 C1191.59199,304.863916 1191.68482,304.381003 1191.76475,303.92943 C1191.60328,304.11181 1191.38375,304.196982 1191.10204,304.180335 L1190.86608,303.073165 C1189.36436,296.203591 1184.11667,273.218374 1197.4829,277.584602 C1207.11221,280.739076 1200.31537,300.027092 1193.1336,306.774035 C1197.49183,310.541187 1201.80878,314.356398 1206.02473,318.285593 C1209.07539,321.128566 1212.03591,324.069142 1214.88378,327.107397 C1213.41011,323.173138 1212.02156,318.080079 1212.93294,314.026611 C1214.25987,308.127929 1220.47718,302.558363 1226.5474,305.914904 C1237.97865,312.263121 1218.85692,322.118301 1216.58515,328.951184 C1225.63801,338.918156 1233.36692,349.990931 1238.53128,362.604198 L1239.02563,363.826534 C1244.44765,377.40244 1249.27708,395.203203 1246.47831,410.097893 C1246.97997,403.740427 1244.98769,395.851902 1243.41812,389.984372 L1242.99022,388.390344 L1242.23451,385.541398 C1239.85008,376.701601 1236.53132,368.103827 1232.21282,360.035684 C1225.00727,346.575301 1215.48951,335.148878 1204.50119,324.774748 C1200.4644,326.182839 1195.86671,329.525832 1193.57355,330.51618 L1192.97711,330.767856 C1188.64638,332.551746 1181.17494,334.675126 1178.61813,329.215116 C1176.17991,324.007549 1181.76122,320.924981 1185.90862,319.495893 L1186.29897,319.364773 L1186.87289,319.184035 C1190.89901,317.967483 1194.52859,318.114385 1198.28427,319.11162 C1193.85752,315.18214 1189.34855,311.347455 1184.82041,307.535819 L1177.26658,301.192133 L1176.88412,301.514741 C1170.58416,306.964674 1161.7132,321.061167 1154.02791,313.507742 C1145.02878,304.662902 1162.24026,295.673123 1169.57305,296.375071 C1170.4732,296.46054 1171.34411,296.65057 1172.1933,296.909144 C1164.71544,290.553417 1157.35321,284.066896 1150.39063,277.124213 C1146.33192,277.86509 1134.4768,295.613638 1126.4305,287.829445 C1122.41061,283.940659 1123.78708,277.883864 1127.67275,274.42069 C1131.57357,270.942617 1137.22924,270.94836 1142.03609,272.119961 C1143.95419,272.584978 1145.73517,273.440244 1147.40351,274.49102 L1147.81827,274.757674 L1148.04019,274.769932 C1141.87388,268.556139 1135.67364,262.217003 1129.65512,255.689689 L1127.65598,253.506862 L1127.30238,253.621418 C1126.90084,254.113891 1126.22871,254.293992 1125.61299,254.185135 L1122.93266,255.107696 C1117.961,256.799956 1112.02433,258.595136 1107.3136,257.68956 C1103.45574,256.948122 1099.95553,253.80788 1103.22088,249.941812 C1105.87573,246.797702 1113.07848,247.249259 1116.59108,247.993946 C1119.02531,248.510738 1121.76607,250.419668 1124.39627,251.754043 C1124.59834,251.34591 1124.95092,251.083774 1125.35263,250.957928 C1118.79637,243.622211 1112.54036,236.032915 1106.86617,228.11377 C1101.01635,229.021304 1092.99179,235.602289 1087.83735,229.468143 C1082.46171,223.069413 1092.57147,219.334792 1097.37723,219.942598 C1099.00008,220.147552 1100.60015,220.608071 1102.14496,221.216359 C1098.01602,214.696517 1094.86276,207.727475 1092.64748,200.408328 L1092.48548,200.493375 L1092.64374,200.396204 C1092.42267,199.663936 1092.21053,198.92837 1092.00852,198.190196 C1091.78328,198.06464 1091.56691,197.958984 1091.39356,197.880849 L1091.27216,197.827528 L1091.11437,197.763534 C1092.82461,198.944252 1087.54398,199.652685 1084.34551,199.970674 L1083.50349,200.050315 L1082.07238,200.169158 L1081.48232,200.210782 C1077.79348,200.450398 1073.22773,200.330826 1070.63947,197.43691 C1068.28961,194.808952 1068.42682,190.92647 1071.30347,188.72748 C1074.61672,186.194505 1079.67627,187.624507 1083.16527,189.121807 L1083.64158,189.330778 L1083.78806,189.397892 L1084.13629,189.566102 C1085.70536,190.346082 1088.6942,192.094224 1090.97338,194.035972 C1090.63654,192.5305 1090.33602,191.011866 1090.07366,189.480793 C1089.19961,184.379356 1088.54603,179.199605 1088.13947,174.024777 L1087.24186,174.028061 C1081.0303,174.015112 1072.36149,173.213004 1069.7889,167.150725 C1067.05521,160.706878 1073.60835,157.87988 1078.52406,160.317414 C1081.54613,161.818656 1084.41113,163.86288 1086.4008,166.683572 C1086.70988,167.121622 1087.29097,168.687058 1087.88881,170.258056 C1087.78072,168.063113 1088.03247,165.539418 1088.16294,163.073266 C1088.02329,162.922815 1087.92914,162.715111 1087.8895,162.433675 C1087.84216,162.809476 1087.86047,162.945888 1087.79882,162.877693 L1087.7751,162.847431 L1087.35463,162.213129 C1084.89302,158.453939 1082.86345,154.240414 1082.576,149.62426 Z" class="svg__leaf" fill="#90CBD4" transform="translate(1158.149286, 275.748165) scale(-1, 1) rotate(18.000000) translate(-1158.149286, -275.748165) "></path>
                <path d="M146.045094,111.693612 C147.195112,107.797157 152.948631,101.72692 155.568048,108.332157 C156.741388,111.283357 150.528537,126.749186 147.198781,126.623656 C146.10708,132.100387 145.223454,137.642965 144.616894,143.21189 C144.816952,143.247093 145.00969,143.313922 145.18985,143.408784 L145.463558,142.629964 C145.738867,141.854797 146.010694,141.116274 146.204439,140.645544 L146.266026,140.49887 L146.362963,140.285591 C148.305047,136.339873 154.771198,129.247485 159.642667,132.854477 C163.199868,135.48859 159.370285,139.400544 157.054766,141.261179 L156.705039,141.535895 C153.590561,143.926782 150.805594,144.714925 147.549087,145.321725 L146.758061,145.464603 L145.946468,145.604884 C145.598172,146.35671 144.933932,146.625727 144.29011,146.557438 C143.490102,155.616364 143.45643,164.723392 144.479229,173.709507 L145.816675,171.559097 C146.816835,169.968326 147.765588,168.527594 148.180082,168.205664 C151.115211,165.923025 156.544372,163.806181 159.700318,166.937647 C166.327174,173.519519 153.827665,180.954901 146.625887,179.637333 C146.202112,179.924653 145.789577,180.129569 145.406871,180.19391 C145.889009,182.969534 146.479152,185.73039 147.189179,188.469262 C148.250135,192.586392 149.484111,196.75449 150.842408,200.946073 L151.008579,200.547258 C152.152037,197.900503 154.95551,193.0707 155.438496,192.588603 C158.529305,189.507792 164.932972,187.511069 168.039591,191.629552 C171.426591,196.130354 165.698799,200.134448 162.126209,201.825198 L161.802881,201.974643 L161.674142,202.030304 L161.331222,202.16412 C159.262436,202.929978 153.516183,204.469764 151.802076,203.863784 C155.152704,213.801907 159.18971,223.840687 163.439947,233.647159 L163.526967,233.182218 C164.21817,229.647313 166.317083,221.91018 166.927751,220.199828 L166.967905,220.090408 L167.028438,219.942755 L167.204194,219.573865 C169.642899,214.612648 175.858589,208.048245 181.648566,212.373686 C187.12119,216.458365 181.996488,223.45042 178.299486,226.94535 L178.010803,227.213884 L177.732878,227.464077 C175.493344,229.445378 172.726151,231.279659 169.863621,232.188105 C168.725675,232.548898 167.088505,232.414466 166.06445,232.876045 C165.038512,233.338866 165.009959,234.419153 163.947231,234.820047 C166.250445,240.102629 168.60946,245.312869 170.953544,250.396906 C172.059271,252.796359 173.209249,255.173051 174.384627,257.534645 C175.516212,257.484435 176.722717,258.531192 176.142666,259.897704 C176.058402,260.096218 175.948136,260.253728 175.826838,260.390892 C176.727141,262.15422 177.639408,263.91173 178.567325,265.659537 C178.667813,265.285388 178.863192,264.777169 179.183733,264.093926 C177.140633,265.519781 179.313272,261.267384 179.529589,260.227297 C180.224052,256.892757 180.461336,253.502408 181.667151,250.281404 L181.798581,249.945378 C183.687533,245.30936 189.343538,238.987909 194.429702,243.915234 C198.805492,248.148657 195.349035,253.658595 191.868939,257.291687 L191.372465,257.797592 L190.880728,258.275919 C188.514167,260.526118 185.751364,262.298925 182.942276,263.936306 C181.69718,264.662972 179.882873,266.219316 179.003368,266.479366 C184.18419,276.180276 189.734001,285.682984 195.119357,295.275932 C195.391527,294.856836 195.643922,294.434795 195.873481,294.037793 C195.659365,294.153946 195.42395,294.1589 195.164925,294.046908 L195.237909,293.541275 C196.081497,287.482786 198.837235,262.286198 210.257242,271.237474 C218.226945,277.49513 205.243108,293.295278 196.186865,297.179021 C198.99382,302.209589 201.745548,307.271199 204.363382,312.405375 C206.257708,316.120282 208.033949,319.896077 209.670926,323.725131 C209.631732,319.524114 210.068851,314.263292 212.311635,310.765989 C215.576004,305.676875 223.323266,302.569639 227.879408,307.799896 C236.450045,317.674984 215.110826,320.395807 210.639086,326.039629 C215.737078,338.501776 219.212772,351.550227 219.751689,365.169135 C220.338233,379.979668 218.933993,399.082334 210.975651,412.516652 C213.748125,406.436348 214.522262,397.839632 215.053789,391.714923 L215.154107,390.561703 L215.386601,387.989631 C216.169364,378.867418 215.991362,369.653071 214.692765,360.594482 C212.525485,345.481415 207.489776,331.488822 200.7123,317.982104 C196.437366,317.924615 190.973575,319.493496 188.479992,319.639812 L187.833443,319.672316 C183.15376,319.867427 175.406668,319.307369 174.871483,313.302156 C174.320535,307.115904 181.71333,306.459141 186.059251,306.699318 C190.258655,306.933148 193.619097,308.312578 196.807212,310.534193 C194.525871,306.31593 192.172534,302.137679 189.791763,297.975056 L188.360364,295.479162 L183.185869,286.50691 C175.472694,289.220665 161.869523,300.056624 157.136471,290.131702 C151.705171,278.742389 170.953353,276.181431 177.603841,279.349007 C178.420474,279.737191 179.173871,280.213631 179.883413,280.747052 C175.030308,272.217044 170.3306,263.603678 166.162444,254.698345 C162.095109,254.006381 144.884584,266.629872 139.985882,256.563125 C137.538467,251.533979 140.903473,246.313235 145.739279,244.387892 C150.594428,242.453733 155.907053,244.393481 160.023299,247.138464 C161.666678,248.231466 163.04774,249.644288 164.256082,251.2023 L164.554621,251.594727 L164.758965,251.682147 C161.089778,243.734092 157.431565,235.656644 154.008486,227.464521 L152.876475,224.729587 L152.505018,224.716295 C151.959258,225.041734 151.266068,224.981093 150.724712,224.668213 L147.810589,224.616713 C142.577157,224.504668 136.426372,224.152184 132.330328,221.702535 C128.958707,219.686344 126.743612,215.53834 131.13431,213.022239 C134.704404,210.975756 141.31833,213.863564 144.364394,215.764721 C146.475074,217.082903 148.397651,219.814105 150.412851,221.967591 C150.74232,221.653181 151.163296,221.527445 151.583818,221.54658 C147.931915,212.410889 144.648879,203.139601 142.025391,193.757352 C136.217962,192.609398 126.426514,196.048941 123.680926,188.521806 C120.81797,180.670389 131.595359,180.618737 135.903414,182.833554 C137.35829,183.581193 138.70436,184.561197 139.947964,185.661159 C138.369683,178.450105 137.77082,171.158164 138.090708,163.855547 L138.140018,162.859675 L137.958698,162.884186 L138.140649,162.847003 C138.18336,162.083286 138.235586,161.319522 138.298232,160.556775 C138.129523,160.361755 137.962333,160.188466 137.826166,160.055757 L137.603935,159.850027 C138.898015,161.672357 132.780661,160.215824 129.822633,159.43621 L127.715763,158.855333 L127.118484,158.67646 C123.703927,157.626888 119.837792,155.944643 118.475529,152.540271 C117.166207,149.267101 118.623023,145.665688 122.078286,144.583185 C126.06208,143.334906 130.332013,146.416618 133.098258,149.018594 L133.465984,149.369984 L133.580677,149.48315 C134.699638,150.603127 137.150531,153.486538 138.746348,156.299042 C138.94472,154.769154 139.181728,153.239321 139.458852,151.710852 C140.173897,147.767495 141.029208,143.825222 142.023162,139.924566 L141.178877,139.620357 C135.349914,137.481894 127.509579,133.765018 127.166251,127.201858 C126.801348,120.211644 133.92618,119.796443 137.711754,123.768249 C140.038109,126.212561 142.031168,129.113393 142.936109,132.444482 C143.064976,132.918589 143.084677,134.360541 143.105904,135.891815 L143.4857,134.56161 L143.939793,133.029483 C144.584365,130.894208 145.709407,128.561742 146.69527,126.24239 C146.615493,126.053246 146.598065,125.825869 146.657071,125.547848 L146.47614,125.918992 C146.449739,125.966398 146.435376,125.971926 146.419994,125.934073 L146.408062,125.897526 L146.22989,125.157667 C145.202455,120.783265 144.736392,116.129692 146.045094,111.693612 Z" class="svg__leaf" fill="#A3E0E7"></path>
                <path d="M158.749615,344.936985 C155.924016,346.916641 90.2353639,311.831064 81.0701421,295.476952 L80.3765225,294.228539 C70.9099833,277.059403 66.7413651,264.094657 63.3632248,259.162349 C57.2285902,250.203563 29.0224551,237.343742 36.1442324,207.957642 C38.0092844,200.262006 48.4712046,184.026566 74.9822189,188.021085 L75.7905031,188.148353 C84.6876324,189.613027 98.3744733,191.542588 113.016982,215.761709 C122.883735,232.075751 114.647674,246.421906 124.915583,265.838364 C132.306883,279.816265 147.855566,282.742101 158.184632,296.80401 C166.432854,308.049934 175.071079,333.485395 158.749615,344.936985 Z" class="svg__leaf" fill="#99D7DE" transform="translate(101.492831, 266.207909) scale(-1, 1) rotate(61.000000) translate(-101.492831, -266.207909) "></path>
                <g class="svg__leaf">
                    <use fill="#A3E0E7" xlink:href="#path-2"></use>
                    <use fill="url(#linearGradient-1)" xlink:href="#path-2"></use>
                </g>
                <path d="M1168.18334,296.398438 C1171.8516,296.398438 1179,284.0674 1179,260.151906 C1179,242.663234 1166.64706,231.352525 1162.9788,214.025613 C1157.33532,187.453533 1129.38758,109.398438 1085.75097,109.398438 C1080.73455,109.398438 1074,119.8568 1074,141.401898 C1074,167.53225 1099.50851,194.589608 1099.50851,200.201412 C1099.53359,264.276769 1156.4888,296.398438 1168.18334,296.398438 Z" class="svg__leaf" fill="#99D7DE" transform="translate(1126.500000, 202.898438) rotate(17.000000) translate(-1126.500000, -202.898438) "></path>
                <path d="M479.543676,85.3844421 C475.788294,84.6975191 471.919712,84.3984375 468.091178,84.3984375 C456.285729,84.4148388 444.288586,85.4900855 432.679103,87.351145 C425.308239,88.5325175 416.397419,92.5083736 409.065001,90.3491972 C396.290938,86.5870397 383.380714,86.771795 371.261293,92.1427222 C360.18097,97.053932 351.769407,106.38142 346.86066,116.459988 C346.12005,117.981445 343.115424,123.581025 342.264817,127.355725 C341.901186,128.127549 341.551973,128.904678 341.236933,129.693386 C340.343074,131.932639 339.541591,134.211448 338.796709,136.494598 C338.478466,137.468543 337.678051,139.619037 338.62851,140.034857 C337.109911,142.63542 335.763784,145.315577 334.642456,148.082564 C331.381527,156.12979 333.221573,161.32561 337.999498,149.271173 C341.089024,141.476237 346.165437,134.34507 351.852172,127.886836 C356.454423,122.659179 361.39147,118.542465 367.700276,115.076495 C375.415013,110.838218 383.663182,107.411804 391.835528,103.974777 C397.210427,101.713334 402.591734,99.5126724 408.116678,97.5643003 C409.345333,97.1306319 411.278289,96.019206 412.640436,96.0148645 C415.521181,96.0052167 419.603349,97.9777083 422.385845,98.7114231 C431.538018,101.125784 440.80713,104.216937 450.265799,105.449925 C456.332718,106.241527 462.016783,105.350553 467.690704,103.475022 C468.27059,103.283995 469.242408,102.791475 470.433152,102.088151 C474.645608,100.584542 478.630594,98.6921275 482.100304,95.962284 C484.099471,94.3892111 485.913353,92.3564208 487.567579,90.4958436 C488.062565,89.9396483 488.281491,89.3019291 488.288967,88.6960476 C488.663811,88.5141866 488.912639,88.3019352 488.968705,88.0539868 C489.381461,86.2228354 485.617536,86.1890682 483.207749,86.2980882 C482.389179,85.745752 480.447146,85.5499018 479.543676,85.3844421 Z" class="svg__leaf" fill="#99D7DE" transform="translate(411.000000, 120.398438) scale(-1, 1) rotate(-10.000000) translate(-411.000000, -120.398438) "></path>
                <path d="M562.933617,147.720016 C562.340122,142.64526 560.468602,137.461125 558.729815,132.682797 C549.510137,107.020301 528.605214,85.9048185 503.450617,76.1428609 C482.036048,67.8325358 460.084293,71.0837402 438.281884,75.4982414 C436.117281,75.9369487 434.019882,76.5280382 431.892226,77.0879656 C431.435589,77.208079 431.021457,77.2951782 430.629295,77.3709245 C429.280944,76.6165519 427.949379,76.4359619 426.924532,77.5108067 C420.849527,76.919034 414.768637,76.7430354 408.617909,76.9135689 C390.513716,77.4159612 372.068492,77.9370463 355.992188,87.073015 C365.70585,84.5650477 375.917943,82.8121695 385.867817,81.4958954 C386.439118,81.4205234 387.009161,81.3553077 387.578977,81.2955716 C387.639002,81.2889272 387.698694,81.2813171 387.758247,81.2748355 C390.836391,80.9620224 393.898025,80.8790571 396.980845,80.9989035 C397.014407,80.9997594 397.047331,81.0002951 397.080586,81.0017965 C397.486432,81.0180188 397.893379,81.0435839 398.299662,81.0672175 C399.140737,81.1160017 399.983219,81.1734832 400.828403,81.2510988 C401.116035,81.2767363 401.404532,81.2972143 401.693423,81.3126955 C405.990992,81.5529277 410.460497,80.7395072 414.833684,80.7743514 C415.833711,80.7985992 416.835583,80.8389554 417.838382,80.8973569 C417.897148,80.9008688 417.95608,80.9048637 418.015013,80.9088585 C420.715085,81.0704185 423.421576,81.3442755 426.124781,81.6884026 C426.803543,82.1479995 428.072212,82.0812785 429.30554,82.2541362 C429.550352,82.2934515 431.226648,82.6825511 432.109703,82.6660938 C433.638994,82.8903447 435.167927,83.1120184 436.696519,83.3419117 C436.681989,83.3242338 436.667459,83.3065558 436.652929,83.2888779 C438.13023,83.5369891 439.603002,83.7888216 441.068755,84.0371322 C441.390727,84.0919845 441.71367,84.1481228 442.036918,84.2036155 C442.553041,84.2963393 443.068692,84.3892258 443.583232,84.4819548 C448.397868,85.3487818 453.178621,86.3796057 457.942005,87.5195822 C459.641853,87.926491 462.370997,89.3576181 464.076764,89.2245096 C464.140452,89.2193034 464.195432,89.2041351 464.254766,89.1939478 C473.682815,91.9805458 482.80385,95.7857915 490.90039,101.32851 C489.618099,100.763103 485.659295,99.986426 484.831846,99.7055475 C482.298435,98.8464831 479.857664,97.8069519 477.392073,96.7689532 C472.975564,94.9104106 468.476477,93.1602697 463.890349,91.8079619 C455.503282,89.3350542 446.989506,87.6420251 438.411068,86.224607 C438.35579,86.2020684 438.30171,86.175336 438.246152,86.1550544 C435.149704,85.0239056 431.06595,85.0475665 427.810472,84.5869857 C432.327336,89.2931158 436.144758,94.9025225 440.421955,99.8559976 C444.686589,104.795978 449.158159,109.490172 454.008625,113.838262 C460.455044,119.617521 467.507894,125.486466 474.925636,130.489659 C482.38958,136.58043 491.234775,140.811851 500.143556,144.167398 C510.6842,148.137472 521.101252,151.514941 532.386038,151.934781 C537.93112,152.14043 543.546466,151.870307 549.012823,150.973661 C549.251295,150.934681 549.512306,150.899816 549.784253,150.866042 C551.877942,151.154496 553.978867,151.333508 556.077124,151.368142 C559.405297,151.424492 563.53345,152.8439 562.933617,147.720016" class="svg__leaf" fill="#A3E0E7" transform="translate(459.492188, 111.500000) scale(-1, 1) rotate(-70.000000) translate(-459.492188, -111.500000) "></path>
                <path d="M1151.94143,678.118454 C1151.34793,673.043698 1149.47641,667.859562 1147.73763,663.081235 C1138.51795,637.418738 1117.61303,616.303256 1092.45843,606.541298 C1071.04386,598.230973 1049.09211,601.482178 1027.2897,605.896679 C1025.12509,606.335386 1023.02769,606.926476 1020.90004,607.486403 C1020.4434,607.606517 1020.02927,607.693616 1019.63711,607.769362 C1018.28876,607.014989 1016.95719,606.834399 1015.93234,607.909244 C1009.85734,607.317471 1003.77645,607.141473 997.625722,607.312006 C979.521528,607.814399 961.076305,608.335484 945,617.471453 C954.713663,614.963485 964.925756,613.210607 974.875629,611.894333 C975.446931,611.818961 976.016974,611.753745 976.586789,611.694009 C976.646814,611.687365 976.706507,611.679755 976.766059,611.673273 C979.844204,611.36046 982.905838,611.277495 985.988658,611.397341 C986.022219,611.398197 986.055143,611.398733 986.088399,611.400234 C986.494245,611.416456 986.901192,611.442021 987.307475,611.465655 C988.148549,611.514439 988.991031,611.571921 989.836215,611.649536 C990.123847,611.675174 990.412345,611.695652 990.701235,611.711133 C994.998804,611.951365 999.468309,611.137945 1003.8415,611.172789 C1004.84152,611.197037 1005.8434,611.237393 1006.84619,611.295794 C1006.90496,611.299306 1006.96389,611.303301 1007.02283,611.307296 C1009.7229,611.468856 1012.42939,611.742713 1015.13259,612.08684 C1015.81136,612.546437 1017.08002,612.479716 1018.31335,612.652574 C1018.55816,612.691889 1020.23446,613.080989 1021.11752,613.064531 C1022.64681,613.288782 1024.17574,613.510456 1025.70433,613.740349 C1025.6898,613.722671 1025.67527,613.704993 1025.66074,613.687315 C1027.13804,613.935427 1028.61081,614.187259 1030.07657,614.43557 C1030.39854,614.490422 1030.72148,614.54656 1031.04473,614.602053 C1031.56085,614.694777 1032.0765,614.787663 1032.59104,614.880392 C1037.40568,615.747219 1042.18643,616.778043 1046.94982,617.91802 C1048.64967,618.324929 1051.37881,619.756056 1053.08458,619.622947 C1053.14826,619.617741 1053.20324,619.602573 1053.26258,619.592385 C1062.69063,622.378983 1071.81166,626.184229 1079.9082,631.726947 C1078.62591,631.161541 1074.66711,630.384863 1073.83966,630.103985 C1071.30625,629.244921 1068.86548,628.205389 1066.39989,627.167391 C1061.98338,625.308848 1057.48429,623.558707 1052.89816,622.206399 C1044.51109,619.733492 1035.99732,618.040463 1027.41888,616.623045 C1027.3636,616.600506 1027.30952,616.573774 1027.25396,616.553492 C1024.15752,615.422343 1020.07376,615.446004 1016.81828,614.985423 C1021.33515,619.691553 1025.15257,625.30096 1029.42977,630.254435 C1033.6944,635.194416 1038.16597,639.88861 1043.01644,644.2367 C1049.46286,650.015959 1056.51571,655.884903 1063.93345,660.888097 C1071.39739,666.978868 1080.24259,671.210288 1089.15137,674.565835 C1099.69201,678.53591 1110.10906,681.913379 1121.39385,682.333218 C1126.93893,682.538867 1132.55428,682.268745 1138.02064,681.372098 C1138.25911,681.333118 1138.52012,681.298253 1138.79207,681.26448 C1140.88575,681.552933 1142.98668,681.731945 1145.08494,681.76658 C1148.41311,681.822929 1152.54126,683.242338 1151.94143,678.118454" class="svg__leaf" fill="#A3E0E7" transform="translate(1048.500000, 641.898438) scale(1, -1) rotate(-37.000000) translate(-1048.500000, -641.898438) "></path>
                <path d="M165.077917,415.539591 C121.446031,415.539591 47,348.900308 47,293.555569 C47,289.345918 48.9963264,281.398438 53.4015041,281.398438 C77.2174567,281.36159 165.077917,352.409578 165.077917,415.539591 Z" class="svg__leaf" fill="#90CBD4" transform="translate(106.038958, 348.469014) scale(-1, 1) rotate(-81.000000) translate(-106.038958, -348.469014) "></path>
                <g class="svg__leaf" transform="translate(245.007652, 627.147826) rotate(-230.000000) translate(-245.007652, -627.147826) ">
                    <use fill="#A3E0E7" xlink:href="#path-4"></use>
                    <use fill="url(#linearGradient-3)" xlink:href="#path-4"></use>
                </g>
                <path d="M1151.08984,202.146791 C1244.41406,322.549135 1201.95285,391.275697 1121,524.15851 C1040.04715,657.041322 948.731081,735.446415 772.386719,676.205385 C628.5,627.868158 553.640625,639.330337 428.84375,671.205121 C304.046875,703.079905 217.740356,571.790246 181.322393,536.275697 C95.0840579,452.176662 51.6374831,263.702094 146.466183,220.760072 C241.294882,177.81805 428.519531,21.5921035 673.007812,112.244447 C880.933186,189.33985 1057.76563,81.7444472 1151.08984,202.146791 Z" id="blob-top" fill="url(#radialGradient-5)" transform="translate(648.530094, 390.337067) scale(-1, 1) rotate(-180.000000) translate(-648.530094, -390.337067) "></path>
            </g>
        </g>
    </g>
</svg>
