<svg viewBox="0 0 2536 2304" version="1.1">
    <title>Custom Domain and DOI</title>
    <g id="custom-domain-and-doi" stroke="none" stroke-width="1" fill="none" fill-rule="evenodd">
        <rect fill="#FFFFFF" x="0" y="0" width="2536" height="2304"></rect>
        <polygon id="Path" fill="#DEE1E4" fill-rule="nonzero" points="0 0 2536 0 2536 243 0 243"></polygon>
        <polyline id="Path" stroke="#B2BCC6" stroke-width="4.5" stroke-linecap="round" stroke-linejoin="round" points="94 131 74 148.335938 94 165.671875"></polyline>
        <rect id="Rectangle" fill="#FFFFFF" fill-rule="nonzero" x="464" y="99" width="1800" height="94" rx="15"></rect>
        <path d="M544.599999,146.010112 L544.599999,142.988825 C544.599999,137.719527 540.301933,133.447917 535,133.447917 C529.698066,133.447917 525.4,137.719527 525.4,142.988825 L525.4,146.010112 C523.916397,146.861397 523.001757,148.433984 523,150.136555 L523,159.677463 C523,162.312112 525.149033,164.447917 527.8,164.447917 L542.199999,164.447917 C544.850966,164.447917 547,162.312112 547,159.677463 L547,150.144506 C547.001099,148.439094 546.086077,146.862818 544.599999,146.010112 L544.599999,146.010112 Z M540,147.447917 L530,147.447917 L530,142.447917 C530,139.686493 532.238576,137.447917 535,137.447917 C537.761424,137.447917 540,139.686493 540,142.447917 L540,147.447917 Z" id="Shape" fill="#E6EBF1" fill-rule="nonzero"></path>
        <polyline id="Path" stroke="#B2BCC6" stroke-width="4.5" stroke-linecap="round" stroke-linejoin="round" points="218 165.671875 238 148.335938 218 131"></polyline>
        <g id="Group" transform="translate(338.000000, 123.000000)" stroke="#B2BCC6" stroke-linecap="round" stroke-linejoin="round" stroke-width="4.5">
            <polyline id="Path" transform="translate(19.500000, 9.500000) rotate(-90.000000) translate(-19.500000, -9.500000) " points="10.7258929 29 28.2741071 9.5 10.7258929 -10"></polyline>
            <path d="M39,19.5739749 L39,46.8711971 C39,49.0248885 37.0599006,50.7708003 34.6666667,50.7708003 L4.33333333,50.7708003 C1.94009942,50.7708003 0,49.0248885 0,46.8711971 L0,19.5739749" id="Path"></path>
        </g>
        <line x1="2371.31646" y1="128.41276" x2="2420.68354" y2="128.41276" id="Line" stroke="#B2BCC6" stroke-width="4.5" stroke-linecap="round" stroke-linejoin="round"></line>
        <line x1="2371.32278" y1="147.39974" x2="2421.67722" y2="147.39974" id="Line-Copy" stroke="#B2BCC6" stroke-width="4.5" stroke-linecap="round" stroke-linejoin="round"></line>
        <line x1="2371.32278" y1="166.386719" x2="2421.67722" y2="166.386719" id="Line-Copy-2" stroke="#B2BCC6" stroke-width="4.5" stroke-linecap="round" stroke-linejoin="round"></line>
        <path d="M800.072591,203 L834.977,293 L1824,293 C1832.83656,293 1840,300.163444 1840,309 L1840,529 C1840,537.836556 1832.83656,545 1824,545 L393,545 C384.163444,545 377,537.836556 377,529 L377,309 C377,300.163444 384.163444,293 393,293 L765.972,293 L800.072591,203 Z" id="Combined-Shape" stroke="#E6EBF1" stroke-width="4.5" fill="#E6EBF1" stroke-linecap="round" stroke-linejoin="round"></path>
        <rect id="Rectangle" fill="#2F52BB" fill-rule="nonzero" x="605" y="137" width="1114" height="21" rx="6"></rect>
        <path d="M607.525,461 L607.525,432.9 L633.825,388.7 L621.925,388.7 C620.791667,388.7 619.858333,389.016667 619.125,389.65 C618.391667,390.283333 617.841667,390.966667 617.475,391.7 L617.475,391.7 L604.325,415.85 C603.558333,417.25 602.9,418.591667 602.35,419.875 C601.8,421.158333 601.308333,422.433333 600.875,423.7 C600.408333,422.466667 599.891667,421.208333 599.325,419.925 C598.758333,418.641667 598.091667,417.283333 597.325,415.85 L597.325,415.85 L584.075,391.7 C583.608333,390.833333 583.033333,390.116667 582.35,389.55 C581.666667,388.983333 580.741667,388.7 579.575,388.7 L579.575,388.7 L567.725,388.7 L594.075,432.9 L594.075,461 L607.525,461 Z M672.075,461.8 C677.541667,461.8 682.525,460.875 687.025,459.025 C691.525,457.175 695.375,454.6 698.575,451.3 C701.775,448 704.258333,444.091667 706.025,439.575 C707.791667,435.058333 708.675,430.15 708.675,424.85 C708.675,419.55 707.791667,414.641667 706.025,410.125 C704.258333,405.608333 701.775,401.708333 698.575,398.425 C695.375,395.141667 691.525,392.566667 687.025,390.7 C682.525,388.833333 677.541667,387.9 672.075,387.9 C666.608333,387.9 661.616667,388.825 657.1,390.675 C652.583333,392.525 648.716667,395.1 645.5,398.4 C642.283333,401.7 639.791667,405.608333 638.025,410.125 C636.258333,414.641667 635.375,419.55 635.375,424.85 C635.375,430.15 636.258333,435.058333 638.025,439.575 C639.791667,444.091667 642.283333,448 645.5,451.3 C648.716667,454.6 652.583333,457.175 657.1,459.025 C661.616667,460.875 666.608333,461.8 672.075,461.8 Z M672.075,450.3 C668.541667,450.3 665.358333,449.716667 662.525,448.55 C659.691667,447.383333 657.283333,445.708333 655.3,443.525 C653.316667,441.341667 651.791667,438.675 650.725,435.525 C649.658333,432.375 649.125,428.816667 649.125,424.85 C649.125,420.883333 649.658333,417.325 650.725,414.175 C651.791667,411.025 653.316667,408.35 655.3,406.15 C657.283333,403.95 659.691667,402.266667 662.525,401.1 C665.358333,399.933333 668.541667,399.35 672.075,399.35 C675.608333,399.35 678.783333,399.933333 681.6,401.1 C684.416667,402.266667 686.808333,403.95 688.775,406.15 C690.741667,408.35 692.25,411.025 693.3,414.175 C694.35,417.325 694.875,420.883333 694.875,424.85 C694.875,428.816667 694.35,432.375 693.3,435.525 C692.25,438.675 690.741667,441.341667 688.775,443.525 C686.808333,445.708333 684.416667,447.383333 681.6,448.55 C678.783333,449.716667 675.608333,450.3 672.075,450.3 Z M750.875,461.8 C755.508333,461.8 759.675,461.058333 763.375,459.575 C767.075,458.091667 770.225,456.025 772.825,453.375 C775.425,450.725 777.416667,447.575 778.8,443.925 C780.183333,440.275 780.875,436.3 780.875,432 L780.875,432 L780.875,388.7 L767.425,388.7 L767.425,432 C767.425,434.766667 767.05,437.266667 766.3,439.5 C765.55,441.733333 764.466667,443.633333 763.05,445.2 C761.633333,446.766667 759.9,447.983333 757.85,448.85 C755.8,449.716667 753.475,450.15 750.875,450.15 C748.275,450.15 745.95,449.716667 743.9,448.85 C741.85,447.983333 740.125,446.758333 738.725,445.175 C737.325,443.591667 736.25,441.683333 735.5,439.45 C734.75,437.216667 734.375,434.716667 734.375,431.95 L734.375,431.95 L734.375,388.7 L720.925,388.7 L720.925,432 C720.925,436.3 721.616667,440.275 723,443.925 C724.383333,447.575 726.366667,450.725 728.95,453.375 C731.533333,456.025 734.675,458.091667 738.375,459.575 C742.075,461.058333 746.241667,461.8 750.875,461.8 Z M810.975,461 L810.975,432.75 L816.725,432.75 C818.058333,432.75 819.066667,432.933333 819.75,433.3 C820.433333,433.666667 821.058333,434.283333 821.625,435.15 L821.625,435.15 L836.825,458.3 C837.391667,459.166667 838.083333,459.833333 838.9,460.3 C839.716667,460.766667 840.708333,461 841.875,461 L841.875,461 L853.975,461 L835.875,434.3 C834.641667,432.5 833.175,431.116667 831.475,430.15 C834.008333,429.35 836.266667,428.283333 838.25,426.95 C840.233333,425.616667 841.9,424.066667 843.25,422.3 C844.6,420.533333 845.633333,418.566667 846.35,416.4 C847.066667,414.233333 847.425,411.933333 847.425,409.5 C847.425,406.433333 846.9,403.625 845.85,401.075 C844.8,398.525 843.15,396.333333 840.9,394.5 C838.65,392.666667 835.766667,391.241667 832.25,390.225 C828.733333,389.208333 824.508333,388.7 819.575,388.7 L819.575,388.7 L797.525,388.7 L797.525,461 L810.975,461 Z M819.375,423.1 L810.975,423.1 L810.975,399.1 L819.575,399.1 C824.541667,399.1 828.233333,400.083333 830.65,402.05 C833.066667,404.016667 834.275,406.833333 834.275,410.5 C834.275,412.333333 833.975,414.016667 833.375,415.55 C832.775,417.083333 831.866667,418.408333 830.65,419.525 C829.433333,420.641667 827.883333,421.516667 826,422.15 C824.116667,422.783333 821.908333,423.1 819.375,423.1 L819.375,423.1 Z M914.475,461 C919.941667,461 924.925,460.116667 929.425,458.35 C933.925,456.583333 937.775,454.1 940.975,450.9 C944.175,447.7 946.658333,443.883333 948.425,439.45 C950.191667,435.016667 951.075,430.15 951.075,424.85 C951.075,419.55 950.191667,414.683333 948.425,410.25 C946.658333,405.816667 944.175,402.008333 940.975,398.825 C937.775,395.641667 933.925,393.158333 929.425,391.375 C924.925,389.591667 919.941667,388.7 914.475,388.7 L914.475,388.7 L886.875,388.7 L886.875,461 L914.475,461 Z M914.475,450.3 L900.425,450.3 L900.425,399.4 L914.475,399.4 C918.008333,399.4 921.183333,399.983333 924,401.15 C926.816667,402.316667 929.208333,403.991667 931.175,406.175 C933.141667,408.358333 934.658333,411.025 935.725,414.175 C936.791667,417.325 937.325,420.883333 937.325,424.85 C937.325,428.816667 936.791667,432.375 935.725,435.525 C934.658333,438.675 933.141667,441.341667 931.175,443.525 C929.208333,445.708333 926.816667,447.383333 924,448.55 C921.183333,449.716667 918.008333,450.3 914.475,450.3 L914.475,450.3 Z M996.875,461.8 C1002.34167,461.8 1007.325,460.875 1011.825,459.025 C1016.325,457.175 1020.175,454.6 1023.375,451.3 C1026.575,448 1029.05833,444.091667 1030.825,439.575 C1032.59167,435.058333 1033.475,430.15 1033.475,424.85 C1033.475,419.55 1032.59167,414.641667 1030.825,410.125 C1029.05833,405.608333 1026.575,401.708333 1023.375,398.425 C1020.175,395.141667 1016.325,392.566667 1011.825,390.7 C1007.325,388.833333 1002.34167,387.9 996.875,387.9 C991.408333,387.9 986.416667,388.825 981.9,390.675 C977.383333,392.525 973.516667,395.1 970.3,398.4 C967.083333,401.7 964.591667,405.608333 962.825,410.125 C961.058333,414.641667 960.175,419.55 960.175,424.85 C960.175,430.15 961.058333,435.058333 962.825,439.575 C964.591667,444.091667 967.083333,448 970.3,451.3 C973.516667,454.6 977.383333,457.175 981.9,459.025 C986.416667,460.875 991.408333,461.8 996.875,461.8 Z M996.875,450.3 C993.341667,450.3 990.158333,449.716667 987.325,448.55 C984.491667,447.383333 982.083333,445.708333 980.1,443.525 C978.116667,441.341667 976.591667,438.675 975.525,435.525 C974.458333,432.375 973.925,428.816667 973.925,424.85 C973.925,420.883333 974.458333,417.325 975.525,414.175 C976.591667,411.025 978.116667,408.35 980.1,406.15 C982.083333,403.95 984.491667,402.266667 987.325,401.1 C990.158333,399.933333 993.341667,399.35 996.875,399.35 C1000.40833,399.35 1003.58333,399.933333 1006.4,401.1 C1009.21667,402.266667 1011.60833,403.95 1013.575,406.15 C1015.54167,408.35 1017.05,411.025 1018.1,414.175 C1019.15,417.325 1019.675,420.883333 1019.675,424.85 C1019.675,428.816667 1019.15,432.375 1018.1,435.525 C1017.05,438.675 1015.54167,441.341667 1013.575,443.525 C1011.60833,445.708333 1009.21667,447.383333 1006.4,448.55 C1003.58333,449.716667 1000.40833,450.3 996.875,450.3 Z M1058.425,461 L1058.425,414.3 C1058.425,413.4 1058.4,412.425 1058.35,411.375 C1058.3,410.325 1058.20833,409.25 1058.075,408.15 L1058.075,408.15 L1080.225,449.3 C1080.725,450.233333 1081.375,450.958333 1082.175,451.475 C1082.975,451.991667 1083.90833,452.25 1084.975,452.25 L1084.975,452.25 L1086.825,452.25 C1087.89167,452.25 1088.825,451.991667 1089.625,451.475 C1090.425,450.958333 1091.075,450.233333 1091.575,449.3 L1091.575,449.3 L1113.425,408.3 C1113.325,409.366667 1113.25,410.416667 1113.2,411.45 C1113.15,412.483333 1113.125,413.433333 1113.125,414.3 L1113.125,414.3 L1113.125,461 L1124.975,461 L1124.975,388.7 L1114.825,388.7 C1114.225,388.7 1113.70833,388.716667 1113.275,388.75 C1112.84167,388.783333 1112.45,388.866667 1112.1,389 C1111.75,389.133333 1111.43333,389.35 1111.15,389.65 C1110.86667,389.95 1110.59167,390.35 1110.325,390.85 L1110.325,390.85 L1088.925,430.9 C1088.35833,431.966667 1087.825,433.083333 1087.325,434.25 C1086.825,435.416667 1086.34167,436.6 1085.875,437.8 C1085.40833,436.633333 1084.93333,435.475 1084.45,434.325 C1083.96667,433.175 1083.44167,432.066667 1082.875,431 L1082.875,431 L1061.275,390.85 C1061.00833,390.35 1060.725,389.95 1060.425,389.65 C1060.125,389.35 1059.8,389.133333 1059.45,389 C1059.1,388.866667 1058.70833,388.783333 1058.275,388.75 C1057.84167,388.716667 1057.325,388.7 1056.725,388.7 L1056.725,388.7 L1046.575,388.7 L1046.575,461 L1058.425,461 Z M1145.525,461 C1146.65833,461 1147.61667,460.683333 1148.4,460.05 C1149.18333,459.416667 1149.70833,458.716667 1149.975,457.95 L1149.975,457.95 L1155.375,443.2 L1185.325,443.2 L1190.725,457.95 C1191.05833,458.816667 1191.6,459.541667 1192.35,460.125 C1193.1,460.708333 1194.05833,461 1195.225,461 L1195.225,461 L1205.625,461 L1177.225,388.7 L1163.475,388.7 L1135.075,461 L1145.525,461 Z M1181.875,433.7 L1158.825,433.7 L1167.625,409.75 C1168.05833,408.65 1168.5,407.366667 1168.95,405.9 C1169.4,404.433333 1169.85833,402.85 1170.325,401.15 C1170.79167,402.85 1171.26667,404.425 1171.75,405.875 C1172.23333,407.325 1172.675,408.583333 1173.075,409.65 L1173.075,409.65 L1181.875,433.7 Z M1230.725,461 L1230.725,388.7 L1217.225,388.7 L1217.225,461 L1230.725,461 Z M1261.325,461 L1261.325,416.6 C1261.325,415.733333 1261.3,414.775 1261.25,413.725 C1261.2,412.675 1261.125,411.616667 1261.025,410.55 L1261.025,410.55 L1298.825,458.7 C1299.49167,459.566667 1300.175,460.166667 1300.875,460.5 C1301.575,460.833333 1302.45833,461 1303.525,461 L1303.525,461 L1310.475,461 L1310.475,388.7 L1298.625,388.7 L1298.625,432.65 C1298.625,433.616667 1298.65,434.658333 1298.7,435.775 C1298.75,436.891667 1298.84167,438.033333 1298.975,439.2 L1298.975,439.2 L1261.025,390.85 C1260.65833,390.383333 1260.325,390.008333 1260.025,389.725 C1259.725,389.441667 1259.41667,389.225 1259.1,389.075 C1258.78333,388.925 1258.425,388.825 1258.025,388.775 C1257.625,388.725 1257.125,388.7 1256.525,388.7 L1256.525,388.7 L1249.475,388.7 L1249.475,461 L1261.325,461 Z M1361.225,461 L1361.225,416.6 C1361.225,415.733333 1361.2,414.775 1361.15,413.725 C1361.1,412.675 1361.025,411.616667 1360.925,410.55 L1360.925,410.55 L1398.725,458.7 C1399.39167,459.566667 1400.075,460.166667 1400.775,460.5 C1401.475,460.833333 1402.35833,461 1403.425,461 L1403.425,461 L1410.375,461 L1410.375,388.7 L1398.525,388.7 L1398.525,432.65 C1398.525,433.616667 1398.55,434.658333 1398.6,435.775 C1398.65,436.891667 1398.74167,438.033333 1398.875,439.2 L1398.875,439.2 L1360.925,390.85 C1360.55833,390.383333 1360.225,390.008333 1359.925,389.725 C1359.625,389.441667 1359.31667,389.225 1359,389.075 C1358.68333,388.925 1358.325,388.825 1357.925,388.775 C1357.525,388.725 1357.025,388.7 1356.425,388.7 L1356.425,388.7 L1349.375,388.7 L1349.375,461 L1361.225,461 Z M1430.925,461 C1432.05833,461 1433.01667,460.683333 1433.8,460.05 C1434.58333,459.416667 1435.10833,458.716667 1435.375,457.95 L1435.375,457.95 L1440.775,443.2 L1470.725,443.2 L1476.125,457.95 C1476.45833,458.816667 1477,459.541667 1477.75,460.125 C1478.5,460.708333 1479.45833,461 1480.625,461 L1480.625,461 L1491.025,461 L1462.625,388.7 L1448.875,388.7 L1420.475,461 L1430.925,461 Z M1467.275,433.7 L1444.225,433.7 L1453.025,409.75 C1453.45833,408.65 1453.9,407.366667 1454.35,405.9 C1454.8,404.433333 1455.25833,402.85 1455.725,401.15 C1456.19167,402.85 1456.66667,404.425 1457.15,405.875 C1457.63333,407.325 1458.075,408.583333 1458.475,409.65 L1458.475,409.65 L1467.275,433.7 Z M1512.825,461 L1512.825,414.3 C1512.825,413.4 1512.8,412.425 1512.75,411.375 C1512.7,410.325 1512.60833,409.25 1512.475,408.15 L1512.475,408.15 L1534.625,449.3 C1535.125,450.233333 1535.775,450.958333 1536.575,451.475 C1537.375,451.991667 1538.30833,452.25 1539.375,452.25 L1539.375,452.25 L1541.225,452.25 C1542.29167,452.25 1543.225,451.991667 1544.025,451.475 C1544.825,450.958333 1545.475,450.233333 1545.975,449.3 L1545.975,449.3 L1567.825,408.3 C1567.725,409.366667 1567.65,410.416667 1567.6,411.45 C1567.55,412.483333 1567.525,413.433333 1567.525,414.3 L1567.525,414.3 L1567.525,461 L1579.375,461 L1579.375,388.7 L1569.225,388.7 C1568.625,388.7 1568.10833,388.716667 1567.675,388.75 C1567.24167,388.783333 1566.85,388.866667 1566.5,389 C1566.15,389.133333 1565.83333,389.35 1565.55,389.65 C1565.26667,389.95 1564.99167,390.35 1564.725,390.85 L1564.725,390.85 L1543.325,430.9 C1542.75833,431.966667 1542.225,433.083333 1541.725,434.25 C1541.225,435.416667 1540.74167,436.6 1540.275,437.8 C1539.80833,436.633333 1539.33333,435.475 1538.85,434.325 C1538.36667,433.175 1537.84167,432.066667 1537.275,431 L1537.275,431 L1515.675,390.85 C1515.40833,390.35 1515.125,389.95 1514.825,389.65 C1514.525,389.35 1514.2,389.133333 1513.85,389 C1513.5,388.866667 1513.10833,388.783333 1512.675,388.75 C1512.24167,388.716667 1511.725,388.7 1511.125,388.7 L1511.125,388.7 L1500.975,388.7 L1500.975,461 L1512.825,461 Z M1642.075,461 L1642.075,450.25 L1610.025,450.25 L1610.025,429.8 L1635.275,429.8 L1635.275,419.45 L1610.025,419.45 L1610.025,399.4 L1642.075,399.4 L1642.075,388.7 L1596.475,388.7 L1596.475,461 L1642.075,461 Z" id="YOURDOMAINNAME" fill="#6D85CF" fill-rule="nonzero"></path>
        <g id="Group-4" transform="translate(238.000000, 810.000000)">
            <rect id="Rectangle" stroke="#E6EBF1" stroke-width="4.5" stroke-linecap="round" stroke-linejoin="round" x="1.8189894e-12" y="0" width="2075" height="149"></rect>
            <path d="M125,66 L1504,66 C1507.31371,66 1510,68.6862915 1510,72 L1510,78 C1510,81.3137085 1507.31371,84 1504,84 L740.226907,84 L740.226907,84 L125,84 C121.686292,84 119,81.3137085 119,78 L119,72 C119,68.6862915 121.686292,66 125,66 Z" id="Rectangle" fill="#E6EBF1" fill-rule="nonzero" opacity="0.5"></path>
            <path d="M1723,65 L1947,65 C1950.31371,65 1953,67.6862915 1953,71 L1953,80 C1953,83.3137085 1950.31371,86 1947,86 L1822.39867,86 L1822.39867,86 L1723,86 C1719.68629,86 1717,83.3137085 1717,80 L1717,71 C1717,67.6862915 1719.68629,65 1723,65 Z" id="Rectangle" fill="#E6EBF1" fill-rule="nonzero" opacity="0.5" transform="translate(1835.000000, 75.500000) scale(-1, 1) translate(-1835.000000, -75.500000) "></path>
        </g>
        <g id="Group-4-Copy-3" transform="translate(238.000000, 1109.000000)">
            <rect id="Rectangle" stroke="#E6EBF1" stroke-width="4.5" stroke-linecap="round" stroke-linejoin="round" x="1.8189894e-12" y="0" width="2075" height="149"></rect>
            <path d="M125,66 L1504,66 C1507.31371,66 1510,68.6862915 1510,72 L1510,78 C1510,81.3137085 1507.31371,84 1504,84 L740.226907,84 L740.226907,84 L125,84 C121.686292,84 119,81.3137085 119,78 L119,72 C119,68.6862915 121.686292,66 125,66 Z" id="Rectangle" fill="#E6EBF1" fill-rule="nonzero" opacity="0.5"></path>
            <path d="M1723,65 L1947,65 C1950.31371,65 1953,67.6862915 1953,71 L1953,80 C1953,83.3137085 1950.31371,86 1947,86 L1822.39867,86 L1822.39867,86 L1723,86 C1719.68629,86 1717,83.3137085 1717,80 L1717,71 C1717,67.6862915 1719.68629,65 1723,65 Z" id="Rectangle" fill="#E6EBF1" fill-rule="nonzero" opacity="0.5" transform="translate(1835.000000, 75.500000) scale(-1, 1) translate(-1835.000000, -75.500000) "></path>
        </g>
        <g id="Group-4-Copy-6" transform="translate(238.000000, 1407.000000)">
            <rect id="Rectangle" stroke="#E6EBF1" stroke-width="4.5" stroke-linecap="round" stroke-linejoin="round" x="1.8189894e-12" y="0" width="2075" height="150"></rect>
            <path d="M125,66 L1504,66 C1507.31371,66 1510,68.6862915 1510,72 L1510,78 C1510,81.3137085 1507.31371,84 1504,84 L740.226907,84 L740.226907,84 L125,84 C121.686292,84 119,81.3137085 119,78 L119,72 C119,68.6862915 121.686292,66 125,66 Z" id="Rectangle" fill="#E6EBF1" fill-rule="nonzero" opacity="0.5"></path>
            <path d="M1723,65 L1947,65 C1950.31371,65 1953,67.6862915 1953,71 L1953,80 C1953,83.3137085 1950.31371,86 1947,86 L1822.39867,86 L1822.39867,86 L1723,86 C1719.68629,86 1717,83.3137085 1717,80 L1717,71 C1717,67.6862915 1719.68629,65 1723,65 Z" id="Rectangle" fill="#E6EBF1" fill-rule="nonzero" opacity="0.5" transform="translate(1835.000000, 75.500000) scale(-1, 1) translate(-1835.000000, -75.500000) "></path>
        </g>
        <g id="Group-4-Copy-9" transform="translate(238.000000, 1706.000000)">
            <rect id="Rectangle" stroke="#E6EBF1" stroke-width="4.5" stroke-linecap="round" stroke-linejoin="round" x="1.8189894e-12" y="0" width="2075" height="150"></rect>
            <path d="M125,66 L1504,66 C1507.31371,66 1510,68.6862915 1510,72 L1510,78 C1510,81.3137085 1507.31371,84 1504,84 L740.226907,84 L740.226907,84 L125,84 C121.686292,84 119,81.3137085 119,78 L119,72 C119,68.6862915 121.686292,66 125,66 Z" id="Rectangle" fill="#E6EBF1" fill-rule="nonzero" opacity="0.5"></path>
            <path d="M1723,65 L1947,65 C1950.31371,65 1953,67.6862915 1953,71 L1953,80 C1953,83.3137085 1950.31371,86 1947,86 L1822.39867,86 L1822.39867,86 L1723,86 C1719.68629,86 1717,83.3137085 1717,80 L1717,71 C1717,67.6862915 1719.68629,65 1723,65 Z" id="Rectangle" fill="#E6EBF1" fill-rule="nonzero" opacity="0.5" transform="translate(1835.000000, 75.500000) scale(-1, 1) translate(-1835.000000, -75.500000) "></path>
        </g>
        <g id="Group-4-Copy-2" transform="translate(238.000000, 959.000000)">
            <rect id="Rectangle" stroke="#E6EBF1" stroke-width="4.5" stroke-linecap="round" stroke-linejoin="round" x="1.8189894e-12" y="0" width="2075" height="150"></rect>
            <path d="M125,66 L1504,66 C1507.31371,66 1510,68.6862915 1510,72 L1510,78 C1510,81.3137085 1507.31371,84 1504,84 L740.226907,84 L740.226907,84 L125,84 C121.686292,84 119,81.3137085 119,78 L119,72 C119,68.6862915 121.686292,66 125,66 Z" id="Rectangle" fill="#E6EBF1" fill-rule="nonzero" opacity="0.5"></path>
            <path d="M1723,65 L1947,65 C1950.31371,65 1953,67.6862915 1953,71 L1953,80 C1953,83.3137085 1950.31371,86 1947,86 L1822.39867,86 L1822.39867,86 L1723,86 C1719.68629,86 1717,83.3137085 1717,80 L1717,71 C1717,67.6862915 1719.68629,65 1723,65 Z" id="Rectangle" fill="#E6EBF1" fill-rule="nonzero" opacity="0.5" transform="translate(1835.000000, 75.500000) scale(-1, 1) translate(-1835.000000, -75.500000) "></path>
        </g>
        <g id="Group-4-Copy-5" transform="translate(238.000000, 1258.000000)">
            <rect id="Rectangle" stroke="#E6EBF1" stroke-width="4.5" stroke-linecap="round" stroke-linejoin="round" x="1.8189894e-12" y="0" width="2075" height="149"></rect>
            <path d="M125,66 L1504,66 C1507.31371,66 1510,68.6862915 1510,72 L1510,78 C1510,81.3137085 1507.31371,84 1504,84 L740.226907,84 L740.226907,84 L125,84 C121.686292,84 119,81.3137085 119,78 L119,72 C119,68.6862915 121.686292,66 125,66 Z" id="Rectangle" fill="#E6EBF1" fill-rule="nonzero" opacity="0.5"></path>
            <path d="M1723,65 L1947,65 C1950.31371,65 1953,67.6862915 1953,71 L1953,80 C1953,83.3137085 1950.31371,86 1947,86 L1822.39867,86 L1822.39867,86 L1723,86 C1719.68629,86 1717,83.3137085 1717,80 L1717,71 C1717,67.6862915 1719.68629,65 1723,65 Z" id="Rectangle" fill="#E6EBF1" fill-rule="nonzero" opacity="0.5" transform="translate(1835.000000, 75.500000) scale(-1, 1) translate(-1835.000000, -75.500000) "></path>
        </g>
        <g id="Group-4-Copy-8" transform="translate(238.000000, 1557.000000)">
            <rect id="Rectangle" stroke="#E6EBF1" stroke-width="4.5" stroke-linecap="round" stroke-linejoin="round" x="1.8189894e-12" y="0" width="2075" height="149"></rect>
            <path d="M125,66 L1504,66 C1507.31371,66 1510,68.6862915 1510,72 L1510,78 C1510,81.3137085 1507.31371,84 1504,84 L740.226907,84 L740.226907,84 L125,84 C121.686292,84 119,81.3137085 119,78 L119,72 C119,68.6862915 121.686292,66 125,66 Z" id="Rectangle" fill="#E6EBF1" fill-rule="nonzero" opacity="0.5"></path>
            <path d="M1723,65 L1947,65 C1950.31371,65 1953,67.6862915 1953,71 L1953,80 C1953,83.3137085 1950.31371,86 1947,86 L1822.39867,86 L1822.39867,86 L1723,86 C1719.68629,86 1717,83.3137085 1717,80 L1717,71 C1717,67.6862915 1719.68629,65 1723,65 Z" id="Rectangle" fill="#E6EBF1" fill-rule="nonzero" opacity="0.5" transform="translate(1835.000000, 75.500000) scale(-1, 1) translate(-1835.000000, -75.500000) "></path>
        </g>
        <g id="Group-4-Copy-11" transform="translate(238.000000, 1856.000000)">
            <rect id="Rectangle" stroke="#E6EBF1" stroke-width="4.5" stroke-linecap="round" stroke-linejoin="round" x="1.8189894e-12" y="0" width="2075" height="149"></rect>
            <path d="M125,66 L1504,66 C1507.31371,66 1510,68.6862915 1510,72 L1510,78 C1510,81.3137085 1507.31371,84 1504,84 L740.226907,84 L740.226907,84 L125,84 C121.686292,84 119,81.3137085 119,78 L119,72 C119,68.6862915 121.686292,66 125,66 Z" id="Rectangle" fill="#E6EBF1" fill-rule="nonzero" opacity="0.5"></path>
            <path d="M1723,65 L1947,65 C1950.31371,65 1953,67.6862915 1953,71 L1953,80 C1953,83.3137085 1950.31371,86 1947,86 L1822.39867,86 L1822.39867,86 L1723,86 C1719.68629,86 1717,83.3137085 1717,80 L1717,71 C1717,67.6862915 1719.68629,65 1723,65 Z" id="Rectangle" fill="#E6EBF1" fill-rule="nonzero" opacity="0.5" transform="translate(1835.000000, 75.500000) scale(-1, 1) translate(-1835.000000, -75.500000) "></path>
        </g>
        <g id="Group-4-Copy-9" transform="translate(238.000000, 2005.000000)">
            <rect id="Rectangle" stroke="#E6EBF1" stroke-width="4.5" stroke-linecap="round" stroke-linejoin="round" x="1.8189894e-12" y="0" width="2075" height="150"></rect>
            <path d="M125,66 L1504,66 C1507.31371,66 1510,68.6862915 1510,72 L1510,78 C1510,81.3137085 1507.31371,84 1504,84 L740.226907,84 L740.226907,84 L125,84 C121.686292,84 119,81.3137085 119,78 L119,72 C119,68.6862915 121.686292,66 125,66 Z" id="Rectangle" fill="#E6EBF1" fill-rule="nonzero" opacity="0.5"></path>
            <path d="M1723,65 L1947,65 C1950.31371,65 1953,67.6862915 1953,71 L1953,80 C1953,83.3137085 1950.31371,86 1947,86 L1822.39867,86 L1822.39867,86 L1723,86 C1719.68629,86 1717,83.3137085 1717,80 L1717,71 C1717,67.6862915 1719.68629,65 1723,65 Z" id="Rectangle" fill="#2F52BB" fill-rule="nonzero" transform="translate(1835.000000, 75.500000) scale(-1, 1) translate(-1835.000000, -75.500000) "></path>
        </g>
        <g id="Group-4-Copy-11" transform="translate(238.000000, 2155.000000)">
            <rect id="Rectangle" stroke="#E6EBF1" stroke-width="4.5" stroke-linecap="round" stroke-linejoin="round" x="1.8189894e-12" y="0" width="2075" height="149"></rect>
            <path d="M125,66 L1504,66 C1507.31371,66 1510,68.6862915 1510,72 L1510,78 C1510,81.3137085 1507.31371,84 1504,84 L740.226907,84 L740.226907,84 L125,84 C121.686292,84 119,81.3137085 119,78 L119,72 C119,68.6862915 121.686292,66 125,66 Z" id="Rectangle" fill="#E6EBF1" fill-rule="nonzero" opacity="0.5"></path>
            <path d="M1723,65 L1947,65 C1950.31371,65 1953,67.6862915 1953,71 L1953,80 C1953,83.3137085 1950.31371,86 1947,86 L1822.39867,86 L1822.39867,86 L1723,86 C1719.68629,86 1717,83.3137085 1717,80 L1717,71 C1717,67.6862915 1719.68629,65 1723,65 Z" id="Rectangle" fill="#E6EBF1" fill-rule="nonzero" opacity="0.5" transform="translate(1835.000000, 75.500000) scale(-1, 1) translate(-1835.000000, -75.500000) "></path>
        </g>
        <path d="M887.502028,1694 L925.062,1783.999 L2214,1784 C2222.83656,1784 2230,1791.16344 2230,1800 L2230,2020 C2230,2028.83656 2222.83656,2036 2214,2036 L648,2036 C639.163444,2036 632,2028.83656 632,2020 L632,1800 C632,1791.16344 639.163444,1784 648,1784 L850.807,1783.999 L887.502028,1694 Z" id="Combined-Shape" stroke="#E6EBF1" stroke-width="4.5" fill="#E6EBF1" stroke-linecap="round" stroke-linejoin="round" transform="translate(1431.000000, 1865.000000) rotate(-180.000000) translate(-1431.000000, -1865.000000) "></path>
        <g id="DOI_logo" transform="translate(523.000000, 1615.000000)" fill-rule="nonzero">
            <circle id="Oval" fill="#6D85CF" cx="182" cy="182" r="182"></circle>
            <path d="M139,237.427323 L105.227435,237.427323 L105.227435,223.694702 C101.798431,227.994324 93.7303715,232.377226 90.2284139,234.344861 C84.0999902,237.769959 75.7782466,240 67.9717963,240 C55.3501553,240 44.1147295,236.017267 34.2654618,227.345181 C22.5193083,216.996939 17,201.176377 17,184.123658 C17,166.779427 23.0189956,152.93319 35.0569599,142.584977 C44.6143876,134.350111 56.3019879,127.75922 68.7047424,127.75922 C75.9275412,127.75922 84.8350646,128.406237 91.1823747,131.46698 C94.8302366,133.215979 101.360687,137.33127 105.227435,141.339385 L105.227435,69 L139,69 L139,237.427323 Z M104.47076,184.232963 C104.47076,177.819965 102.709361,170.142092 98.1860078,165.696728 C93.6626287,161.178468 85.4392771,157.170353 79.0190134,157.170353 C71.8691939,157.170353 65.245733,162.365295 60.6494003,167.758054 C56.9285563,172.130546 55.0681499,178.87146 55.0681499,184.482831 C55.0681499,190.094174 57.1787102,196.335378 60.8995257,200.70787 C65.4228763,206.100632 70.2953883,209.796443 77.5181871,209.796443 C84.0114043,209.796443 91.7344511,207.074025 96.1848794,202.628661 C100.70823,198.183297 104.47076,190.71883 104.47076,184.232963 L104.47076,184.232963 Z" id="Shape" fill="#FFFFFF"></path>
            <path d="M296.804671,70 C291.200925,70 286.434086,71.9609314 282.504183,75.8828253 C278.64704,79.7320983 276.718488,84.4528714 276.718488,90.0452326 C276.718488,95.6375399 278.64704,100.394683 282.504183,104.316549 C286.434086,108.238471 291.200925,110.199402 296.804671,110.199402 C302.48117,110.199402 307.248008,108.274753 311.105131,104.425511 C315.035034,100.503589 317,95.7101637 317,90.0452326 C317,84.4528714 315.035034,79.7320983 311.105131,75.8828253 C307.175228,71.9609314 302.408389,70 296.804671,70 L296.804671,70 Z M208.114336,126.409897 C187.30038,126.409897 171.253288,132.884723 159.972998,145.834153 C150.657645,156.561499 146,168.85827 146,182.727201 C146,198.12855 150.62126,211.116021 159.863812,221.690115 C171.07133,234.562909 186.790955,241 207.022679,241 C227.181638,241 242.864903,234.562909 254.072392,221.690115 C263.314944,211.116021 267.936233,198.436138 267.936233,183.647763 C267.936233,169.012607 263.278557,156.408219 253.963236,145.834153 C242.537404,132.884723 227.254436,126.409897 208.114336,126.409897 Z M278.901767,130.342667 L278.901767,237.078106 L314.707564,237.078106 L314.707564,130.342667 L278.901767,130.342667 Z M207.022679,158.934381 C213.572524,158.934381 219.139897,161.351688 223.724801,166.17897 C228.382449,170.929642 230.711301,176.751587 230.711301,183.647763 C230.711301,190.620519 228.418833,196.518015 223.833958,201.345298 C219.249054,206.095997 213.645296,208.475516 207.022679,208.475516 C199.599526,208.475516 193.55911,205.561811 188.901462,199.738416 C185.1171,195.064384 183.224932,189.701046 183.224932,183.647763 C183.224932,177.671088 185.1171,172.345541 188.901462,167.671481 C193.55911,161.848086 199.599526,158.934381 207.022679,158.934381 L207.022679,158.934381 Z" id="Shape" fill="#FFFFFF"></path>
        </g>
        <path d="M983.425,1859 L983.425,1830.9 L1009.725,1786.7 L997.825,1786.7 C996.691667,1786.7 995.758333,1787.01667 995.025,1787.65 C994.291667,1788.28333 993.741667,1788.96667 993.375,1789.7 L993.375,1789.7 L980.225,1813.85 C979.458333,1815.25 978.8,1816.59167 978.25,1817.875 C977.7,1819.15833 977.208333,1820.43333 976.775,1821.7 C976.308333,1820.46667 975.791667,1819.20833 975.225,1817.925 C974.658333,1816.64167 973.991667,1815.28333 973.225,1813.85 L973.225,1813.85 L959.975,1789.7 C959.508333,1788.83333 958.933333,1788.11667 958.25,1787.55 C957.566667,1786.98333 956.641667,1786.7 955.475,1786.7 L955.475,1786.7 L943.625,1786.7 L969.975,1830.9 L969.975,1859 L983.425,1859 Z M1047.975,1859.8 C1053.44167,1859.8 1058.425,1858.875 1062.925,1857.025 C1067.425,1855.175 1071.275,1852.6 1074.475,1849.3 C1077.675,1846 1080.15833,1842.09167 1081.925,1837.575 C1083.69167,1833.05833 1084.575,1828.15 1084.575,1822.85 C1084.575,1817.55 1083.69167,1812.64167 1081.925,1808.125 C1080.15833,1803.60833 1077.675,1799.70833 1074.475,1796.425 C1071.275,1793.14167 1067.425,1790.56667 1062.925,1788.7 C1058.425,1786.83333 1053.44167,1785.9 1047.975,1785.9 C1042.50833,1785.9 1037.51667,1786.825 1033,1788.675 C1028.48333,1790.525 1024.61667,1793.1 1021.4,1796.4 C1018.18333,1799.7 1015.69167,1803.60833 1013.925,1808.125 C1012.15833,1812.64167 1011.275,1817.55 1011.275,1822.85 C1011.275,1828.15 1012.15833,1833.05833 1013.925,1837.575 C1015.69167,1842.09167 1018.18333,1846 1021.4,1849.3 C1024.61667,1852.6 1028.48333,1855.175 1033,1857.025 C1037.51667,1858.875 1042.50833,1859.8 1047.975,1859.8 Z M1047.975,1848.3 C1044.44167,1848.3 1041.25833,1847.71667 1038.425,1846.55 C1035.59167,1845.38333 1033.18333,1843.70833 1031.2,1841.525 C1029.21667,1839.34167 1027.69167,1836.675 1026.625,1833.525 C1025.55833,1830.375 1025.025,1826.81667 1025.025,1822.85 C1025.025,1818.88333 1025.55833,1815.325 1026.625,1812.175 C1027.69167,1809.025 1029.21667,1806.35 1031.2,1804.15 C1033.18333,1801.95 1035.59167,1800.26667 1038.425,1799.1 C1041.25833,1797.93333 1044.44167,1797.35 1047.975,1797.35 C1051.50833,1797.35 1054.68333,1797.93333 1057.5,1799.1 C1060.31667,1800.26667 1062.70833,1801.95 1064.675,1804.15 C1066.64167,1806.35 1068.15,1809.025 1069.2,1812.175 C1070.25,1815.325 1070.775,1818.88333 1070.775,1822.85 C1070.775,1826.81667 1070.25,1830.375 1069.2,1833.525 C1068.15,1836.675 1066.64167,1839.34167 1064.675,1841.525 C1062.70833,1843.70833 1060.31667,1845.38333 1057.5,1846.55 C1054.68333,1847.71667 1051.50833,1848.3 1047.975,1848.3 Z M1126.775,1859.8 C1131.40833,1859.8 1135.575,1859.05833 1139.275,1857.575 C1142.975,1856.09167 1146.125,1854.025 1148.725,1851.375 C1151.325,1848.725 1153.31667,1845.575 1154.7,1841.925 C1156.08333,1838.275 1156.775,1834.3 1156.775,1830 L1156.775,1830 L1156.775,1786.7 L1143.325,1786.7 L1143.325,1830 C1143.325,1832.76667 1142.95,1835.26667 1142.2,1837.5 C1141.45,1839.73333 1140.36667,1841.63333 1138.95,1843.2 C1137.53333,1844.76667 1135.8,1845.98333 1133.75,1846.85 C1131.7,1847.71667 1129.375,1848.15 1126.775,1848.15 C1124.175,1848.15 1121.85,1847.71667 1119.8,1846.85 C1117.75,1845.98333 1116.025,1844.75833 1114.625,1843.175 C1113.225,1841.59167 1112.15,1839.68333 1111.4,1837.45 C1110.65,1835.21667 1110.275,1832.71667 1110.275,1829.95 L1110.275,1829.95 L1110.275,1786.7 L1096.825,1786.7 L1096.825,1830 C1096.825,1834.3 1097.51667,1838.275 1098.9,1841.925 C1100.28333,1845.575 1102.26667,1848.725 1104.85,1851.375 C1107.43333,1854.025 1110.575,1856.09167 1114.275,1857.575 C1117.975,1859.05833 1122.14167,1859.8 1126.775,1859.8 Z M1186.875,1859 L1186.875,1830.75 L1192.625,1830.75 C1193.95833,1830.75 1194.96667,1830.93333 1195.65,1831.3 C1196.33333,1831.66667 1196.95833,1832.28333 1197.525,1833.15 L1197.525,1833.15 L1212.725,1856.3 C1213.29167,1857.16667 1213.98333,1857.83333 1214.8,1858.3 C1215.61667,1858.76667 1216.60833,1859 1217.775,1859 L1217.775,1859 L1229.875,1859 L1211.775,1832.3 C1210.54167,1830.5 1209.075,1829.11667 1207.375,1828.15 C1209.90833,1827.35 1212.16667,1826.28333 1214.15,1824.95 C1216.13333,1823.61667 1217.8,1822.06667 1219.15,1820.3 C1220.5,1818.53333 1221.53333,1816.56667 1222.25,1814.4 C1222.96667,1812.23333 1223.325,1809.93333 1223.325,1807.5 C1223.325,1804.43333 1222.8,1801.625 1221.75,1799.075 C1220.7,1796.525 1219.05,1794.33333 1216.8,1792.5 C1214.55,1790.66667 1211.66667,1789.24167 1208.15,1788.225 C1204.63333,1787.20833 1200.40833,1786.7 1195.475,1786.7 L1195.475,1786.7 L1173.425,1786.7 L1173.425,1859 L1186.875,1859 Z M1195.275,1821.1 L1186.875,1821.1 L1186.875,1797.1 L1195.475,1797.1 C1200.44167,1797.1 1204.13333,1798.08333 1206.55,1800.05 C1208.96667,1802.01667 1210.175,1804.83333 1210.175,1808.5 C1210.175,1810.33333 1209.875,1812.01667 1209.275,1813.55 C1208.675,1815.08333 1207.76667,1816.40833 1206.55,1817.525 C1205.33333,1818.64167 1203.78333,1819.51667 1201.9,1820.15 C1200.01667,1820.78333 1197.80833,1821.1 1195.275,1821.1 L1195.275,1821.1 Z M1293.425,1859.8 C1299.425,1859.8 1304.56667,1858.83333 1308.85,1856.9 C1313.13333,1854.96667 1316.74167,1852.18333 1319.675,1848.55 L1319.675,1848.55 L1314.375,1842.8 C1313.84167,1842.23333 1313.20833,1841.95 1312.475,1841.95 C1312.04167,1841.95 1311.64167,1842.04167 1311.275,1842.225 C1310.90833,1842.40833 1310.55833,1842.65 1310.225,1842.95 C1309.125,1843.95 1308.01667,1844.79167 1306.9,1845.475 C1305.78333,1846.15833 1304.6,1846.71667 1303.35,1847.15 C1302.1,1847.58333 1300.73333,1847.9 1299.25,1848.1 C1297.76667,1848.3 1296.10833,1848.4 1294.275,1848.4 C1291.20833,1848.4 1288.34167,1847.825 1285.675,1846.675 C1283.00833,1845.525 1280.69167,1843.86667 1278.725,1841.7 C1276.75833,1839.53333 1275.2,1836.86667 1274.05,1833.7 C1272.9,1830.53333 1272.325,1826.91667 1272.325,1822.85 C1272.325,1818.91667 1272.9,1815.375 1274.05,1812.225 C1275.2,1809.075 1276.8,1806.4 1278.85,1804.2 C1280.9,1802 1283.35,1800.30833 1286.2,1799.125 C1289.05,1797.94167 1292.175,1797.35 1295.575,1797.35 C1298.475,1797.35 1300.86667,1797.65 1302.75,1798.25 C1304.63333,1798.85 1306.19167,1799.5 1307.425,1800.2 C1308.65833,1800.9 1309.675,1801.55 1310.475,1802.15 C1311.275,1802.75 1312.05833,1803.05 1312.825,1803.05 C1313.55833,1803.05 1314.13333,1802.9 1314.55,1802.6 C1314.96667,1802.3 1315.30833,1801.95 1315.575,1801.55 L1315.575,1801.55 L1320.075,1795.3 C1317.20833,1792.46667 1313.76667,1790.19167 1309.75,1788.475 C1305.73333,1786.75833 1301.04167,1785.9 1295.675,1785.9 C1290.175,1785.9 1285.15,1786.80833 1280.6,1788.625 C1276.05,1790.44167 1272.14167,1792.98333 1268.875,1796.25 C1265.60833,1799.51667 1263.075,1803.40833 1261.275,1807.925 C1259.475,1812.44167 1258.575,1817.41667 1258.575,1822.85 C1258.575,1828.21667 1259.38333,1833.16667 1261,1837.7 C1262.61667,1842.23333 1264.94167,1846.13333 1267.975,1849.4 C1271.00833,1852.66667 1274.66667,1855.21667 1278.95,1857.05 C1283.23333,1858.88333 1288.05833,1859.8 1293.425,1859.8 Z M1361.425,1859.8 C1366.05833,1859.8 1370.225,1859.05833 1373.925,1857.575 C1377.625,1856.09167 1380.775,1854.025 1383.375,1851.375 C1385.975,1848.725 1387.96667,1845.575 1389.35,1841.925 C1390.73333,1838.275 1391.425,1834.3 1391.425,1830 L1391.425,1830 L1391.425,1786.7 L1377.975,1786.7 L1377.975,1830 C1377.975,1832.76667 1377.6,1835.26667 1376.85,1837.5 C1376.1,1839.73333 1375.01667,1841.63333 1373.6,1843.2 C1372.18333,1844.76667 1370.45,1845.98333 1368.4,1846.85 C1366.35,1847.71667 1364.025,1848.15 1361.425,1848.15 C1358.825,1848.15 1356.5,1847.71667 1354.45,1846.85 C1352.4,1845.98333 1350.675,1844.75833 1349.275,1843.175 C1347.875,1841.59167 1346.8,1839.68333 1346.05,1837.45 C1345.3,1835.21667 1344.925,1832.71667 1344.925,1829.95 L1344.925,1829.95 L1344.925,1786.7 L1331.475,1786.7 L1331.475,1830 C1331.475,1834.3 1332.16667,1838.275 1333.55,1841.925 C1334.93333,1845.575 1336.91667,1848.725 1339.5,1851.375 C1342.08333,1854.025 1345.225,1856.09167 1348.925,1857.575 C1352.625,1859.05833 1356.79167,1859.8 1361.425,1859.8 Z M1425.875,1859.8 C1429.875,1859.8 1433.425,1859.19167 1436.525,1857.975 C1439.625,1856.75833 1442.25,1855.09167 1444.4,1852.975 C1446.55,1850.85833 1448.18333,1848.375 1449.3,1845.525 C1450.41667,1842.675 1450.975,1839.61667 1450.975,1836.35 C1450.975,1833.35 1450.5,1830.8 1449.55,1828.7 C1448.6,1826.6 1447.34167,1824.825 1445.775,1823.375 C1444.20833,1821.925 1442.425,1820.725 1440.425,1819.775 C1438.425,1818.825 1436.38333,1817.99167 1434.3,1817.275 C1432.21667,1816.55833 1430.175,1815.88333 1428.175,1815.25 C1426.175,1814.61667 1424.39167,1813.9 1422.825,1813.1 C1421.25833,1812.3 1420,1811.33333 1419.05,1810.2 C1418.1,1809.06667 1417.625,1807.65 1417.625,1805.95 C1417.625,1804.61667 1417.85833,1803.39167 1418.325,1802.275 C1418.79167,1801.15833 1419.5,1800.2 1420.45,1799.4 C1421.4,1798.6 1422.56667,1797.975 1423.95,1797.525 C1425.33333,1797.075 1426.95833,1796.85 1428.825,1796.85 C1430.89167,1796.85 1432.68333,1797.10833 1434.2,1797.625 C1435.71667,1798.14167 1437.04167,1798.71667 1438.175,1799.35 C1439.30833,1799.98333 1440.29167,1800.55833 1441.125,1801.075 C1441.95833,1801.59167 1442.70833,1801.85 1443.375,1801.85 C1444.04167,1801.85 1444.61667,1801.7 1445.1,1801.4 C1445.58333,1801.1 1446.00833,1800.58333 1446.375,1799.85 L1446.375,1799.85 L1449.675,1793.5 C1447.14167,1791.1 1444.075,1789.23333 1440.475,1787.9 C1436.875,1786.56667 1432.94167,1785.9 1428.675,1785.9 C1424.90833,1785.9 1421.55833,1786.48333 1418.625,1787.65 C1415.69167,1788.81667 1413.21667,1790.36667 1411.2,1792.3 C1409.18333,1794.23333 1407.65,1796.45 1406.6,1798.95 C1405.55,1801.45 1405.025,1804.01667 1405.025,1806.65 C1405.025,1809.95 1405.5,1812.725 1406.45,1814.975 C1407.4,1817.225 1408.65833,1819.1 1410.225,1820.6 C1411.79167,1822.1 1413.575,1823.31667 1415.575,1824.25 C1417.575,1825.18333 1419.60833,1825.98333 1421.675,1826.65 C1423.74167,1827.31667 1425.775,1827.93333 1427.775,1828.5 C1429.775,1829.06667 1431.55833,1829.75833 1433.125,1830.575 C1434.69167,1831.39167 1435.95,1832.4 1436.9,1833.6 C1437.85,1834.8 1438.325,1836.35 1438.325,1838.25 C1438.325,1841.65 1437.275,1844.25833 1435.175,1846.075 C1433.075,1847.89167 1430.10833,1848.8 1426.275,1848.8 C1423.775,1848.8 1421.63333,1848.45833 1419.85,1847.775 C1418.06667,1847.09167 1416.51667,1846.33333 1415.2,1845.5 C1413.88333,1844.66667 1412.74167,1843.90833 1411.775,1843.225 C1410.80833,1842.54167 1409.90833,1842.2 1409.075,1842.2 C1408.44167,1842.2 1407.86667,1842.35833 1407.35,1842.675 C1406.83333,1842.99167 1406.39167,1843.38333 1406.025,1843.85 L1406.025,1843.85 L1402.125,1850.3 C1403.525,1851.73333 1405.11667,1853.03333 1406.9,1854.2 C1408.68333,1855.36667 1410.6,1856.36667 1412.65,1857.2 C1414.7,1858.03333 1416.84167,1858.675 1419.075,1859.125 C1421.30833,1859.575 1423.575,1859.8 1425.875,1859.8 Z M1492.975,1859 L1492.975,1797.75 L1514.725,1797.75 L1514.725,1786.7 L1457.675,1786.7 L1457.675,1797.75 L1479.525,1797.75 L1479.525,1859 L1492.975,1859 Z M1554.625,1859.8 C1560.09167,1859.8 1565.075,1858.875 1569.575,1857.025 C1574.075,1855.175 1577.925,1852.6 1581.125,1849.3 C1584.325,1846 1586.80833,1842.09167 1588.575,1837.575 C1590.34167,1833.05833 1591.225,1828.15 1591.225,1822.85 C1591.225,1817.55 1590.34167,1812.64167 1588.575,1808.125 C1586.80833,1803.60833 1584.325,1799.70833 1581.125,1796.425 C1577.925,1793.14167 1574.075,1790.56667 1569.575,1788.7 C1565.075,1786.83333 1560.09167,1785.9 1554.625,1785.9 C1549.15833,1785.9 1544.16667,1786.825 1539.65,1788.675 C1535.13333,1790.525 1531.26667,1793.1 1528.05,1796.4 C1524.83333,1799.7 1522.34167,1803.60833 1520.575,1808.125 C1518.80833,1812.64167 1517.925,1817.55 1517.925,1822.85 C1517.925,1828.15 1518.80833,1833.05833 1520.575,1837.575 C1522.34167,1842.09167 1524.83333,1846 1528.05,1849.3 C1531.26667,1852.6 1535.13333,1855.175 1539.65,1857.025 C1544.16667,1858.875 1549.15833,1859.8 1554.625,1859.8 Z M1554.625,1848.3 C1551.09167,1848.3 1547.90833,1847.71667 1545.075,1846.55 C1542.24167,1845.38333 1539.83333,1843.70833 1537.85,1841.525 C1535.86667,1839.34167 1534.34167,1836.675 1533.275,1833.525 C1532.20833,1830.375 1531.675,1826.81667 1531.675,1822.85 C1531.675,1818.88333 1532.20833,1815.325 1533.275,1812.175 C1534.34167,1809.025 1535.86667,1806.35 1537.85,1804.15 C1539.83333,1801.95 1542.24167,1800.26667 1545.075,1799.1 C1547.90833,1797.93333 1551.09167,1797.35 1554.625,1797.35 C1558.15833,1797.35 1561.33333,1797.93333 1564.15,1799.1 C1566.96667,1800.26667 1569.35833,1801.95 1571.325,1804.15 C1573.29167,1806.35 1574.8,1809.025 1575.85,1812.175 C1576.9,1815.325 1577.425,1818.88333 1577.425,1822.85 C1577.425,1826.81667 1576.9,1830.375 1575.85,1833.525 C1574.8,1836.675 1573.29167,1839.34167 1571.325,1841.525 C1569.35833,1843.70833 1566.96667,1845.38333 1564.15,1846.55 C1561.33333,1847.71667 1558.15833,1848.3 1554.625,1848.3 Z M1616.175,1859 L1616.175,1812.3 C1616.175,1811.4 1616.15,1810.425 1616.1,1809.375 C1616.05,1808.325 1615.95833,1807.25 1615.825,1806.15 L1615.825,1806.15 L1637.975,1847.3 C1638.475,1848.23333 1639.125,1848.95833 1639.925,1849.475 C1640.725,1849.99167 1641.65833,1850.25 1642.725,1850.25 L1642.725,1850.25 L1644.575,1850.25 C1645.64167,1850.25 1646.575,1849.99167 1647.375,1849.475 C1648.175,1848.95833 1648.825,1848.23333 1649.325,1847.3 L1649.325,1847.3 L1671.175,1806.3 C1671.075,1807.36667 1671,1808.41667 1670.95,1809.45 C1670.9,1810.48333 1670.875,1811.43333 1670.875,1812.3 L1670.875,1812.3 L1670.875,1859 L1682.725,1859 L1682.725,1786.7 L1672.575,1786.7 C1671.975,1786.7 1671.45833,1786.71667 1671.025,1786.75 C1670.59167,1786.78333 1670.2,1786.86667 1669.85,1787 C1669.5,1787.13333 1669.18333,1787.35 1668.9,1787.65 C1668.61667,1787.95 1668.34167,1788.35 1668.075,1788.85 L1668.075,1788.85 L1646.675,1828.9 C1646.10833,1829.96667 1645.575,1831.08333 1645.075,1832.25 C1644.575,1833.41667 1644.09167,1834.6 1643.625,1835.8 C1643.15833,1834.63333 1642.68333,1833.475 1642.2,1832.325 C1641.71667,1831.175 1641.19167,1830.06667 1640.625,1829 L1640.625,1829 L1619.025,1788.85 C1618.75833,1788.35 1618.475,1787.95 1618.175,1787.65 C1617.875,1787.35 1617.55,1787.13333 1617.2,1787 C1616.85,1786.86667 1616.45833,1786.78333 1616.025,1786.75 C1615.59167,1786.71667 1615.075,1786.7 1614.475,1786.7 L1614.475,1786.7 L1604.325,1786.7 L1604.325,1859 L1616.175,1859 Z M1735.525,1859 L1735.525,1833.55 L1745.625,1833.55 C1750.325,1833.55 1754.425,1832.96667 1757.925,1831.8 C1761.425,1830.63333 1764.34167,1829 1766.675,1826.9 C1769.00833,1824.8 1770.75833,1822.29167 1771.925,1819.375 C1773.09167,1816.45833 1773.675,1813.25 1773.675,1809.75 C1773.675,1806.38333 1773.125,1803.28333 1772.025,1800.45 C1770.925,1797.61667 1769.225,1795.18333 1766.925,1793.15 C1764.625,1791.11667 1761.70833,1789.53333 1758.175,1788.4 C1754.64167,1787.26667 1750.45833,1786.7 1745.625,1786.7 L1745.625,1786.7 L1722.075,1786.7 L1722.075,1859 L1735.525,1859 Z M1745.625,1823.05 L1735.525,1823.05 L1735.525,1797.1 L1745.625,1797.1 C1748.09167,1797.1 1750.24167,1797.39167 1752.075,1797.975 C1753.90833,1798.55833 1755.425,1799.4 1756.625,1800.5 C1757.825,1801.6 1758.725,1802.93333 1759.325,1804.5 C1759.925,1806.06667 1760.225,1807.81667 1760.225,1809.75 C1760.225,1811.78333 1759.925,1813.625 1759.325,1815.275 C1758.725,1816.925 1757.825,1818.325 1756.625,1819.475 C1755.425,1820.625 1753.90833,1821.50833 1752.075,1822.125 C1750.24167,1822.74167 1748.09167,1823.05 1745.625,1823.05 L1745.625,1823.05 Z M1800.525,1859 L1800.525,1830.75 L1806.275,1830.75 C1807.60833,1830.75 1808.61667,1830.93333 1809.3,1831.3 C1809.98333,1831.66667 1810.60833,1832.28333 1811.175,1833.15 L1811.175,1833.15 L1826.375,1856.3 C1826.94167,1857.16667 1827.63333,1857.83333 1828.45,1858.3 C1829.26667,1858.76667 1830.25833,1859 1831.425,1859 L1831.425,1859 L1843.525,1859 L1825.425,1832.3 C1824.19167,1830.5 1822.725,1829.11667 1821.025,1828.15 C1823.55833,1827.35 1825.81667,1826.28333 1827.8,1824.95 C1829.78333,1823.61667 1831.45,1822.06667 1832.8,1820.3 C1834.15,1818.53333 1835.18333,1816.56667 1835.9,1814.4 C1836.61667,1812.23333 1836.975,1809.93333 1836.975,1807.5 C1836.975,1804.43333 1836.45,1801.625 1835.4,1799.075 C1834.35,1796.525 1832.7,1794.33333 1830.45,1792.5 C1828.2,1790.66667 1825.31667,1789.24167 1821.8,1788.225 C1818.28333,1787.20833 1814.05833,1786.7 1809.125,1786.7 L1809.125,1786.7 L1787.075,1786.7 L1787.075,1859 L1800.525,1859 Z M1808.925,1821.1 L1800.525,1821.1 L1800.525,1797.1 L1809.125,1797.1 C1814.09167,1797.1 1817.78333,1798.08333 1820.2,1800.05 C1822.61667,1802.01667 1823.825,1804.83333 1823.825,1808.5 C1823.825,1810.33333 1823.525,1812.01667 1822.925,1813.55 C1822.325,1815.08333 1821.41667,1816.40833 1820.2,1817.525 C1818.98333,1818.64167 1817.43333,1819.51667 1815.55,1820.15 C1813.66667,1820.78333 1811.45833,1821.1 1808.925,1821.1 L1808.925,1821.1 Z M1900.225,1859 L1900.225,1848.25 L1868.175,1848.25 L1868.175,1827.8 L1893.425,1827.8 L1893.425,1817.45 L1868.175,1817.45 L1868.175,1797.4 L1900.225,1797.4 L1900.225,1786.7 L1854.625,1786.7 L1854.625,1859 L1900.225,1859 Z M1927.925,1859 L1927.925,1829.55 L1954.975,1829.55 L1954.975,1818.8 L1927.925,1818.8 L1927.925,1797.4 L1959.975,1797.4 L1959.975,1786.7 L1914.375,1786.7 L1914.375,1859 L1927.925,1859 Z M1988.175,1859 L1988.175,1786.7 L1974.675,1786.7 L1974.675,1859 L1988.175,1859 Z M2012.825,1859 C2013.625,1859 2014.29167,1858.75833 2014.825,1858.275 C2015.35833,1857.79167 2015.80833,1857.26667 2016.175,1856.7 L2016.175,1856.7 L2032.225,1831.1 C2032.39167,1830.8 2032.55833,1830.475 2032.725,1830.125 C2032.89167,1829.775 2033.04167,1829.4 2033.175,1829 L2033.175,1829 L2049.925,1856.7 C2050.29167,1857.3 2050.75,1857.83333 2051.3,1858.3 C2051.85,1858.76667 2052.575,1859 2053.475,1859 L2053.475,1859 L2066.925,1859 L2042.975,1821.25 L2066.275,1786.7 L2053.375,1786.7 C2052.20833,1786.7 2051.25833,1787.31667 2050.525,1788.55 L2050.525,1788.55 L2035.475,1812.3 C2035.20833,1812.73333 2034.975,1813.15833 2034.775,1813.575 C2034.575,1813.99167 2034.39167,1814.41667 2034.225,1814.85 L2034.225,1814.85 L2017.775,1788.3 C2017.44167,1787.73333 2017.06667,1787.325 2016.65,1787.075 C2016.23333,1786.825 2015.55833,1786.7 2014.625,1786.7 L2014.625,1786.7 L2001.225,1786.7 L2024.275,1821.8 L2000.225,1859 L2012.825,1859 Z" id="YOURCUSTOMPREFIX" fill="#6D85CF" fill-rule="nonzero"></path>
    </g>
</svg>
