<svg xmlns="http://www.w3.org/2000/svg" xmlns:xlink="http://www.w3.org/1999/xlink" viewBox="0 0 762 610">
  <defs>
    <path id="Rectangle" fill="#B8D2D4" d="M0 3h6v2H0zM0 0h9v2H0z"/>
    <path id="Line-2" stroke="#9ABBBF" stroke-linecap="square" d="M.5 7v83"/>
  </defs>
  <defs>
    <path id="path-1" d="M0 0h429v353H0z"/>
    <path d="M252.67 259.998v-1.672h-2.84v-.052c.832-.745 1.376-1.251 1.63-1.518.256-.267.46-.52.615-.762.154-.24.267-.486.341-.736.074-.25.11-.521.11-.815 0-.393-.105-.748-.315-1.065a2.036 2.036 0 00-.889-.73 3.153 3.153 0 00-1.301-.257c-.387 0-.736.04-1.045.118-.31.079-.597.192-.86.341-.264.149-.59.396-.976.741l1.114 1.303c.305-.263.578-.462.82-.597.24-.135.48-.203.715-.203.23 0 .408.056.535.17.126.112.19.266.19.46 0 .158-.032.309-.095.452a2.455 2.455 0 01-.337.516c-.16.2-.503.573-1.027 1.12l-1.833 1.852v1.334h5.448z" id="path-3"/>
    <path d="M268.068 259.998v-7.5h-1.828l-2.577 2.099 1.052 1.292.853-.702c.188-.168.345-.329.472-.483-.02.4-.03.842-.03 1.324v3.97h2.058zm7.087 0v-1.672h-2.84v-.052c.832-.745 1.375-1.251 1.63-1.518.255-.267.46-.52.614-.762.154-.24.268-.486.341-.736.074-.25.11-.521.11-.815 0-.393-.104-.748-.315-1.065a2.036 2.036 0 00-.888-.73 3.153 3.153 0 00-1.302-.257c-.387 0-.735.04-1.045.118-.31.079-.597.192-.86.341-.264.149-.589.396-.976.741l1.115 1.303c.304-.263.577-.462.819-.597.24-.135.48-.203.716-.203.23 0 .407.056.534.17.127.112.19.266.19.46 0 .158-.032.309-.095.452a2.455 2.455 0 01-.336.516c-.161.2-.504.573-1.027 1.12l-1.834 1.852v1.334h5.449z" id="path-4"/>
    <path d="M288.156 260.1c.982 0 1.75-.2 2.303-.6.553-.4.829-.949.829-1.646 0-1.026-.627-1.618-1.88-1.775v-.03c.538-.151.949-.393 1.233-.727.284-.333.426-.732.426-1.197 0-.54-.22-.965-.662-1.272-.442-.308-1.051-.462-1.828-.462-.538 0-1.014.058-1.43.174a4.09 4.09 0 00-1.22.585l.842 1.354c.514-.321 1.01-.482 1.49-.482.256 0 .46.048.613.144.152.096.228.243.228.44 0 .528-.515.79-1.545.79h-.473v1.524h.463c.38 0 .688.028.924.085.236.056.407.14.513.251.107.111.16.27.16.475 0 .266-.102.462-.306.587-.204.125-.528.187-.973.187a4.461 4.461 0 01-1.946-.492v1.682c.4.154.773.26 1.117.318.344.058.718.087 1.122.087z" id="path-5"/>
    <path d="M250.241 284.787c.836 0 1.486-.238 1.952-.715.465-.477.698-1.128.698-1.952 0-.766-.184-1.363-.552-1.792-.368-.43-.886-.644-1.553-.644-.682 0-1.176.29-1.484.872h-.062c.03-.674.212-1.16.544-1.457.332-.297.837-.446 1.515-.446.4 0 .772.032 1.114.097v-1.585a7.686 7.686 0 00-1.068-.087c-.856 0-1.575.154-2.159.462-.584.308-1.025.785-1.325 1.433-.3.648-.449 1.496-.449 2.542 0 1.033.25 1.836.75 2.41.5.575 1.193.862 2.08.862zm-.046-1.605c-.23 0-.414-.105-.554-.316-.14-.21-.211-.48-.211-.807 0-.226.073-.418.218-.575a.737.737 0 01.568-.236c.472 0 .708.305.708.913 0 .356-.067.615-.203.777a.653.653 0 01-.526.244z" id="path-6"/>
    <path d="M269.515 284.787c.982 0 1.75-.2 2.303-.6.553-.4.83-.949.83-1.646 0-1.026-.627-1.618-1.88-1.775v-.03c.537-.151.948-.393 1.232-.726.284-.334.426-.733.426-1.198 0-.54-.22-.964-.662-1.272-.442-.308-1.05-.462-1.828-.462-.537 0-1.014.058-1.43.175a4.09 4.09 0 00-1.22.584l.842 1.354c.514-.321 1.01-.482 1.49-.482.256 0 .46.048.613.144.153.096.229.243.229.441 0 .527-.515.79-1.546.79h-.472v1.523h.462c.38 0 .688.028.924.085.236.056.408.14.514.251.106.111.159.27.159.475 0 .266-.102.462-.306.587-.203.125-.528.187-.973.187a4.461 4.461 0 01-1.946-.492v1.682c.4.154.773.26 1.117.318.344.058.718.087 1.122.087z" id="path-7"/>
    <path d="M288.373 284.685v-1.672h-2.84v-.052c.832-.745 1.376-1.251 1.63-1.518.256-.267.46-.52.614-.762.154-.24.268-.486.342-.736.073-.25.11-.521.11-.815 0-.393-.105-.748-.316-1.064a2.036 2.036 0 00-.888-.731 3.153 3.153 0 00-1.302-.257c-.386 0-.735.04-1.045.118-.31.079-.596.192-.86.341-.263.149-.588.396-.975.741l1.114 1.303c.305-.263.578-.462.819-.597.241-.135.48-.203.716-.203.23 0 .408.056.534.17.127.112.19.266.19.461 0 .157-.031.308-.095.451a2.455 2.455 0 01-.336.516c-.16.2-.503.573-1.027 1.12l-1.833 1.852v1.334h5.448zm3.482.102c.917 0 1.598-.308 2.043-.925.445-.618.668-1.59.668-2.916 0-1.283-.229-2.248-.686-2.896-.457-.648-1.132-.972-2.025-.972-.918 0-1.6.311-2.044.934-.445.622-.668 1.6-.668 2.934 0 1.272.228 2.23.683 2.875.456.644 1.132.966 2.029.966zm0-1.615c-.25 0-.428-.16-.535-.477-.106-.318-.159-.901-.159-1.75 0-.854.053-1.442.16-1.764.106-.321.284-.482.534-.482.25 0 .427.167.534.5.106.333.159.916.159 1.747 0 .827-.052 1.405-.157 1.733-.104.329-.283.493-.536.493z" id="path-8"/>
    <path d="M308.106 284.787c1.023 0 1.787-.224 2.292-.672.505-.447.758-1.09.758-1.928 0-.479-.097-.901-.29-1.267a2.076 2.076 0 00-.812-.849c-.347-.2-.737-.3-1.168-.3-.096 0-.2.003-.313.008a4.603 4.603 0 00-.57.084l.092-.99h2.557v-1.687h-4.282l-.283 3.96.745.369c.37-.12.714-.18 1.032-.18.418 0 .73.08.935.241.205.161.308.385.308.672 0 .312-.101.547-.303.706-.202.159-.491.238-.868.238a4.29 4.29 0 01-.968-.133 5.407 5.407 0 01-1.009-.339v1.662c.555.27 1.27.405 2.147.405z" id="path-9"/>
    <path id="path-10" d="M288.73 309.401l2.645-6.293v-1.196h-5.417v1.678h3.25l-2.577 5.811z"/>
    <path d="M309.72 309.401v-7.499h-1.828L305.314 304l1.053 1.293.852-.703c.189-.168.346-.328.473-.482-.02.4-.031.84-.031 1.323v3.97h2.059z" id="path-11"/>
    <linearGradient x1="100%" y1="20.8%" x2="3.165%" y2="20.8%" id="linearGradient-14">
      <stop stop-color="#F28181" offset="0%"/>
      <stop stop-color="#655AE2" offset="100%"/>
    </linearGradient>
    <linearGradient x1="97.939%" y1="50.709%" x2="-1.675%" y2="50%" id="linearGradient-15">
      <stop stop-color="#6DF6D8" offset="0%"/>
      <stop stop-color="#EED268" offset="100%"/>
    </linearGradient>
    <filter x="-3.4%" y="-4.1%" width="107.2%" height="108.8%" filterUnits="objectBoundingBox" id="filter-2">
      <feMorphology radius="1.5" operator="dilate" in="SourceAlpha" result="shadowSpreadOuter1"/>
      <feOffset dx="1" dy="1" in="shadowSpreadOuter1" result="shadowOffsetOuter1"/>
      <feGaussianBlur stdDeviation="3.5" in="shadowOffsetOuter1" result="shadowBlurOuter1"/>
      <feColorMatrix values="0 0 0 0 0.0470588235 0 0 0 0 0.196078431 0 0 0 0 0.278431373 0 0 0 0.118088942 0" in="shadowBlurOuter1"/>
    </filter>
    <filter x="-6.7%" y="-5.4%" width="114.2%" height="111.4%" filterUnits="objectBoundingBox" id="filter-13">
      <feMorphology radius="1.5" operator="dilate" in="SourceAlpha" result="shadowSpreadOuter1"/>
      <feOffset dx="1" dy="1" in="shadowSpreadOuter1" result="shadowOffsetOuter1"/>
      <feGaussianBlur stdDeviation="3.5" in="shadowOffsetOuter1" result="shadowBlurOuter1"/>
      <feColorMatrix values="0 0 0 0 0.0470588235 0 0 0 0 0.196078431 0 0 0 0 0.278431373 0 0 0 0.118088942 0" in="shadowBlurOuter1"/>
    </filter>
    <rect id="path-12" x="0" y="0" width="218" height="271" rx="4"/>
  </defs>
  <g id="Page-1" stroke="none" stroke-width="1" fill="none" fill-rule="evenodd">
    <g id="d1-plus-header" transform="translate(-2352 -999)">
      <g id="d1-plus-header-illustration" transform="translate(2352.83 999.182)">
        <path d="M31.47 480.265C-25.565 415.33-9.251 113.82 114.93 38.278c124.183-75.543 233.326-32.698 362.842 71.04s160.366 31.34 241.94 86c81.572 54.66 19.738 254.317-4.622 326.664-24.36 72.347-93.11 58.133-237.35 82.558C333.498 628.966 88.504 545.2 31.47 480.265z" id="BlobTop" fill="#CFF9FA" fill-rule="nonzero"/>
        <g id="chart1" transform="rotate(7 -405.92 2649.056)">
          <rect id="Rectangle" fill="#E3FFFE" fill-rule="nonzero" x=".088" y=".444" width="179" height="97" rx="4"/>
          <rect id="Rectangle" fill="#B5ECF0" fill-rule="nonzero" x="13.97" y="14.51" width="101" height="70" rx="1"/>
          <path id="Rectangle" fill="#FFF" fill-rule="nonzero" d="M26.959 24.284h43v3h-43zM27.064 33.339h43v3h-43zM27.168 42.393h43v3h-43zM27.272 51.448h43v3h-43zM27.498 61.496h43v3h-43zM27.602 70.55h43v3h-43z"/>
          <rect id="Rectangle" fill="#FFF" fill-rule="nonzero" x="80.919" y="8.968" width="72" height="41" rx="1"/>
          <circle id="Oval" fill="#C7EFF2" fill-rule="nonzero" cx="115.587" cy="14.519" r="2.5"/>
          <circle id="Oval" fill="#C7EFF2" fill-rule="nonzero" cx="115.273" cy="44.783" r="2.5"/>
          <path id="Path" stroke="#C7EFF2" stroke-width="3" stroke-linecap="round" stroke-linejoin="round" d="M114.933 15.212v29M120.767 19.488v17M115.259 44.886l6-9"/>
        </g>
        <g id="chart2" transform="rotate(7 -2801.874 527.101)">
          <rect id="Rectangle" fill="#E3FFFE" fill-rule="nonzero" x=".142" y=".319" width="205" height="107" rx="4"/>
          <path d="M24.085 91.383c5.968-6.304 16.56-17.017 35.825-20.66 28.783-5.449 37.11-35.027 50.944-35.027 17.362 0 24.677 8.757 31.842 8.757 14.384 0 29.496-11.736 37.389-29.07" id="Path" stroke="#ACEFF1" stroke-width="3" stroke-linecap="round" stroke-linejoin="round"/>
        </g>
        <g id="chart3" transform="rotate(7 -3853.84 747.724)" fill-rule="nonzero">
          <rect id="Rectangle" fill="#E3FFFE" x=".321" y=".249" width="168" height="66" rx="4"/>
          <g id="Group-6" transform="translate(24.682 10.105)" fill="#B5ECF0">
            <path id="Rectangle" d="M0 0h119v3H0zM.104 11h119v3h-119zM.087 22h119v3h-119zM.191 33h119v3h-119zM.278 44h119v3h-119z"/>
          </g>
        </g>
        <g class="animate-card-1">
          <g id="portal-page" transform="rotate(7 -1443.41 2552.259)">
          <g id="portals-small" transform="translate(.162 -.001)">
            <g id="bkg">
              <use fill="#000" filter="url(#filter-2)" xlink:href="#path-1"/>
              <use fill="#FFF" xlink:href="#path-1"/>
            </g>
            <g id="filters" transform="translate(42.76 137.95)">
              <g id="Group-3" stroke="#B8D2D4" stroke-linecap="round" stroke-linejoin="round">
                <path id="Rectangle" d="M183.578-.001h54.699v24h-54.699z"/>
                <path id="Rectangle-3" d="M238.276-.001h32v24h-32z"/>
                <path id="Rectangle-16" d="M.158-.001h54.699v24H.158z"/>
                <path id="Rectangle-18" d="M54.857-.001h70.256v24H54.857z"/>
                <path id="Rectangle-21" d="M125.113-.001h58.465v24h-58.465z"/>
              </g>
              <g id="Group-4" transform="translate(6.387 7.442)" fill="#E3F7F8" fill-rule="nonzero">
                <rect id="Rectangle-2" x="183.792" y=".918" width="42.089" height="6.289" rx="3"/>
                <rect id="Rectangle-4" x="235.205" y=".918" width="24.238" height="6.289" rx="3"/>
                <rect id="Rectangle-17" x=".341" y=".918" width="42.089" height="6.289" rx="3"/>
                <rect id="Rectangle-20" x="56.428" y=".918" width="54.043" height="6.289" rx="3"/>
                <rect id="Rectangle-22" x="125.368" y=".918" width="45.035" height="6.289" rx="3"/>
              </g>
            </g>
            <path d="M314.361 352.535l46.04.174-.46.19-45.563.003-.017-.367zm-7.378-55.114l8.496.076 3.665 2.451 6.579.603.24.216h.03l1.663 1.483v.007l-.008-.007-1.45 6.666h.01l1.448-6.653 5.142 4.552 4.898.4v-.039l2.704.212 1.272 2.598-.016.042 2.294 4.658-2.372 3.253 3.173-2.271.117.046.05-.035 2.49 1.004-1.168 2.918 3.52-1.92.117.047.058-.032 3.752 1.51-.21 2.054 7.924.449.02.012.173.009 8.296 5.03v3.734l-5.074 6.174-.14.974-62.869.126-7.931-12.564.117-1.708.145.064v-.007l-.131-.057.372-5.545.016-.018v-.024l3.07-3.64h-.01l2.103-2.5.701-4.295-.722-2.231-.002.005-.055-.168-.117.155-.722-2.203-2.345-.21-1.03 1.43-.118-.04-.029.042-4.323-1.425.04-.048-.97-.32-.01-.013-.103-.033-2.975-3.572.219.02-.063-.079 4.382.432.031 1.267 1.037.534 1.765.907 1.286-.993.101-.008.05-.038 3.907-.318.513 1.742h.005l-.056-.177 1.842-.117 3.612-4.594 1.574.008v-.008zm100.162-27.14l5.545-6.712v7.611l-.069-.046v2.374h.01v-2.366l.06.04v34.338l-2.577-2.7 1.64 1.724.935.977v5.047l-5.63-5.656-2.805-2.801-5.195-5.217.009-.103h-.01l.092-2.224.272-7.167.222-5.976h.01l.081-2.168 7.41-8.974zm-84.847-67.9l.019.11h.012l.538 3.097 2.337.227-.02.093h.053l-.538 2.513 4.972-3.065 3.66.378-.088.085.117.013-3.903 3.777-9.551.98 1.239 1.706h-.027l.06.082-6.226 1.063-10.927 7.524 10.897 5.513v.046l.032.016-.06 5.62 3.055-.01 12.736-17.273h4.715l3.47 2.75v.049l.034.028-.049 3.851 7.155-2.625.007.085.028-.01.661 8.304 5.465.883v.052l.038.006-.041 1.705-7.544 3.735-10.035.403-6.263 2.801v1.533l6.512-2.754 1.019.906v.008l.04.035-2.084 3.006 2.07 1.738 4.517.2-.089.03h.124l-9.259 3.025-.01-.037-.024.008-.322-1.313 3.271-1.451-4.61.74-.093.273-1.87.299-27.508 21.687-.071 9.753-2.687-.065v-.015h-.155l-1.112-7.82-16.845-.05-7.143 8.278-.033-.06-.035.04.003.005-3.06 3.573 3.688 7.393h7.495l2.709-4.152h.101l.035-.052 3.465.056-.135 3.199-.116.08.067-.116-.099.069v.011l-.664.467-.043.078.74-.512-2.585 4.54.019.087-.468.8 7.874-.072h.215l-.054.04.217 8.843-.007-.008-4.382-.432v-.005l-.108-.011-2.535-3.205.019-.015-.674-.285-.01.035-2.243-.978-.481-.202-.068.117-3.973-1.906.047-.079-.073-.033 1.309-2.167h-.073l-1.347 2.238-2.698-2.568-3.066.761-12.285-4.785-7.546-16.552-.091-4.15h-2.35v4.42l3.992 7.915-.028.02.014.03-2.064 1.493-5.043-8.917v-.023l-.013-.023-.701-6.84-.062-.007-4.722-4.361v-9.678l.042-.041v-.087l12.893-12.648h39.144l4.59 1.954-.045.088.2.084-.828 1.652h1.986l1.897-.857 1.513.857 3.197.101.051.162h.131l.273.843-4.868.962-4.041 6.04h1.897l3.63-4.987 1.957-1.21h1.674l-.02.158h.206l-.414 3.302 1.965-.182 2.125-1.54h4.908l2.337-1.483h7.523l3.248-2.619h2.812l.018-.05h-2.884l-3.247 2.619h-7.524l-2.33 1.494h-3.36l-.011-.03h-.02l-1.025-2.855-2.624.172-1.574-1.08-.007-.021-.023-.017-.963-3.172-7.77 1.535-4.6-1.953h-39.152v-.049h-.025v-1.562l-3.468-2.926.006-.027-.03-.025 1.945-8.315-.01-.01-.076.076-5.082-4.702-16.675.539-14.445 6.42-2.757-.206-.099-.015 7.57-4.602-3.947.065 4.596-5.762.08-.028.027-.034 9.275-3.237-7.257.242 1.66-2.153h.032l.075-.098 8.646.1v-3.1l.125-.047v-.073l7.796-2.917 19.274-.102 3.557 1.363.059-.046 23.305-.454 12.192 4.54 5.024-2.194 9.5 1.664 5.43-2.415-1.012-1.95.018-.006-.044-.1 4.075-1.687zm-19.718 83.156l1.051.985v.065l.117.111v.975h-2.97l-1.035-.827v-.04l-.169-.133v-1.136h3.006zm15.503.368h1.685l-.618.95h-1.685l.042-.063h-.036l.612-.887zm-7.094-1.95v.17l4.81.497-.337.467-.358.51h-2.647l-1.658 1.197v-.775h-3.764v-.116h-.049v-.606h1.735l-.9-1.184h.107l-.124-.16h3.185zm-12.28-5.74l8.341 5.592h-.278l.215.148h-6.902l.14-.148h-.157l1.458-1.508-3.904-2.485h-4.933l.097-.089h-.199l1.706-1.51h4.417zm15.88-34.54h-.455l-.234.15h.451l-2.274 1.437h1.356l2.265-1.438h-1.343l.233-.15zm34.375-10.97v.207l.198-.187v.094l-.198.188v.233l.198-.183v-.234l.05-.047v.233l.133-.117v1.965l1.408.305.029.044.175.038.028.041-.174-.039.019.027.173.038-.018-.027h.022l.018.025.109.024 1.986 2.871h-.137l.014.021h-9.561l.048-.045h-.1l.164-.154h-.345l5.76-5.32zm-100.335.335l.09.07.068-.054 2.534 1.924v1.09h-.04l.001.131h-1.942l-1.85-2.254 1.139-.907zm-.687-15.2l-.028.026 1.85 1.972h1.893l1.636 1.567.025-.025-1.616-1.55h-1.89l-.063-.065h-.009l-1.798-1.925zm155.294-29.819l9.458.893v3.385l-1.027.195-8.729 12.905-4.63 1.271-6.615.38-3.278 2.335-8.745 2.399-6.193 6.088-4.05.004-.066-.063h-.039l-3.425-3.24-.161-5.775 5.442-2.9v-4.26l-1.74-2.823-1.059-1.702-11.376-.15v-.182h-.071v-2.134l7.446-2.128 9.324-3.034h16.172l13.362-1.464zm-71.341 11.611l1.956.014-.04.092h.048l-1.32 2.986 4.004-3.06 1.735.016 11.64 4.423v.015l.016.006.09 3.05 2.104.7 1.18 2.017-.044.026.025.045-2.088 1.295-3.615-1.197v4.234l-.015.006v.138l-1.028.415-3.06-1.355 1.007 2.036-.079.031.065.132-1.25.51-4.59-3.526h-5.416v-1.421h.007v-.093h5.338l2.371-1.777 4.609.072-5.507-4.584-1.392-1.14-11.451.57.02-.02h-.025l4.705-4.656zm79.53 9.749l1.27 1.197v1.984l-3.58 1.62-7.655-1.02v-1.899l2.169.047.807-1.023 3.813.075 3.177-.981zm-86.991 1.87l.234.094.107-.082 3.54 1.418-.627 1.424-.35-.035-.01.021-5.86-.583 2.966-2.256zm-11.347-5.814l3.155-1.284.906 1.358-2.783 1.32-.006.005-.051-.062-.088.042-1.133-1.38zm-12.57-5.308l3.005 1.291 2.864-1.034.047.144.059-.021.603 1.766 1.569-1.889h2.703l-.103.123h.24l-2.699 3.184 3.37 1.447h-.013l.156.065-3.613.758-4.821-1.05-4.328 1.722-6.296-2.236.117-.027-.14-.05 4.924-1.167-3.082-1.188.125-.039-.166-.065 5.478-1.734zm21.437-1.03l-.058.143.15-.045-1.012 2.52-3.862 1.198-1.799-1.701.102-.03-.106-.101 6.585-1.984zm-25.083-.565l2.337 1.008-.2.063.159.07-10.05 3.24-1.766-1.962.03-.008-.122-.134 9.612-2.277zm30.399.559l1.051 1.294-.233.059.064.08-5.237 1.324-.485-1.634.234-.053-.024-.078 4.63-.992zm5.537-3.444l.202.078.026-.02 2.697 1.039h8.425l-.087.057h.333l-2.921 1.915-.006-.003-11.206-.817.046-.036-.268-.02 2.76-2.193zm35.943-7.805l-.102.055.366-.025-5.85 3.07-1.33.248-6.507 1.241-3.038 1.319-6.66 2.959-.005-.001-1.057-.851h-6.57l-.896-.851h.375l-.146-.136h5.665l-1.27-1.565.361.056-.126-.151 3.166.478-.962-1.621h.274l-.038-.063 7.92-.147 1.052-1.332-7.828.154v-1.197l23.206-1.64zm-29.027 2.306l1.732 1.284.088.06-2.128 1.268-.365.234.004-.01-2.008-.374-2.309-.407.818-.32 4.168-1.735z" id="Shape" fill="#C7EFF2" fill-rule="nonzero"/>
            <path id="Rectangle" fill-opacity=".6" fill="#1AD8AF" fill-rule="nonzero" d="M240.247 243.79h19.324v24.701h-19.324z"/>
            <g id="Group" transform="translate(240.832 243.207)" stroke="#1AD8AF">
              <path id="Rectangle" d="M0 0h19.324v24.701H0zM57.973 24.701h19.324v24.701H57.973zM57.973 49.403h19.324v24.701H57.973zM38.649 24.701h19.324v24.701H38.649zM19.324 0h19.324v24.701H19.324zM38.649 0h19.324v24.701H38.649zM0 24.701h19.324v24.701H0zM19.324 24.701h19.324v24.701H19.324z"/>
              <path id="Rectangle" d="M39.063 49.1H58.39v24.698H39.063z"/>
            </g>
            <path id="Rectangle" fill-opacity=".6" fill="#1AD8AF" fill-rule="nonzero" d="M298.22 268.491h19.324v24.701H298.22zM278.896 293.194h19.324v24.701h-19.324zM298.22 293.194h19.324v24.701H298.22z"/>
            <ellipse id="Oval" fill="#D8EAEA" fill-rule="nonzero" cx="390.585" cy="38.244" rx="7.86" ry="7.77"/>
            <ellipse id="Oval-2" stroke="#EED268" stroke-width="5" cx="53.797" cy="39.88" rx="12.036" ry="12.023"/>
            <path id="Path" stroke="#88B4B9" stroke-width=".5" stroke-linecap="round" stroke-linejoin="round" d="M403.523 37.345l2.128 2.126 2.13-2.126"/>
            <g id="Group-5" transform="translate(37.175 214.181)" fill="#C7EFF2" fill-rule="nonzero" opacity=".5">
              <rect id="Rectangle-14" x="0" y="0" width="140.185" height="11.91" rx="5.955"/>
              <rect id="Rectangle_Copy" x=".691" y="25.35" width="140.185" height="11.91" rx="5.955"/>
              <rect id="Rectangle_Copy_2" x="1.382" y="50.7" width="140.185" height="11.91" rx="5.955"/>
              <rect id="Rectangle-15" x="2.764" y="101.401" width="140.185" height="11.91" rx="5.955"/>
              <rect id="Rectangle_Copy_3" x="2.073" y="76.05" width="140.185" height="11.91" rx="5.955"/>
            </g>
            <path id="Rectangle-19" fill="#E2FCFC" d="M40.778 85.112h127.903v18.813H40.778z"/>
            <rect id="Rectangle-23" fill-opacity=".86" fill="#EED268" fill-rule="nonzero" opacity=".5" x="87.288" y="36.69" width="113" height="9.815" rx="4.205"/>
            <path d="M161.582 100.024l-.019-.02-1.42-1.42a1.427 1.427 0 01-.184-.184 4.912 4.912 0 01-2.357.584 4.968 4.968 0 01-5.012-4.925 4.968 4.968 0 014.93-5.006h.082l.014-.015a4.973 4.973 0 014.97 4.965 4.898 4.898 0 01-.624 2.355c.071.046.139.1.2.158l.026.026 1.421 1.42a1.446 1.446 0 01-.595 2.486 1.45 1.45 0 01-1.432-.424z" id="Shape-2" fill="#90D9D9" fill-rule="nonzero"/>
            <path id="Rectangle" fill-opacity=".6" fill="#1AD8AF" fill-rule="nonzero" d="M278.896 268.491h19.324v24.701h-19.324zM259.572 243.79h19.324v24.701h-19.324zM278.896 243.79h19.324v24.701h-19.324zM240.247 268.491h19.324v24.701h-19.324zM259.572 268.491h19.324v24.701h-19.324z"/>
            <use fill="#FFF" xlink:href="#path-3"/>
            <use fill="#FFF" xlink:href="#path-4"/>
            <use fill="#FFF" xlink:href="#path-5"/>
            <use fill="#FFF" xlink:href="#path-6"/>
            <use fill="#FFF" xlink:href="#path-7"/>
            <use fill="#FFF" xlink:href="#path-8"/>
            <use fill="#FFF" xlink:href="#path-9"/>
            <use fill="#FFF" xlink:href="#path-10"/>
            <use fill="#FFF" xlink:href="#path-11"/>
          </g>
          <path id="Rectangle-3" stroke="#B8D2D4" stroke-linecap="round" stroke-linejoin="round" d="M313.203 137.948h83v24h-83z"/>
          <rect id="Rectangle-4" fill="#E3F7F8" fill-rule="nonzero" x="316.609" y="145.848" width="72" height="6" rx="3"/>
          <path d="M41.309 194.707c.52 0 .984-.085 1.391-.256.408-.171.727-.41.96-.716.231-.306.347-.659.347-1.058 0-.384-.08-.696-.242-.934a1.428 1.428 0 00-.575-.513 1.487 1.487 0 00-.627-.155v-.032c.155 0 .336-.057.543-.171.207-.114.386-.294.538-.54.15-.245.226-.55.226-.913 0-.606-.218-1.086-.653-1.443-.436-.356-1.044-.534-1.824-.534-.717 0-1.312.148-1.787.444-.474.295-.768.756-.88 1.383l1.592.545c.056-.634.38-.95.97-.95.26 0 .462.069.606.208.144.138.216.336.216.593 0 .284-.078.496-.232.635-.155.14-.4.209-.738.209h-.306v1.164h.39c.359 0 .62.06.786.182.165.12.247.32.247.598 0 .264-.086.468-.258.614-.172.146-.41.22-.711.22-.324 0-.575-.083-.754-.246-.18-.164-.286-.431-.322-.802l-1.644.716c.19.613.508 1.058.954 1.336.446.277 1.042.416 1.787.416zm6.577 0c1.926 0 2.889-1.21 2.889-3.632s-.963-3.633-2.889-3.633c-1.925 0-2.888 1.211-2.888 3.633 0 2.421.963 3.632 2.888 3.632zm0-1.431c-.386 0-.665-.171-.838-.513-.172-.342-.258-.905-.258-1.688 0-.784.086-1.346.258-1.688.173-.342.452-.513.838-.513.387 0 .666.17.838.513.173.342.259.904.259 1.688 0 .783-.086 1.346-.259 1.688-.172.342-.451.513-.838.513zm6.43 1.431c.514 0 .974-.092 1.381-.278.408-.185.731-.466.97-.844.24-.377.359-.844.359-1.4 0-.412-.088-.78-.264-1.105a1.875 1.875 0 00-.754-.758c-.326-.182-.715-.273-1.164-.273-.31 0-.59.045-.844.134-.253.089-.45.212-.59.368a9.31 9.31 0 01.042-.256l.158-1.325h3.026v-1.42h-4.343l-.443 3.984 1.37.203c.232-.278.601-.416 1.107-.416.352 0 .615.085.79.256.176.17.268.417.275.737 0 .328-.095.577-.285.748-.19.17-.45.256-.78.256-.351 0-.611-.078-.78-.235-.169-.156-.288-.391-.358-.705l-1.592.919c.295.499.664.858 1.107 1.08.443.22.98.33 1.613.33zm8.718 0c.394 0 .74-.1 1.039-.299.298-.2.525-.474.68-.823l.063 1.015h1.613v-7.606h-1.793v3.162a1.845 1.845 0 00-.632-.737c-.267-.178-.587-.267-.96-.267-.68 0-1.215.245-1.602.737-.386.491-.58 1.179-.58 2.062 0 .869.192 1.545.575 2.03.383.484.916.726 1.597.726zm.622-1.335c-.316 0-.56-.118-.732-.353-.173-.235-.259-.598-.259-1.09 0-.491.086-.854.259-1.09.172-.234.416-.352.732-.352.288 0 .518.107.69.32.173.214.27.517.29.909v.427c-.02.399-.117.703-.29.914a.847.847 0 01-.69.315zm8.612 1.335c.274 0 .513-.057.717-.17l.137-1.016a1.041 1.041 0 01-.327.043c-.253 0-.38-.139-.38-.417v-1.944c0-.684-.213-1.197-.642-1.538-.429-.342-1.054-.513-1.876-.513-.703 0-1.262.144-1.676.432-.415.289-.668.693-.76 1.213l1.455.427c.05-.292.158-.502.327-.63s.387-.192.654-.192c.231 0 .414.07.548.213.133.143.2.335.2.577v.193l-1.191.235c-.731.15-1.256.365-1.576.646-.32.281-.48.65-.48 1.106 0 .434.14.765.422.993.281.228.685.342 1.212.342.935 0 1.56-.274 1.877-.822.147.548.6.822 1.36.822zm-2.582-1.175a.564.564 0 01-.38-.117c-.091-.079-.137-.193-.137-.342 0-.15.048-.266.143-.348.094-.081.254-.15.48-.208l.853-.203v.46a.643.643 0 01-.295.55 1.124 1.124 0 01-.664.208zm6.483 1.175c.274 0 .546-.037.817-.112.27-.075.493-.173.669-.294l-.18-1.122c-.217.157-.47.236-.758.236-.464 0-.696-.24-.696-.716v-2.148h1.581v-1.292h-1.58v-1.7l-1.793.503v1.197h-.907v1.292h.907v2.447c.007.598.176 1.033.506 1.303s.808.406 1.434.406zm6.81 0c.273 0 .512-.057.716-.17l.137-1.016a1.041 1.041 0 01-.327.043c-.253 0-.38-.139-.38-.417v-1.944c0-.684-.213-1.197-.642-1.538-.429-.342-1.054-.513-1.876-.513-.703 0-1.262.144-1.677.432-.414.289-.667.693-.759 1.213l1.455.427c.05-.292.158-.502.327-.63s.386-.192.654-.192c.231 0 .414.07.548.213.133.143.2.335.2.577v.193l-1.191.235c-.731.15-1.256.365-1.576.646-.32.281-.48.65-.48 1.106 0 .434.14.765.422.993.281.228.685.342 1.212.342.935 0 1.56-.274 1.876-.822.148.548.601.822 1.36.822zm-2.583-1.175a.564.564 0 01-.38-.117c-.091-.079-.137-.193-.137-.342 0-.15.048-.266.142-.348.095-.081.255-.15.48-.208l.854-.203v.46a.643.643 0 01-.295.55 1.124 1.124 0 01-.664.208zm6.324 1.175c.816 0 1.438-.162 1.866-.486.429-.324.643-.746.643-1.266 0-.463-.17-.828-.511-1.095-.34-.267-.898-.468-1.67-.604-.36-.07-.61-.144-.754-.219-.145-.074-.217-.165-.217-.272 0-.114.07-.21.211-.289.14-.078.338-.117.59-.117.324 0 .601.057.833.17.232.115.433.296.601.546l.928-.919a2.212 2.212 0 00-.933-.753c-.383-.168-.877-.251-1.481-.251-.548 0-1.014.083-1.397.25-.383.168-.67.387-.859.658-.19.27-.285.559-.285.865 0 .449.167.809.501 1.08.334.27.894.484 1.681.64.352.072.6.145.744.22.144.074.216.161.216.261 0 .114-.07.205-.211.272-.14.068-.334.102-.58.102-.738 0-1.258-.253-1.56-.759l-.928 1.026c.506.627 1.364.94 2.572.94zm6.03 0c.618 0 1.14-.119 1.565-.358a1.79 1.79 0 00.86-1.041l-1.455-.47a.732.732 0 01-.332.438c-.165.1-.378.15-.638.15-.31 0-.557-.08-.743-.236-.186-.157-.308-.402-.364-.737h3.595c.035-.157.052-.356.052-.598 0-.855-.226-1.52-.68-1.993-.453-.473-1.104-.71-1.955-.71-.878 0-1.556.242-2.034.726-.478.485-.717 1.168-.717 2.051 0 .884.244 1.567.733 2.052.488.484 1.192.726 2.113.726zm.864-3.237h-1.981c.105-.698.442-1.047 1.012-1.047.562 0 .885.35.97 1.047zm5.018 3.237c.274 0 .546-.037.817-.112.27-.075.494-.173.67-.294l-.18-1.122c-.218.157-.47.236-.759.236-.464 0-.695-.24-.695-.716v-2.148h1.58v-1.292h-1.58v-1.7l-1.793.503v1.197h-.906v1.292h.906v2.447c.008.598.176 1.033.506 1.303s.809.406 1.434.406zm4.427 0c.816 0 1.438-.162 1.866-.486.429-.324.643-.746.643-1.266 0-.463-.17-.828-.511-1.095-.34-.267-.898-.468-1.67-.604-.36-.07-.61-.144-.755-.219-.144-.074-.216-.165-.216-.272 0-.114.07-.21.211-.289.14-.078.338-.117.59-.117.324 0 .601.057.833.17.232.115.432.296.601.546l.928-.919a2.212 2.212 0 00-.933-.753c-.383-.168-.877-.251-1.481-.251-.548 0-1.014.083-1.397.25-.383.168-.67.387-.859.658-.19.27-.285.559-.285.865 0 .449.167.809.501 1.08.334.27.894.484 1.681.64.352.072.6.145.744.22.144.074.216.161.216.261 0 .114-.07.205-.211.272-.14.068-.334.102-.58.102-.738 0-1.258-.253-1.56-.759l-.928 1.026c.506.627 1.364.94 2.572.94zm7.348-6.068c.365 0 .63-.07.796-.208.165-.14.247-.358.247-.658 0-.306-.082-.528-.247-.667-.166-.14-.43-.209-.796-.209-.366 0-.631.07-.796.209-.165.139-.248.361-.248.667 0 .3.083.519.248.658.165.138.43.208.796.208zm.896 5.961v-5.341h-1.792v5.341h1.792zm3.067 0v-2.82c0-.42.088-.732.264-.935a.863.863 0 01.685-.304c.239 0 .423.076.553.23.13.152.195.41.195.774v3.055h1.792v-3.557c0-.606-.165-1.072-.495-1.4-.33-.327-.773-.491-1.328-.491-.415 0-.777.094-1.086.283-.31.189-.548.472-.717.85l-.053-1.026h-1.602v5.341h1.792zm8.58 2.297c.45 0 .834-.073 1.15-.219.316-.146.59-.386.822-.72.232-.336.446-.788.643-1.358l1.93-5.341h-1.793l-.812 3.002-.284 1.175-.253-1.133-.812-3.044h-1.971l1.57 4.006.612 1.453-.127.331c-.077.192-.179.326-.305.4-.127.076-.299.113-.517.113-.218 0-.395-.02-.532-.059a.898.898 0 01-.374-.219l-.38 1.218c.359.264.836.395 1.434.395zm7.717-2.19c.878 0 1.562-.244 2.05-.732.489-.487.733-1.17.733-2.046 0-.876-.244-1.558-.733-2.045-.488-.488-1.172-.732-2.05-.732-.878 0-1.562.244-2.05.732-.489.487-.733 1.17-.733 2.045 0 .877.244 1.559.733 2.046.488.488 1.172.732 2.05.732zm0-1.292c-.337 0-.587-.118-.748-.353-.162-.235-.243-.613-.243-1.133s.08-.897.243-1.132c.161-.235.41-.353.748-.353.337 0 .587.118.748.353.162.235.243.613.243 1.132 0 .52-.08.898-.243 1.133-.161.235-.41.353-.748.353zm5.587 1.292c.885 0 1.493-.367 1.824-1.1l.052.993h1.602v-5.341h-1.792v2.83c0 .414-.087.722-.263.925-.176.203-.411.304-.706.304-.246 0-.429-.07-.548-.213-.12-.143-.18-.388-.18-.737v-3.11h-1.792v3.569c0 .648.16 1.123.48 1.426.32.303.76.454 1.323.454zm6.557-.107v-2.692c0-.406.112-.717.337-.935.225-.217.506-.326.843-.326.134 0 .26.016.38.049.12.032.214.069.284.112l.19-1.539c-.14-.078-.33-.117-.57-.117-.4 0-.735.108-1.006.326-.27.217-.469.528-.596.934l-.073-1.153h-1.581v5.341h1.792zm7.547 2.244v-3.141c.148.313.357.56.627.737.27.178.592.267.965.267.674 0 1.205-.245 1.592-.737.386-.491.58-1.179.58-2.062 0-.869-.19-1.545-.57-2.03-.38-.484-.913-.726-1.602-.726-.415 0-.775.112-1.08.336a1.99 1.99 0 00-.68.903l-.053-1.132h-1.57v7.585h1.791zm.97-3.472a.822.822 0 01-.717-.363c-.169-.243-.253-.585-.253-1.026v-.107c0-.456.086-.801.258-1.036a.834.834 0 01.712-.353c.316 0 .56.118.732.353.173.235.259.598.259 1.09 0 .49-.086.854-.259 1.09-.172.234-.416.352-.732.352zm6.388 1.335c.878 0 1.562-.244 2.05-.732.489-.487.733-1.17.733-2.046 0-.876-.244-1.558-.733-2.045-.488-.488-1.172-.732-2.05-.732-.879 0-1.562.244-2.05.732-.489.487-.733 1.17-.733 2.045 0 .877.244 1.559.733 2.046.488.488 1.171.732 2.05.732zm0-1.292c-.337 0-.587-.118-.749-.353-.161-.235-.242-.613-.242-1.133s.08-.897.242-1.132c.162-.235.412-.353.749-.353s.587.118.748.353c.162.235.243.613.243 1.132 0 .52-.081.898-.243 1.133-.161.235-.41.353-.748.353zm5.608 1.185v-2.692c0-.406.112-.717.337-.935.225-.217.506-.326.843-.326.134 0 .26.016.38.049.12.032.214.069.285.112l.19-1.539c-.141-.078-.331-.117-.57-.117-.4 0-.736.108-1.007.326-.27.217-.469.528-.595.934l-.074-1.153h-1.581v5.341h1.792zm5.08.107c.275 0 .547-.037.818-.112.27-.075.493-.173.67-.294l-.18-1.122c-.218.157-.471.236-.76.236-.463 0-.695-.24-.695-.716v-2.148h1.581v-1.292h-1.58v-1.7l-1.793.503v1.197h-.906v1.292h.906v2.447c.007.598.176 1.033.506 1.303s.808.406 1.434.406zm6.81 0c.274 0 .513-.057.717-.17l.137-1.016a1.041 1.041 0 01-.327.043c-.253 0-.379-.139-.379-.417v-1.944c0-.684-.214-1.197-.643-1.538-.429-.342-1.054-.513-1.876-.513-.703 0-1.262.144-1.676.432-.415.289-.668.693-.76 1.213l1.455.427c.05-.292.158-.502.327-.63s.387-.192.654-.192c.232 0 .414.07.548.213.133.143.2.335.2.577v.193l-1.191.235c-.731.15-1.256.365-1.576.646-.32.281-.48.65-.48 1.106 0 .434.14.765.422.993.281.228.685.342 1.212.342.935 0 1.56-.274 1.877-.822.147.548.6.822 1.36.822zm-2.582-1.175a.564.564 0 01-.38-.117c-.091-.079-.137-.193-.137-.342 0-.15.048-.266.143-.348.094-.081.254-.15.48-.208l.853-.203v.46a.643.643 0 01-.295.55 1.124 1.124 0 01-.664.208zm5.724 1.175c.196 0 .397-.025.6-.075.204-.05.37-.113.496-.192l.116-1.122c-.19.064-.369.097-.538.097-.182 0-.309-.05-.38-.15-.07-.1-.105-.27-.105-.513v-5.758h-1.792v6.025c0 .591.127 1.02.38 1.288.253.267.66.4 1.223.4z" id="305datasetsinyourportal" fill="#90D9D9" fill-rule="nonzero"/>
          <path d="M43.415 125.472v-2.713h2.86v-1.421h-2.86v-1.496H47v-1.421h-5.396v7.051h1.81zm5.396-5.961c.364 0 .629-.07.794-.209.165-.138.247-.357.247-.657 0-.306-.082-.528-.247-.667-.165-.14-.43-.209-.794-.209-.365 0-.63.07-.795.209-.164.139-.247.361-.247.667 0 .3.083.519.247.657.165.14.43.209.795.209zm.894 5.961v-5.342h-1.788v5.342h1.788zm2.85.107c.197 0 .396-.025.6-.075.203-.05.368-.114.494-.192l.116-1.122c-.19.064-.368.096-.537.096-.182 0-.308-.05-.378-.15-.07-.099-.105-.27-.105-.512v-5.759h-1.789v6.026c0 .591.127 1.02.38 1.288.252.267.658.4 1.22.4zm4.197 0c.274 0 .545-.037.815-.112a2.21 2.21 0 00.668-.294l-.179-1.122c-.217.157-.47.235-.757.235-.463 0-.694-.238-.694-.715v-2.148h1.578v-1.293h-1.578v-1.698l-1.788.502v1.196h-.905v1.293h.905v2.447c.007.598.175 1.033.505 1.303s.806.406 1.43.406zm4.828 0c.617 0 1.138-.12 1.562-.358A1.79 1.79 0 0064 124.18l-1.451-.47a.732.732 0 01-.331.438c-.165.1-.377.15-.637.15-.308 0-.556-.08-.741-.236-.186-.157-.307-.402-.363-.737h3.587c.035-.157.052-.356.052-.598 0-.855-.226-1.52-.678-1.993-.453-.474-1.103-.71-1.951-.71-.877 0-1.554.242-2.03.726-.477.484-.716 1.168-.716 2.051 0 .884.244 1.567.731 2.052.488.484 1.19.726 2.11.726zm.863-3.237h-1.978c.105-.698.442-1.047 1.01-1.047.561 0 .884.349.968 1.047zm4.46 3.13v-2.692c0-.406.112-.718.336-.935.225-.217.505-.326.842-.326.133 0 .26.016.378.048.12.032.214.07.284.113l.19-1.539c-.14-.078-.33-.117-.568-.117-.4 0-.735.108-1.005.325-.27.218-.468.53-.594.935l-.074-1.154h-1.578v5.342h1.789zm9.12.107c.686 0 1.22-.242 1.598-.726.379-.485.568-1.161.568-2.03 0-.883-.193-1.57-.578-2.062-.386-.492-.916-.737-1.589-.737-.371 0-.692.089-.962.267-.27.178-.479.423-.626.737v-3.163h-1.788v7.607h1.567l.053-1.132c.147.377.373.678.678.903a1.77 1.77 0 001.078.336zm-.621-1.335a.831.831 0 01-.71-.353c-.172-.235-.258-.58-.258-1.036v-.107c0-.442.084-.784.252-1.026a.82.82 0 01.716-.363c.315 0 .559.118.73.353.172.235.258.598.258 1.09 0 .49-.086.854-.257 1.09-.172.234-.416.352-.731.352zm4.67 3.525c.449 0 .83-.073 1.146-.219.316-.146.59-.386.82-.72.232-.336.446-.788.642-1.358l1.925-5.342h-1.788l-.81 3.003-.284 1.175-.252-1.133-.81-3.045h-1.967l1.567 4.007.61 1.453-.126.331c-.077.192-.179.326-.305.4-.126.075-.298.113-.515.113-.218 0-.395-.02-.532-.059a.895.895 0 01-.373-.219l-.379 1.218c.358.264.835.395 1.43.395z" id="Filterby" fill="#90D9D9" fill-rule="nonzero"/>
        </g>
        </g>
        <g class="animate-card-2">
          <g id="fair-chart" transform="rotate(7 -315.546 548.525)">
          <g id="Rectangle">
            <use fill="#000" filter="url(#filter-13)" xlink:href="#path-12"/>
            <use fill="#FFF" xlink:href="#path-12"/>
          </g>
          <g id="sankey" transform="translate(0 76)">
            <path d="M218 35.337v5.995c-29.3-20.084-57.158-17.093-83.587 7.997l-.824.79c-26.663 25.805-52.51 27.003-69.81 5.966l-.523-.644c-7.908-9.92-20.148-18.476-31.63-21.423C18.66 30.691 7.697 34.42-.002 46.401V38.18c8.625-9.488 20.09-12.283 32.869-9.004 12.405 3.183 25.336 12.137 33.894 22.648l.404.501c15.148 19.002 37.53 18.375 62.198-5.08l.748-.718C157.62 19.903 187.385 15.78 218 35.336z" id="Path" fill="url(#linearGradient-14)" fill-rule="nonzero"/>
            <path d="M147.467 42.248l1.282.986c16.554 12.83 30.523 19.324 42.559 20.801 8.757 1.075 15.692-.402 23.314-4.008l.99-.48.784-.394c.48-.243 1.017-.518 1.55-.79l.054-.03v5.611l-.654.322c-8.637 4.182-16.616 5.963-26.647 4.732-12.839-1.575-27.391-8.281-44.307-21.267l-.706-.544C105.32 15.905 80.93 16.21 60.866 45.524l-.607.897C50.6 60.88 38.113 67.66 24.33 67.674c-8.637.01-17.413-2.762-24.33-6.996v-6.015c6.43 4.724 15.517 8.021 24.324 8.011 11.95-.013 22.759-5.8 31.442-18.531l.337-.5c21.767-32.576 49.234-33.604 91.365-1.395z" id="Path" fill="url(#linearGradient-15)" fill-rule="nonzero"/>
            <g id="Group-8" transform="translate(21.5)">
              <use stroke-linecap="square" xlink:href="#Line-2"/>
              <path id="Rectangle" fill="#B8D2D4" d="M0 3h6v2H0zM0 0h9v2H0zM0 93h9v2H0zM44 93h9v2h-9zM88 93h9v2h-9zM132 93h9v2h-9zM176 93h9v2h-9z"/>
            </g>
            <g id="Group-9" transform="translate(65.5)">
              <use id="Line-2-Copy" stroke-linecap="square" xlink:href="#Line-2"/>
              <use xlink:href="#Rectangle"/>
            </g>
            <g id="Group-10" transform="translate(109.5)">
              <use id="Line-2-Copy-2" stroke-linecap="square" xlink:href="#Line-2"/>
              <use id="Rectangle" xlink:href="#Rectangle"/>
            </g>
            <g id="Group-11" transform="translate(153.5)">
              <use id="Line-2-Copy-3" stroke-linecap="square" xlink:href="#Line-2"/>
              <use id="Rectangle" xlink:href="#Rectangle"/>
            </g>
            <g id="Group-13" transform="translate(197.5)">
              <use id="Line-2-Copy-4" stroke-linecap="square" xlink:href="#Line-2"/>
              <use id="Rectangle" xlink:href="#Rectangle"/>
            </g>
          </g>
          <g id="LineChart" transform="translate(22 189)" fill="#90D9D9">
            <rect id="Value" x="0" y="40" width="6" height="31" rx="3"/>
            <rect id="Value" x="14" y="20" width="6" height="51" rx="3"/>
            <rect id="Value" x="28" y="10" width="6" height="61" rx="3"/>
            <rect id="Value" x="41" y="20" width="6" height="51" rx="3"/>
            <rect id="Value" x="55" y="0" width="6" height="71" rx="3"/>
          </g>
          <rect id="Rectangle" fill="#ECF5F6" x="104" y="196" width="96" height="13" rx="5"/>
          <rect id="Rectangle" fill="#ECF5F6" x="104" y="218" width="96" height="13" rx="5"/>
          <rect id="Rectangle" fill="#ECF5F6" x="104" y="240" width="96" height="13" rx="5"/>
          <path id="F" fill="#14ABBA" fill-rule="nonzero" d="M45.35 44v-7.62h8.16v-3.99h-8.16v-4.2h10.23V24.2H40.19V44z"/>
          <path id="I" fill="#14ABBA" fill-rule="nonzero" d="M133.35 44V24.2h-5.16V44z"/>
          <path d="M86.31 44l1.38-4.47h6.84L95.88 44h5.31l-6.93-19.8h-6.18L81.12 44h5.19zm7.14-7.98h-4.68l1.5-4.77.81-3.09h.06l.87 3.12 1.44 4.74z" id="A" fill="#14ABBA" fill-rule="nonzero"/>
          <path d="M167.26 44v-7.23h3.09l4.23 7.23h5.7l-5.04-7.77c1.26-.46 2.22-1.17 2.88-2.13.66-.96.99-2.16.99-3.6 0-2.04-.645-3.6-1.935-4.68-1.29-1.08-3.135-1.62-5.535-1.62h-9.45V44h5.07zm3.51-10.89h-3.51V28.1h3.51c1.1 0 1.9.2 2.4.6.5.4.75 1.03.75 1.89 0 .88-.25 1.52-.75 1.92-.5.4-1.3.6-2.4.6z" id="R" fill="#14ABBA" fill-rule="nonzero"/>
        </g>
        </g>
      </g>
    </g>
  </g>
</svg>
