<svg xmlns:xlink="http://www.w3.org/1999/xlink" viewBox="0 0 761 609">
  <defs/>
  <defs>
    <linearGradient id="f" x1="100%" x2="3.16%" y1="20.8%" y2="20.8%">
      <stop offset="0%" stop-color="#F28181"/>
      <stop offset="100%" stop-color="#655AE2"/>
    </linearGradient>
    <linearGradient id="g" x1="97.94%" x2="-1.68%" y1="50.71%" y2="50%">
      <stop offset="0%" stop-color="#6DF6D8"/>
      <stop offset="100%" stop-color="#EED268"/>
    </linearGradient>
    <filter id="b" width="107.2%" height="108.8%" x="-3.4%" y="-4.1%" filterUnits="objectBoundingBox">
      <feMorphology in="SourceAlpha" operator="dilate" radius="1.5" result="shadowSpreadOuter1"/>
      <feOffset dx="1" dy="1" in="shadowSpreadOuter1" result="shadowOffsetOuter1"/>
      <feGaussianBlur in="shadowOffsetOuter1" result="shadowBlurOuter1" stdDeviation="3.5"/>
      <feColorMatrix in="shadowBlurOuter1" values="0 0 0 0 0.0470588235 0 0 0 0 0.196078431 0 0 0 0 0.278431373 0 0 0 0.118088942 0"/>
    </filter>
    <filter id="d" width="114.2%" height="111.4%" x="-6.7%" y="-5.4%" filterUnits="objectBoundingBox">
      <feMorphology in="SourceAlpha" operator="dilate" radius="1.5" result="shadowSpreadOuter1"/>
      <feOffset dx="1" dy="1" in="shadowSpreadOuter1" result="shadowOffsetOuter1"/>
      <feGaussianBlur in="shadowOffsetOuter1" result="shadowBlurOuter1" stdDeviation="3.5"/>
      <feColorMatrix in="shadowBlurOuter1" values="0 0 0 0 0.0470588235 0 0 0 0 0.196078431 0 0 0 0 0.278431373 0 0 0 0.118088942 0"/>
    </filter>
    <radialGradient id="a" cx="46.45%" cy="54.35%" r="64.76%" fx="46.45%" fy="54.35%" gradientTransform="matrix(-.79482 -.12 .07147 -.73853 .8 1)">
      <stop offset="0%" stop-color="#57E3F2"/>
      <stop offset="100%" stop-color="#15B2C1"/>
    </radialGradient>
    <rect id="e" width="218" height="271" x="0" y="0" rx="4"/>
    <path id="c" d="M0 0h429v353H0z"/>
  </defs>
  <g fill="none" fill-rule="evenodd">
    <path fill="url(#a)" fill-rule="nonzero" d="M31.47 480.26c-57.04-64.93-40.72-366.44 83.46-441.98 124.18-75.54 233.33-32.7 362.84 71.04 129.52 103.74 160.37 31.34 241.94 86 81.58 54.66 19.74 254.32-4.62 326.66-24.36 72.35-93.1 58.13-237.35 82.56C333.5 628.97 88.5 545.2 31.47 480.26z"/>
    <g fill-rule="nonzero" transform="rotate(7 -405.92 2649.06)">
      <rect width="179" height="97" x=".09" y=".44" fill="#60DAE7" rx="4"/>
      <rect width="101" height="70" x="13.97" y="14.51" fill="#87E9F3" rx="1"/>
      <path fill="#FFF" d="M26.96 24.28h43v3h-43zM27.06 33.34h43v3h-43zM27.17 42.39h43v3h-43zM27.27 51.45h43v3h-43zM27.5 61.5h43v3h-43zM27.6 70.55h43v3h-43z"/>
      <rect width="72" height="41" x="80.92" y="8.97" fill="#B4F8FF" rx="1"/>
      <path fill="#75E1EC" d="M115.59 12.02a2.5 2.5 0 01.84 4.85v23.55l2.84-4.25V19.49a1.5 1.5 0 012.99-.15v15.44c.51.46.65 1.2.32 1.81l-.07.13-4.86 7.29a2.5 2.5 0 11-4.22-.92v-27.3a2.5 2.5 0 012.15-3.77z"/>
    </g>
    <g transform="rotate(7 -2801.87 527.1)">
      <rect width="205" height="107" x=".14" y=".32" fill="#60DAE7" fill-rule="nonzero" rx="4"/>
      <path stroke="#ACEFF1" stroke-linecap="round" stroke-linejoin="round" stroke-width="3" d="M24.08 91.38c5.97-6.3 16.56-17.01 35.83-20.66 28.78-5.45 37.11-35.02 50.94-35.02 17.37 0 24.68 8.75 31.85 8.75 14.38 0 29.5-11.73 37.38-29.07"/>
    </g>
    <g fill-rule="nonzero" transform="rotate(7 -3853.84 747.72)">
      <rect width="168" height="66" x=".32" y=".25" fill="#40D0DF" rx="4"/>
      <g fill="#B5ECF0">
        <path d="M24.68 10.1h119v3h-119zM24.78 21.1h119v3h-119zM24.77 32.1h119v3h-119zM24.87 43.1h119v3h-119zM24.96 54.1h119v3h-119z"/>
      </g>
    </g>
    <g transform="rotate(7 -1443.4 2552.26)">
      <g transform="translate(.16)">
        <use fill="#000" filter="url(#b)" xlink:href="#c"/>
        <use fill="#FBFCFC" xlink:href="#c"/>
        <g stroke="#B8D2D4" stroke-linecap="round" stroke-linejoin="round">
          <path d="M226.34 137.95h54.7v24h-54.7zM281.04 137.95h32v24h-32zM42.92 137.95h54.7v24h-54.7zM97.62 137.95h70.26v24H97.62z"/>
          <path d="M167.87 137.95h58.46v24h-58.46z"/>
        </g>
        <g fill="#E3F7F8" fill-rule="nonzero" transform="translate(49.15 145.4)">
          <rect width="42.09" height="6.29" x="183.79" y=".92" rx="3"/>
          <rect width="24.24" height="6.29" x="235.2" y=".92" rx="3"/>
          <rect width="42.09" height="6.29" x=".34" y=".92" rx="3"/>
          <rect width="54.04" height="6.29" x="56.43" y=".92" rx="3"/>
          <rect width="45.04" height="6.29" x="125.37" y=".92" rx="3"/>
        </g>
        <path fill="#C7EFF2" fill-rule="nonzero" d="M314.36 352.53l46.04.18-.46.19h-45.56l-.02-.37zm-7.38-55.1l8.5.07 3.66 2.45 6.58.6.24.22h.03l1.67 1.48h-.01l-1.45 6.67 1.46-6.66 5.14 4.55 4.9.4v-.03l2.7.2 1.27 2.6-.01.05 2.29 4.66-2.37 3.25 3.17-2.27.12.04.05-.03 2.49 1-1.17 2.92 3.52-1.92.12.05.05-.03 3.76 1.5-.21 2.06 7.92.45.02.01.17.01 8.3 5.03v3.73l-5.07 6.18-.14.97-62.87.13-7.93-12.57.11-1.7.15.06-.13-.06.37-5.55.01-.02v-.02l3.07-3.64 2.1-2.5.7-4.3-.72-2.23-.06-.16-.12.16-.72-2.2-2.34-.22-1.03 1.43-.12-.04-.03.04-4.32-1.42.04-.05-.97-.32-.01-.01-.1-.03-2.98-3.58.22.02-.07-.08 4.39.44.03 1.26 1.03.54 1.77.9 1.28-.99h.1l.06-.04 3.9-.32.52 1.74-.05-.18 1.84-.11 3.6-4.6h1.58zm100.16-27.15l5.55-6.71v7.61l-.07-.05v2.38h.01v-2.37l.06.04v34.34l-2.58-2.7 1.64 1.72.94.98v5.05l-5.63-5.66-2.8-2.8-5.2-5.22v-.1l.09-2.22.27-7.17.22-5.98h.01l.09-2.16 7.4-8.98zm-84.84-67.9l.02.11.55 3.1 2.33.22-.02.1h.06l-.54 2.51 4.97-3.06 3.66.37-.09.09.12.01-3.9 3.78-9.55.98 1.23 1.7h-.02l.06.09-6.23 1.06-10.92 7.52 10.9 5.52v.04l.02.02-.06 5.62 3.06-.01 12.74-17.27h4.71l3.47 2.75v.04l.03.03-.04 3.85 7.15-2.62v.08h.03l.67 8.3 5.46.88v.05h.04l-.04 1.71-7.55 3.74-10.03.4-6.26 2.8v1.54l6.5-2.76 1.03.9v.02l.04.03-2.09 3 2.07 1.74 4.52.2-.09.03h.12l-9.25 3.03-.01-.04-.03.01-.32-1.31 3.27-1.45-4.6.74-.1.27-1.87.3L300 264.83l-.07 9.75-2.69-.07v-.01h-.15l-1.12-7.82-16.84-.05-7.14 8.28-.04-.06-.03.04-3.06 3.57 3.69 7.4h7.5l2.7-4.15h.1l.04-.06 3.46.06-.13 3.2-.12.08.07-.12-.1.07v.01l-.66.47-.04.08.73-.51-2.58 4.54.02.08-.47.8 7.87-.07h.22l-.05.04.21 8.84-4.39-.44-.1-.01-2.54-3.2.02-.02-.67-.29-.01.04-2.25-.98-.48-.2-.07.11-3.97-1.9.05-.08-.07-.03 1.3-2.17h-.07l-1.35 2.24-2.7-2.57-3.06.76-12.29-4.78-7.54-16.56-.1-4.15h-2.34v4.42l3.99 7.92-.03.02.02.03-2.07 1.5-5.04-8.93v-.02l-.01-.02-.7-6.84h-.07l-4.72-4.37v-9.68l.04-.04v-.08l12.9-12.65h39.14l4.59 1.95-.04.09.2.08-.83 1.65h1.98l1.9-.85 1.51.85 3.2.1.05.17h.13l.28.84-4.87.96-4.04 6.04h1.9l3.62-4.98 1.96-1.21h1.67l-.02.15h.21l-.41 3.3 1.96-.18 2.13-1.54h4.9l2.34-1.48H324l3.25-2.62h2.81l.02-.05h-2.88l-3.25 2.62h-7.52l-2.33 1.5h-3.36l-.01-.04h-.02l-1.03-2.85-2.62.17-1.58-1.08v-.02l-.03-.02-.96-3.17-7.77 1.54-4.6-1.96h-39.15v-.04h-.03v-1.57l-3.46-2.92v-.03l-.03-.03 1.95-8.31-.01-.01-.08.08-5.08-4.7-16.68.53-14.44 6.42-2.76-.2-.1-.02 7.57-4.6-3.95.06 4.6-5.76.08-.03.03-.03 9.27-3.24-7.25.25 1.66-2.16h.03l.07-.1 8.65.1v-3.1l.12-.04v-.07l7.8-2.92 19.27-.1 3.56 1.36.06-.05 23.3-.45 12.2 4.54 5.02-2.2 9.5 1.67 5.43-2.42-1.01-1.95h.02l-.05-.1 4.08-1.69zm-19.72 83.16l1.05.98v.07l.12.1v.98h-2.97l-1.04-.82v-.04l-.17-.14v-1.13h3.01zm15.5.36h1.69l-.62.96h-1.68l.04-.07h-.04l.61-.89zm-7.1-1.95v.18l4.82.5-.34.46-.36.51h-2.64l-1.66 1.2v-.78h-3.76v-.12h-.05v-.6h1.73l-.9-1.18h.1l-.12-.17H311zm-12.27-5.73l8.34 5.59h-.28l.22.15h-6.9l.13-.15h-.15l1.46-1.51-3.9-2.49h-4.94l.1-.08h-.2l1.7-1.51h4.42zm15.88-34.55h-.46l-.23.15h.45l-2.27 1.44h1.35l2.27-1.44h-1.35l.24-.15zm34.37-10.96v.2l.2-.18v.09l-.2.19v.23l.2-.18v-.24l.05-.04v.23l.13-.12v1.97l1.41.3.03.05.18.03.03.04-.18-.03.02.02.17.04-.01-.03h.02l.01.03.11.02 1.99 2.87h-.14l.02.03h-9.56l.04-.05h-.1l.17-.15h-.35l5.76-5.32zm-100.33.33l.09.07.07-.05 2.53 1.92v1.09h-.04v.13h-1.94l-1.85-2.25 1.14-.91zm-.69-15.2l-.03.03 1.85 1.97h1.9l1.63 1.56.03-.02-1.62-1.55h-1.89l-.06-.07h-.01l-1.8-1.92zm155.3-29.82l9.45.9v3.38l-1.02.2-8.73 12.9-4.63 1.27-6.62.38-3.27 2.34-8.75 2.4-6.2 6.08h-4.04l-.07-.06h-.04l-3.42-3.24-.16-5.77 5.44-2.9v-4.26l-1.74-2.82-1.06-1.7-11.38-.16v-.18h-.07v-2.13l7.45-2.13 9.32-3.04h16.17l13.37-1.46zm-71.35 11.61l1.96.02-.04.09h.05l-1.32 2.98 4-3.06 1.74.02 11.64 4.42v.02h.01l.1 3.05 2.1.7 1.18 2.02-.05.03.03.04-2.09 1.3-3.61-1.2v4.23l-.02.01v.14l-1.03.41-3.06-1.35 1.01 2.03-.08.04.07.13-1.25.5-4.6-3.52h-5.41v-1.52h5.35l2.37-1.77 4.6.07-5.5-4.58-1.4-1.14-11.45.57.02-.02h-.02l4.7-4.66zm79.54 9.75l1.26 1.2v1.98l-3.57 1.62-7.66-1.02v-1.9l2.17.05.8-1.02 3.82.07 3.18-.98zm-87 1.87l.24.1.1-.09 3.55 1.42-.63 1.43-.35-.04-.01.02-5.86-.58 2.96-2.26zm-11.34-5.81l3.15-1.29.9 1.36-2.77 1.32h-.01l-.05-.06-.09.05-1.13-1.38zm-12.57-5.31l3 1.29 2.87-1.03.04.14.06-.02.6 1.76 1.57-1.88h2.7l-.1.12h.24l-2.7 3.18 3.37 1.45.15.07-3.62.75-4.82-1.05-4.32 1.73-6.3-2.24.12-.03-.14-.05 4.92-1.17-3.08-1.18.12-.04-.16-.07 5.48-1.73zm21.43-1.03l-.05.14.15-.04-1.02 2.52-3.86 1.2-1.8-1.7.1-.04-.1-.1 6.58-1.98zm-25.08-.57l2.34 1.01-.2.07.16.07-10.05 3.24-1.77-1.97h.03l-.12-.14 9.61-2.28zm30.4.56l1.05 1.3-.23.06.06.08-5.24 1.32-.48-1.63.23-.06-.02-.07 4.63-1zm5.54-3.44l.2.08.03-.02 2.7 1.04h8.42l-.09.05h.33l-2.92 1.92-11.21-.82.05-.04-.27-.02 2.76-2.2zm35.94-7.8l-.1.05.36-.03-5.85 3.07-1.33.25-6.5 1.24-3.04 1.32-6.66 2.96-1.06-.85H338l-.9-.85h.38l-.15-.14H343l-1.28-1.56.37.05-.13-.15 3.17.48-.97-1.62h.28l-.04-.06 7.92-.15 1.05-1.33-7.83.15v-1.2l23.21-1.64zm-29.03 2.3l1.74 1.28.08.06-2.13 1.27-.36.24v-.01l-2-.38-2.31-.4.82-.33 4.16-1.73z"/>
        <g fill="#1AD8AF" fill-opacity=".3" fill-rule="nonzero">
          <path d="M240.25 243.79h19.32v24.7h-19.32zM298.22 268.49h19.32v24.7h-19.32zM278.9 293.19h19.32v24.7H278.9zM298.22 293.19h19.32v24.7h-19.32zM278.9 268.49h19.32v24.7H278.9zM259.57 243.79h19.32v24.7h-19.32zM278.9 243.79h19.32v24.7H278.9zM240.25 268.49h19.32v24.7h-19.32zM259.57 268.49h19.32v24.7h-19.32z"/>
        </g>
        <g stroke="#65DDCF" opacity=".75">
          <path d="M239.96 244.15h19.32v24.7h-19.32zM297.93 268.85h19.32v24.7h-19.32zM297.93 293.55h19.32v24.7h-19.32zM278.61 268.85h19.32v24.7h-19.32z"/>
          <path d="M259.28 244.15h19.32v24.7h-19.32zM278.61 244.15h19.32v24.7h-19.32zM239.96 268.85h19.32v24.7h-19.32z"/>
          <path d="M259.28 268.85h19.32v24.7h-19.32zM279.02 293.25h19.33v24.7h-19.33z"/>
        </g>
        <ellipse cx="390.58" cy="38.24" fill="#B6EAEE" fill-rule="nonzero" rx="7.86" ry="7.77"/>
        <ellipse cx="53.8" cy="39.88" stroke="#EED268" stroke-width="5" rx="12.04" ry="12.02"/>
        <path stroke="#88B4B9" stroke-linecap="round" stroke-linejoin="round" stroke-width=".5" d="M403.52 37.34l2.13 2.13 2.13-2.13"/>
        <g fill="#B6EAEE" fill-rule="nonzero" transform="translate(37.18 214.18)">
          <rect width="140.18" height="11.91" rx="5.95"/>
          <rect width="140.18" height="11.91" x=".69" y="25.35" rx="5.95"/>
          <rect width="140.18" height="11.91" x="1.38" y="50.7" rx="5.95"/>
          <rect width="140.18" height="11.91" x="2.76" y="101.4" rx="5.95"/>
          <rect width="140.18" height="11.91" x="2.07" y="76.05" rx="5.95"/>
        </g>
        <path fill="#B6EAEE" d="M40.78 85.11h127.9v18.81H40.78z"/>
        <rect width="260" height="9.81" x="87.29" y="36.69" fill="#F6D559" fill-opacity=".86" fill-rule="nonzero" rx="4.21"/>
        <path fill="#FFF" fill-rule="nonzero" d="M161.58 100.02l-.02-.02-1.42-1.42a1.43 1.43 0 01-.18-.18c-.73.39-1.54.59-2.36.58a4.97 4.97 0 11-.08-9.93h.08l.02-.01a4.97 4.97 0 014.97 4.96 4.9 4.9 0 01-.63 2.36c.07.04.14.1.2.16l.03.02 1.42 1.42a1.45 1.45 0 11-2.03 2.06z"/>
      </g>
      <path stroke="#B8D2D4" stroke-linecap="round" stroke-linejoin="round" d="M313.2 137.95h83v24h-83z"/>
      <rect width="72" height="6" x="316.61" y="145.85" fill="#E3F7F8" fill-rule="nonzero" rx="3"/>
      <path fill="#90D9D9" fill-rule="nonzero" d="M41.3 194.7c.53 0 1-.08 1.4-.25.4-.17.73-.4.96-.71.23-.31.35-.66.35-1.06 0-.39-.08-.7-.25-.94a1.49 1.49 0 00-1.2-.67v-.03c.16 0 .34-.05.55-.17.2-.11.38-.3.53-.54.15-.24.23-.55.23-.91 0-.6-.22-1.09-.65-1.44a2.8 2.8 0 00-1.83-.54c-.71 0-1.3.15-1.78.45-.48.3-.77.75-.88 1.38l1.59.54c.05-.63.38-.95.97-.95.26 0 .46.07.6.21.15.14.22.34.22.6 0 .28-.08.5-.23.63-.16.14-.4.2-.74.2h-.3v1.17h.38c.36 0 .62.06.79.18.16.13.25.33.25.6 0 .27-.09.47-.26.62-.17.14-.41.22-.71.22-.33 0-.58-.09-.76-.25-.18-.16-.28-.43-.32-.8l-1.64.72c.19.6.5 1.05.95 1.33.45.28 1.04.42 1.79.42zm6.59 0c1.92 0 2.88-1.2 2.88-3.63 0-2.42-.96-3.63-2.88-3.63-1.93 0-2.9 1.21-2.9 3.63 0 2.43.97 3.64 2.9 3.64zm0-1.42a.87.87 0 01-.84-.52c-.17-.34-.26-.9-.26-1.69 0-.78.09-1.34.26-1.68a.87.87 0 01.84-.52c.38 0 .66.17.83.52.18.34.26.9.26 1.68 0 .79-.08 1.35-.26 1.7a.87.87 0 01-.83.5zm6.43 1.43c.51 0 .97-.1 1.38-.28.4-.19.73-.47.97-.84.24-.38.36-.85.36-1.4 0-.42-.1-.79-.27-1.11a1.88 1.88 0 00-.75-.76 2.36 2.36 0 00-1.17-.27c-.3 0-.59.04-.84.13a1.4 1.4 0 00-.59.37l.04-.26.16-1.32h3.03v-1.42h-4.35l-.44 3.98 1.37.2c.23-.27.6-.4 1.1-.4.36 0 .62.08.8.25.17.17.26.41.27.73 0 .33-.1.58-.28.75-.2.17-.45.26-.78.26-.35 0-.61-.08-.78-.24-.17-.15-.3-.39-.36-.7l-1.6.92c.3.5.67.86 1.11 1.08.45.22.98.33 1.62.33zm8.71 0a1.83 1.83 0 001.72-1.12l.07 1.01h1.6V187h-1.78v3.16a1.69 1.69 0 00-1.6-1c-.68 0-1.21.24-1.6.73-.38.49-.58 1.18-.58 2.06 0 .87.2 1.55.58 2.03.38.49.91.73 1.6.73zm.63-1.34a.85.85 0 01-.74-.35c-.17-.24-.25-.6-.25-1.1 0-.48.08-.85.25-1.08a.85.85 0 01.74-.35c.28 0 .51.1.69.32.17.21.27.51.29.9v.43c-.02.4-.12.7-.3.92a.85.85 0 01-.68.31zm8.6 1.34c.28 0 .52-.06.73-.17l.13-1.02c-.08.03-.2.04-.32.04-.26 0-.38-.13-.38-.41v-1.95c0-.68-.22-1.2-.65-1.54a2.96 2.96 0 00-1.87-.5c-.7 0-1.26.14-1.68.42-.41.3-.67.7-.76 1.22l1.46.42c.05-.29.15-.5.32-.63.17-.12.39-.19.66-.19.23 0 .41.07.54.22.14.14.2.33.2.57v.2l-1.19.23c-.73.15-1.25.36-1.57.65a1.4 1.4 0 00-.48 1.1c0 .44.14.77.42 1 .28.22.69.34 1.21.34.94 0 1.56-.28 1.88-.83.15.55.6.83 1.36.83zm-2.57-1.18a.56.56 0 01-.38-.12c-.1-.07-.14-.19-.14-.34 0-.15.05-.26.14-.34.1-.09.26-.16.48-.21l.86-.2v.45c0 .23-.1.41-.3.55-.2.14-.42.21-.66.21zm6.48 1.18c.27 0 .55-.04.82-.11.27-.08.49-.18.66-.3l-.17-1.12c-.22.16-.48.23-.76.23-.47 0-.7-.23-.7-.71v-2.15h1.58v-1.3h-1.58v-1.69l-1.8.5v1.2h-.9v1.3h.9V193c.02.6.18 1.03.52 1.3.33.27.8.4 1.43.4zm6.8 0c.28 0 .52-.06.73-.17l.13-1.02c-.08.03-.2.04-.32.04-.26 0-.38-.13-.38-.41v-1.95c0-.68-.22-1.2-.65-1.54a2.96 2.96 0 00-1.87-.5c-.7 0-1.26.14-1.68.42-.41.3-.67.7-.76 1.22l1.46.42c.05-.29.15-.5.32-.63.17-.12.39-.19.66-.19.23 0 .41.07.54.22.14.14.2.33.2.57v.2l-1.19.23c-.73.15-1.25.36-1.57.65a1.4 1.4 0 00-.48 1.1c0 .44.14.77.42 1 .28.22.69.34 1.21.34.94 0 1.56-.28 1.88-.83.15.55.6.83 1.36.83zm-2.57-1.18a.56.56 0 01-.38-.12c-.1-.07-.14-.19-.14-.34 0-.15.05-.26.14-.34.1-.09.26-.16.48-.21l.85-.2v.45c0 .23-.1.41-.29.55-.2.14-.42.21-.66.21zm6.32 1.18c.82 0 1.44-.16 1.87-.49.42-.32.64-.74.64-1.26 0-.47-.17-.83-.51-1.1-.34-.27-.9-.47-1.67-.6a3.14 3.14 0 01-.76-.22c-.14-.08-.21-.17-.21-.28 0-.1.07-.2.2-.28.15-.08.35-.12.6-.12.32 0 .6.06.83.17.23.11.43.3.6.54l.93-.91a2.21 2.21 0 00-.93-.76 3.73 3.73 0 00-1.48-.25c-.55 0-1.02.09-1.4.25-.38.17-.67.39-.86.66-.19.27-.28.56-.28.87 0 .44.16.8.5 1.07.33.27.89.49 1.68.65.35.07.6.14.74.21.14.08.22.17.22.27 0 .11-.07.2-.21.27-.14.07-.34.1-.58.1-.74 0-1.26-.25-1.56-.76l-.93 1.03c.5.62 1.36.94 2.57.94zm6.03 0c.62 0 1.14-.12 1.57-.36.42-.24.7-.59.85-1.04l-1.45-.47a.73.73 0 01-.33.44c-.17.1-.38.15-.64.15-.3 0-.56-.08-.74-.24-.19-.16-.31-.4-.37-.74h3.6c.03-.15.05-.35.05-.6 0-.85-.23-1.51-.68-1.99-.45-.47-1.1-.7-1.95-.7-.88 0-1.56.23-2.04.72a2.8 2.8 0 00-.72 2.05c0 .88.25 1.57.74 2.05.48.49 1.19.73 2.11.73zm.86-3.24h-1.98c.1-.7.45-1.05 1.01-1.05.57 0 .89.35.97 1.05zm5.02 3.24c.28 0 .55-.04.82-.11.27-.08.5-.18.67-.3l-.18-1.12c-.22.16-.47.23-.76.23-.46 0-.7-.23-.7-.71v-2.15h1.59v-1.3h-1.59v-1.69l-1.79.5v1.2h-.9v1.3h.9V193c.01.6.18 1.03.5 1.3.34.27.82.4 1.44.4zm4.43 0c.81 0 1.44-.16 1.87-.49.42-.32.64-.74.64-1.26 0-.47-.17-.83-.51-1.1-.34-.27-.9-.47-1.67-.6a3.14 3.14 0 01-.76-.22c-.14-.08-.21-.17-.21-.28 0-.1.07-.2.2-.28.15-.08.34-.12.6-.12.32 0 .6.06.83.17.23.11.43.3.6.54l.93-.91a2.21 2.21 0 00-.93-.76 3.73 3.73 0 00-1.49-.25c-.54 0-1 .09-1.4.25-.37.17-.66.39-.85.66-.2.27-.29.56-.29.87 0 .44.17.8.5 1.07.34.27.9.49 1.69.65.35.07.6.14.74.21.14.08.22.17.22.27 0 .11-.07.2-.22.27-.14.07-.33.1-.57.1-.74 0-1.26-.25-1.57-.76l-.92 1.03c.5.62 1.36.94 2.57.94zm7.35-6.07c.36 0 .63-.07.8-.2.16-.15.24-.37.24-.67 0-.3-.08-.53-.25-.66-.16-.14-.43-.21-.8-.21-.36 0-.62.07-.79.2-.16.14-.25.37-.25.67 0 .3.09.52.25.66.17.14.43.2.8.2zm.9 5.96v-5.34h-1.8v5.34h1.8zm3.06 0v-2.82c0-.42.09-.73.26-.93.18-.2.4-.3.69-.3.24 0 .42.07.55.22.13.15.2.41.2.77v3.06h1.79v-3.56c0-.6-.17-1.07-.5-1.4a1.8 1.8 0 00-1.32-.49c-.42 0-.78.1-1.09.28-.3.2-.55.48-.72.85l-.05-1.02h-1.6v5.34h1.79zm8.58 2.3c.45 0 .83-.08 1.15-.22.32-.15.59-.39.82-.72.23-.34.45-.79.65-1.36l1.92-5.34h-1.79l-.81 3-.28 1.18-.26-1.14-.8-3.04h-1.98l1.57 4 .61 1.46-.12.33a.78.78 0 01-.31.4c-.13.07-.3.11-.52.11-.21 0-.4-.02-.53-.06a.9.9 0 01-.37-.22l-.38 1.22c.36.27.83.4 1.43.4zm7.72-2.2c.88 0 1.56-.24 2.05-.72.49-.5.73-1.17.73-2.05 0-.88-.24-1.56-.73-2.05a2.77 2.77 0 00-2.05-.73c-.88 0-1.56.25-2.05.73a2.76 2.76 0 00-.74 2.05c0 .88.25 1.56.74 2.05.49.48 1.17.73 2.05.73zm0-1.29c-.34 0-.59-.11-.75-.35-.16-.23-.24-.61-.24-1.13 0-.52.08-.9.24-1.13.16-.24.41-.36.75-.36.33 0 .58.12.75.36.16.23.24.61.24 1.13 0 .52-.08.9-.24 1.13-.17.24-.42.35-.75.35zm5.58 1.3c.89 0 1.5-.37 1.83-1.1l.05.99h1.6v-5.34h-1.79v2.83c0 .41-.09.72-.26.92-.18.2-.41.3-.7.3-.26 0-.44-.06-.56-.2-.12-.15-.18-.4-.18-.74v-3.11h-1.79v3.57c0 .65.16 1.12.48 1.42.32.3.76.46 1.32.46zm6.56-.11v-2.7c0-.4.11-.7.34-.93.22-.21.5-.32.84-.32a1.46 1.46 0 01.67.16l.19-1.54a1.17 1.17 0 00-.57-.12c-.4 0-.74.11-1.01.33-.27.21-.47.53-.6.93l-.07-1.15h-1.58v5.34h1.8zm7.55 2.24v-3.14c.15.32.35.56.63.74.27.18.59.27.96.27.67 0 1.2-.25 1.6-.74.38-.5.57-1.18.57-2.06 0-.87-.19-1.55-.57-2.03a1.92 1.92 0 00-1.6-.73c-.41 0-.77.11-1.08.34-.3.22-.53.52-.68.9l-.05-1.13h-1.57v7.58h1.79zm.97-3.47a.82.82 0 01-.72-.36 1.78 1.78 0 01-.25-1.03v-.1c0-.46.08-.8.26-1.04.17-.24.4-.35.7-.35.32 0 .57.11.74.35.17.23.26.6.26 1.09 0 .5-.09.85-.26 1.09a.85.85 0 01-.73.35zm6.39 1.34c.87 0 1.56-.25 2.05-.73.48-.5.73-1.17.73-2.05 0-.88-.25-1.56-.73-2.05a2.77 2.77 0 00-2.05-.73c-.88 0-1.57.25-2.05.73a2.76 2.76 0 00-.74 2.05c0 .88.25 1.56.74 2.05.48.48 1.17.73 2.05.73zm0-1.3c-.34 0-.6-.11-.75-.35-.16-.23-.24-.61-.24-1.13 0-.52.08-.9.24-1.13.16-.24.4-.36.75-.36.33 0 .58.12.74.36.17.23.25.61.25 1.13 0 .52-.08.9-.25 1.13-.16.24-.4.35-.74.35zm5.6 1.19v-2.7c0-.4.12-.7.34-.93.23-.21.5-.32.84-.32a1.46 1.46 0 01.67.16l.19-1.54a1.17 1.17 0 00-.57-.12c-.4 0-.74.11-1 .33-.28.21-.48.53-.6.93l-.08-1.15h-1.58v5.34h1.8zm5.08.1c.28 0 .55-.03.82-.1.27-.08.5-.18.67-.3l-.18-1.12c-.22.16-.47.23-.76.23-.46 0-.7-.23-.7-.71v-2.15h1.59v-1.3h-1.58v-1.69l-1.8.5v1.2h-.9v1.3h.9V193c.01.6.18 1.03.51 1.3s.8.4 1.43.4zm6.81 0c.28 0 .52-.05.72-.16l.14-1.02c-.09.03-.2.04-.33.04-.25 0-.38-.13-.38-.41v-1.95c0-.68-.21-1.2-.64-1.54a2.96 2.96 0 00-1.88-.5c-.7 0-1.26.14-1.67.42-.42.3-.67.7-.76 1.22l1.45.42c.05-.29.16-.5.33-.63.17-.12.39-.19.65-.19.23 0 .42.07.55.22.13.14.2.33.2.57v.2l-1.19.23c-.73.15-1.26.36-1.58.65a1.4 1.4 0 00-.48 1.1c0 .44.14.77.43 1 .28.22.68.34 1.2.34.94 0 1.57-.28 1.88-.83.15.55.6.83 1.36.83zm-2.58-1.17a.56.56 0 01-.38-.12c-.09-.07-.13-.19-.13-.34 0-.15.04-.26.14-.34.1-.09.25-.16.48-.21l.85-.2v.45c0 .23-.1.41-.3.55-.2.14-.41.21-.66.21zm5.73 1.18a2.52 2.52 0 001.1-.27l.1-1.12c-.18.06-.36.1-.53.1-.18 0-.3-.06-.38-.16-.07-.1-.1-.27-.1-.5v-5.77h-1.8v6.03c0 .59.13 1.02.38 1.29.26.26.66.4 1.23.4zM43.41 125.47v-2.71h2.87v-1.42H43.4v-1.5h3.6v-1.42h-5.4v7.05h1.8zm5.4-5.96c.37 0 .63-.07.8-.2.16-.15.24-.37.24-.66 0-.31-.08-.53-.25-.67-.16-.14-.42-.21-.79-.21-.36 0-.63.07-.8.2-.16.15-.24.37-.24.68 0 .3.08.51.25.65.16.14.43.21.8.21zm.9 5.96v-5.34h-1.8v5.34h1.8zm2.85.1a2.51 2.51 0 001.09-.26l.11-1.12c-.18.06-.36.1-.53.1-.18 0-.31-.05-.38-.15-.07-.1-.1-.27-.1-.52v-5.75h-1.8v6.02c0 .6.13 1.02.39 1.29.25.27.65.4 1.22.4zm4.2 0c.27 0 .54-.03.8-.1.28-.08.5-.18.68-.3l-.18-1.12c-.22.16-.47.24-.76.24-.46 0-.7-.24-.7-.72v-2.15h1.58v-1.29H56.6v-1.7l-1.78.5v1.2h-.9v1.3h.9v2.44c0 .6.17 1.03.5 1.3.33.27.8.4 1.43.4zm4.82 0c.62 0 1.14-.11 1.56-.35.43-.24.71-.58.86-1.04l-1.45-.47a.73.73 0 01-.33.44c-.17.1-.38.15-.64.15-.3 0-.56-.08-.74-.24-.19-.15-.3-.4-.36-.74h3.58c.04-.15.06-.35.06-.6 0-.85-.23-1.51-.68-1.99-.46-.47-1.1-.7-1.95-.7-.88 0-1.56.24-2.03.72a2.8 2.8 0 00-.72 2.05c0 .88.24 1.57.73 2.05.49.49 1.2.73 2.11.73zm.86-3.23h-1.97c.1-.7.44-1.05 1-1.05.57 0 .89.35.97 1.05zm4.46 3.13v-2.69c0-.4.11-.72.34-.93.22-.22.5-.33.84-.33a1.45 1.45 0 01.66.16l.2-1.54a1.17 1.17 0 00-.58-.12c-.4 0-.73.11-1 .33-.27.22-.47.53-.6.93l-.07-1.15h-1.58v5.34h1.8zm9.12.1c.69 0 1.22-.23 1.6-.72.38-.48.57-1.16.57-2.03 0-.88-.2-1.57-.58-2.06a1.9 1.9 0 00-1.59-.74c-.37 0-.69.1-.96.27-.27.18-.48.42-.63.74v-3.16h-1.78v7.6h1.56l.06-1.13c.14.38.37.68.67.9.3.23.67.34 1.08.34zm-.62-1.33a.83.83 0 01-.7-.35 1.74 1.74 0 01-.27-1.04v-.1c0-.44.09-.79.26-1.03.16-.24.4-.36.71-.36.32 0 .56.12.73.35.17.24.26.6.26 1.1 0 .48-.09.85-.26 1.08a.85.85 0 01-.73.35zm4.67 3.53c.45 0 .83-.07 1.15-.22.31-.15.59-.39.82-.72.23-.34.44-.79.64-1.36l1.93-5.34h-1.8l-.8 3-.29 1.18-.25-1.13-.8-3.05h-1.98l1.57 4 .61 1.46-.12.33a.78.78 0 01-.31.4c-.13.08-.3.11-.52.11-.21 0-.39-.02-.53-.05a.9.9 0 01-.37-.22l-.38 1.21c.36.27.84.4 1.43.4z"/>
    </g>
    <g transform="rotate(7 -315.55 548.53)">
      <use fill="#000" filter="url(#d)" xlink:href="#e"/>
      <use fill="#FBFCFC" xlink:href="#e"/>
      <path fill="url(#f)" fill-rule="nonzero" d="M218 35.34v6c-29.3-20.1-57.16-17.1-83.59 7.99l-.82.79c-26.66 25.8-52.51 27-69.81 5.97l-.52-.65c-7.91-9.92-20.15-18.48-31.63-21.42C18.66 30.69 7.7 34.42 0 46.4v-8.22c8.62-9.49 20.09-12.28 32.87-9 12.4 3.18 25.33 12.13 33.9 22.64l.4.5c15.14 19 37.53 18.38 62.2-5.08l.74-.71C157.62 19.9 187.4 15.78 218 35.33z" transform="translate(0 76)"/>
      <path fill="url(#g)" fill-rule="nonzero" d="M147.47 42.25l1.28.98c16.55 12.83 30.52 19.33 42.56 20.8 8.76 1.08 15.69-.4 23.31-4l1-.48.78-.4 1.55-.79.05-.03v5.61l-.65.33c-8.64 4.18-16.62 5.96-26.65 4.73-12.84-1.58-27.4-8.28-44.3-21.27l-.71-.54C105.32 15.9 80.93 16.2 60.87 45.52l-.61.9C50.6 60.88 38.1 67.66 24.33 67.67a47.76 47.76 0 01-24.33-7v-6a42.7 42.7 0 0024.32 8c11.95 0 22.76-5.8 31.44-18.53l.34-.5c21.77-32.57 49.24-33.6 91.37-1.4z" transform="translate(0 76)"/>
      <path stroke="#9ABBBF" stroke-linecap="square" d="M22 83v83"/>
      <path fill="#B8D2D4" d="M21.5 79h6v2h-6zM21.5 76h9v2h-9zM21.5 169h9v2h-9zM65.5 169h9v2h-9zM109.5 169h9v2h-9zM153.5 169h9v2h-9zM197.5 169h9v2h-9z"/>
      <g>
        <path stroke="#9ABBBF" stroke-linecap="square" d="M66 83v83"/>
        <path fill="#B8D2D4" d="M65.5 79h6v2h-6zM65.5 76h9v2h-9z"/>
      </g>
      <g>
        <path stroke="#9ABBBF" stroke-linecap="square" d="M110 83v83"/>
        <path fill="#B8D2D4" d="M109.5 79h6v2h-6zM109.5 76h9v2h-9z"/>
      </g>
      <g>
        <path stroke="#9ABBBF" stroke-linecap="square" d="M154 83v83"/>
        <path fill="#B8D2D4" d="M153.5 79h6v2h-6zM153.5 76h9v2h-9z"/>
      </g>
      <g>
        <path stroke="#9ABBBF" stroke-linecap="square" d="M198 83v83"/>
        <path fill="#B8D2D4" d="M197.5 79h6v2h-6zM197.5 76h9v2h-9z"/>
      </g>
      <g fill="#90D9D9" transform="translate(22 189)">
        <rect width="6" height="31" y="40" rx="3"/>
        <rect width="6" height="51" x="14" y="20" rx="3"/>
        <rect width="6" height="61" x="28" y="10" rx="3"/>
        <rect width="6" height="51" x="41" y="20" rx="3"/>
        <rect width="6" height="71" x="55" rx="3"/>
      </g>
      <rect width="96" height="13" x="104" y="196" fill="#B6EAEE" rx="5"/>
      <rect width="96" height="13" x="104" y="218" fill="#B6EAEE" rx="5"/>
      <rect width="96" height="13" x="104" y="240" fill="#B6EAEE" rx="5"/>
      <path fill="#14ABBA" fill-rule="nonzero" d="M45.35 44v-7.62h8.16v-3.99h-8.16v-4.2h10.23V24.2H40.19V44zM133.35 44V24.2h-5.16V44zM86.31 44l1.38-4.47h6.84L95.88 44h5.31l-6.93-19.8h-6.18L81.12 44h5.19zm7.14-7.98h-4.68l1.5-4.77.81-3.09h.06l.87 3.12 1.44 4.74zM167.26 44v-7.23h3.09l4.23 7.23h5.7l-5.04-7.77a5.77 5.77 0 002.88-2.13 6.2 6.2 0 00.99-3.6c0-2.04-.65-3.6-1.94-4.68-1.28-1.08-3.13-1.62-5.53-1.62h-9.45V44h5.07zm3.51-10.89h-3.51V28.1h3.51c1.1 0 1.9.2 2.4.6.5.4.75 1.03.75 1.89 0 .88-.25 1.52-.75 1.92-.5.4-1.3.6-2.4.6z"/>
    </g>
  </g>
</svg>
