<svg xmlns="http://www.w3.org/2000/svg">
  <defs>
    <!-- VIMEO -->
    <symbol id="vimeo" viewbox="0 0 24 24"><path
      d="M23 6a22 22 0 01-4.6 10.3c-3 4.5-5.6 6.7-7.7 6.7-1.3 0-2.4-1.4-3.3-4.1l-1.8-7.5C5 8.6 4.2 7.3 3.5 7.3c-.2 0-1.2 1.2-1.2 1.2L1 7s3.4-6 6.3-6C9 1 10 2.5 10.4 5.4l1 5.8c.4 2.6 1 3.8 1.6 3.8.5 0 1.2-.7 2.1-2.4.8-1.5 1.3-3.7 1.4-4.6 0-1.1-.5-2-1.4-2-.4 0-1 .1-1.4.9 1-3 2.9-5.9 6-5.9C22 1 23.1 2.8 23 6z"/>
    </symbol>
    <!-- POINT -->
    <symbol id="point" viewbox="0 0 24 24">
      <path d="M9.6 7l-.3-1.8a4.2 4.2 0 118.4 0c0 .6-.2 1.3-.5 1.8"/>
      <path d="M18.9 15.3c-2 4-3 7.7-5.9 7.7H7.5c-1.3 0-3.7-3.4-3.9-4.5-.2-1.1 0-4.6 0-5.8.1-1.1 1-2.3 2.6-1.4.5-1.3 2-1.3 2.6-.8.5-1.2 2-1.2 2.7-.4l.2-3.7c0-.4 0-2 1.7-2 1.6 0 1.8 1.7 1.8 2.3V13c2.5-3.9 5.6-1.7 3.7 2.3z"/>
    </symbol>
    <!-- GEARS -->
    <symbol id="gears" viewbox="0 0 24 24">
      <path
        d="M5.85 11.17c.73-.07 1.39.46 1.46 1.18v.06c.05.42.34.78.73.92.36.08.74-.03 1-.3l.09-.07A1.33 1.33 0 0111 14.83l-.04.04c-.3.3-.4.75-.25 1.14.15.35.48.6.86.64l.11.02a1.33 1.33 0 11-.32 2.63h-.06c-.4-.05-.8.13-1.03.45-.18.34-.17.76.04 1.1l.06.09a1.33 1.33 0 01-2.25 1.4l-.03-.05a1.1 1.1 0 00-.98-.5c-.4.04-.75.32-.9.7l-.03.1a1.33 1.33 0 01-2.5-.9l.02-.06a1.1 1.1 0 00-.18-1.06 1.1 1.1 0 00-1.1-.24l-.11.03a1.33 1.33 0 01-.87-2.5l.06-.03c.35-.12.61-.4.7-.76a1.1 1.1 0 00-.48-1.1l-.1-.07a1.33 1.33 0 111.45-2.22l.05.03c.32.2.71.23 1.04.08l.05-.03c.33-.22.52-.61.47-1.02v-.1a1.33 1.33 0 011.17-1.47z"/><path
        d="M5.22 17a1.3 1.3 0 102.52.63 1.3 1.3 0 00-2.52-.62zM14.2.68c.64.37.87 1.2.5 1.84l-.04.05c-.17.3-.19.66-.06.97.2.32.55.52.94.52h.11a1.35 1.35 0 010 2.7h-.06c-.35 0-.66.16-.87.42-.18.33-.18.74.02 1.07l.05.1c.37.65.15 1.47-.49 1.84-.64.37-1.56.05-1.83-.43s-.51-.6-.84-.65c-.38.01-.73.21-.93.55l-.05.1A1.35 1.35 0 118.3 8.4l.04-.05c.17-.3.19-.66.06-.97-.2-.32-.55-.52-.94-.52h-.11a1.35 1.35 0 010-2.7h.06c.34 0 .66-.16.87-.42.18-.33.18-.74-.02-1.07l-.05-.1a1.35 1.35 0 112.33-1.35l.03.05c.17.3.47.5.8.54.38 0 .73-.21.92-.55l.06-.1c.37-.64 1.2-.86 1.84-.49z"/><path d="M10.98 4.81a.8.8 0 101.05 1.2.8.8 0 00-1.05-1.2zM18.44 14.25a.65.65 0 10.85.97.65.65 0 00-.85-.97z"/><path
        d="M18.3 9.94c.8-.09 1.5.49 1.58 1.27l.01.07c.03.3.18.56.39.75.32.19.71.21 1.06.06l.11-.05a1.44 1.44 0 111.17 2.62l-.06.03c-.27.12-.48.34-.6.6-.07.36.03.75.28 1.03l.08.09a1.44 1.44 0 01-2.13 1.92l-.05-.05c-.2-.22-.47-.35-.75-.38-.37.04-.7.26-.9.58l-.06.1a1.44 1.44 0 01-2.48-1.43l.03-.05c.15-.26.19-.56.13-.84a1.19 1.19 0 00-.83-.67l-.12-.03a1.44 1.44 0 01.6-2.8h.06c.3.07.6.01.84-.13.27-.25.42-.62.38-1l-.01-.11c-.09-.8.49-1.5 1.27-1.58z"/>
    </symbol>
    <!-- CYCLE -->
    <symbol id="cycle" viewbox="0 0 24 24">
      <path
        d="M23 9.1l-.4-.2h-2C20.4 4.5 17.1 1 13.1 1h-4C8.6 1 8 1.6 8 2.3v1.8l.3.9c.3.2.6.4.9.4h4c1.8 0 3.3 1.5 3.5 3.5h-2c-.1 0-.3 0-.3.2v.5l4 5.2c0 .1.1.2.3.2 0 0 .2 0 .3-.2l4-5.2V9zM14.8 18.6h-4c-1.8 0-3.3-1.5-3.5-3.5h2c.1 0 .3 0 .3-.2v-.5l-4-5.3a.4.4 0 00-.6 0l-4 5.3v.5l.4.2h2c.2 4.4 3.5 7.9 7.5 7.9h4s0 0 0 0c.2 0 .5-.1.8-.4.2-.2.3-.6.3-1V20c0-.7-.5-1.3-1.2-1.3z"/>
    </symbol>
    <!-- -->
    <!-- <symbol id="" viewbox="0 0 24 24"> </symbol> -->
  </defs>
</svg>