<svg xmlns="http://www.w3.org/2000/svg">
  <defs>
    <!-- VIMEO -->
    <symbol id="vimeo" viewbox="0 0 24 24"><path
      d="M23 6a22 22 0 01-4.6 10.3c-3 4.5-5.6 6.7-7.7 6.7-1.3 0-2.4-1.4-3.3-4.1l-1.8-7.5C5 8.6 4.2 7.3 3.5 7.3c-.2 0-1.2 1.2-1.2 1.2L1 7s3.4-6 6.3-6C9 1 10 2.5 10.4 5.4l1 5.8c.4 2.6 1 3.8 1.6 3.8.5 0 1.2-.7 2.1-2.4.8-1.5 1.3-3.7 1.4-4.6 0-1.1-.5-2-1.4-2-.4 0-1 .1-1.4.9 1-3 2.9-5.9 6-5.9C22 1 23.1 2.8 23 6z"/>
    </symbol>
    <!-- POINT -->
    <symbol id="point" viewbox="0 0 24 24">
      <path d="M9.6 7l-.3-1.8a4.2 4.2 0 118.4 0c0 .6-.2 1.3-.5 1.8"/>
      <path d="M18.9 15.3c-2 4-3 7.7-5.9 7.7H7.5c-1.3 0-3.7-3.4-3.9-4.5-.2-1.1 0-4.6 0-5.8.1-1.1 1-2.3 2.6-1.4.5-1.3 2-1.3 2.6-.8.5-1.2 2-1.2 2.7-.4l.2-3.7c0-.4 0-2 1.7-2 1.6 0 1.8 1.7 1.8 2.3V13c2.5-3.9 5.6-1.7 3.7 2.3z"/>
    </symbol>
    <!-- GEARS -->
    <symbol id="gears" viewbox="0 0 24 24">
      <path
        d="M5.85 11.17c.73-.07 1.39.46 1.46 1.18v.06c.05.42.34.78.73.92.36.08.74-.03 1-.3l.09-.07A1.33 1.33 0 0111 14.83l-.04.04c-.3.3-.4.75-.25 1.14.15.35.48.6.86.64l.11.02a1.33 1.33 0 11-.32 2.63h-.06c-.4-.05-.8.13-1.03.45-.18.34-.17.76.04 1.1l.06.09a1.33 1.33 0 01-2.25 1.4l-.03-.05a1.1 1.1 0 00-.98-.5c-.4.04-.75.32-.9.7l-.03.1a1.33 1.33 0 01-2.5-.9l.02-.06a1.1 1.1 0 00-.18-1.06 1.1 1.1 0 00-1.1-.24l-.11.03a1.33 1.33 0 01-.87-2.5l.06-.03c.35-.12.61-.4.7-.76a1.1 1.1 0 00-.48-1.1l-.1-.07a1.33 1.33 0 111.45-2.22l.05.03c.32.2.71.23 1.04.08l.05-.03c.33-.22.52-.61.47-1.02v-.1a1.33 1.33 0 011.17-1.47z"/><path
        d="M5.22 17a1.3 1.3 0 102.52.63 1.3 1.3 0 00-2.52-.62zM14.2.68c.64.37.87 1.2.5 1.84l-.04.05c-.17.3-.19.66-.06.97.2.32.55.52.94.52h.11a1.35 1.35 0 010 2.7h-.06c-.35 0-.66.16-.87.42-.18.33-.18.74.02 1.07l.05.1c.37.65.15 1.47-.49 1.84-.64.37-1.56.05-1.83-.43s-.51-.6-.84-.65c-.38.01-.73.21-.93.55l-.05.1A1.35 1.35 0 118.3 8.4l.04-.05c.17-.3.19-.66.06-.97-.2-.32-.55-.52-.94-.52h-.11a1.35 1.35 0 010-2.7h.06c.34 0 .66-.16.87-.42.18-.33.18-.74-.02-1.07l-.05-.1a1.35 1.35 0 112.33-1.35l.03.05c.17.3.47.5.8.54.38 0 .73-.21.92-.55l.06-.1c.37-.64 1.2-.86 1.84-.49z"/><path d="M10.98 4.81a.8.8 0 101.05 1.2.8.8 0 00-1.05-1.2zM18.44 14.25a.65.65 0 10.85.97.65.65 0 00-.85-.97z"/><path
        d="M18.3 9.94c.8-.09 1.5.49 1.58 1.27l.01.07c.03.3.18.56.39.75.32.19.71.21 1.06.06l.11-.05a1.44 1.44 0 111.17 2.62l-.06.03c-.27.12-.48.34-.6.6-.07.36.03.75.28 1.03l.08.09a1.44 1.44 0 01-2.13 1.92l-.05-.05c-.2-.22-.47-.35-.75-.38-.37.04-.7.26-.9.58l-.06.1a1.44 1.44 0 01-2.48-1.43l.03-.05c.15-.26.19-.56.13-.84a1.19 1.19 0 00-.83-.67l-.12-.03a1.44 1.44 0 01.6-2.8h.06c.3.07.6.01.84-.13.27-.25.42-.62.38-1l-.01-.11c-.09-.8.49-1.5 1.27-1.58z"/>
    </symbol>
    <!-- CYCLE -->
    <symbol id="cycle" viewbox="0 0 24 24">
      <path
        d="M23 9.1l-.4-.2h-2C20.4 4.5 17.1 1 13.1 1h-4C8.6 1 8 1.6 8 2.3v1.8l.3.9c.3.2.6.4.9.4h4c1.8 0 3.3 1.5 3.5 3.5h-2c-.1 0-.3 0-.3.2v.5l4 5.2c0 .1.1.2.3.2 0 0 .2 0 .3-.2l4-5.2V9zM14.8 18.6h-4c-1.8 0-3.3-1.5-3.5-3.5h2c.1 0 .3 0 .3-.2v-.5l-4-5.3a.4.4 0 00-.6 0l-4 5.3v.5l.4.2h2c.2 4.4 3.5 7.9 7.5 7.9h4s0 0 0 0c.2 0 .5-.1.8-.4.2-.2.3-.6.3-1V20c0-.7-.5-1.3-1.2-1.3z"/>
    </symbol>
    <!-- -->
    <symbol id="d1-plus-logo" viewBox="0 0 18 15">
      <g fill-rule="evenodd" stroke="none">
        <path
          class="d1-plus-logo__globe-inner"
          d="M7.298 1.013c.005.013.035.036.067.05a.755.755 0 00.157.035l.07.009c.092.009.219.03.283.048.062.018.126.053.14.078a.205.205 0 01.02.11c-.005.036-.046.063-.091.062l-.082-.009a1.512 1.512 0 01-.049-.008l-.283-.063c-.05-.01-.112-.02-.138-.022l-.126.006a.122.122 0 01-.064-.007l-.008-.013.03-.05.007-.049c-.008-.013-.044-.024-.08-.024a.312.312 0 00-.117.027c-.03.015-.058.04-.064.057-.004.01.003.025.016.038l.024.018c.028.014.053.036.056.048.003.012-.033.019-.08.016l-.222-.021a.675.675 0 00-.205.003l-.108.036-.06.023a.934.934 0 00-.152.077c-.029.021-.053.056-.053.078s.061.063.136.089c.05.018.119.04.18.056l.081.022.2.043c.042.008.074.026.072.04l-.023.102v.032c.029.025.077.051.106.06.03.009.067-.014.083-.051a.415.415 0 00.032-.118c.001-.022.026-.048.06-.067l.036-.017c.052-.018.093-.05.093-.07a.16.16 0 00-.035-.08c-.019-.024-.027-.072-.018-.108a.265.265 0 01.042-.094c.015-.016.081-.025.147-.019.067.007.165.023.22.038.035.01.074.027.102.045l.03.025c.02.024.072.047.118.051a.24.24 0 00.084-.007l.025-.012.053-.035c.01-.003.032.004.056.016l.184.119c.044.027.12.072.168.099l.06.03.146.064c.065.025.16.083.213.129.035.03.07.07.094.104l.024.044c.011.035.058.076.104.091.045.015.13.06.186.1.058.04.082.083.054.096a.5.5 0 01-.168.022l-.214-.014c-.052-.005-.096-.033-.096-.062l.002-.037.014-.102c.01-.05.007-.095-.005-.102-.012-.008-.047.003-.078.024a.351.351 0 01-.144.03h-.064c-.083-.005-.215 0-.293.01a.449.449 0 00-.2.073c-.032.03-.018.046.032.037a.748.748 0 01.152-.01.13.13 0 01.061.022l.017.018.037.062c.011.015.05.041.085.06.024.01.07.019.118.021h.071c.07-.006.126.015.126.048a.185.185 0 01-.035.102.343.343 0 01-.136.075 1.082 1.082 0 00-.155.062c-.029.016-.067.019-.085.005a.095.095 0 01-.032-.07c0-.025-.029-.043-.064-.04a.399.399 0 00-.09.023l-.193.085c-.04.014-.078.05-.082.077a.23.23 0 000 .062l.005.025-.01.05-.02.01-.143.04c-.076.017-.146.05-.155.074l-.025.046-.052.073a.846.846 0 00-.104.177.365.365 0 00-.014.204c.013.045-.018.098-.072.132l-.045.021a.888.888 0 00-.186.093l-.18.144-.077.056a.459.459 0 00-.154.17.293.293 0 00.01.144l.082.212.025.076c.019.065.023.17.01.231a.267.267 0 01-.103.159.303.303 0 01-.079.032h-.02l.013-.046a.065.065 0 00.01-.072l-.103-.172a.463.463 0 01-.077-.202.292.292 0 00-.038-.142.177.177 0 00-.128-.078l-.29-.027c-.114-.011-.223.011-.243.051-.021.04-.095.074-.166.076a1.253 1.253 0 01-.264-.03c-.075-.018-.238.02-.363.086-.124.065-.244.178-.266.253l-.104.37c-.036.13-.044.318-.019.419.025.1.108.227.184.282.076.054.177.087.224.072l.13-.037a.278.278 0 00.105-.08l.136-.165a.441.441 0 01.208-.123.604.604 0 01.235-.003c.047.013.05.09.012.186l-.028.059a2.21 2.21 0 00-.168.394c-.027.098.026.175.117.172l.146-.01.086-.012a.532.532 0 00.032-.007c.054-.014.163.021.243.078.079.056.117.156.085.223a1.26 1.26 0 00-.085.306c-.015.102.002.227.037.277.035.05.125.12.2.153.075.034.171.04.214.011a.356.356 0 01.167-.051c.05 0 .128.025.174.056a.24.24 0 00.184.025.211.211 0 00.11-.102l.018-.05c.015-.064.091-.14.17-.166.08-.026.221-.084.315-.129a.846.846 0 01.286-.08c.047 0 .114.025.169.06l.05.039c.057.055.151.12.21.143a.607.607 0 00.237.03l.232-.02.08-.005c.1-.006.228-.005.283.003a.232.232 0 01.13.081l.03.045c.033.063.128.18.211.26.084.082.214.173.29.202.052.02.12.034.177.038h.123c.072.008.18.044.269.091.11.06.21.163.224.23.01.052.042.106.079.138l.038.024a.25.25 0 01.11.114l.021.053a.271.271 0 00.137.148l.05.018a.77.77 0 01.25.121.374.374 0 00.26.06.427.427 0 01.292.088c.075.062.162.113.192.113.031 0 .055.082.054.183-.002.084-.068.26-.156.423l-.055.096c-.091.147-.194.36-.256.524l-.039.12-.01.046-.17.31-.144.244-.032.048c-.051.074-.213.2-.386.306l-.105.06c-.208.112-.413.27-.455.351a1.212 1.212 0 01-.222.278l-.117.097a5.582 5.582 0 01-.146.113l-.094.069a3.178 3.178 0 01-.301.187l-.057.028a.707.707 0 00-.155.094l-.026.027a.702.702 0 01-.182.139c-.059.034-.16.081-.251.118l-.087.033a3.449 3.449 0 00-.35.145 1.054 1.054 0 00-.19.126l-.041.04a.834.834 0 01-.248.162c-.094.04-.257.072-.36.07a.55.55 0 01-.267-.065c-.043-.034-.048-.088-.011-.12a.502.502 0 00.092-.139l.025-.058c.02-.05.048-.11.075-.157l.037-.058a1.464 1.464 0 00.196-.379l.01-.034a.949.949 0 01.052-.148l.028-.062a2.27 2.27 0 00.111-.304l.078-.29a.818.818 0 00.005-.293c-.016-.087-.084-.18-.152-.205a2.174 2.174 0 01-.269-.131 1.194 1.194 0 01-.24-.19l-.142-.161-.05-.072-.218-.363-.146-.226-.119-.165a2.665 2.665 0 01-.133-.19.497.497 0 01-.072-.165l.01-.14.008-.06.04-.22.024-.112a.577.577 0 01.134-.26l.12-.114.197-.212c.034-.032.053-.088.043-.123l-.012-.07a1.085 1.085 0 01-.004-.046l-.006-.247a.149.149 0 00-.036-.075l-.036-.035a.207.207 0 01-.074-.124.176.176 0 00-.046-.104c-.021-.02-.053-.022-.069-.006l-.053.043-.032.021a.092.092 0 00-.037.098c.01.034-.038.054-.107.045-.069-.009-.133-.036-.141-.059-.01-.024-.044-.052-.078-.062l-.134-.043a.158.158 0 01-.066-.042l-.013-.025c-.004-.019-.054-.06-.12-.1l-.05-.03c-.073-.037-.12-.083-.12-.112l.007-.019c.028-.025.009-.09-.043-.145a1.446 1.446 0 00-.23-.185l-.26-.153a.653.653 0 00-.16-.06l-.038-.005a.153.153 0 01-.115-.056l-.093-.124-.069-.075a.24.24 0 00-.144-.075.248.248 0 00-.12.027c-.033.017-.118.018-.19.002a1.198 1.198 0 01-.277-.115 3.823 3.823 0 01-.28-.186 1.198 1.198 0 01-.224-.23c-.05-.073-.074-.173-.054-.22a.395.395 0 00.022-.186 1.132 1.132 0 00-.067-.213l-.063-.134-.028-.05a.427.427 0 01-.037-.09l-.017-.098-.015-.057-.04-.116a.705.705 0 01-.03-.147l-.006-.13-.001-.066c0-.06-.022-.104-.048-.1-.027.004-.052.041-.056.08-.004.04-.008.113-.008.162 0 .032.005.078.012.118l.012.054c.009.03.016.083.02.136l.004.076c0 .053.006.11.015.147l.009.028c.013.025.03.086.037.134.008.048-.007.1-.032.115s-.076-.04-.115-.123c-.038-.083-.052-.17-.032-.196.021-.025.033-.064.027-.086l-.02-.04a.395.395 0 00-.018-.024l-.062-.07A.222.222 0 013 4.56c-.003-.014 0-.027.01-.033l.017-.004c.02.001.046-.019.056-.043a.17.17 0 00.006-.076l-.009-.043a.553.553 0 01-.004-.143l.015-.136a.653.653 0 00-.01-.257l-.017-.039c-.031-.049-.035-.174-.007-.28l.049-.164c.017-.053.034-.1.047-.128.024-.057.088-.155.141-.22l.357-.417c.025-.03.05-.071.067-.105l.016-.046a.564.564 0 01.056-.14c.024-.04.084-.114.136-.166a2.63 2.63 0 01.544-.422c.098-.056.29-.15.427-.207l.215-.084.265-.093.125-.04c.197-.063.52-.145.718-.183.198-.039.52-.077.715-.087L7.092 1l.123.001c.05.002.081.006.083.012z"/>
        <path
          d="M7.785 5.664l.032.012a.198.198 0 00.1.02.29.29 0 01.183.037l.039.022c.023.014.054.03.082.04l.038.014a.493.493 0 01.104.044c.025.016.044.046.042.067a.078.078 0 01-.034.054l-.046-.006-.03-.04c-.005-.007-.024-.01-.047-.01l-.175.018a.108.108 0 00-.065.03l-.015.026c-.007.028-.025.046-.042.04l-.044-.044-.038-.032-.048.008-.04.022-.038.012-.03-.02-.038-.006-.046.038-.04.006-.05-.056-.028-.068.026-.04a.146.146 0 01.047.007l.027.008c.025.01.057.013.07.006l.038-.034.008-.054-.028-.048-.008-.039.042-.036c.01-.005.03-.004.052.002zM6.635 5.226l.04.003.039.008.255.076c.023.006.053.02.079.037l.033.026c.017.017.047.04.077.059l.09.05.218.101.049.025c.04.023.068.051.06.063-.008.013-.049.03-.092.038a.686.686 0 01-.101.012l-.093-.003-.12-.007a.427.427 0 01-.094-.015l-.022-.01-.01-.045c.003-.014-.011-.033-.032-.042l-.098-.039A.395.395 0 016.8 5.5l-.053-.05-.015-.019c-.009-.013-.033-.023-.054-.023l-.032.003-.022.008-.046.024-.064.017-.042.008a.703.703 0 01-.12.01c-.017-.001-.028-.008-.032-.017v-.031c-.005-.01-.017-.016-.034-.017l-.048.004-.048.012c-.028.01-.06.011-.072.002-.012-.009-.012-.035.002-.058a.352.352 0 01.084-.087.295.295 0 01.144-.047l.178-.01c.034-.002.076-.003.108-.002z"/>
        <path
          class="d1-plus-logo__globe-outer"
          d="M7.515 0c1.456 0 2.815.413 3.966 1.128-.4.036-.764.19-1.06.424A6.591 6.591 0 007.516.883c-1.832 0-3.487.74-4.688 1.938A6.587 6.587 0 00.885 7.5c0 1.828.741 3.48 1.942 4.678a6.615 6.615 0 004.688 1.939c1.833 0 3.487-.74 4.688-1.939a6.589 6.589 0 001.91-4.02c.057.006.117.009.178.009l.547-.002.082-.004.08-.008-.006.09A7.51 7.51 0 017.515 15C3.365 15 0 11.642 0 7.5 0 3.358 3.364 0 7.515 0z"/>
        <path
          class="d1-plus-logo__plus"
          d="M14.75 0a.5.5 0 01.492.41l.008.09v2.25h2.25a.5.5 0 01.492.41l.008.09v.5a.5.5 0 01-.41.492l-.09.008h-2.25V6.5a.5.5 0 01-.41.492L14.75 7h-.5a.5.5 0 01-.492-.41l-.008-.09V4.25H11.5a.5.5 0 01-.492-.41L11 3.75v-.5a.5.5 0 01.41-.492l.09-.008h2.25V.5a.5.5 0 01.41-.492L14.25 0h.5z"/>
      </g>
    </symbol>
  </defs>
</svg>