<svg xmlns="http://www.w3.org/2000/svg" viewBox="0 0 4745 836">
  <defs>
    <radialGradient cx="50%" cy="100%" fx="50%" fy="100%" r="115%" gradientTransform="matrix(0 -1 .5 .0 .03 1.5)" id="footer_b">
      <stop stop-color="#0e9bb1" offset="18%"/>
      <stop stop-color="#1E628A" offset="67%"/>
      <stop stop-color="#1B435D" offset="100%"/>
    </radialGradient>
    <linearGradient x1="43.562%" y1="49%" x2="100%" y2="49%" id="footer_a">
      <stop stop-color="#2A7CA1" offset="0%"/>
      <stop stop-color="#475F94" offset="100%"/>
    </linearGradient>
  </defs>
  <g fill="none" fill-rule="evenodd">
    <path d="M2170 38c221-11 268 32 447 49 179 18 277-63 452-75 160-11 229 47 581 37 362-10 709-10 1095 21v758H0V12c132 46 297 65 493 58 295-11 851-90 1042-54 361 68 501 29 635 22z" fill="url(#footer_a)" opacity="0.7"/>
    <path d="M1819 99c183 0 241-42 468-36s299 101 682-23c204-66 504 59 719 55 260-5 516-99 1057 37v704H0V36c286 68 614 79 985 33 555-69 668 30 834 30z" fill="url(#footer_b)"/>
  </g>
</svg>