<svg xmlns="http://www.w3.org/2000/svg" viewBox="0 0 4745 836"><defs><radialGradient cx="50%" cy="100%" fx="50%" fy="100%" r="95.324%" gradientTransform="matrix(-.00222 -.99992 .47056 -.03559 .03 1.536)" id="a"><stop stop-color="#14A2A7" offset="0%"/><stop stop-color="#0E8E9A" offset="16.724%"/><stop stop-color="#1E628A" offset="59.071%"/><stop stop-color="#1B435D" offset="100%"/></radialGradient></defs><g fill="none" fill-rule="evenodd"><path d="M2190 75.745c175.127 8.478 166 27.54 346.5-15.655 180.5-43.196 321.709-12.574 472.621 9.754 72.843 10.777 319.046-35.966 641.441-9.754C4004.149 88.837 4359.126 98.59 4745 69.844V828H0V75.745c176.02-57.262 338.628-62.48 487.82-15.655 223.79 70.238 1119.586-24.037 1298.82-33.442C2011 14.875 2068.103 69.844 2190 75.745z" fill="#024261" opacity=".768"/><path d="M1834.035 94.886c182.156 0 258.637-59.138 486.043-53.185 227.406 5.952 291.922 89.974 605.625-3 198.368-58.792 520.719 67.266 739.125 56.185C3916.062 82.139 4204.031-4.055 4745 131.676V836H0V36.022c284.682 94.044 612.893 104.96 984.633 32.749 557.61-108.318 682.647 26.115 849.402 26.115z" fill="url(#a)"/></g></svg>
