<svg xmlns="http://www.w3.org/2000/svg" viewBox="0 0 4745 836">
  <defs>
    <radialGradient cx="50%" cy="100%" fx="50%" fy="100%" r="114.887%" gradientTransform="matrix(.0001 -1 .47197 .00165 .028 1.498)" id="b">
      <stop stop-color="#14A2A7" offset="0%"/>
      <stop stop-color="#0E8E9A" offset="17.846%"/>
      <stop stop-color="#1E628A" offset="66.637%"/>
      <stop stop-color="#1B435D" offset="100%"/>
    </radialGradient>
    <linearGradient x1="43.562%" y1="49.273%" x2="100%" y2="49.084%" id="a">
      <stop stop-color="#2A7CA1" offset="0%"/>
      <stop stop-color="#475F94" offset="100%"/>
    </linearGradient>
  </defs>
  <g fill="none" fill-rule="evenodd">
    <path d="M2170 38.063c221.133-11.211 268 31.765 447 49.421 179 17.657 277.075-63.506 451.766-75.695C3229.446.58 3297.51 58.54 3649.78 49.062c362.547-9.754 709.32-9.754 1095.219 20.782V828H0V11.79c132.23 46.054 296.656 65.405 493.281 58.054C788.22 58.817 1343.821-20.171 1535.063 16 1895.5 84.172 2036.102 44.85 2170 38.063z" fill="url(#a)"/>
    <path d="M1819.453 98.886c182.156 0 240.14-42.068 467.547-36.115 227.406 5.952 298.888 100.985 681.602-22.75 204.859-66.232 504.367 58.865 719.257 54.865 260.45-4.848 516.172-98.941 1057.141 36.79V836H0V36.022c285.857 67.68 614.068 78.596 984.633 32.749C1540.48 0 1652.698 98.886 1819.453 98.886z" fill="url(#b)"/>
  </g>
</svg>
