<svg viewBox="0 0 2536 2304" version="1.1" xmlns="http://www.w3.org/2000/svg" xmlns:xlink="http://www.w3.org/1999/xlink">
    <title>Geographic Replicas</title>
    <g id="geographic-replicas" stroke="none" stroke-width="1" fill="none" fill-rule="evenodd">
        <rect fill="#FFFFFF" x="0" y="0" width="2536" height="2304"></rect>
        <path d="M2637.85746,4609.22034 L2715.509,4651.79 L2798.32052,4695.01606 L2794.071,4694.859 L2796.15296,4696 L2649.535,4690.3207 L2621.42,4663.202 L2602.01577,4645.38169 L2602.487,4644.94 L2601.95985,4644.43198 L2637.85746,4609.22034 Z M2085.48882,2129.80145 L2269.6424,2131.5588 L2349.094,2188.67243 L2491.67154,2202.73117 L2496.884,2207.769 L2497.52393,2207.83114 L2533.59329,2242.37841 L2533.55788,2242.553 L2645.0804,2348.64407 L2749.57224,2357.82752 L2751.245,2357.968 L2751.27709,2357.08152 L2809.88015,2362.00291 L2837.47064,2422.55743 L2837.123,2423.54 L2837.66891,2424.73553 L2886.8544,2532.09446 L2835.443,2607.918 L2904.23498,2554.9892 L2906.775,2556.09 L2907.84021,2555.27174 L2961.83495,2578.66768 L2936.605,2646.658 L3012.92355,2601.92413 L3015.449,2603.018 L3016.70409,2602.28227 L3098.0241,2637.4855 L3093.457,2685.336 L3265.22071,2695.794 L3265.652,2696.074 L3269.40821,2696.30332 L3449.3178,2813.50166 L3449.3178,2900.5258 L3339.3609,3044.39989 L3291.92423,3396.86952 L3037.0341,3509.69479 L3012.33205,3668.21866 L2907.46388,3851.124 L2907.62161,3851.23174 L2905.946,3854.135 L2907.7107,3855.32071 L2855.6424,3943.9096 L2731.622,3899.183 L2835.48289,4043.86558 L2597.20652,4147.07009 L2618.41093,4587.21982 L2614.57,4586.829 L2614.655,4588.55851 L2573.47284,4584.39206 L2573.226,4584.016 L2526.65252,4579.17581 L2370.74749,4376.60022 L2370.736,4376.195 L2370.07886,4375.34447 L2365.943,4225.986 L2276.68189,4153.4608 L2276.668,4153.147 L2275.64272,4152.31778 L2241.32218,3315.96768 L2241.32688,3315.956 L2240.876,3315.654 L2240.8173,3315.79015 L2206.321,3292.501 L2037.38821,3179.30917 L1801.29786,2777.20516 L1803.78993,2737.4102 L1806.932,2738.913 L1806.941,2738.761 L1804.11783,2737.4102 L1812.20611,2608.18591 L1812.526,2607.781 L1812.56245,2607.20668 L1879.111,2522.379 L1878.90041,2522.25786 L1924.47479,2463.98537 L1939.551,2363.913 L1923.91182,2311.91026 L1924.434,2311.169 L1924.395,2311.039 L1923.78066,2311.91026 L1922.597,2307.998 L1920.01819,2311.6255 L1904.37414,2260.27797 L1853.543,2255.374 L1831.20264,2288.73298 L1828.635,2287.815 L1828.00074,2288.75643 L1734.28852,2255.53156 L1735.148,2254.425 L1714.11932,2246.97014 L1713.893,2246.665 L1711.67888,2245.91318 L1647.52138,2162.86037 L1652.256,2163.34 L1650.87771,2161.47657 L1745.86035,2171.53464 L1746.53802,2201.05288 L1768.98846,2213.51613 L1768.98088,2213.525 L1807.268,2234.659 L1835.19266,2211.51938 L1837.392,2211.327 L1838.43837,2210.45498 L1923.12486,2203.02076 L1934.25688,2243.642 L1934.402,2243.632 L1933.19716,2239.50383 L1973.102,2236.85509 L2051.38526,2129.80145 L2085.505,2130.002 L2085.48882,2129.80145 Z M2903.901,3848.685 L2903.84,3848.792 L2907.40301,3851.23174 L2907.46388,3851.124 L2903.901,3848.685 Z M2259.337,3274.564 L2241.32688,3315.956 L2241.34404,3315.96768 L2259.349,3274.587 L2259.337,3274.564 Z M2245.04,3028.359 L2223.84988,3034.337 L2223.85587,3034.34182 L2226.892,3033.489 L2245.04,3028.359 Z M2020.09678,2604.4688 L1890.904,2763.04 L1882.073,2774.008 L1882.234,2774.086 L2020.31988,2604.596 L2020.09678,2604.4688 Z M2042.434,2617.095 L2073.248,2634.83 L2104.168,2652.492 L2085.213,2641.534 L2042.434,2617.095 Z M2020.39488,2604.504 L2020.31988,2604.596 L2021.335,2605.176 L2021.41,2605.084 L2020.39488,2604.504 Z M2319.312,2546.165 L2319.121,2546.227 L2320.668,2549.689 L2320.859,2549.627 L2319.312,2546.165 Z M4815.84371,1164.24114 L4920,1167.25 L4920,1785.552 L4825.89941,1849.45786 L4749.36088,1793.062 L4825.89941,1849.52345 L4920,1785.618 L4920,2409.648 L4875.0849,2409.64843 L4861.09436,2347.33215 L4759.00714,2332.4637 L4769.912,2279.549 L4759.00714,2332.44184 L4739.77015,2337.90818 L4694.0823,2351.02739 L4663.91788,2166.504 L4663.91488,2166.505 L4694.0823,2351.04926 L4567.73024,2387.56441 L4381.48119,2441.3532 L4254.47332,2304.25738 L4254.58988,2304.147 L4193.92052,2238.87995 L4130.74449,2170.66002 L4183.86482,2114.90335 L4183.84288,2114.903 L4130.74449,2170.63816 L4081.3404,2117.28667 L4081.55688,2114.903 L4081.3404,2114.90335 L4083.30782,2063.08244 L4084.40083,2031.59632 L4089.21008,1896.03108 L4094.01933,1756.74872 L4094.23793,1756.74872 L4095.98675,1706.23973 L4256.44074,1497.22874 L4256.45688,1497.228 L4445.75023,1250.82798 L4642.92939,1230.27454 L4642.92939,1230.40573 L4815.84371,1164.24114 Z M2533.37469,2242.37841 L2501.92,2397.733 L2502.156,2397.647 L2533.55788,2242.553 L2533.37469,2242.37841 Z M4314.15172,2248.0634 L4356.34194,2295.72989 L4381.48119,2323.93621 L4356.40288,2295.676 L4314.15172,2248.0634 Z M4314.15172,2248.0634 L4254.58988,2304.147 L4254.69193,2304.25738 L4314.15172,2248.0634 Z M1934.25688,2243.642 L1933.53032,2243.69033 L1943.19388,2276.407 L1934.92937,2246.09552 L1934.25688,2243.642 Z M4803.81488,2115.124 L4803.80388,2115.128 L4777.823,2241.175 L4803.81488,2115.124 Z M2417.29538,-85.1460856 L2417.707,-82.591 L2417.99646,-82.718584 L2429.654,-10.527 L2480.24531,-5.26112336 L2479.815,-3.094 L2480.95388,-2.97560895 L2469.317,55.595 L2577.07454,-15.8408976 L2656.41767,-7.03537122 L2654.502,-5.04 L2657.14724,-4.74670327 L2572.5482,83.2832439 L2365.542,106.103 L2392.3777,145.878509 L2391.785,145.986 L2393.07581,147.895388 L2258.19827,172.515786 L2021.374,347.846 L2257.51623,476.282888 L2257.506,477.336 L2258.19827,477.712508 L2256.898,608.692 L2323.08907,608.475305 L2599.15073,205.874372 L2701.22578,205.874372 L2776.41597,269.966338 L2776.401,271.117 L2777.15983,271.762664 L2776.089,361.487 L2931.16787,300.32569 L2931.314,302.311 L2931.93017,302.068056 L2946.262,495.608 L3064.71789,516.170608 L3064.69,517.389 L3065.4961,517.529332 L3064.62169,557.258695 L2901.10726,644.304701 L2683.5981,653.684941 L2547.84615,718.84372 L2547.846,754.557 L2688.98552,690.375463 L2711.06171,711.491203 L2710.938,711.682 L2711.79778,712.502765 L2666.639,782.547 L2711.49886,823.049775 L2809.42097,827.715389 L2807.495,828.393 L2810.16876,828.520375 L2609.49196,899.036167 L2609.293,898.171 L2608.76807,898.356739 L2601.77364,867.75644 L2672.624,833.935 L2572.701,851.168 L2570.66311,857.540381 L2530.08081,864.507589 L1934.2887,1370.06559 L1932.75316,1597.37074 L1874.40238,1595.84666 L1874.355,1595.492 L1871.0101,1595.40421 L1846.905,1413.208 L1481.96053,1412.06479 L1327.13355,1604.99112 L1326.422,1603.606 L1325.64139,1604.58767 L1325.57788,1604.463 L1259.25191,1687.71977 L1339.19473,1860.01882 L1501.634,1859.954 L1560.33918,1763.19041 L1562.532,1763.228 L1563.28382,1761.99641 L1638.37366,1763.30833 L1635.46626,1837.86921 L1632.93088,1839.758 L1577.18692,1945.00949 L1576.883,1945.557 L1577.28132,1947.57963 L1567.194,1966.205 L1737.828,1964.552 L1737.88287,1964.50686 L1737.883,1964.551 L1742.55205,1964.50686 L1741.375,1965.465 L1746.07896,2171.53464 L1651.09631,2161.47657 L1650.988,2161.33 L1648.62803,2161.07813 L1593.8084,2086.38104 L1594.212,2086.039 L1579.78828,2079.48146 L1579.598,2079.395 L1579.37532,2080.21308 L1530.857,2057.455 L1520.34,2052.721 L1518.87912,2055.41889 L1432.66943,2011.00149 L1433.674,2009.173 L1432.09288,2008.376 L1431.94763,2008.63769 L1431.29988,2007.976 L1430.87648,2007.76308 L1430.95388,2007.624 L1430.881,2007.551 L1429.53286,2009.96287 L1371.0532,1950.01992 L1304.60499,1967.74028 L1038.33314,1856.16762 L875.042959,1470.69503 L873.061704,1374.02061 L822.224029,1374.02061 L822.224,1477.013 L908.723328,1661.48134 L908.109,1661.956 L908.419471,1662.62188 L863.634418,1697.4063 L754.338859,1489.57488 L754.287,1489.036 L754.018569,1488.52633 L738.943,1329.109 L737.593317,1328.93729 L635.238164,1227.32492 L635.238164,1001.76158 L636.148,1000.808 L636.148277,998.785949 L915.521855,704.04087 L1763.91689,704.04087 L1863.40274,749.564553 L1862.444,751.635 L1866.76852,753.598353 L1848.821,792.092 L1891.82103,792.092682 L1932.91823,772.129607 L1965.70856,792.092682 L2035.00545,794.454141 L2036.125,798.201 L2038.96911,798.297344 L2044.89193,817.957933 L1939.37794,840.36186 L1851.776,981.096 L1892.91404,981.096871 L1971.61082,864.882472 L2014.01964,836.69802 L2050.3076,836.69802 L2049.882,840.361 L2054.32458,840.36186 L2045.331,917.267 L2087.90718,913.008134 L2134.03223,877.14894 L2240.49149,877.14894 L2290.9886,842.557937 L2454.06582,842.557937 L2524.45572,781.509847 L2524.412,781.641039 L2585.379,781.641 L2585.753,780.46 L2523.36271,780.46031 L2452.97281,841.5084 L2289.89558,841.5084 L2239.39848,876.099403 L2166.60396,876.099403 L2166.362,875.379 L2165.93283,875.379134 L2143.73,808.846 L2086.83602,812.864776 L2052.73409,787.675879 L2052.594,787.181 L2052.07652,786.798167 L2031.181,712.904 L1862.7688,748.668073 L1763.0862,703.166255 L914.472565,703.166255 L914.472,702.138 L913.950586,702.138069 L913.95,665.717 L838.770632,597.512826 L838.907,596.886 L838.257671,596.296518 L880.508438,402.531128 L880.585,402.448 L880.359,402.222 L878.706526,403.993294 L768.574002,294.402831 L407.154,306.958 L94.0804655,456.481242 L34.008588,451.780189 L34.142,451.692 L32,451.525199 L196.063849,344.279846 L110.485247,345.691254 L210.119605,211.390281 L211.834,210.75 L212.409822,209.971151 L413.461,134.538 L256.150024,140.168422 L292.162442,90.1611237 L292.953,90.171 L294.58238,87.8968353 L481.958,90.203 L481.958801,17.8752803 L484.678,16.785 L484.67883,15.1070454 L653.658311,-52.9816917 L1071.40707,-55.3431508 L1148.5,-23.569 L1149.77238,-24.6683283 L1654.90182,-35.2481026 L1919.16037,70.5715443 L2028.01129,19.4250166 L2233.91,58.2175222 L2351.613,1.949 L2329.68118,-43.4921246 L2330.047,-43.656 L2328.99062,-45.8497811 L2417.29538,-85.1460856 Z M4719.55888,2146.028 L4708.51004,2150.08472 L4663.9152,2166.48374 L4663.91788,2166.504 L4708.51188,2150.094 L4719.55888,2146.028 Z M4668.94305,2028.31652 L4775.62091,2125.39872 L4719.55888,2146.028 L4775.81688,2125.378 L4668.94305,2028.31652 Z M4803.80888,2115.104 L4775.81688,2125.378 L4775.83951,2125.39872 L4803.80388,2115.128 L4803.80888,2115.104 Z M4814.53209,2063.08244 L4803.80888,2115.104 L4803.82059,2115.10014 L4803.81488,2115.124 L4803.82059,2115.122 L4814.53209,2063.08244 Z M4183.86482,2114.88148 L4081.559,2114.88148 L4081.55688,2114.903 L4183.84288,2114.903 L4183.86482,2114.88148 Z M4823.982,1965.465 L4476.79173,2106.1572 L4668.94305,2028.31652 L4823.982,1965.465 Z M1460.467,1957.895 L1458.904,1957.895 L1430.95388,2007.624 L1431.29988,2007.976 L1432.09288,2008.376 L1460.467,1957.895 Z M1513.802,1890.295 L1513.217,1890.295 L1521.72754,1955.72351 L1519.736,1955.723 L1519.849,1956.598 L1522.235,1956.598 L1513.802,1890.295 Z M1989.9734,1852.73766 L2012.70803,1875.69629 L2012.708,1877.221 L2015.24876,1879.79338 L2015.24876,1902.52139 L1950.92884,1902.52139 L1928.48162,1883.2567 L1928.481,1882.32 L1924.82995,1879.19475 L1924.82995,1852.73766 L1989.9734,1852.73766 Z M2362.31729,1861.19774 L2362.273,1861.265 L2362.47151,1861.26515 L2349.13677,1883.34917 L2312.63021,1883.34917 L2313.53,1881.859 L2312.73607,1881.85956 L2326.00122,1861.19774 L2362.31729,1861.19774 Z M2172.25595,1815.74173 L2172.255,1819.746 L2276.51713,1831.3096 L2269.214,1842.037 L2261.43257,1853.97762 L2204.0799,1853.97762 L2168.12418,1881.85956 L2168.124,1863.888 L2086.55184,1863.88899 L2086.551,1861.197 L2085.48882,1861.19774 L2085.48882,1847.0907 L2123.107,1847.09 L2103.60281,1819.50231 L2105.903,1819.502 L2103.20567,1815.74173 L2172.25595,1815.74173 Z M1634.39511,1836.9946 L1632.25,1838.593 L1632.2304,1839.10357 L1617.835,1849.878 L1616.9,1851.703 L1632.93088,1839.758 L1634.39511,1836.9946 Z M1906.03017,1681.96918 L2086.81416,1812.28674 L2080.818,1812.286 L2085.48882,1815.74173 L1935.91863,1815.74173 L1938.945,1812.286 L1935.54146,1812.28674 L1967.149,1777.134 L1882.53159,1719.22743 L1775.6062,1719.22743 L1777.709,1717.172 L1773.40423,1717.17242 L1810.36986,1681.96918 L1906.03017,1681.96918 Z M4375.36033,1517.16995 L4375.35988,1517.266 L4535.37712,1635.39596 L4749.36088,1793.062 L4375.36033,1517.16995 Z M4267.37085,1572.42372 L4267.15225,1572.42372 L4267.15225,1696.40032 L4227.36665,1756.74872 L4267.37085,1696.40032 L4267.37085,1572.42372 Z M1243.511,1443.021 L1243.402,1443.025 L1325.57788,1604.463 L1325.61953,1604.41274 L1243.511,1443.021 Z M4375.14172,1517.10435 L4375.14172,1572.42372 L4375.36033,1572.42372 L4375.35988,1517.266 L4375.14172,1517.10435 Z M4281.75788,1497.228 L4256.45688,1497.228 L4256.44074,1497.2506 L4281.75788,1497.228 Z M4375.35988,1497.163 L4356.56054,1497.16314 L4281.75788,1497.228 L4375.36033,1497.22874 L4375.35988,1497.163 Z M4642.92888,1335.097 L4375.36033,1481.17956 L4375.35988,1481.31 L4642.92939,1335.22827 L4642.92888,1335.097 Z M1124.79,1418.567 L1142.49649,1445.4297 L1142.63,1445.424 L1124.79,1418.567 Z M4663.9152,909.312888 L4771.46747,978.123182 L4619.32035,1173.51206 L4465.20688,1161.989 L4487.94045,970.995074 L4487.936,970.995 L4487.94045,970.973208 L4414.05291,958.619279 L4415.14592,911.105847 L4663.9152,909.312888 Z M4414.05291,958.641144 L4487.936,970.995 L4465.20582,1161.98901 L4465.20688,1161.989 L4465.20582,1162.01088 L4445.53162,1160.52403 L4410.33667,1098.31708 L4414.05291,958.641144 Z M4806.66242,1038.42785 L4806.66242,1079.77525 L4759.00714,1079.77525 L4806.66242,1038.42785 Z M4920,549.96 L4920,671.64 L4913.12688,668.053 L4913.12167,668.159811 L4920,671.752 L4920,935.903 L4804.695,935.070284 L4771.46747,978.03572 L4663.9152,909.225426 L4654.2967,780.591502 L4581.72078,741.365042 L4581.72078,715.54205 L4643.36659,715.54205 L4811.25306,614.895789 L4851.25726,590.996948 L4919.24254,550.283644 L4915.3077,624.997586 L4914.92788,633.407 L4919.24254,550.414837 L4920,549.96 Z M2274.284,880.641 L2245.17109,880.641029 L2195.893,914.145 L2225.18934,914.145133 L2274.284,880.641 Z M2250.31,877.148 L2240.49149,877.14894 L2235.393,880.641 L2245.17109,880.641029 L2250.31,877.148 Z M2995.3931,621.488297 L2995.393,626.303 L2999.69684,621.936435 L2999.69588,624.116 L3000.78985,623.007838 L3000.789,628.467 L3003.65663,625.620662 L3003.656,671.416 L3034.1829,678.548195 L3034.821,679.544 L3038.60803,680.448144 L3039.20588,681.401 L3039.70104,681.519547 L3040.083,682.128 L3042.44644,682.68056 L3085.37673,749.591606 L3082.425,749.591 L3082.76567,750.133053 L2875.53081,750.133053 L2876.58588,749.061 L2874.4378,749.06165 L2877.986,745.459 L2870.52478,745.459241 L2995.3931,621.488297 Z M2882.95,745.459 L2880.134,745.459 L2876.58588,749.061 L2879.322,749.061 L2882.95,745.459 Z M820.648512,629.392524 L822.614,630.997 L824.066238,629.753027 L879.01249,674.596246 L879.01249,700.003228 L878.162,700.003 L878.162744,702.969467 L836.081825,702.969467 L795.990186,650.536329 L820.648512,629.392524 Z M3035.435,680.501 L3035.844,681.138 L3039.589,682.013 L3039.20588,681.401 L3035.435,680.501 Z M4811.25306,614.895789 L4913.12688,668.053 L4914.35588,644.412 L4914.20788,644.491 L4913.12167,668.028618 L4891.48006,656.746092 L4811.25306,614.895789 Z M4578.66035,380.018071 L4633.52949,381.701704 L4705.44961,547.00384 L4762.94198,559.139116 L4759.00714,595.501213 L4740.86316,595.501213 L4735.1795,628.080602 L4646.42702,642.161895 L4559.20475,658.014283 L4625.22261,595.391886 L4592.65089,547.965916 L4629.59465,527.718591 L4628.72025,473.733012 L4578.66035,469.031959 L4578.66035,380.018071 Z M4914.21469,644.370297 L4891.48006,656.746092 L4914.20788,644.491 L4914.21469,644.370297 Z M4914.92,633.546 L4914.35588,644.412 L4914.43329,644.370297 L4914.92,633.546 Z M2999.69588,624.116 L2995.393,628.482 L2995.393,633.823 L2999.695,629.552 L2999.69588,624.116 Z M4494.93572,473.120782 L4559.20475,477.471989 L4559.20475,512.740818 L4531.87948,522.427173 L4537.12593,593.751984 L4466.73603,584.065629 L4466.73603,616.929268 L4429.79227,617.169787 L4429.79227,520.896598 L4494.93572,473.120782 Z M4920,235.597 L4920,364.124 L4877.70812,264.875075 L4920,235.597 Z M805.748,275.159 L805.149618,275.676564 L845.241256,321.637554 L886.294745,321.637554 L921.648,358.146 L922.169049,357.583516 L887.257,321.462 L846.268687,321.462632 L844.932,319.93 L844.727525,319.930033 L805.748,275.159 Z M4171.65029,-419.867635 L4506.70501,-385.871536 L4502.522,-381.63 L4511.98668,-380.677871 L4470.88948,-339.352337 L4354.37452,-315.519093 L4165.28364,-14.8703658 L4064.94524,14.7571996 L3921.54221,23.6126712 L3850.49651,78.0355571 L3660.96842,133.945288 L3526.74669,275.829621 L3438.86861,275.829621 L3437.424,274.369 L3436.57905,274.369653 L3362.46155,198.791003 L3358.97367,64.2139479 L3476.90769,-3.36044585 L3476.90769,-102.53406 L3439.048,-168.434 L3416.13399,-207.985243 L3169.55073,-211.505566 L3169.55,-215.716 L3168.0121,-215.737112 L3168.0121,-265.433868 L3329.54466,-315.042664 L3531.62385,-385.871536 L3882.15604,-385.871536 L4171.65029,-419.867635 Z M2625.44992,-149.298611 L2667.85874,-148.970631 L2666.987,-146.817 L2668.03142,-146.808808 L2639.426,-77.216 L2726.22552,-148.533323 L2763.8251,-148.139747 L3016.09201,-45.0882961 L3016.102,-44.726 L3016.45539,-44.5832379 L3018.42389,26.5077501 L3063.91804,42.8173654 L3089.5085,89.83123 L3088.547,90.462 L3089.10513,91.50462 L3043.85448,121.700685 L2965.493,93.811 L2965.49319,192.487133 L2965.157,192.631 L2965.1577,195.824262 L2942.86028,205.510617 L2876.55,173.937 L2898.34557,221.383984 L2896.655,222.11 L2898.04683,225.189443 L2870.94016,237.040469 L2771.47617,154.761112 L2654.08681,154.761112 L2654.08681,121.700685 L2654.251,121.7 L2654.25194,119.545714 L2769.95582,119.545714 L2821.35546,78.1261763 L2921.239,79.813 L2801.924,-26.978 L2771.7056,-53.5771946 L2523.45625,-40.3014259 L2523.901,-40.767 L2523.36271,-40.737089 L2625.44992,-149.298611 Z M4349.12807,77.9262302 L4398.31355,127.822986 L4398.31355,141.423241 L4299.06817,189.723826 L4133.14912,165.956177 L4133.14912,121.788146 L4180.14858,122.881414 L4197.63676,99.0481699 L4280.26838,100.797399 L4349.12807,77.9262302 Z M2463.77232,121.472155 L2468.781,123.643 L2471.11679,121.744416 L2547.84615,154.804843 L2534.29282,187.909001 L2526.717,187.107 L2526.52155,187.589992 L2399.5032,174.064896 L2463.77232,121.472155 Z M2285.99226,-43.8224374 L2304.233,-14.37 L2305.63494,-12.1371956 L2245.30074,18.6273687 L2244.177,17.177 L2242.27064,18.1630347 L2217.7054,-13.9835039 L2285.99226,-43.8224374 Z M1945.37856,-137.666239 L2010.52201,-107.5795 L2072.60502,-131.675129 L2073.649,-128.331 L2074.91336,-128.812388 L2087.986,-87.668 L2122.00911,-131.675129 L2180.5945,-131.675129 L2178.377,-128.813 L2183.58042,-128.812388 L2125.079,-54.603 L2198.08267,-20.8833404 L2197.817,-20.823 L2201.17833,-19.2972155 L2122.86765,-1.63905574 L2018.38008,-26.0189875 L1924.45126,14.0306699 L1788.0015,-38.1873399 L1790.507,-38.815 L1787.48221,-39.9936667 L1894.194,-67.186 L1827.42081,-94.8144864 L1830.258,-95.763 L1826.65572,-97.280915 L1945.37856,-137.666239 Z M2409.90818,-161.827463 L2408.65,-158.471 L2411.89851,-159.528652 L2389.97419,-100.801228 L2306.26318,-72.7489911 L2267.28662,-112.404451 L2269.481,-113.12 L2267.16096,-115.472896 L2409.90818,-161.827463 Z M1866.24457,-174.859219 L1916.96028,-151.353955 L1912.637,-149.883 L1916.08632,-148.254563 L1698.18,-72.7489911 L1659.91669,-118.48392 L1660.586,-118.658 L1657.9167,-121.791986 L1866.24457,-174.859219 Z M2525.11152,-161.827463 L2547.84615,-131.653264 L2542.73,-130.294 L2544.11509,-128.4119 L2430.72998,-97.54318 L2420.16205,-135.672476 L2425.287,-136.883 L2424.77313,-138.693911 L2525.11152,-161.827463 Z M2645.22987,-242.175948 L2649.602,-240.36 L2650.15197,-240.827016 L2708.596,-216.615 L2891.18363,-216.614504 L2889.305,-215.289 L2896.51662,-215.288273 L2833.12199,-170.639204 L2590.25497,-189.771396 L2591.244,-190.616 L2585.43277,-191.074945 L2645.22987,-242.175948 Z M3424.18173,-424 L3421.982,-422.728 L3429.90592,-423.315327 L3303.11666,-351.749997 L3274.055,-345.936 L3133.271,-317.077 L3067.282,-286.305 L2923.04204,-217.381759 L2900.11408,-237.211023 L2757.74238,-237.211023 L2738.3082,-257.040287 L2746.449,-257.041 L2743.27649,-260.199727 L2866.067,-260.2 L2838.53614,-296.676433 L2846.36,-295.374 L2843.61489,-298.923283 L2912.256,-287.765 L2891.37962,-325.525102 L2897.343,-325.648 L2896.51662,-327.107734 L3068.198,-330.522 L3090.96205,-361.557962 L2921.29515,-357.954676 L2921.29515,-385.773835 L3424.18173,-424 Z M2795.20418,-370.279257 L2832.71,-340.519 L2834.6522,-339.068087 L2788.502,-309.514 L2780.63587,-304.161421 L2737.125,-312.903 L2687.09573,-322.362951 L2704.806,-329.823 L2795.20418,-370.279257 Z" id="Combined-Shape" fill="#E6EBF1" fill-rule="nonzero" opacity="0.727957589"></path>
        <g id="map-pin" transform="translate(568.000000, 751.000000)" fill="#CFD7DF" fill-rule="nonzero">
            <path d="M183.5,0 C284.687143,0 367,81.64 367,182 C367,318.5 183.5,520 183.5,520 C183.5,520 0,318.5 0,182 C0,81.64 82.3128571,0 183.5,0 Z" id="Combined-Shape"></path>
        </g>
        <g id="Group-2" transform="translate(660.000000, 826.000000)">
            <g id="database" transform="translate(0.000000, 142.000000)">
                <path d="M183.433554,32.3752059 L183.433554,95.1450882 C183.433554,113.447912 142.383306,128.267735 91.714876,128.267735 C41.0464463,128.267735 -0.00380165289,113.447912 -0.00380165289,95.1450882 L-0.00380165289,32.3752059 C-0.00380165289,50.6704412 41.0616529,65.5054412 91.714876,65.5054412 C142.368099,65.5054412 183.433554,50.6704412 183.433554,32.3752059 Z" id="Path" fill="#6D85CF"></path>
                <ellipse id="Oval" fill="#596EAD" fill-rule="nonzero" cx="91.714876" cy="33.1302353" rx="91.7186777" ry="33.1302353"></ellipse>
                <g id="Group" transform="translate(69.190083, 88.023529)" fill="#596EAD" fill-rule="nonzero">
                    <path d="M38.081157,15.2485588 L7.66793388,15.2485588 C3.4686281,15.2485588 0.0646280992,11.8513059 0.0646280992,7.66032353 C0.0646280992,3.46934118 3.4686281,0.0720882353 7.66793388,0.0720882353 L38.081157,0.0720882353 C42.2804628,0.0720882353 45.6844628,3.46934118 45.6844628,7.66032353 C45.6844628,11.8513059 42.2804628,15.2485588 38.081157,15.2485588 Z" id="Path"></path>
                </g>
            </g>
            <g id="database" transform="translate(0.000000, 76.000000)">
                <path d="M183.433554,26.3752059 L183.433554,89.1450882 C183.433554,107.447912 142.383306,122.267735 91.714876,122.267735 C41.0464463,122.267735 -0.00380165289,107.447912 -0.00380165289,89.1450882 L-0.00380165289,26.3752059 C-0.00380165289,44.6704412 41.0616529,59.5054412 91.714876,59.5054412 C142.368099,59.5054412 183.433554,44.6704412 183.433554,26.3752059 Z" id="Path" fill="#6D85CF"></path>
                <ellipse id="Oval" fill="#596EAD" fill-rule="nonzero" cx="91.714876" cy="33.1302353" rx="91.7186777" ry="33.1302353"></ellipse>
                <g id="Group" transform="translate(69.190083, 88.023529)" fill="#596EAD" fill-rule="nonzero">
                    <path d="M38.081157,15.2485588 L7.66793388,15.2485588 C3.4686281,15.2485588 0.0646280992,11.8513059 0.0646280992,7.66032353 C0.0646280992,3.46934118 3.4686281,0.0720882353 7.66793388,0.0720882353 L38.081157,0.0720882353 C42.2804628,0.0720882353 45.6844628,3.46934118 45.6844628,7.66032353 C45.6844628,11.8513059 42.2804628,15.2485588 38.081157,15.2485588 Z" id="Path"></path>
                </g>
            </g>
            <g id="database">
                <path d="M183.433554,31.3752059 L183.433554,94.1450882 C183.433554,112.447912 142.383306,127.267735 91.714876,127.267735 C41.0464463,127.267735 -0.00380165289,112.447912 -0.00380165289,94.1450882 L-0.00380165289,31.3752059 C-0.00380165289,49.6704412 41.0616529,64.5054412 91.714876,64.5054412 C142.368099,64.5054412 183.433554,49.6704412 183.433554,31.3752059 Z" id="Path" fill="#6D85CF"></path>
                <ellipse id="Oval" fill="#596EAD" fill-rule="nonzero" cx="91.714876" cy="33.1302353" rx="91.7186777" ry="33.1302353"></ellipse>
                <g id="Group" transform="translate(69.190083, 88.023529)" fill="#596EAD" fill-rule="nonzero">
                    <path d="M38.081157,15.2485588 L7.66793388,15.2485588 C3.4686281,15.2485588 0.0646280992,11.8513059 0.0646280992,7.66032353 C0.0646280992,3.46934118 3.4686281,0.0720882353 7.66793388,0.0720882353 L38.081157,0.0720882353 C42.2804628,0.0720882353 45.6844628,3.46934118 45.6844628,7.66032353 C45.6844628,11.8513059 42.2804628,15.2485588 38.081157,15.2485588 Z" id="Path"></path>
                </g>
            </g>
        </g>
        <g id="map-pin" transform="translate(1582.000000, 705.000000)" fill="#CFD7DF" fill-rule="nonzero">
            <path d="M183.5,0 C284.687143,0 367,81.64 367,182 C367,318.5 183.5,520 183.5,520 C183.5,520 0,318.5 0,182 C0,81.64 82.3128571,0 183.5,0 Z" id="Combined-Shape"></path>
        </g>
        <g id="Group-2" transform="translate(1674.000000, 786.000000)">
            <g id="database" transform="translate(0.000000, 136.000000)">
                <path d="M183.433554,32.3752059 L183.433554,95.1450882 C183.433554,113.447912 142.383306,128.267735 91.714876,128.267735 C41.0464463,128.267735 -0.00380165289,113.447912 -0.00380165289,95.1450882 L-0.00380165289,32.3752059 C-0.00380165289,50.6704412 41.0616529,65.5054412 91.714876,65.5054412 C142.368099,65.5054412 183.433554,50.6704412 183.433554,32.3752059 Z" id="Path" fill="#6D85CF"></path>
                <ellipse id="Oval" fill="#596EAD" fill-rule="nonzero" cx="91.714876" cy="33.1302353" rx="91.7186777" ry="33.1302353"></ellipse>
                <g id="Group" transform="translate(69.190083, 88.023529)" fill="#596EAD" fill-rule="nonzero">
                    <path d="M38.081157,15.2485588 L7.66793388,15.2485588 C3.4686281,15.2485588 0.0646280992,11.8513059 0.0646280992,7.66032353 C0.0646280992,3.46934118 3.4686281,0.0720882353 7.66793388,0.0720882353 L38.081157,0.0720882353 C42.2804628,0.0720882353 45.6844628,3.46934118 45.6844628,7.66032353 C45.6844628,11.8513059 42.2804628,15.2485588 38.081157,15.2485588 Z" id="Path"></path>
                </g>
            </g>
            <g id="database" transform="translate(0.000000, 70.000000)">
                <path d="M183.433554,26.3752059 L183.433554,89.1450882 C183.433554,107.447912 142.383306,122.267735 91.714876,122.267735 C41.0464463,122.267735 -0.00380165289,107.447912 -0.00380165289,89.1450882 L-0.00380165289,26.3752059 C-0.00380165289,44.6704412 41.0616529,59.5054412 91.714876,59.5054412 C142.368099,59.5054412 183.433554,44.6704412 183.433554,26.3752059 Z" id="Path" fill="#6D85CF"></path>
                <ellipse id="Oval" fill="#596EAD" fill-rule="nonzero" cx="91.714876" cy="33.1302353" rx="91.7186777" ry="33.1302353"></ellipse>
                <g id="Group" transform="translate(69.190083, 88.023529)" fill="#596EAD" fill-rule="nonzero">
                    <path d="M38.081157,15.2485588 L7.66793388,15.2485588 C3.4686281,15.2485588 0.0646280992,11.8513059 0.0646280992,7.66032353 C0.0646280992,3.46934118 3.4686281,0.0720882353 7.66793388,0.0720882353 L38.081157,0.0720882353 C42.2804628,0.0720882353 45.6844628,3.46934118 45.6844628,7.66032353 C45.6844628,11.8513059 42.2804628,15.2485588 38.081157,15.2485588 Z" id="Path"></path>
                </g>
            </g>
            <g id="database">
                <path d="M183.433554,26.3752059 L183.433554,89.1450882 C183.433554,107.447912 142.383306,122.267735 91.714876,122.267735 C41.0464463,122.267735 -0.00380165289,107.447912 -0.00380165289,89.1450882 L-0.00380165289,26.3752059 C-0.00380165289,44.6704412 41.0616529,59.5054412 91.714876,59.5054412 C142.368099,59.5054412 183.433554,44.6704412 183.433554,26.3752059 Z" id="Path" fill="#6D85CF"></path>
                <ellipse id="Oval" fill="#596EAD" fill-rule="nonzero" cx="91.714876" cy="33.1302353" rx="91.7186777" ry="33.1302353"></ellipse>
                <g id="Group" transform="translate(69.190083, 88.023529)" fill="#596EAD" fill-rule="nonzero">
                    <path d="M38.081157,15.2485588 L7.66793388,15.2485588 C3.4686281,15.2485588 0.0646280992,11.8513059 0.0646280992,7.66032353 C0.0646280992,3.46934118 3.4686281,0.0720882353 7.66793388,0.0720882353 L38.081157,0.0720882353 C42.2804628,0.0720882353 45.6844628,3.46934118 45.6844628,7.66032353 C45.6844628,11.8513059 42.2804628,15.2485588 38.081157,15.2485588 Z" id="Path"></path>
                </g>
            </g>
        </g>
        <path id="Path-5" d="M795.943224,1247.61537 C798.109482,1250.12295 797.832782,1253.91185 795.325196,1256.07811 C790.000813,1260.67775 784.68574,1265.35682 779.379982,1270.11533 C787.327529,1282.88452 785.370321,1299.89553 773.923381,1310.48752 C760.95158,1322.49049 740.705529,1321.7051 728.702559,1308.7333 C716.69959,1295.7615 717.484984,1275.51545 730.456784,1263.51248 C741.942352,1252.88474 759.130777,1252.28281 771.250626,1261.28883 C776.65023,1256.44309 782.060308,1251.67973 787.480479,1246.99734 C789.988065,1244.83108 793.776965,1245.10778 795.943224,1247.61537 Z M738.606771,1272.3203 C730.499396,1279.82215 730.008525,1292.47594 737.510381,1300.58331 C745.012236,1308.69069 757.666018,1309.18156 765.773394,1301.6797 C773.63087,1294.40908 774.334143,1282.29924 767.540719,1274.17906 C767.256924,1273.96319 766.990515,1273.71836 766.743474,1273.44554 C766.526422,1273.20584 766.332342,1272.9534 766.1611,1272.69092 C758.593638,1265.28667 746.464721,1265.04924 738.606771,1272.3203 Z M1788.71403,1203.80274 C1802.63009,1214.69687 1805.07986,1234.80951 1794.18572,1248.72557 C1783.29159,1262.64163 1763.17896,1265.09139 1749.2629,1254.19726 C1735.34683,1243.30313 1732.89707,1223.19049 1743.7912,1209.27443 C1754.68533,1195.35837 1774.79797,1192.90861 1788.71403,1203.80274 Z M1753.24018,1216.67152 C1746.43134,1225.36906 1747.96244,1237.93946 1756.65998,1244.74829 C1765.35752,1251.55712 1777.92792,1250.02602 1784.73675,1241.32848 C1791.54558,1232.63094 1790.01448,1220.06054 1781.31694,1213.25171 C1772.6194,1206.44288 1760.04901,1207.97398 1753.24018,1216.67152 Z M840.254729,1211.72831 C842.284523,1214.34759 841.806655,1218.1164 839.187381,1220.1462 C832.172846,1225.58208 825.174137,1231.15321 818.191259,1236.85961 C815.625354,1238.95646 811.845441,1238.57622 809.748588,1236.01031 C807.651734,1233.44441 808.031975,1229.6645 810.59788,1227.56764 C817.660552,1221.79604 824.740205,1216.16047 831.836845,1210.66096 C834.45612,1208.63117 838.224935,1209.10904 840.254729,1211.72831 Z M1714.21265,1180.7879 C1721.64305,1185.87479 1729.0416,1191.10348 1736.40833,1196.47397 C1739.08601,1198.42605 1739.67423,1202.17923 1737.72214,1204.85692 C1735.77006,1207.53461 1732.01688,1208.12282 1729.33919,1206.17074 C1722.06791,1200.86983 1714.76611,1195.70951 1707.43378,1190.68976 C1704.69946,1188.81783 1704.00035,1185.08372 1705.87229,1182.3494 C1707.74422,1179.61507 1711.47833,1178.91597 1714.21265,1180.7879 Z M886.514679,1178.41148 C888.386991,1181.14555 887.688402,1184.87975 884.954337,1186.75207 C877.628862,1191.76862 870.320293,1196.9298 863.028634,1202.23565 C860.349212,1204.18536 856.596561,1203.59381 854.646853,1200.91439 C852.697145,1198.23496 853.288696,1194.48231 855.968118,1192.5326 C863.3519,1187.15972 870.753891,1181.93256 878.174096,1176.85114 C880.908161,1174.97883 884.642367,1175.67742 886.514679,1178.41148 Z M1665.86571,1149.95635 C1673.62484,1154.54717 1681.35052,1159.28715 1689.04276,1164.17625 C1691.83939,1165.95376 1692.66555,1169.66183 1690.88804,1172.45846 C1689.11053,1175.25509 1685.40246,1176.08125 1682.60583,1174.30374 C1675.02102,1169.48291 1667.40413,1164.80969 1659.75516,1160.28404 C1656.90325,1158.59666 1655.95921,1154.91684 1657.64659,1152.06492 C1659.33397,1149.21301 1663.0138,1148.26897 1665.86571,1149.95635 Z M934.744932,1148.05385 C936.436457,1150.90331 935.497768,1154.5845 932.648311,1156.27603 C925.018926,1160.80507 917.407515,1165.48786 909.814078,1170.32444 C907.019162,1172.10464 903.310299,1171.28205 901.5301,1168.48713 C899.749901,1165.69221 900.572492,1161.98335 903.367408,1160.20315 C911.066462,1155.2993 918.784912,1150.55065 926.522756,1145.95723 C929.372213,1144.26571 933.053407,1145.2044 934.744932,1148.05385 Z M1615.42412,1122.44844 C1623.49834,1126.48438 1631.53771,1130.67609 1639.54221,1135.02355 C1642.45415,1136.6051 1643.53264,1140.24779 1641.95109,1143.15972 C1640.36954,1146.07166 1636.72685,1147.15015 1633.81491,1145.5686 C1625.92972,1141.28594 1618.01103,1137.15714 1610.05881,1133.18219 C1607.09476,1131.7006 1605.893,1128.0967 1607.37459,1125.13266 C1608.85618,1122.16862 1612.46008,1120.96685 1615.42412,1122.44844 Z M984.947847,1121.05829 C986.433563,1124.02026 985.236818,1127.62583 982.274841,1129.11155 C974.341086,1133.09109 966.426406,1137.2335 958.530792,1141.53881 C955.621487,1143.12519 951.977013,1142.05275 950.390631,1139.14344 C948.80425,1136.23414 949.876692,1132.58966 952.785997,1131.00328 C960.801636,1126.63253 968.837835,1122.42652 976.894584,1118.38528 C979.856561,1116.89956 983.46213,1118.09631 984.947847,1121.05829 Z M1563.11609,1098.68109 C1571.48235,1102.10885 1579.81262,1105.69793 1588.1069,1109.4483 C1591.12629,1110.81357 1592.46722,1114.36803 1591.10196,1117.38742 C1589.7367,1120.40681 1586.18223,1121.74775 1583.16284,1120.38249 C1574.99884,1116.69101 1566.80009,1113.1586 1558.56659,1109.78524 C1555.50026,1108.52893 1554.03295,1105.02474 1555.28926,1101.95841 C1556.54557,1098.89209 1560.04976,1097.42478 1563.11609,1098.68109 Z M1036.97167,1097.88536 C1038.2265,1100.95229 1036.7575,1104.45577 1033.69057,1105.7106 C1025.47437,1109.07225 1017.27828,1112.60492 1009.10228,1116.30864 C1006.08384,1117.67599 1002.52844,1116.33752 1001.16109,1113.31908 C999.793736,1110.30063 1001.13221,1106.74524 1004.15065,1105.37789 C1012.46102,1101.61329 1020.79295,1098.02207 1029.14643,1094.60426 C1032.21336,1093.34943 1035.71684,1094.81843 1036.97167,1097.88536 Z M1509.13284,1078.96295 C1517.75336,1081.73542 1526.33717,1084.67314 1534.88423,1087.77609 C1537.99903,1088.90689 1539.60737,1092.34863 1538.47657,1095.46342 C1537.34576,1098.57822 1533.90403,1100.18656 1530.78923,1099.05576 C1522.38145,1096.00337 1513.93799,1093.11369 1505.45882,1090.38668 C1502.30425,1089.37213 1500.56942,1085.99239 1501.58397,1082.83781 C1502.59852,1079.68323 1505.97826,1077.9484 1509.13284,1078.96295 Z M1090.74802,1078.90808 C1091.74805,1082.06729 1089.99769,1085.43902 1086.83848,1086.43905 C1078.36493,1089.12131 1069.91245,1091.98161 1061.48101,1095.01997 C1058.36355,1096.14338 1054.92563,1094.52688 1053.80222,1091.40942 C1052.6788,1088.29195 1054.2953,1084.85403 1057.41277,1083.73062 C1065.99184,1080.63906 1074.59328,1077.72835 1083.21705,1074.99855 C1086.37626,1073.99851 1089.74799,1075.74887 1090.74802,1078.90808 Z M1453.80526,1063.55684 C1462.63461,1065.64106 1471.42695,1067.8926 1480.18226,1070.31146 C1483.37631,1071.19389 1485.25025,1074.49854 1484.36781,1077.69259 C1483.48538,1080.88665 1480.18074,1082.76058 1476.98668,1081.87815 C1468.37684,1079.49948 1459.73075,1077.28538 1451.04836,1075.23586 C1447.82329,1074.47456 1445.826,1071.24297 1446.5873,1068.0179 C1447.3486,1064.79283 1450.58019,1062.79554 1453.80526,1063.55684 Z M1145.89538,1064.53475 C1146.62134,1067.76796 1144.58881,1070.9775 1141.3556,1071.70346 C1132.67343,1073.65289 1124.01309,1075.78522 1115.37455,1078.10047 C1112.17381,1078.95832 1108.88367,1077.05903 1108.02582,1073.85829 C1107.16797,1070.65754 1109.06727,1067.3674 1112.26801,1066.50956 C1121.06474,1064.1519 1129.88431,1061.98036 1138.72667,1059.99497 C1141.95988,1059.26901 1145.16942,1061.30154 1145.89538,1064.53475 Z M1397.36837,1052.59059 C1406.35011,1053.96739 1415.29503,1055.51142 1424.20311,1057.22267 C1427.45732,1057.84781 1429.5886,1060.99264 1428.96346,1064.24685 C1428.33833,1067.50105 1425.19349,1069.63234 1421.93929,1069.0072 C1413.17931,1067.3244 1404.38294,1065.80601 1395.55014,1064.45204 C1392.27469,1063.94995 1390.02644,1060.88765 1390.52853,1057.6122 C1391.03062,1054.33675 1394.09292,1052.0885 1397.36837,1052.59059 Z M1202.06684,1055.02262 C1202.50604,1058.3071 1200.19948,1061.32572 1196.915,1061.76491 C1188.08122,1062.94614 1179.26979,1064.31267 1170.48065,1065.86449 C1167.21741,1066.44066 1164.10496,1064.26235 1163.5288,1060.99912 C1162.95264,1057.73589 1165.13094,1054.62344 1168.39417,1054.04728 C1177.34804,1052.46636 1186.32485,1051.07419 1195.32455,1049.87078 C1198.60903,1049.43159 1201.62765,1051.73815 1202.06684,1055.02262 Z M1340.26268,1046.12669 C1349.33539,1046.79601 1358.37197,1047.63026 1367.37236,1048.62943 C1370.66584,1048.99506 1373.03933,1051.96134 1372.67371,1055.25482 C1372.30809,1058.54829 1369.3418,1060.92179 1366.04832,1060.55616 C1357.19489,1059.5733 1348.30539,1058.75264 1339.3798,1058.09417 C1336.07507,1057.85036 1333.5937,1054.97371 1333.8375,1051.66899 C1334.0813,1048.36426 1336.95795,1045.88289 1340.26268,1046.12669 Z M1258.87444,1050.49975 C1259.02243,1053.81015 1256.45878,1056.61373 1253.14838,1056.76171 C1244.22798,1057.16047 1235.33011,1057.74416 1226.45473,1058.51279 C1223.15338,1058.79869 1220.24534,1056.35419 1219.95943,1053.05284 C1219.67353,1049.75148 1222.11803,1046.84344 1225.41939,1046.55754 C1234.4611,1045.77451 1243.52548,1045.17989 1252.61248,1044.77368 C1255.92289,1044.6257 1258.72646,1047.18935 1258.87444,1050.49975 Z M1310.07387,1044.51265 C1313.38574,1044.62304 1315.98104,1047.39734 1315.87065,1050.70921 C1315.76025,1054.02108 1312.98595,1056.61638 1309.67409,1056.50599 C1300.78103,1056.20955 1291.85267,1056.07129 1282.88897,1056.09123 C1279.57527,1056.0986 1276.88301,1053.41829 1276.87564,1050.10459 C1276.86827,1046.79088 1279.54858,1044.09863 1282.86228,1044.09125 C1291.96791,1044.071 1301.03845,1044.21146 1310.07387,1044.51265 Z" fill="#2F52BB" fill-rule="nonzero"></path>
    </g>
</svg>
