<svg xmlns="http://www.w3.org/2000/svg" xmlns:xlink="http://www.w3.org/1999/xlink" width="4745" height="1750" viewBox="0 0 4745 1750">
  <defs>
    <linearGradient id="linear-gradient" x1="0.525" y1="0.961" x2="0.524" y2="0.023" gradientUnits="objectBoundingBox">
      <stop offset="0" stop-color="#cdf5fa"/>
      <stop offset="1" stop-color="#e6fdfd"/>
    </linearGradient>
    <filter id="Path" x="2820.543" y="1089.857" width="87" height="87" filterUnits="userSpaceOnUse">
      <feOffset dy="1" input="SourceAlpha"/>
      <feGaussianBlur stdDeviation="5" result="blur"/>
      <feFlood flood-color="#1a202c" flood-opacity="0.161"/>
      <feComposite operator="in" in2="blur"/>
      <feComposite in="SourceGraphic"/>
    </filter>
    <linearGradient id="linear-gradient-2" x1="0.043" x2="0.841" y2="0.363" gradientUnits="objectBoundingBox">
      <stop offset="0" stop-color="#fff" stop-opacity="0.086"/>
      <stop offset="1" stop-color="#202121" stop-opacity="0.055"/>
    </linearGradient>
    <filter id="Value" x="2745.673" y="1188.259" width="36" height="81" filterUnits="userSpaceOnUse">
      <feOffset dy="1" input="SourceAlpha"/>
      <feGaussianBlur stdDeviation="5" result="blur-2"/>
      <feFlood flood-color="#1a202c" flood-opacity="0.224"/>
      <feComposite operator="in" in2="blur-2"/>
      <feComposite in="SourceGraphic"/>
    </filter>
    <filter id="Left_Side" x="2556.673" y="1194.259" width="288.009" height="395" filterUnits="userSpaceOnUse">
      <feOffset dy="-10" input="SourceAlpha"/>
      <feGaussianBlur stdDeviation="11" result="blur-3"/>
      <feFlood flood-color="#0d1c2f" flood-opacity="0.047"/>
      <feComposite operator="in" in2="blur-3"/>
      <feComposite in="SourceGraphic"/>
    </filter>
    <filter id="Right_Side" x="2740.029" y="1181.259" width="105.644" height="395" filterUnits="userSpaceOnUse">
      <feOffset dy="-22" input="SourceAlpha"/>
      <feGaussianBlur stdDeviation="11" result="blur-4"/>
      <feFlood flood-color="#0d1c2f" flood-opacity="0.047"/>
      <feComposite operator="in" in2="blur-4"/>
      <feComposite in="SourceGraphic"/>
    </filter>
    <filter id="Rectangle" x="2602.424" y="1244.195" width="167" height="57.915" filterUnits="userSpaceOnUse">
      <feOffset dy="1" input="SourceAlpha"/>
      <feGaussianBlur stdDeviation="5" result="blur-5"/>
      <feFlood flood-color="#1a202c" flood-opacity="0.153"/>
      <feComposite operator="in" in2="blur-5"/>
      <feComposite in="SourceGraphic"/>
    </filter>
    <filter id="Rectangle-2" x="2602.424" y="1290.056" width="167" height="57.915" filterUnits="userSpaceOnUse">
      <feOffset dy="1" input="SourceAlpha"/>
      <feGaussianBlur stdDeviation="5" result="blur-6"/>
      <feFlood flood-color="#1a202c" flood-opacity="0.153"/>
      <feComposite operator="in" in2="blur-6"/>
      <feComposite in="SourceGraphic"/>
    </filter>
    <filter id="Rectangle-3" x="2602.424" y="1336.913" width="167" height="57.915" filterUnits="userSpaceOnUse">
      <feOffset dy="1" input="SourceAlpha"/>
      <feGaussianBlur stdDeviation="5" result="blur-7"/>
      <feFlood flood-color="#1a202c" flood-opacity="0.153"/>
      <feComposite operator="in" in2="blur-7"/>
      <feComposite in="SourceGraphic"/>
    </filter>
    <filter id="Rectangle-4" x="2602.424" y="1383.771" width="167" height="57.915" filterUnits="userSpaceOnUse">
      <feOffset dy="1" input="SourceAlpha"/>
      <feGaussianBlur stdDeviation="5" result="blur-8"/>
      <feFlood flood-color="#1a202c" flood-opacity="0.153"/>
      <feComposite operator="in" in2="blur-8"/>
      <feComposite in="SourceGraphic"/>
    </filter>
    <filter id="Rectangle-5" x="2602.424" y="1429.631" width="167" height="57.915" filterUnits="userSpaceOnUse">
      <feOffset dy="1" input="SourceAlpha"/>
      <feGaussianBlur stdDeviation="5" result="blur-9"/>
      <feFlood flood-color="#1a202c" flood-opacity="0.153"/>
      <feComposite operator="in" in2="blur-9"/>
      <feComposite in="SourceGraphic"/>
    </filter>
    <filter id="Hill-with-shadow" x="2350.5" y="1445.5" width="621.629" height="292.157" filterUnits="userSpaceOnUse">
      <feOffset dy="-44" input="SourceAlpha"/>
      <feGaussianBlur stdDeviation="12.5" result="blur-10"/>
      <feFlood flood-color="#0b1417" flood-opacity="0.055"/>
      <feComposite operator="in" in2="blur-10"/>
      <feComposite in="SourceGraphic"/>
    </filter>
    <linearGradient id="linear-gradient-3" x1="0.577" y1="0.293" x2="0.5" y2="0.5" gradientUnits="objectBoundingBox">
      <stop offset="0" stop-opacity="0.208"/>
      <stop offset="1" stop-opacity="0"/>
    </linearGradient>
    <linearGradient id="linear-gradient-4" x1="0.558" y1="0.181" x2="0.558" y2="0.608" gradientUnits="objectBoundingBox">
      <stop offset="0" stop-opacity="0.239"/>
      <stop offset="1" stop-opacity="0"/>
    </linearGradient>
    <linearGradient id="linear-gradient-5" x1="0.866" y1="0.219" x2="0.084" y2="0.977" gradientUnits="objectBoundingBox">
      <stop offset="0" stop-opacity="0.145"/>
      <stop offset="1" stop-opacity="0.082"/>
      <stop offset="1" stop-color="#3a3636" stop-opacity="0.239"/>
    </linearGradient>
    <radialGradient id="radial-gradient" cx="0.268" cy="0" r="0.594" gradientTransform="matrix(-1, 0, 0, 1, 0.535, 0)" gradientUnits="objectBoundingBox">
      <stop offset="0" stop-color="#fff" stop-opacity="0.09"/>
      <stop offset="1" stop-color="#fff" stop-opacity="0"/>
    </radialGradient>
    <filter id="Leg-Front_Gradient" x="2406.173" y="1476.25" width="197.948" height="193.204" filterUnits="userSpaceOnUse">
      <feOffset dy="1" input="SourceAlpha"/>
      <feGaussianBlur stdDeviation="3" result="blur-11"/>
      <feFlood flood-opacity="0.09"/>
      <feComposite operator="in" in2="blur-11"/>
      <feComposite in="SourceGraphic"/>
    </filter>
    <radialGradient id="radial-gradient-2" cx="0.793" cy="-0.031" r="0.167" gradientTransform="matrix(-1, 0, 0, 1, 1.586, 0)" gradientUnits="objectBoundingBox">
      <stop offset="0" stop-opacity="0.133"/>
      <stop offset="1" stop-opacity="0"/>
    </radialGradient>
    <radialGradient id="radial-gradient-3" cx="0.452" cy="0" r="0.423" gradientTransform="matrix(-1, 0, 0, 1, 0.905, 0)" gradientUnits="objectBoundingBox">
      <stop offset="0" stop-color="#fff" stop-opacity="0.082"/>
      <stop offset="1" stop-color="#fff" stop-opacity="0"/>
    </radialGradient>
    <filter id="Shirt_Gradient" x="2487.644" y="1332.865" width="110.494" height="170.335" filterUnits="userSpaceOnUse">
      <feOffset dx="-6" dy="-4" input="SourceAlpha"/>
      <feGaussianBlur stdDeviation="4" result="blur-12"/>
      <feFlood flood-opacity="0.169"/>
      <feComposite operator="in" in2="blur-12"/>
      <feComposite in="SourceGraphic"/>
    </filter>
    <radialGradient id="radial-gradient-4" cx="0.512" cy="0.033" r="0.355" gradientTransform="matrix(-1, 0, 0, 1, 1.023, 0)" gradientUnits="objectBoundingBox">
      <stop offset="0" stop-color="red" stop-opacity="0.004"/>
      <stop offset="1" stop-color="red" stop-opacity="0"/>
    </radialGradient>
    <linearGradient id="linear-gradient-6" x1="0.111" y1="0.478" x2="1" y2="0.769" gradientUnits="objectBoundingBox">
      <stop offset="0" stop-color="#fff" stop-opacity="0.02"/>
      <stop offset="1" stop-opacity="0.078"/>
    </linearGradient>
    <linearGradient id="linear-gradient-7" x1="0.677" y1="0.739" x2="0.38" y2="0.295" gradientUnits="objectBoundingBox">
      <stop offset="0" stop-opacity="0.039"/>
      <stop offset="1" stop-opacity="0.137"/>
    </linearGradient>
    <linearGradient id="linear-gradient-8" x1="0.603" y1="0.584" x2="0" y2="0.736" gradientUnits="objectBoundingBox">
      <stop offset="0" stop-color="#fff" stop-opacity="0.173"/>
      <stop offset="1" stop-opacity="0.145"/>
    </linearGradient>
    <filter id="Laptop-Base_Gradient" x="2396.269" y="1416.766" width="115.904" height="86.992" filterUnits="userSpaceOnUse">
      <feOffset dx="-1" dy="1" input="SourceAlpha"/>
      <feGaussianBlur stdDeviation="2.5" result="blur-13"/>
      <feFlood flood-opacity="0.075"/>
      <feComposite operator="in" in2="blur-13"/>
      <feComposite in="SourceGraphic"/>
    </filter>
    <linearGradient id="linear-gradient-9" x1="0.5" y1="0.101" x2="0.5" y2="0.689" gradientUnits="objectBoundingBox">
      <stop offset="0" stop-opacity="0.157"/>
      <stop offset="1" stop-opacity="0"/>
    </linearGradient>
    <linearGradient id="linear-gradient-10" x1="0.871" x2="0.85" y2="0.217" gradientUnits="objectBoundingBox">
      <stop offset="0" stop-opacity="0.192"/>
      <stop offset="1" stop-opacity="0"/>
    </linearGradient>
    <filter id="Sleeve_Highlight" x="2523.975" y="1353.306" width="67.727" height="84.71" filterUnits="userSpaceOnUse">
      <feOffset dy="2" input="SourceAlpha"/>
      <feGaussianBlur stdDeviation="3.5" result="blur-14"/>
      <feFlood flood-opacity="0.039"/>
      <feComposite operator="in" in2="blur-14"/>
      <feComposite in="SourceGraphic"/>
    </filter>
    <radialGradient id="radial-gradient-5" cx="0.529" cy="0.433" r="0.376" gradientTransform="matrix(-1, 0, 0, 1, 1.057, 0)" gradientUnits="objectBoundingBox">
      <stop offset="0" stop-color="#fff" stop-opacity="0.176"/>
      <stop offset="1" stop-color="#fff" stop-opacity="0.102"/>
    </radialGradient>
    <filter id="Value-2" x="2626.071" y="1115.656" width="77.205" height="77.204" filterUnits="userSpaceOnUse">
      <feOffset dy="1" input="SourceAlpha"/>
      <feGaussianBlur stdDeviation="5" result="blur-15"/>
      <feFlood flood-color="#1a202c" flood-opacity="0.145"/>
      <feComposite operator="in" in2="blur-15"/>
      <feComposite in="SourceGraphic"/>
    </filter>
    <clipPath id="clip-hosted-repo-header">
      <rect width="4745" height="1750"/>
    </clipPath>
  </defs>
  <g id="hosted-repo-header" clip-path="url(#clip-hosted-repo-header)">
    <rect width="4745" height="1750" fill="#fff"/>
    <path id="Wave" d="M4745,0V589.266c0,70.355-148.93,160.09-254.57,160.09s-344.437-39.9-544.016-39.9-362.383,87.338-494.148,87.338c-157.418,0-201.289-44.352-297.593-75.393s-356.313-155.1-494.1-161.048c-217.864-9.4-390.355,251.855-619.791,204S1765,796.792,1647.506,796.792a81.454,81.454,0,0,1-13.9-1.179c-54.706-3.285-96.7-18.391-138.868-30.12-47.574-13.234-156.359-51.751-296.922-51.751-139.157,0-319.3,39.809-477.027,35.615S371.223,729.133,0,800V0Z" transform="translate(0 950)" fill="url(#linear-gradient)"/>
    <g id="Illustration" transform="translate(2271.673 1084.259)">
      <g id="Hosted-Repo-Illustration" transform="translate(755) rotate(180)">
        <g id="Leaves-left" transform="translate(529.425 -300.784) rotate(-16)">
          <path id="Bottom-Leaf" d="M-141.544,52.425a47.064,47.064,0,0,1,2.875-10.275,66.182,66.182,0,0,1,37.81-38.635C-86.212-2.164-71.2.057-56.285,3.074c1.481.3,2.915.7,4.37,1.086.312.082.6.142.864.193a1.937,1.937,0,0,1,2.534.1,100.261,100.261,0,0,1,12.521-.408c12.383.343,25,.7,35.995,6.942A173.656,173.656,0,0,0-20.434,7.172c-.391-.052-.781-.1-1.17-.137l-.123-.014a44.965,44.965,0,0,0-6.308-.189l-.068,0c-.278.011-.556.029-.834.045-.575.033-1.152.073-1.73.126q-.3.026-.592.042c-2.939.164-6-.392-8.988-.368q-1.026.025-2.055.084l-.121.008c-1.847.11-3.7.3-5.547.533a6.244,6.244,0,0,1-2.176.387,12.073,12.073,0,0,1-1.918.282c-1.046.153-2.092.3-3.137.462l.03-.036q-1.516.254-3.02.511l-.662.114-1.058.19c-3.293.592-6.563,1.3-9.821,2.076-1.163.278-3.029,1.256-4.2,1.165-.044,0-.081-.014-.122-.021a64.29,64.29,0,0,0-18.225,8.292c.877-.386,3.585-.917,4.151-1.109,1.733-.587,3.4-1.3,5.089-2.007a88.516,88.516,0,0,1,9.235-3.39A144.959,144.959,0,0,1-56.373,10.4c.038-.015.075-.034.113-.048,2.118-.773,4.911-.757,7.138-1.072-3.089,3.216-5.7,7.049-8.626,10.434a104.134,104.134,0,0,1-9.293,9.554A134.573,134.573,0,0,1-81.348,40.651,61.078,61.078,0,0,1-98.6,50c-7.21,2.713-14.335,5.021-22.053,5.308a57.426,57.426,0,0,1-11.372-.657c-.163-.027-.342-.05-.528-.074a35.926,35.926,0,0,1-4.3.343c-2.276.039-5.1,1.008-4.69-2.493" transform="matrix(-0.921, -0.391, 0.391, -0.921, 28.517, -76.186)" fill="#c2eff2"/>
          <g id="Twisted_Leaf" data-name="Twisted Leaf">
            <path id="Twisted_Leaf-2" data-name="Twisted Leaf" d="M-146.544.986A63.9,63.9,0,0,1-135.091,0,227.307,227.307,0,0,1-99.679,2.953c7.371,1.181,16.282,5.157,23.614,3,12.774-3.762,25.684-3.577,37.8,1.794,11.08,4.911,19.492,14.239,24.4,24.317.741,1.521,3.745,7.121,4.6,10.9.364.772.713,1.549,1.028,2.338.894,2.239,1.7,4.518,2.44,6.8.318.974,1.119,3.124.168,3.54a62.623,62.623,0,0,1,3.986,8.048C1.618,71.731-.222,76.927-5,64.873c-3.09-7.795-8.166-14.926-13.853-21.384A57.118,57.118,0,0,0-34.7,30.678a256.113,256.113,0,0,0-24.135-11.1c-5.375-2.261-10.756-4.462-16.281-6.41-1.229-.434-3.162-1.545-4.524-1.549-2.881-.01-6.963,1.963-9.745,2.7-9.152,2.414-18.421,5.506-27.88,6.739a38.55,38.55,0,0,1-17.425-1.975,16.76,16.76,0,0,1-2.742-1.387A40.717,40.717,0,0,1-149.1,11.564,44.635,44.635,0,0,1-154.568,6.1a2.742,2.742,0,0,1-.721-1.8c-.375-.182-.624-.394-.68-.642-.413-1.831,3.351-1.865,5.761-1.756A12.08,12.08,0,0,1-146.544.986Z" transform="matrix(-0.899, -0.438, 0.438, -0.899, 2.513, -69.164)" fill="#c2edf0"/>
            <path id="Twisted_Leaf-3" data-name="Twisted Leaf" d="M-146.544.986A63.9,63.9,0,0,1-135.091,0,227.307,227.307,0,0,1-99.679,2.953c7.371,1.181,16.282,5.157,23.614,3,12.774-3.762,25.684-3.577,37.8,1.794,11.08,4.911,19.492,14.239,24.4,24.317.741,1.521,3.745,7.121,4.6,10.9.364.772.713,1.549,1.028,2.338.894,2.239,1.7,4.518,2.44,6.8.318.974,1.119,3.124.168,3.54a62.623,62.623,0,0,1,3.986,8.048C1.618,71.731-.222,76.927-5,64.873c-3.09-7.795-8.166-14.926-13.853-21.384A57.118,57.118,0,0,0-34.7,30.678a256.113,256.113,0,0,0-24.135-11.1c-5.375-2.261-10.756-4.462-16.281-6.41-1.229-.434-3.162-1.545-4.524-1.549-2.881-.01-6.963,1.963-9.745,2.7-9.152,2.414-18.421,5.506-27.88,6.739a38.55,38.55,0,0,1-17.425-1.975,16.76,16.76,0,0,1-2.742-1.387A40.717,40.717,0,0,1-149.1,11.564,44.635,44.635,0,0,1-154.568,6.1a2.742,2.742,0,0,1-.721-1.8c-.375-.182-.624-.394-.68-.642-.413-1.831,3.351-1.865,5.761-1.756A12.08,12.08,0,0,1-146.544.986Z" transform="matrix(-0.899, -0.438, 0.438, -0.899, 2.513, -69.164)" fill="none"/>
          </g>
          <g id="Leaf-L-2" transform="translate(81.47 -34.368) rotate(-159)">
            <g id="Path-2" data-name="Path">
              <path id="Path-3" data-name="Path" d="M86.28,26.232c-.064-2.2-5.678-9.631-14.822-12.081-8.806-2.36-22.308-3.343-34.222-6.536C30.609,5.84,28.919,2.753,21.033.64,8.466-2.727,1.468,8.083.356,12.232-1.281,18.34,3.1,23.015,5.887,23.762c3.886,1.041,7.129.738,11.43,1.89,8.406,2.252,8.678,5.452,16,7.086,21.42,4.762,44.463,1.573,51.217-4.847Z" transform="translate(0 0)" fill="#bdf5f3"/>
              <path id="Path-4" data-name="Path" d="M86.28,26.232c-.064-2.2-5.678-9.631-14.822-12.081-8.806-2.36-22.308-3.343-34.222-6.536C30.609,5.84,28.919,2.753,21.033.64,8.466-2.727,1.468,8.083.356,12.232-1.281,18.34,3.1,23.015,5.887,23.762c3.886,1.041,7.129.738,11.43,1.89,8.406,2.252,8.678,5.452,16,7.086,21.42,4.762,44.463,1.573,51.217-4.847Z" transform="translate(0 0)" fill="none"/>
            </g>
            <path id="Path-5" data-name="Path" d="M52.018,10.427C48.125,8.761,14.39-2.9,0,.68" transform="translate(33.286 15.599)" fill="none" stroke="rgba(255,255,255,0.07)" stroke-linecap="round" stroke-linejoin="round" stroke-miterlimit="10" stroke-width="4"/>
          </g>
        </g>
        <g id="Pie_Chart" data-name="Pie Chart" transform="translate(249 -17) rotate(-180)">
          <path id="Value-3" data-name="Value" d="M59.457,58.454C59.457,26.31,33.351,0,1.457,0L0,59l40.457,42.215A58.82,58.82,0,0,0,59.457,58.454Z" transform="translate(57.543)" fill="#a8f7f4"/>
          <path id="Value-4" data-name="Value" d="M58.216,0H0A58.228,58.228,0,0,0,15.843,39.637,58.508,58.508,0,0,0,58.216,58,59.307,59.307,0,0,0,98,42.215Z" transform="translate(0 59)" fill="#9aedeb"/>
          <path id="Path-6" data-name="Path" d="M59,0l-.784,59H0C0,27.106,27.381,0,59,0Z" fill="#b9faf7"/>
          <g transform="matrix(1, 0, 0, 1, -2777.67, -1101.26)" filter="url(#Path)">
            <path id="Path-7" data-name="Path" d="M25.333,0C38.518,5.557,51.007,16.575,56.758,31.044l.242.622L0,57Z" transform="translate(2835.54 1103.86)" fill="#c7fffa"/>
          </g>
        </g>
        <g id="Leaf-L-1" transform="matrix(-0.921, 0.391, -0.391, -0.921, 674.902, -311.112)">
          <g id="Path-8" data-name="Path">
            <path id="Path-9" data-name="Path" d="M123.75,157.539c-2.826,1.98-68.514-33.106-77.679-49.46l-.694-1.248C35.91,89.661,31.741,76.7,28.363,71.764c-6.135-8.959-34.341-21.819-27.219-51.2C3.009,12.864,13.471-3.372,39.982.623l.808.127c8.9,1.465,22.584,3.394,37.226,27.613,9.867,16.314,1.631,30.66,11.9,50.077,7.391,13.978,22.94,16.9,33.269,30.966C131.433,120.651,140.071,146.087,123.75,157.539Z" transform="translate(54.887 0.547) rotate(20)" fill="#c7eff2"/>
            <path id="Path-10" data-name="Path" d="M123.75,157.539c-2.826,1.98-68.514-33.106-77.679-49.46l-.694-1.248C35.91,89.661,31.741,76.7,28.363,71.764c-6.135-8.959-34.341-21.819-27.219-51.2C3.009,12.864,13.471-3.372,39.982.623l.808.127c8.9,1.465,22.584,3.394,37.226,27.613,9.867,16.314,1.631,30.66,11.9,50.077,7.391,13.978,22.94,16.9,33.269,30.966C131.433,120.651,140.071,146.087,123.75,157.539Z" transform="translate(54.887 0.547) rotate(20)" fill="none"/>
          </g>
          <path id="Path-11" data-name="Path" d="M87.572,110.762C70.232,105.656,5.7,25.963,0,0" transform="matrix(0.951, 0.309, -0.309, 0.951, 69.394, 50.26)" fill="none" stroke="rgba(255,255,255,0.15)" stroke-linecap="round" stroke-miterlimit="10" stroke-width="4"/>
        </g>
        <g id="Compound-Leaf-Left">
          <path id="Compound-Leaf-Left-2" data-name="Compound-Leaf-Left" d="M-28.414,229.4a8.481,8.481,0,0,0,3.007-2.8,21.92,21.92,0,0,1-3.008,2.8Zm2.439-2.649a46.375,46.375,0,0,0,8.29-15.531,91.569,91.569,0,0,0,3.83-17.109,82.815,82.815,0,0,0-1.716-29.1c1.32-1.166,3.951-1.838,6.736-2.549,3.768-.961,7.664-1.956,8.616-4.284.451-1.1.211-2.4-.734-3.958a5.718,5.718,0,0,0-5.076-2.793,9.113,9.113,0,0,0-6.46,2.9c-1.643,1.777-2.818,4.773-3.492,8.907-.69-2.891-1.5-5.839-2.414-8.763-1.1-3.535-2.368-7.323-3.991-11.921a23,23,0,0,0,8.438-4.426c2.982-2.374,5.031-4.97,5.77-7.31a4.8,4.8,0,0,0-.915-4.959,5.03,5.03,0,0,0-3.6-2c-4.892,0-8.395,11.107-9.713,15.289-.131.416-.244.773-.331,1.034a.623.623,0,0,0,.342.113.541.541,0,0,0,.168-.027c-.243.288-.476.553-.694.786-.831-2.337-1.689-4.71-2.519-7-1.847-5.107-3.756-10.386-5.5-15.626a7.567,7.567,0,0,0,1.792-.709c.469-.223.953-.454,1.348-.6A30.644,30.644,0,0,0-21.4,114.1l.326-.219c1.635-1.119,4.446-3.392,4.9-6.048a4.521,4.521,0,0,0-.911-3.523,3.984,3.984,0,0,0-3.286-1.847c-2.509,0-5.3,2.443-6.656,4.742a25.318,25.318,0,0,0-1.956,4.613c-.253.727-.514,1.478-.8,2.208a8.026,8.026,0,0,1-.492.879c-.437.724-.981,1.624-.832,1.888a.171.171,0,0,0,.163.077,1.159,1.159,0,0,0,.436-.13,7.3,7.3,0,0,0-.634,1.038c-.421-1.276-.865-2.66-1.318-4.114a1.268,1.268,0,0,0,.287-.31,1.142,1.142,0,0,0,.107-1.13,1.411,1.411,0,0,0-1.077-.784c-.607-2.022-1.125-3.834-1.582-5.537-1.192-4.439-2.209-8.371-3.108-12.02a1.686,1.686,0,0,0,.906-.557,1.814,1.814,0,0,1,.853-.556,2.778,2.778,0,0,1,.667-.068c.27,0,.56.023.841.045h.011c.27.022.576.046.856.046a3.449,3.449,0,0,0,.435-.024,16.6,16.6,0,0,0,6.228-2.354l.293-.183c2.483-1.582,5.25-4.187,5.568-6.755a3.984,3.984,0,0,0-1.191-3.326,4.728,4.728,0,0,0-3.53-1.593,7.929,7.929,0,0,0-4.4,1.618,14.661,14.661,0,0,0-3.387,3.336l-.109.153a101.163,101.163,0,0,0-4.264,9.317c-2.094-8.581-3.625-16.025-4.68-22.757a6.377,6.377,0,0,0,2.667.37,26.477,26.477,0,0,0,4.742-.427l.3-.078c1.071-.292,4.643-1.421,5.635-3.673a3.166,3.166,0,0,0-.185-2.826A4.67,4.67,0,0,0-34,61.2a8.616,8.616,0,0,0-4.731,1.458,39.817,39.817,0,0,0-4.328,5.37c-.477-3.3-.842-6.452-1.084-9.375-.167-1.992-.255-4.057-.259-6.135h.016a2.346,2.346,0,0,0,.927-.24,8.841,8.841,0,0,0,3.045.491,12.964,12.964,0,0,0,5.026-1.031,6.717,6.717,0,0,0,3.4-2.786,3.746,3.746,0,0,0-.523-4.048A4.514,4.514,0,0,0-36.4,43.147a10.3,10.3,0,0,0-4.538,1.17,26.173,26.173,0,0,0-3.082,3.169l-.251.28a97.614,97.614,0,0,1,3.21-19.4,1.279,1.279,0,0,0,.357.052,1.122,1.122,0,0,0,.949-.518l.753,0h.17a14.576,14.576,0,0,0,7.3-1.519l.222-.118c1.017-.547,3.411-2,3.684-3.717a2.292,2.292,0,0,0-.729-1.981,3.62,3.62,0,0,0-2.719-1.152c-2.9,0-6.325,2.828-7.726,4.74l-.112.164c-.3.459-.826,1.4-1.115,1.913a1.443,1.443,0,0,0-.387-.215c1.072-3.721,2.383-7.592,3.9-11.5a.864.864,0,0,0,.183.019c.765,0,1.953-.947,3.347-2.666,2.393-2.952,5.046-7.835,4.73-9.325C-28.609.88-29.421,0-30.607,0c-1.749,0-4.028,1.961-4.9,3.714a18.5,18.5,0,0,0-1.531,9.559l.04.606c0,.042.007.066.019.066s.038-.035.083-.1c.027-.039.069-.1.121-.167a.83.83,0,0,0-.059.5c-.25.384-.51.773-.761,1.15l-.007.011a32.9,32.9,0,0,0-2.045,3.327A121.59,121.59,0,0,0-45.163,31.42c-.381,1.038-.743,2.108-1.076,3.182a27.285,27.285,0,0,0-2.935-5.627c-1.634-2.245-4.178-4.921-7.021-4.921a4.541,4.541,0,0,0-.56.035,4.117,4.117,0,0,0-2.893,1.688,4.473,4.473,0,0,0-.672,3.526c.607,2.838,3.628,4.625,6.192,5.865l1.052.5c1.842.854,4.243,1.873,5.224,1.873.208,0,.343-.047.4-.14s.043-.229-.044-.41a5.463,5.463,0,0,1,.411.593c-.135.518-.268,1.061-.4,1.615l-.135,0,.133.006A61.09,61.09,0,0,0-49,55.71a14.514,14.514,0,0,0-2.553-2.54,10.533,10.533,0,0,0-5.732-1.815,4,4,0,0,0-3.185,1.169,3.684,3.684,0,0,0-.555,3.127,5.107,5.107,0,0,0,3.069,3.9,19.478,19.478,0,0,0,5.266,1.286,20.376,20.376,0,0,1,4.183.914A197.552,197.552,0,0,0-45.069,82.82a1.278,1.278,0,0,0-.28-.032,1.092,1.092,0,0,0-.612.181c-.35-.532-.693-1.109-1.025-1.667a15.613,15.613,0,0,0-2.551-3.541c-1.492-1.338-5.061-3.868-7.887-3.868a3.784,3.784,0,0,0-1.268.2,3,3,0,0,0-2.186,2.173A4.848,4.848,0,0,0-58.9,80.446c2.948,2.546,7.992,3.538,12.044,4.335l.789.156a1.4,1.4,0,0,0,.88.334,1.11,1.11,0,0,0,.391-.07l.265.058c1.521,6.824,3.254,13.464,4.594,18.487l.611,2.281-.136-.089a13.572,13.572,0,0,0-2.7-3.765A16.632,16.632,0,0,0-46,99.389,9.873,9.873,0,0,0-50.5,98.209a7.956,7.956,0,0,0-1.574.157,7.691,7.691,0,0,0-5.04,3.386,5.583,5.583,0,0,0-.588,4.56c.747,2.566,2.807,3.814,6.3,3.814a32.8,32.8,0,0,0,6.685-.937l.928-.2a24.033,24.033,0,0,1,4.315-.732,2.356,2.356,0,0,1,.788.107c2.052,7.47,4.624,14.805,6.636,20.361a9.749,9.749,0,0,0-1.463-1.292c-1.775-1.263-5.113-2.112-8.307-2.112a13.66,13.66,0,0,0-4.165.589,5.927,5.927,0,0,0-2.98,1.946,5.067,5.067,0,0,0-.563,4.629c.736,2.608,2.56,3.875,5.575,3.876,2.628,0,5.821-.963,8.639-1.813a41.366,41.366,0,0,1,4.924-1.286l1.988,5.386c1.5,4.068,3.231,8.8,4.825,13.518a14.8,14.8,0,0,0-7.24-4.124l-.515-.115a15.8,15.8,0,0,0-3.2-.361,6.574,6.574,0,0,0-3.407.77,3.6,3.6,0,0,0-1.719,2.974c-.366,4.479,5.472,5.857,8.984,6.279a15.972,15.972,0,0,0,1.819.07c.337,0,.687,0,1.058-.006h.049c.421,0,.8-.007,1.2-.007a26.536,26.536,0,0,1,4.852.34,100.156,100.156,0,0,1,4.78,32.213,86.809,86.809,0,0,1-2.826,19.438l-.5,1.89-.2.763c-1.163,4.4-2.756,10.433-5.522,14.465Zm-13.815-208v0c-.2-.181.057-1.738.3-3.243a16.818,16.818,0,0,0,.307-2.438,14.745,14.745,0,0,0-2.6-6.752,5.485,5.485,0,0,0-4.353-2.534,3.21,3.21,0,0,0-2.256.861A4.453,4.453,0,0,0-49.623,7.42c-.284,2.311.806,4.623,3.241,6.872A33.469,33.469,0,0,0-39.79,18.746Z" transform="translate(421.675 -108.019) rotate(164)" fill="#aef2f0"/>
          <path id="Compound-Leaf-Left-3" data-name="Compound-Leaf-Left" d="M-28.414,229.4a8.481,8.481,0,0,0,3.007-2.8,21.92,21.92,0,0,1-3.008,2.8Zm2.439-2.649a46.375,46.375,0,0,0,8.29-15.531,91.569,91.569,0,0,0,3.83-17.109,82.815,82.815,0,0,0-1.716-29.1c1.32-1.166,3.951-1.838,6.736-2.549,3.768-.961,7.664-1.956,8.616-4.284.451-1.1.211-2.4-.734-3.958a5.718,5.718,0,0,0-5.076-2.793,9.113,9.113,0,0,0-6.46,2.9c-1.643,1.777-2.818,4.773-3.492,8.907-.69-2.891-1.5-5.839-2.414-8.763-1.1-3.535-2.368-7.323-3.991-11.921a23,23,0,0,0,8.438-4.426c2.982-2.374,5.031-4.97,5.77-7.31a4.8,4.8,0,0,0-.915-4.959,5.03,5.03,0,0,0-3.6-2c-4.892,0-8.395,11.107-9.713,15.289-.131.416-.244.773-.331,1.034a.623.623,0,0,0,.342.113.541.541,0,0,0,.168-.027c-.243.288-.476.553-.694.786-.831-2.337-1.689-4.71-2.519-7-1.847-5.107-3.756-10.386-5.5-15.626a7.567,7.567,0,0,0,1.792-.709c.469-.223.953-.454,1.348-.6A30.644,30.644,0,0,0-21.4,114.1l.326-.219c1.635-1.119,4.446-3.392,4.9-6.048a4.521,4.521,0,0,0-.911-3.523,3.984,3.984,0,0,0-3.286-1.847c-2.509,0-5.3,2.443-6.656,4.742a25.318,25.318,0,0,0-1.956,4.613c-.253.727-.514,1.478-.8,2.208a8.026,8.026,0,0,1-.492.879c-.437.724-.981,1.624-.832,1.888a.171.171,0,0,0,.163.077,1.159,1.159,0,0,0,.436-.13,7.3,7.3,0,0,0-.634,1.038c-.421-1.276-.865-2.66-1.318-4.114a1.268,1.268,0,0,0,.287-.31,1.142,1.142,0,0,0,.107-1.13,1.411,1.411,0,0,0-1.077-.784c-.607-2.022-1.125-3.834-1.582-5.537-1.192-4.439-2.209-8.371-3.108-12.02a1.686,1.686,0,0,0,.906-.557,1.814,1.814,0,0,1,.853-.556,2.778,2.778,0,0,1,.667-.068c.27,0,.56.023.841.045h.011c.27.022.576.046.856.046a3.449,3.449,0,0,0,.435-.024,16.6,16.6,0,0,0,6.228-2.354l.293-.183c2.483-1.582,5.25-4.187,5.568-6.755a3.984,3.984,0,0,0-1.191-3.326,4.728,4.728,0,0,0-3.53-1.593,7.929,7.929,0,0,0-4.4,1.618,14.661,14.661,0,0,0-3.387,3.336l-.109.153a101.163,101.163,0,0,0-4.264,9.317c-2.094-8.581-3.625-16.025-4.68-22.757a6.377,6.377,0,0,0,2.667.37,26.477,26.477,0,0,0,4.742-.427l.3-.078c1.071-.292,4.643-1.421,5.635-3.673a3.166,3.166,0,0,0-.185-2.826A4.67,4.67,0,0,0-34,61.2a8.616,8.616,0,0,0-4.731,1.458,39.817,39.817,0,0,0-4.328,5.37c-.477-3.3-.842-6.452-1.084-9.375-.167-1.992-.255-4.057-.259-6.135h.016a2.346,2.346,0,0,0,.927-.24,8.841,8.841,0,0,0,3.045.491,12.964,12.964,0,0,0,5.026-1.031,6.717,6.717,0,0,0,3.4-2.786,3.746,3.746,0,0,0-.523-4.048A4.514,4.514,0,0,0-36.4,43.147a10.3,10.3,0,0,0-4.538,1.17,26.173,26.173,0,0,0-3.082,3.169l-.251.28a97.614,97.614,0,0,1,3.21-19.4,1.279,1.279,0,0,0,.357.052,1.122,1.122,0,0,0,.949-.518l.753,0h.17a14.576,14.576,0,0,0,7.3-1.519l.222-.118c1.017-.547,3.411-2,3.684-3.717a2.292,2.292,0,0,0-.729-1.981,3.62,3.62,0,0,0-2.719-1.152c-2.9,0-6.325,2.828-7.726,4.74l-.112.164c-.3.459-.826,1.4-1.115,1.913a1.443,1.443,0,0,0-.387-.215c1.072-3.721,2.383-7.592,3.9-11.5a.864.864,0,0,0,.183.019c.765,0,1.953-.947,3.347-2.666,2.393-2.952,5.046-7.835,4.73-9.325C-28.609.88-29.421,0-30.607,0c-1.749,0-4.028,1.961-4.9,3.714a18.5,18.5,0,0,0-1.531,9.559l.04.606c0,.042.007.066.019.066s.038-.035.083-.1c.027-.039.069-.1.121-.167a.83.83,0,0,0-.059.5c-.25.384-.51.773-.761,1.15l-.007.011a32.9,32.9,0,0,0-2.045,3.327A121.59,121.59,0,0,0-45.163,31.42c-.381,1.038-.743,2.108-1.076,3.182a27.285,27.285,0,0,0-2.935-5.627c-1.634-2.245-4.178-4.921-7.021-4.921a4.541,4.541,0,0,0-.56.035,4.117,4.117,0,0,0-2.893,1.688,4.473,4.473,0,0,0-.672,3.526c.607,2.838,3.628,4.625,6.192,5.865l1.052.5c1.842.854,4.243,1.873,5.224,1.873.208,0,.343-.047.4-.14s.043-.229-.044-.41a5.463,5.463,0,0,1,.411.593c-.135.518-.268,1.061-.4,1.615l-.135,0,.133.006A61.09,61.09,0,0,0-49,55.71a14.514,14.514,0,0,0-2.553-2.54,10.533,10.533,0,0,0-5.732-1.815,4,4,0,0,0-3.185,1.169,3.684,3.684,0,0,0-.555,3.127,5.107,5.107,0,0,0,3.069,3.9,19.478,19.478,0,0,0,5.266,1.286,20.376,20.376,0,0,1,4.183.914A197.552,197.552,0,0,0-45.069,82.82a1.278,1.278,0,0,0-.28-.032,1.092,1.092,0,0,0-.612.181c-.35-.532-.693-1.109-1.025-1.667a15.613,15.613,0,0,0-2.551-3.541c-1.492-1.338-5.061-3.868-7.887-3.868a3.784,3.784,0,0,0-1.268.2,3,3,0,0,0-2.186,2.173A4.848,4.848,0,0,0-58.9,80.446c2.948,2.546,7.992,3.538,12.044,4.335l.789.156a1.4,1.4,0,0,0,.88.334,1.11,1.11,0,0,0,.391-.07l.265.058c1.521,6.824,3.254,13.464,4.594,18.487l.611,2.281-.136-.089a13.572,13.572,0,0,0-2.7-3.765A16.632,16.632,0,0,0-46,99.389,9.873,9.873,0,0,0-50.5,98.209a7.956,7.956,0,0,0-1.574.157,7.691,7.691,0,0,0-5.04,3.386,5.583,5.583,0,0,0-.588,4.56c.747,2.566,2.807,3.814,6.3,3.814a32.8,32.8,0,0,0,6.685-.937l.928-.2a24.033,24.033,0,0,1,4.315-.732,2.356,2.356,0,0,1,.788.107c2.052,7.47,4.624,14.805,6.636,20.361a9.749,9.749,0,0,0-1.463-1.292c-1.775-1.263-5.113-2.112-8.307-2.112a13.66,13.66,0,0,0-4.165.589,5.927,5.927,0,0,0-2.98,1.946,5.067,5.067,0,0,0-.563,4.629c.736,2.608,2.56,3.875,5.575,3.876,2.628,0,5.821-.963,8.639-1.813a41.366,41.366,0,0,1,4.924-1.286l1.988,5.386c1.5,4.068,3.231,8.8,4.825,13.518a14.8,14.8,0,0,0-7.24-4.124l-.515-.115a15.8,15.8,0,0,0-3.2-.361,6.574,6.574,0,0,0-3.407.77,3.6,3.6,0,0,0-1.719,2.974c-.366,4.479,5.472,5.857,8.984,6.279a15.972,15.972,0,0,0,1.819.07c.337,0,.687,0,1.058-.006h.049c.421,0,.8-.007,1.2-.007a26.536,26.536,0,0,1,4.852.34,100.156,100.156,0,0,1,4.78,32.213,86.809,86.809,0,0,1-2.826,19.438l-.5,1.89-.2.763c-1.163,4.4-2.756,10.433-5.522,14.465Zm-13.815-208v0c-.2-.181.057-1.738.3-3.243a16.818,16.818,0,0,0,.307-2.438,14.745,14.745,0,0,0-2.6-6.752,5.485,5.485,0,0,0-4.353-2.534,3.21,3.21,0,0,0-2.256.861A4.453,4.453,0,0,0-49.623,7.42c-.284,2.311.806,4.623,3.241,6.872A33.469,33.469,0,0,0-39.79,18.746Z" transform="translate(421.675 -108.019) rotate(164)" fill="url(#linear-gradient-2)"/>
        </g>
        <g id="LineChart" transform="translate(219 -98)">
          <rect id="Value-5" data-name="Value" width="6" height="31" rx="3" transform="translate(6 -40) rotate(-180)" fill="#b9faf7"/>
          <rect id="Value-6" data-name="Value" width="6" height="51" rx="3" transform="translate(20 -20) rotate(-180)" fill="#b9faf7"/>
          <rect id="Value-7" data-name="Value" width="6" height="61" rx="3" transform="translate(34 -10) rotate(-180)" fill="#b9faf7"/>
          <g transform="matrix(-1, 0, 0, -1, 2807.67, 1182.26)" filter="url(#Value)">
            <rect id="Value-8" data-name="Value" width="6" height="51" rx="3" transform="translate(2760.67 1202.26)" fill="#c7fffa"/>
          </g>
          <rect id="Value-9" data-name="Value" width="6" height="71" rx="3" transform="translate(61) rotate(-180)" fill="#b9faf7"/>
        </g>
        <g id="Leaves-right" transform="translate(3 -147)">
          <path id="Leaf_Bottom" data-name="Leaf Bottom" d="M-116.314,14.84a18.07,18.07,0,0,0-4.616,6.425,76.858,76.858,0,0,0-7.906,6.045c-20.749,21.408-8.544,58.9,3.6,81.435A195.651,195.651,0,0,0-112.916,128c2.854,4.076,10.422,19.373,15.226,20.539,7.595,1.845-2.115-10.488-2.892-11.658-4.744-7.152-9.721-14.191-14.173-21.532-13.3-21.933-29.021-60.53-9.906-83.522,1.771-2.132,9.8-7.152,16.546-11.344,2.979-1.143,5.651-1.65,7.141-.819,4.876,2.719-10.671,6.606-12.008,7.257-7.841,3.815-11.157,8.644-4.4,15.806,4.9,5.191,12.077,5.16,18.77,5.381,4.275.142,7.775-2.125,11.971-1.25,19.078,3.976,30.377,12.811,41.537,26.327,8.395,10.166,22.975,27.385,37.357,15.884,11.5-9.193,7.924-28.1,3.728-40.038C-10.289,31.2-22.621,12.737-40.7,5.471-63.135-3.539-97.632-2.086-116.314,14.84Z" transform="translate(13.965 -304) rotate(-180)" fill="#c9f0f5"/>
          <path id="Leaf_Simple" data-name="Leaf Simple" d="M-19.631,0c3.2,0,6.381.064,9.572.229,2.432.126,6.15-.375,8.208,1.132C.287,2.925.14,6.129-.195,8.391c-1.766,11.963-6.076,22.57-15.093,31.046-13.884,13.05-29.8,19.681-48.634,22.634-13.23,2.074-25.443-.806-35.182-10.155a145.276,145.276,0,0,0-15.223,42.3,100.729,100.729,0,0,0-1.509,21.743c.151,4.717.413,9.423.922,14.118.221,2.04,1.268,5.128.464,7.056a3.249,3.249,0,0,1-5.552.553c-1.188-1.607-.97-4.762-1.214-6.663-.4-3.159-.779-6.319-1.047-9.493-.435-5.136-.758-10.287-.734-15.442.054-11.584,2.646-23.212,6.191-34.208,6.8-21.1,17.836-39.843,35-54.553C-71.256,8.285-59.178,4.622-45.475,2.656-36.944,1.432-28.274,0-19.631,0" transform="matrix(-0.999, 0.035, -0.035, -0.999, 43.702, -279.77)" fill="#b9ebed"/>
          <path id="Leaf_compound_bottom" data-name="Leaf compound bottom" d="M-179.822,268.681h0c-.527-6.745,1.711-15.072,3.345-21.152l.144-.537.756-2.848a120.7,120.7,0,0,1,10.022-25.506c6.625-12.377,15.69-23.911,27.712-35.261a44.745,44.745,0,0,1,7.471,3.828,35.973,35.973,0,0,0,3.457,1.914,23.884,23.884,0,0,0,8.755,2.2c3.027,0,5.113-1.176,6.2-3.5a5.09,5.09,0,0,0,.2-4.321c-1.292-2.988-5.5-4.747-7.885-5.53l-.574-.18a19.486,19.486,0,0,0-5.713-.867,22.006,22.006,0,0,0-5.7.794c5.227-4.641,10.637-9.2,15.729-13.48l5.288-4.439a57.018,57.018,0,0,1,4.963,4.948c4.164,4.474,8.884,9.544,13.471,9.545a6.787,6.787,0,0,0,4.8-2.177,8.225,8.225,0,0,0,2.385-3.884,5.983,5.983,0,0,0-.331-3.715c-1.01-2.469-3.565-4.889-7.194-6.812a22.311,22.311,0,0,0-9.555-2.761c-.3,0-.583.013-.85.039a13.155,13.155,0,0,0-2.62.535c11.785-10.017,17.842-15.836,21.8-19.786,1.249.228,3.278,2.106,5.627,4.28,4.042,3.741,9.072,8.4,13.708,8.4a6.5,6.5,0,0,0,4.625-1.97,7.751,7.751,0,0,0,2.422-5.862,10.69,10.69,0,0,0-3.664-7.547,12.847,12.847,0,0,0-8.843-3,23.422,23.422,0,0,0-5.52.7,18.517,18.517,0,0,0-5.783,2.638l-.222.013C-75.175,127.118-67.9,119.7-61,112.109l.353.114a1.71,1.71,0,0,0,1.341.595,2,2,0,0,0,.348-.031l1.016.35.029.01c4.368,1.509,9.8,3.387,14.521,3.387a14.557,14.557,0,0,0,2.734-.243c2.551-.49,4.59-1.909,5.193-3.616a4.164,4.164,0,0,0-1.1-4.131c-1.738-2.058-5.309-2.49-8-2.49a27.12,27.12,0,0,0-5.371.541,21.3,21.3,0,0,0-5.449,2.474c-.775.438-1.577.891-2.357,1.286a1.559,1.559,0,0,0-.956-.8A271.961,271.961,0,0,0-40.207,86.715a27.759,27.759,0,0,1,5.586,1.8c2.654,1.052,5.4,2.14,7.947,2.141a6.815,6.815,0,0,0,5.5-2.587c1.514-1.8,1.912-3.508,1.183-5.073a7.665,7.665,0,0,0-4.041-3.337,15.1,15.1,0,0,0-5.586-1.18,8.784,8.784,0,0,0-1.095.064,19.7,19.7,0,0,0-4.768,1.274,84.818,84.818,0,0,0,9.5-20.808l.057.031a1.053,1.053,0,0,0,.1.053l-.158-.1c.22-.727.434-1.47.635-2.206a8.2,8.2,0,0,1,.736-.363l.157-.064c-.259.179-.367.356-.323.525.111.421,1.156.811,3.106,1.158,1.278.228,2.9.431,4.828.6l1.431.119c1.108.084,2.023.123,2.88.123,4.036,0,6.834-.934,8.552-2.855a6.217,6.217,0,0,0,1.614-4.69,5.711,5.711,0,0,0-2.278-4.019,7.33,7.33,0,0,0-4.565-1.387,19.593,19.593,0,0,0-7.773,1.99l-.146.068a37.247,37.247,0,0,0-7.186,4.638c.34-1.522.643-3.055.9-4.555A169.616,169.616,0,0,0-21.235,29a46.1,46.1,0,0,0-.151-5.41c-.041-.626-.083-1.273-.117-1.91a1.14,1.14,0,0,0,.273-.64c.015.118.024.213.03.283.011.123.016.179.037.179s.025-.014.049-.047l.42-.635a34.705,34.705,0,0,0,3.2-5.973,20.887,20.887,0,0,0,1.574-6.616A10.682,10.682,0,0,0-18.27,1.135,3.145,3.145,0,0,0-20.564,0a4.441,4.441,0,0,0-3.151,1.81c-.741.832-1.211,3.514-1.256,7.174a38.823,38.823,0,0,0,1,9.735c.5,1.824,1.141,2.91,1.863,3.143-.879,5.727-1.971,11.269-3.247,16.471a1.955,1.955,0,0,0-.337-.029,1.968,1.968,0,0,0-.269.019c.02-1.525.015-2.569-.016-3.1l-.018-.233a19.912,19.912,0,0,0-2.541-7.369c-1.183-2-3.173-4.374-5.935-4.374a5.145,5.145,0,0,0-1.461.219,3.149,3.149,0,0,0-2.214,1.848c-.824,2.131.752,5.254,1.765,6.927l.24.387a20.114,20.114,0,0,0,7.654,6.891l1.064.612a1.582,1.582,0,0,0,1.231,1.462,135.685,135.685,0,0,1-9.464,25.45l-.1-.5A36.445,36.445,0,0,0-37.251,60.6,14.835,14.835,0,0,0-40.7,56.823a8.008,8.008,0,0,0-4.729-1.844,5.255,5.255,0,0,0-2.218.489c-2.513,1.162-3.669,3.073-3.342,5.529.605,4.542,6.3,10.031,11.284,10.877a3.2,3.2,0,0,0,.955.94c-1.421,2.477-2.937,4.888-4.505,7.167-2.279,3.323-4.87,6.847-7.7,10.474a55.554,55.554,0,0,0-1.461-9.425,12.019,12.019,0,0,0-3.423-4.21,8.38,8.38,0,0,0-4.98-1.932,5.632,5.632,0,0,0-3.111.932,4.375,4.375,0,0,0-2.153,3.255c-.368,3.409,3.137,7.249,4.219,8.345l.257.255c1.107,1.079,6.765,5.178,8.752,5.2-5.853,7.323-12.762,15.176-21.123,24.007.592-3.374,1.343-12.4,1.322-13.946l-.006-.159a19.619,19.619,0,0,0-2.532-8.06c-1.2-2-3.294-4.382-6.5-4.382a7.375,7.375,0,0,0-2.122.329A5.466,5.466,0,0,0-87.49,93.8c-1.4,3.323.125,8.4,2.022,12.038l.18.338a22.948,22.948,0,0,0,5.779,7.131,9.047,9.047,0,0,0,1.548.869,6.973,6.973,0,0,1,1.787,1.077,2.521,2.521,0,0,1,.631,1.256,2.344,2.344,0,0,0,.693,1.3c-3.522,3.705-7.419,7.71-11.912,12.242-1.711,1.727-3.564,3.537-5.665,5.533a1.915,1.915,0,0,0-.727-.141,1.806,1.806,0,0,0-1.313.532,1.612,1.612,0,0,0-.419,1.229,1.743,1.743,0,0,0,.128.571c-1.535,1.429-2.967,2.742-4.378,4.014a8.373,8.373,0,0,0-.007-1.211l-.036-.471c.235.334.43.5.578.5a.2.2,0,0,0,.146-.066c.306-.312.278-1.69.256-2.8-.009-.449-.018-.872,0-1.166l.02-.227c.156-1.076.36-2.157.558-3.2a35.354,35.354,0,0,0,.835-6.874,16.252,16.252,0,0,0-1.79-7.079c-.95-1.774-2.652-3.889-5.368-3.889a6.534,6.534,0,0,0-2.657.621,6.218,6.218,0,0,0-3.487,3.573,9.875,9.875,0,0,0-.163,5.383,23.492,23.492,0,0,0,1.871,5.338l.2.414a42.488,42.488,0,0,0,5.523,8.034c.371.446.787,1.056,1.189,1.647a10.492,10.492,0,0,0,1.642,2.09c-5.662,5.08-11.556,10.094-17.255,14.942-2.538,2.159-5.162,4.391-7.738,6.606-.1-.432-.192-.9-.284-1.421a.759.759,0,0,0,.6.253l.067,0c.075-.373.186-.877.313-1.462a96.077,96.077,0,0,0,2.035-12.145c.49-5.708-.116-9.664-1.8-11.757a4.748,4.748,0,0,0-3.891-1.779,9.926,9.926,0,0,0-3.039.547,6.6,6.6,0,0,0-4.47,5.265,16.506,16.506,0,0,0-.035,6.038,32.748,32.748,0,0,0,1.862,6.723,31.9,31.9,0,0,0,6.992,11.164c-5.057,4.37-9.153,8.028-12.892,11.511-3.1,2.884-6.076,5.852-8.859,8.822,2.029-5.416,2.684-9.818,1.95-13.081a13.057,13.057,0,0,0-3.557-6.312,9.137,9.137,0,0,0-6.277-2.813,7.753,7.753,0,0,0-3.78,1.013c-2.185,1.214-3.356,2.595-3.578,4.222-.471,3.45,3.475,7.34,7.291,11.1,2.819,2.779,5.481,5.4,6.249,7.713a133.662,133.662,0,0,0-12.431,15.834,102.915,102.915,0,0,0-9.515,17.819,127.444,127.444,0,0,0-7.161,23.136C-180.864,253.516-181.129,261.705-179.822,268.681ZM-18.255,29.829h0A37.06,37.06,0,0,0-8.087,28.682c3.791-1.1,6.3-3.026,7.443-5.731.889-2.095.859-3.957-.087-5.385A5.833,5.833,0,0,0-5.7,15.25a8.331,8.331,0,0,0-3.68.868,20.646,20.646,0,0,0-7.877,6.367,23.518,23.518,0,0,0-1.336,3.173c-.77,2.027-1.566,4.124-1.921,4.143l.066,0C-19.914,29.814-19.109,29.829-18.255,29.829Z" transform="translate(49.993 -82.155) rotate(-180)" fill="#aeebe9"/>
          <path id="Leaf_compound_top" data-name="Leaf compound top" d="M-97.154,285.163l-.232-2.572a120.585,120.585,0,0,1,.694-27.4c2.167-15.113,7.2-29.105,13.98-42.612,4.275-.058,9.739,1.511,12.233,1.658,4.572.268,13.047-.047,13.608-6.338.552-6.186-6.842-6.843-11.187-6.6a20.026,20.026,0,0,0-10.749,3.835c2.738-5.062,5.579-10.066,8.447-15.055l5.174-8.972c7.713,2.714,21.317,13.549,26.05,3.624,5.431-11.39-13.817-13.95-20.467-10.783a13.281,13.281,0,0,0-2.28,1.4c4.853-8.53,9.553-17.143,13.721-26.049,1.5-.257,4.806,1.309,8.618,2.874,6.5,2.668,14.471,5.334,17.558-1.009,2.448-5.029-.917-10.25-5.753-12.175-4.856-1.934-10.168.005-14.285,2.75a18.606,18.606,0,0,0-4.531,4.456l-.2.087c4.076-8.831,8.14-17.822,11.882-26.952l.372-.013a1.774,1.774,0,0,0,1.78-.048c5.69-.105,13.505-.042,18.394-2.965,3.372-2.016,5.587-6.164,1.2-8.681-3.569-2.047-10.183.841-13.23,2.742-2.111,1.318-4.033,4.05-6.048,6.2a1.564,1.564,0,0,0-1.171-.421,273.785,273.785,0,0,0,9.558-27.788,28,28,0,0,1,5.9-.219c5.075.145,10.513.289,12.449-5.018,2.863-7.852-7.915-7.9-12.223-5.688a19.922,19.922,0,0,0-4.045,2.828,84.481,84.481,0,0,0,1.808-22.8l.182.024-.182-.037q-.065-1.146-.158-2.291a8.094,8.094,0,0,1,.568-.592l.127-.114c-1.317,1.854,5.04.313,7.933-.454l1.955-.54c3.548-1.037,7.8-2.711,9.24-6.315a5.833,5.833,0,0,0-3.6-7.957c-4.165-1.305-8.643,2.122-11.388,4.786l-.115.113A37.3,37.3,0,0,0-20.746,50.9q-.3-2.3-.713-4.588A169.479,169.479,0,0,0-25.94,27.631,72.254,72.254,0,0,0-28.7,20.844a1.145,1.145,0,0,0,.039-.695c.192.374.207.5.248.35l.178-.74c1.028-4.375,1.494-9.028.185-13.464-1.15-3.9-6.9-9.967-9.523-3.362-1.174,2.951,5.039,18.417,8.369,18.292,1.092,5.476,1.976,11.019,2.582,16.588a1.934,1.934,0,0,0-.573.2c-.389-1.118-.823-2.32-1.076-2.911l-.1-.212c-1.942-3.946-8.409-11.038-13.28-7.431-3.618,2.679.407,6.681,2.706,8.5l.231.181c3.364,2.582,6.343,3.295,9.948,3.929l.811.14a1.575,1.575,0,0,0,1.657.952,135.153,135.153,0,0,1-.189,27.152,42.027,42.027,0,0,0-3.7-5.5c-2.936-2.282-8.365-4.4-11.521-1.268-6.627,6.582,5.872,14.017,13.074,12.7a3.24,3.24,0,0,0,1.219.556q-.724,4.163-1.782,8.275c-1.061,4.118-2.3,8.285-3.654,12.477a55.415,55.415,0,0,0-4.6-8.357c-3.091-3.081-9.495-5.078-12.6-.959-3.491,4.639,2.7,8.751,6.237,10.345l.129.056c1.678.7,8.051,2.477,9.872,1.833-3.351,9.938-7.387,19.977-11.638,29.784-.592-3.34-2.95-12.033-3.528-13.557l-.06-.149c-2.3-4.995-8.685-12-14.621-7.569-5.616,4.192-.07,11.447,3.638,14.84l.278.25a22.86,22.86,0,0,0,7.87,4.724c1.138.361,2.775.227,3.8.688s1.055,1.543,2.118,1.944c-2.3,5.282-4.663,10.492-7.007,15.576-1.106,2.4-2.256,4.776-3.432,7.138a1.719,1.719,0,0,0-1.758,2.363,1.807,1.807,0,0,0,.316.493q-1.35,2.645-2.741,5.269a10.087,10.087,0,0,0-.616-1.566c2.043,1.426-.13-2.826-.346-3.866-.695-3.334-.932-6.725-2.138-9.946-1.744-4.657-7.553-11.414-12.763-6.366-4.584,4.434-.572,10.271,3.057,13.882l.491.479a42.08,42.08,0,0,0,7.939,5.66c1.245.727,3.059,2.283,3.938,2.543-5.18,9.7-10.73,19.2-16.115,28.8-.273-.419-.525-.841-.754-1.238a.772.772,0,0,0,.708.009c-.754-4.973-3.319-32.037-15.092-22.809-7.969,6.258,5.014,22.057,14.071,25.942-2.807,5.03-5.559,10.092-8.177,15.226q-2.842,5.571-5.308,11.319c.04-4.2-.4-9.462-2.641-12.959-3.264-5.089-11.011-8.2-15.567-2.965-8.571,9.875,12.768,12.6,17.24,18.239-5.1,12.462-8.574,25.51-9.113,39.129-.587,14.81.817,33.913,8.776,47.347C-95.927,300.646-96.614,291.322-97.154,285.163Zm88.5-270.254c.365-6.99-6.76-7.405-10.545-3.433a20.72,20.72,0,0,0-5.225,8.676c-.307,1.129.005,7.75-.559,7.989C-19.193,26.178-9.049,22.4-8.657,14.909Z" transform="translate(120.353 -0.889) rotate(-180)" fill="#aeebe9"/>
          <g id="Leaf_2" data-name="Leaf 2" transform="translate(79.122 -217.967)">
            <path id="Leaf_2-2" data-name="Leaf 2" d="M-118.078,134.141C-74.446,134.141,0,67.5,0,12.157,0,7.947-2,0-6.4,0-30.217-.037-118.078,71.011-118.078,134.141Z" transform="translate(0 0) rotate(-180)" fill="#ace8e8"/>
          </g>
        </g>
        <g id="leaf-top" transform="translate(124.855 -298.46)">
          <path id="leaf-top-2" data-name="leaf-top" d="M-110.958,220.938c-4.322,0-12.743-14.569-12.743-42.825,0-20.663,14.553-34.026,18.875-54.5C-98.177,92.221-65.252,0-13.844,0-7.934,0,0,12.356,0,37.812c0,30.873-30.052,62.841-30.052,69.471C-30.081,182.987-97.18,220.938-110.958,220.938Z" transform="rotate(-180)" fill="#96e3e3"/>
          <g id="leaf-veins" transform="translate(14.619 -4.509)">
            <path id="Leaf_veins" data-name="Leaf veins" d="M-75.307,169.408l41.571-3.7-41.571,3.7,4.122-9.272,45.32-9.086-45.32,9.086,20.5-46.113,33.818-10.317-33.818,10.317L0,0C-13.172,9.432-26.682,29.9-38.307,51.755L-51.729,33.818l13.422,17.938c-1.57,2.952-3.107,5.933-4.6,8.912L-58.477,42.835l15.566,17.832A533.262,533.262,0,0,0-68,119.305l-.6.182.6-.182a77.231,77.231,0,0,0-2.444,7.92c-1.2,6.064-6.5,22.169-11.026,34.973l-.62.124.62-.124c-2.643,7.48-5.022,13.834-6.166,16.4-3.1,6.96-9.073,34.807-9.073,38.958ZM-88.84,125.123-73.1,136.4Z" transform="translate(0 0) rotate(-180)" fill="none" stroke="rgba(255,255,255,0.14)" stroke-linecap="round" stroke-linejoin="round" stroke-miterlimit="10" stroke-width="2"/>
          </g>
        </g>
        <g id="Server" transform="translate(214 -152)">
          <g transform="matrix(-1, 0, 0, -1, 2812.67, 1236.26)" filter="url(#Left_Side)">
            <rect id="Left_Side-2" data-name="Left Side" width="222.009" height="329" rx="2" transform="translate(2589.67 1237.26)" fill="#00aebc"/>
          </g>
          <g transform="matrix(-1, 0, 0, -1, 2812.67, 1236.26)" filter="url(#Right_Side)">
            <rect id="Right_Side-2" data-name="Right Side" width="39.644" height="329" rx="2" transform="translate(2773.03 1236.26)" fill="#00b8c6"/>
          </g>
          <g id="Rectangles" transform="translate(57.52 -21.936)">
            <g transform="matrix(-1, 0, 0, -1, 2755.15, 1258.19)" filter="url(#Rectangle)">
              <rect id="Rectangle-6" data-name="Rectangle" width="137" height="27.915" rx="3" transform="translate(2617.42 1258.19)" fill="#04b5c4"/>
            </g>
            <g transform="matrix(-1, 0, 0, -1, 2755.15, 1258.19)" filter="url(#Rectangle-2)">
              <rect id="Rectangle-7" data-name="Rectangle" width="137" height="27.915" rx="3" transform="translate(2617.42 1304.06)" fill="#04b5c4"/>
            </g>
            <g transform="matrix(-1, 0, 0, -1, 2755.15, 1258.19)" filter="url(#Rectangle-3)">
              <rect id="Rectangle-8" data-name="Rectangle" width="137" height="27.915" rx="3" transform="translate(2617.42 1350.91)" fill="#04b5c4"/>
            </g>
            <g transform="matrix(-1, 0, 0, -1, 2755.15, 1258.19)" filter="url(#Rectangle-4)">
              <rect id="Rectangle-9" data-name="Rectangle" width="137" height="27.915" rx="3" transform="translate(2617.42 1397.77)" fill="#04b5c4"/>
            </g>
            <g transform="matrix(-1, 0, 0, -1, 2755.15, 1258.19)" filter="url(#Rectangle-5)">
              <rect id="Rectangle-10" data-name="Rectangle" width="137" height="27.915" rx="3" transform="translate(2617.42 1443.63)" fill="#04b5c4"/>
            </g>
          </g>
          <g id="Ovals" transform="translate(180.382 -26.921)">
            <ellipse id="Oval" cx="4.956" cy="4.985" rx="4.956" ry="4.985" transform="translate(9.911 0) rotate(-180)" fill="#c2fdfe"/>
            <ellipse id="Oval-2" data-name="Oval" cx="4.956" cy="4.985" rx="4.956" ry="4.985" transform="translate(9.911 -46.858) rotate(-180)" fill="#c2fdfe"/>
            <ellipse id="Oval-3" data-name="Oval" cx="4.956" cy="4.985" rx="4.956" ry="4.985" transform="translate(9.911 -92.718) rotate(-180)" fill="#c2fdfe"/>
            <ellipse id="Oval-4" data-name="Oval" cx="4.956" cy="4.985" rx="4.956" ry="4.985" transform="translate(9.911 -139.576) rotate(-180)" fill="#c2fdfe"/>
            <ellipse id="Oval-5" data-name="Oval" cx="4.956" cy="4.985" rx="4.956" ry="4.985" transform="translate(9.911 -186.433) rotate(-180)" fill="#c2fdfe"/>
          </g>
          <g id="Big_Lines" data-name="Big Lines" transform="translate(102.084 -31.906)">
            <path id="Path-12" data-name="Path" d="M0,.5H-74.333" transform="translate(0 0) rotate(-180)" fill="none" stroke="#c2fdfe" stroke-linecap="round" stroke-linejoin="round" stroke-miterlimit="10" stroke-width="4"/>
            <path id="Path-13" data-name="Path" d="M0,.5H-74.333" transform="translate(0 -45.861) rotate(-180)" fill="none" stroke="#c2fdfe" stroke-linecap="round" stroke-linejoin="round" stroke-miterlimit="10" stroke-width="4"/>
            <path id="Path-14" data-name="Path" d="M0,.5H-74.333" transform="translate(0 -92.718) rotate(-180)" fill="none" stroke="#c2fdfe" stroke-linecap="round" stroke-linejoin="round" stroke-miterlimit="10" stroke-width="4"/>
            <path id="Path-15" data-name="Path" d="M0,.5H-74.333" transform="translate(0 -139.576) rotate(-180)" fill="none" stroke="#c2fdfe" stroke-linecap="round" stroke-linejoin="round" stroke-miterlimit="10" stroke-width="4"/>
            <path id="Path-16" data-name="Path" d="M0,.5H-74.333" transform="translate(0 -185.436) rotate(-180)" fill="none" stroke="#c2fdfe" stroke-linecap="round" stroke-linejoin="round" stroke-miterlimit="10" stroke-width="4"/>
          </g>
          <g id="Little_lines" data-name="Little lines" transform="translate(9.911 -40.879)">
            <path id="Path-17" data-name="Path" d="M0,.5H-20.813" transform="translate(0) rotate(-180)" fill="none" stroke="#c0fffd" stroke-linecap="round" stroke-linejoin="round" stroke-miterlimit="10" stroke-width="2"/>
            <path id="Path-18" data-name="Path" d="M0,.5H-20.813" transform="translate(0 -5.982) rotate(-180)" fill="none" stroke="#c0fffd" stroke-linecap="round" stroke-linejoin="round" stroke-miterlimit="10" stroke-width="2"/>
            <path id="Path-19" data-name="Path" d="M0,.5H-20.813" transform="translate(0 -37.885) rotate(-180)" fill="none" stroke="#c0fffd" stroke-linecap="round" stroke-linejoin="round" stroke-miterlimit="10" stroke-width="2"/>
            <path id="Path-20" data-name="Path" d="M0,.5H-20.813" transform="translate(0 -43.867) rotate(-180)" fill="none" stroke="#c0fffd" stroke-linecap="round" stroke-linejoin="round" stroke-miterlimit="10" stroke-width="2"/>
            <path id="Path-21" data-name="Path" d="M0,.5H-20.813" transform="translate(0 -83.745) rotate(-180)" fill="none" stroke="#c0fffd" stroke-linecap="round" stroke-linejoin="round" stroke-miterlimit="10" stroke-width="2"/>
            <path id="Path-22" data-name="Path" d="M0,.5H-20.813" transform="translate(0 -89.727) rotate(-180)" fill="none" stroke="#c0fffd" stroke-linecap="round" stroke-linejoin="round" stroke-miterlimit="10" stroke-width="2"/>
            <path id="Path-23" data-name="Path" d="M0,.5H-20.813" transform="translate(0 -127.612) rotate(-180)" fill="none" stroke="#c0fffd" stroke-linecap="round" stroke-linejoin="round" stroke-miterlimit="10" stroke-width="2"/>
            <path id="Path-24" data-name="Path" d="M0,.5H-20.813" transform="translate(0 -133.594) rotate(-180)" fill="none" stroke="#c0fffd" stroke-linecap="round" stroke-linejoin="round" stroke-miterlimit="10" stroke-width="2"/>
          </g>
        </g>
        <g transform="matrix(-1, 0, 0, -1, 3026.67, 1084.26)" filter="url(#Hill-with-shadow)">
          <path id="Hill-with-shadow-2" data-name="Hill-with-shadow" d="M-546.629,43.909V205H-16.8l-.21,5.655H0L-5.3,56.6C-56.114,33.752-110.686,20.71-185.76,7.006-289.47-11.87-416.679,9.735-546.629,43.909Z" transform="translate(2934.63 1527)" fill="#fff"/>
        </g>
        <path id="Hill-dup-to-cover-side-shadows" d="M-657.233,103.322-755,203.625H0S-45.656,95.412-78.186,64.642c-4.637-4.386-19.157-9.417-19.157-9.417C-148.158,32.376-202.73,19.334-277.8,5.63c-51.449-9.364-113.774,3.37-191.03,0S-597.951-29.194-657.233,103.322Z" transform="translate(0 -444.118) rotate(-180)" fill="#fff"/>
        <g id="Computer_Woman_drawkit_" data-name="Computer Woman (drawkit)" transform="translate(355 -178)">
          <path id="Hair" d="M-143.585.066c-11.142.593-27.084,9.428-27.084,24.829s16.05,21.448,30.47,23.96c-9.782,11.663-13.794,13.919-12.791,18.936s10.031,18.815,10.772,34.62,43.639,102.722,51.785,105.234-7.917,18.586,48.27,20.391c14.979,0,42.158-22.223,42.158-51.179.673-63.119-64.913-75.1-101.381-145.517C-118.123-.984-138.414-.217-143.585.066Z" transform="translate(0.17 -0.398) rotate(-180)" fill="#0c3247"/>
          <path id="Ankle-Back" d="M0,7.962-13.385,0l-9.481,16.932,13.385,7.955Z" transform="translate(279.366 -345.43) rotate(-180)" fill="#c0b19c"/>
          <path id="Ankle-Back_Shadow" data-name="Ankle-Back Shadow" d="M0,7.962-13.385,0l-9.481,16.932,13.385,7.955Z" transform="translate(279.366 -345.43) rotate(-180)" fill="url(#linear-gradient-3)"/>
          <path id="Ankle-Front" d="M-8.437,0-22.866,6.734l8.43,17.157L0,17.2Z" transform="translate(170.006 -385.249) rotate(-180)" fill="#c0b19c"/>
          <path id="Ankle-Front_Shadow" data-name="Ankle-Front Shadow" d="M-8.437,0-22.866,6.734l8.43,17.157L0,17.2Z" transform="translate(170.006 -385.249) rotate(-180)" fill="url(#linear-gradient-4)"/>
          <path id="Leg-Back" d="M-15.978,0C-29.732,0-49.961,83.063-58.657,107.417c1.818,5.1,12.138,13.036,17.8,13.036,10.923-18.445,35.393-57.985,39.741-64.1C2.366,51.487-2.223,0-15.978,0Z" transform="translate(240.593 -236.923) rotate(-180)" fill="#00415d"/>
          <path id="Leg-Back_Shadow" data-name="Leg-Back Shadow" d="M-15.978,0C-29.732,0-49.961,83.063-58.657,107.417c1.818,5.1,12.138,13.036,17.8,13.036,10.923-18.445,35.393-57.985,39.741-64.1C2.366,51.487-2.223,0-15.978,0Z" transform="translate(240.593 -236.923) rotate(-180)" fill="url(#linear-gradient-5)"/>
          <path id="Leg-Front" d="M-21.793.062C-9.844.062,0-2.521,0,25.692S-30.7,77.4-67.141,77.4s-52.563-.971-55.884-1.781c-.982,9.328,20.5,73.248,22.8,89.706-1.647,4.4-12.305,9.874-16.81,9.874s-64.444-97.658-62.884-158c-.208-9.443,34.421-12.053,56.3-12.053s68.452,2.529,74.342,2.529" transform="translate(76.552 -221.991) rotate(-180)" fill="#00415d"/>
          <g id="Leg-Front_Gradient-2" data-name="Leg-Front Gradient">
            <g transform="matrix(-1, 0, 0, -1, 2671.67, 1262.26)" filter="url(#Leg-Front_Gradient)">
              <path id="Leg-Front_Gradient-3" data-name="Leg-Front Gradient" d="M-21.793.062C-9.844.062,0-2.521,0,25.692S-30.7,77.4-67.141,77.4s-52.563-.971-55.884-1.781c-.982,9.328,20.5,73.248,22.8,89.706-1.647,4.4-12.305,9.874-16.81,9.874s-64.444-97.658-62.884-158c-.208-9.443,34.421-12.053,56.3-12.053s68.452,2.529,74.342,2.529" transform="translate(2595.12 1484.25)" fill="url(#radial-gradient)"/>
            </g>
            <path id="Leg-Front_Gradient-4" data-name="Leg-Front Gradient" d="M-21.793.062C-9.844.062,0-2.521,0,25.692S-30.7,77.4-67.141,77.4s-52.563-.971-55.884-1.781c-.982,9.328,20.5,73.248,22.8,89.706-1.647,4.4-12.305,9.874-16.81,9.874s-64.444-97.658-62.884-158c-.208-9.443,34.421-12.053,56.3-12.053s68.452,2.529,74.342,2.529" transform="translate(76.552 -221.991) rotate(-180)" fill="url(#radial-gradient-2)"/>
          </g>
          <path id="Shirt" d="M-1.445,138.489C.075,132.226,8.269-2.37-40.888.032S-89.542,122.377-83.944,141.308C-61.508,150.807-3.046,145.1-1.445,138.489Z" transform="translate(79.535 -86.606) rotate(-180)" fill="#f2d566"/>
          <g id="Shirt_Gradient-2" data-name="Shirt Gradient">
            <g transform="matrix(-1, 0, 0, -1, 2671.67, 1262.26)" filter="url(#Shirt_Gradient)">
              <path id="Shirt_Gradient-3" data-name="Shirt Gradient" d="M-1.445,138.489C.075,132.226,8.269-2.37-40.888.032S-89.542,122.377-83.944,141.308C-61.508,150.807-3.046,145.1-1.445,138.489Z" transform="translate(2592.14 1348.86)" fill="url(#radial-gradient-3)"/>
            </g>
            <path id="Shirt_Gradient-4" data-name="Shirt Gradient" d="M-1.445,138.489C.075,132.226,8.269-2.37-40.888.032S-89.542,122.377-83.944,141.308C-61.508,150.807-3.046,145.1-1.445,138.489Z" transform="translate(79.535 -86.606) rotate(-180)" fill="url(#radial-gradient-4)" style="mix-blend-mode: saturation;isolation: isolate"/>
            <path id="Shirt_Gradient-5" data-name="Shirt Gradient" d="M-1.445,138.489C.075,132.226,8.269-2.37-40.888.032S-89.542,122.377-83.944,141.308C-61.508,150.807-3.046,145.1-1.445,138.489Z" transform="translate(79.535 -86.606) rotate(-180)" fill="url(#linear-gradient-6)"/>
          </g>
          <path id="Neck" d="M-26.061,19.557c.761,1.854,4.865,11.73,5.626,15.765S1.118,34.256-.047,32.238C-6.931,20.311-8.056,7.787-9.175,1.517-10.2-4.215-31.1,7.277-26.061,19.557Z" transform="translate(111.349 -56.742) rotate(-180)" fill="#c0b19c"/>
          <path id="Neck_Shadow" data-name="Neck Shadow" d="M-26.061,19.557c.761,1.854,4.865,11.73,5.626,15.765S1.118,34.256-.047,32.238C-6.931,20.311-8.056,7.787-9.175,1.517-10.2-4.215-31.1,7.277-26.061,19.557Z" transform="translate(111.349 -56.742) rotate(-180)" fill="url(#linear-gradient-7)"/>
          <g id="Laptop" transform="translate(166 -161)">
            <path id="Laptop-Base" d="M-55.2,64.165-71.687,8.288s-.465-4.518-3.273-6.471S-82.527.01-82.527.01h-8.338s-7.747,0-9.509,3.267,1.442,12.435,1.442,12.435L-83.587,72H0V64.165Z" transform="rotate(-180)" fill="#1a445d"/>
            <g transform="matrix(-1, 0, 0, -1, 2505.67, 1423.26)" filter="url(#Laptop-Base_Gradient)">
              <path id="Laptop-Base_Gradient-2" data-name="Laptop-Base Gradient" d="M-55.2,64.165-71.687,8.288s-.465-4.518-3.273-6.471S-82.527.01-82.527.01h-8.338s-7.747,0-9.509,3.267,1.442,12.435,1.442,12.435L-83.587,72H0V64.165Z" transform="translate(2505.67 1423.26)" fill="url(#linear-gradient-8)"/>
            </g>
            <path id="Laptop-Logo" d="M-1.525,10C-2.817,10-4.262,8.293-4.8,5.531S-4.738,0-3.48,0-.743,1.707-.2,4.469-.233,10-1.525,10Z" transform="translate(80.021 -33.759) rotate(-180)" fill="#f2f2f2"/>
            <path id="Shadow_from_arm" data-name="Shadow from arm" d="M-.029,0H-55.7V3.152L0,5.087Z" transform="translate(0 -64) rotate(-180)" fill="url(#linear-gradient-9)"/>
          </g>
          <path id="Arm" d="M-31.706,0-1.369,3.238C.7,5.788-.2,11.819-.164,14.922-.03,26.39-.541,39.207-7.459,48.867c-2.692,3.757-7.1,7.42-11.44,7.36-6.8,2.7-18.136,5.808-18.136,5.808l-17.208,3.8S-83.275,71-97.609,70.663c-4.771-.121-9.623-.675-14.388-.54-2.766.074-7.154.938-9.738,0-.754-.277-.572-1.943-.39-2.6.619-2.287,2.8-3.892,4.8-4.891,4.657-2.321,7.295-.85,12.073-.769,3.91.067,8.573-1.929,15.357-4.594,8-3.144,17.127-6.982,25.283-9.734,9.294-3.137,18.776-6.523,27.847-10.247,1.79-.735,3.695-1.268,5.572-1.855A98.619,98.619,0,0,1-32.641,20.6,89.874,89.874,0,0,1-32.15,4.216C-31.948,2.847-32.278,1.268-31.706,0Z" transform="translate(99.419 -155.294) rotate(-180)" fill="#c0b19c"/>
          <path id="Arm_Shadow_from_Sleeve" data-name="Arm Shadow from Sleeve" d="M-31.706,0-1.369,3.238C.7,5.788-.2,11.819-.164,14.922-.03,26.39-.541,39.207-7.459,48.867c-2.692,3.757-7.1,7.42-11.44,7.36-6.8,2.7-18.136,5.808-18.136,5.808l-17.208,3.8S-83.275,71-97.609,70.663c-4.771-.121-9.623-.675-14.388-.54-2.766.074-7.154.938-9.738,0-.754-.277-.572-1.943-.39-2.6.619-2.287,2.8-3.892,4.8-4.891,4.657-2.321,7.295-.85,12.073-.769,3.91.067,8.573-1.929,15.357-4.594,8-3.144,17.127-6.982,25.283-9.734,9.294-3.137,18.776-6.523,27.847-10.247,1.79-.735,3.695-1.268,5.572-1.855A98.619,98.619,0,0,1-32.641,20.6,89.874,89.874,0,0,1-32.15,4.216C-31.948,2.847-32.278,1.268-31.706,0Z" transform="translate(99.419 -155.294) rotate(-180)" fill="url(#linear-gradient-10)"/>
          <path id="Sleeve" d="M-2.033,60.043C3.154,46.214-1.357,2.99-18.2.16-41.62-3.328-48.626,51.283-46.307,57.668-42.161,60.165-18.939,68.423-2.033,60.043Z" transform="translate(90.471 -99.548) rotate(-180)" fill="#f2d566"/>
          <g id="Sleeve_Highlight-2" data-name="Sleeve Highlight">
            <g transform="matrix(-1, 0, 0, -1, 2671.67, 1262.26)" filter="url(#Sleeve_Highlight)" style="mix-blend-mode: saturation;isolation: isolate">
              <path id="Sleeve_Highlight-3" data-name="Sleeve Highlight" d="M-2.033,60.043C3.154,46.214-1.357,2.99-18.2.16-41.62-3.328-48.626,51.283-46.307,57.668-42.161,60.165-18.939,68.423-2.033,60.043Z" transform="translate(2581.2 1361.81)" fill="rgba(255,0,0,0.01)"/>
            </g>
            <path id="Sleeve_Highlight-4" data-name="Sleeve Highlight" d="M-2.033,60.043C3.154,46.214-1.357,2.99-18.2.16-41.62-3.328-48.626,51.283-46.307,57.668-42.161,60.165-18.939,68.423-2.033,60.043Z" transform="translate(90.471 -99.548) rotate(-180)" fill="url(#radial-gradient-5)"/>
          </g>
          <path id="Head" d="M-47.842,0A71.006,71.006,0,0,0-1.258,19.243,5.707,5.707,0,0,1,0,22.793a6.041,6.041,0,0,1-5.2,5.924C-6.712,37.83-11.59,44.971-18.776,47.13c-11.5,3.463-24.635-7.2-29.29-23.822C-50.42,14.91-50.156,6.613-47.842,0Z" transform="translate(114.331 -29.864) rotate(-180)" fill="#c0b19c"/>
          <path id="Shoe_Front" data-name="Shoe Front" d="M-9.255,0,0,17.473-47.085,41.81l-2.624-4.951L-26.4,8.87Z" transform="translate(163.047 -398.19) rotate(-180)" fill="#00415d"/>
          <path id="Shoe-Back" d="M0,14.948-10.259,31.855-55.674,4.794-52.768,0l36.233,5.094Z" transform="translate(285.326 -350.407) rotate(-180)" fill="#00415d"/>
          <path id="Shoe-Back_Shadow" data-name="Shoe-Back Shadow" d="M0,14.948-10.259,31.855-55.674,4.794-52.768,0l36.233,5.094Z" transform="translate(285.326 -350.407) rotate(-180)" fill="rgba(0,0,0,0.11)"/>
        </g>
        <g id="Donut_Chart" data-name="Donut Chart" transform="matrix(0.391, 0.921, -0.921, 0.391, 285.09, -108.385)">
          <path id="Value-10" data-name="Value" d="M-52.292,50.192A14.724,14.724,0,0,0-41.67,54.675,14.384,14.384,0,0,0-27.086,40.5,14.384,14.384,0,0,0-41.67,26.325V0C-18.756,0,0,18.229,0,40.5S-18.756,81-41.67,81A41.6,41.6,0,0,1-72,68.178Z" transform="translate(0.062 -0.928) rotate(-180)" fill="#b9faf7"/>
          <path id="Value-11" data-name="Value" d="M0,0V26.65A14.35,14.35,0,0,0-14.35,41H-41A41.126,41.126,0,0,1,0,0Z" transform="translate(41.462 -1.042) rotate(-180)" fill="#a4f2ef"/>
          <g transform="matrix(-0.39, 0.92, -0.92, -0.39, 2169.06, -2057.64)" filter="url(#Value-2)">
            <path id="Value-12" data-name="Value" d="M-6.146,0c0,5.378,2.239,12.218,6.146,15.3L-21.325,36c-11.19-8.821-15.7-19.914-14.482-34.713Z" transform="matrix(0.39, 0.92, -0.92, 0.39, 2688.28, 1162.79)" fill="#c7fffa"/>
          </g>
        </g>
      </g>
      <path class="animated-line" id="Connection_path" data-name="Connection path" d="M0,257V0H212V72.063" transform="translate(148 78)" fill="none" stroke="#00bfc0" stroke-linecap="round" stroke-miterlimit="10" stroke-width="2" stroke-dasharray="6"/>
    </g>
    <rect id="Rectangle-11" data-name="Rectangle" width="4745" height="955" fill="#e4fefd"/>
  </g>
</svg>
