<svg xmlns="http://www.w3.org/2000/svg" viewBox="0 0 4745 1750">
  <defs/>
  <defs>
    <filter id="d" width="87" height="87" x="2820.543" y="1089.857" filterUnits="userSpaceOnUse">
      <feOffset dy="1"/>
      <feGaussianBlur result="blur" stdDeviation="5"/>
      <feFlood flood-color="#1a202c" flood-opacity=".161"/>
      <feComposite in2="blur" operator="in"/>
      <feComposite in="SourceGraphic"/>
    </filter>
    <filter id="f" width="105.645" height="395" x="2740.029" y="1181.259" filterUnits="userSpaceOnUse">
      <feOffset dy="-22"/>
      <feGaussianBlur result="blur-2" stdDeviation="11"/>
      <feFlood flood-color="#0d1c2f" flood-opacity=".047"/>
      <feComposite in2="blur-2" operator="in"/>
      <feComposite in="SourceGraphic"/>
    </filter>
    <filter id="g" width="167" height="57.915" x="2602.424" y="1244.195" filterUnits="userSpaceOnUse">
      <feOffset dy="1"/>
      <feGaussianBlur result="blur-3" stdDeviation="5"/>
      <feFlood flood-color="#1a202c" flood-opacity=".153"/>
      <feComposite in2="blur-3" operator="in"/>
      <feComposite in="SourceGraphic"/>
    </filter>
    <filter id="h" width="167" height="57.915" x="2602.424" y="1290.055" filterUnits="userSpaceOnUse">
      <feOffset dy="1"/>
      <feGaussianBlur result="blur-4" stdDeviation="5"/>
      <feFlood flood-color="#1a202c" flood-opacity=".153"/>
      <feComposite in2="blur-4" operator="in"/>
      <feComposite in="SourceGraphic"/>
    </filter>
    <filter id="i" width="167" height="57.915" x="2602.424" y="1336.913" filterUnits="userSpaceOnUse">
      <feOffset dy="1"/>
      <feGaussianBlur result="blur-5" stdDeviation="5"/>
      <feFlood flood-color="#1a202c" flood-opacity=".153"/>
      <feComposite in2="blur-5" operator="in"/>
      <feComposite in="SourceGraphic"/>
    </filter>
    <filter id="j" width="167" height="57.915" x="2602.424" y="1383.771" filterUnits="userSpaceOnUse">
      <feOffset dy="1"/>
      <feGaussianBlur result="blur-6" stdDeviation="5"/>
      <feFlood flood-color="#1a202c" flood-opacity=".153"/>
      <feComposite in2="blur-6" operator="in"/>
      <feComposite in="SourceGraphic"/>
    </filter>
    <filter id="k" width="167" height="57.915" x="2602.424" y="1429.631" filterUnits="userSpaceOnUse">
      <feOffset dy="1"/>
      <feGaussianBlur result="blur-7" stdDeviation="5"/>
      <feFlood flood-color="#1a202c" flood-opacity=".153"/>
      <feComposite in2="blur-7" operator="in"/>
      <feComposite in="SourceGraphic"/>
    </filter>
    <filter id="o" width="197.948" height="193.204" x="2406.173" y="1476.25" filterUnits="userSpaceOnUse">
      <feOffset dy="1"/>
      <feGaussianBlur result="blur-8" stdDeviation="3"/>
      <feFlood flood-opacity=".09"/>
      <feComposite in2="blur-8" operator="in"/>
      <feComposite in="SourceGraphic"/>
    </filter>
    <filter id="r" width="110.494" height="170.335" x="2487.645" y="1332.865" filterUnits="userSpaceOnUse">
      <feOffset dx="-6" dy="-4"/>
      <feGaussianBlur result="blur-9" stdDeviation="4"/>
      <feFlood flood-opacity=".169"/>
      <feComposite in2="blur-9" operator="in"/>
      <feComposite in="SourceGraphic"/>
    </filter>
    <filter id="w" width="115.904" height="86.992" x="2396.27" y="1416.766" filterUnits="userSpaceOnUse">
      <feOffset dx="-1" dy="1"/>
      <feGaussianBlur result="blur-10" stdDeviation="2.5"/>
      <feFlood flood-opacity=".075"/>
      <feComposite in2="blur-10" operator="in"/>
      <feComposite in="SourceGraphic"/>
    </filter>
    <filter id="A" width="67.727" height="84.71" x="2523.976" y="1353.306" filterUnits="userSpaceOnUse">
      <feOffset dy="2"/>
      <feGaussianBlur result="blur-11" stdDeviation="3.5"/>
      <feFlood flood-opacity=".039"/>
      <feComposite in2="blur-11" operator="in"/>
      <feComposite in="SourceGraphic"/>
    </filter>
    <filter id="C" width="77.205" height="77.205" x="2626.071" y="1115.656" filterUnits="userSpaceOnUse">
      <feOffset dy="1"/>
      <feGaussianBlur result="blur-12" stdDeviation="5"/>
      <feFlood flood-color="#1a202c" flood-opacity=".145"/>
      <feComposite in2="blur-12" operator="in"/>
      <feComposite in="SourceGraphic"/>
    </filter>
    <linearGradient id="b" x1=".525" x2=".524" y1=".961" y2=".023" gradientUnits="objectBoundingBox">
      <stop offset="0" stop-color="#cdf5fa"/>
      <stop offset="1" stop-color="#e6fdfd"/>
    </linearGradient>
    <linearGradient id="e" x1=".043" x2=".841" y2=".363" gradientUnits="objectBoundingBox">
      <stop offset="0" stop-color="#fff" stop-opacity=".086"/>
      <stop offset="1" stop-color="#202121" stop-opacity=".055"/>
    </linearGradient>
    <linearGradient id="l" x1=".577" x2=".5" y1=".293" y2=".5" gradientUnits="objectBoundingBox">
      <stop offset="0" stop-opacity=".208"/>
      <stop offset="1" stop-opacity="0"/>
    </linearGradient>
    <linearGradient id="m" x1=".558" x2=".558" y1=".181" y2=".608" gradientUnits="objectBoundingBox">
      <stop offset="0" stop-opacity=".239"/>
      <stop offset="1" stop-opacity="0"/>
    </linearGradient>
    <linearGradient id="n" x1=".866" x2=".084" y1=".219" y2=".977" gradientUnits="objectBoundingBox">
      <stop offset="0" stop-opacity=".145"/>
      <stop offset="1" stop-opacity=".082"/>
      <stop offset="1" stop-color="#3a3636" stop-opacity=".239"/>
    </linearGradient>
    <linearGradient id="u" x1=".111" x2="1" y1=".478" y2=".769" gradientUnits="objectBoundingBox">
      <stop offset="0" stop-color="#fff" stop-opacity=".02"/>
      <stop offset="1" stop-opacity=".078"/>
    </linearGradient>
    <linearGradient id="v" x1=".677" x2=".38" y1=".739" y2=".295" gradientUnits="objectBoundingBox">
      <stop offset="0" stop-opacity=".039"/>
      <stop offset="1" stop-opacity=".137"/>
    </linearGradient>
    <linearGradient id="x" x1=".603" x2="0" y1=".584" y2=".736" gradientUnits="objectBoundingBox">
      <stop offset="0" stop-color="#fff" stop-opacity=".173"/>
      <stop offset="1" stop-opacity=".145"/>
    </linearGradient>
    <linearGradient id="y" x1=".5" x2=".5" y1=".101" y2=".689" gradientUnits="objectBoundingBox">
      <stop offset="0" stop-opacity=".157"/>
      <stop offset="1" stop-opacity="0"/>
    </linearGradient>
    <linearGradient id="z" x1=".871" x2=".85" y2=".217" gradientUnits="objectBoundingBox">
      <stop offset="0" stop-opacity=".192"/>
      <stop offset="1" stop-opacity="0"/>
    </linearGradient>
    <radialGradient id="p" cx=".268" cy="0" r=".594" gradientTransform="matrix(-1 0 0 1 .535 0)" gradientUnits="objectBoundingBox">
      <stop offset="0" stop-color="#fff" stop-opacity=".09"/>
      <stop offset="1" stop-color="#fff" stop-opacity="0"/>
    </radialGradient>
    <radialGradient id="q" cx=".793" cy="-.031" r=".167" gradientTransform="matrix(-1 0 0 1 1.586 0)" gradientUnits="objectBoundingBox">
      <stop offset="0" stop-opacity=".133"/>
      <stop offset="1" stop-opacity="0"/>
    </radialGradient>
    <radialGradient id="s" cx=".452" cy="0" r=".423" gradientTransform="matrix(-1 0 0 1 .905 0)" gradientUnits="objectBoundingBox">
      <stop offset="0" stop-color="#fff" stop-opacity=".082"/>
      <stop offset="1" stop-color="#fff" stop-opacity="0"/>
    </radialGradient>
    <radialGradient id="t" cx=".512" cy=".033" r=".355" gradientTransform="matrix(-1 0 0 1 1.023 0)" gradientUnits="objectBoundingBox">
      <stop offset="0" stop-color="red" stop-opacity=".004"/>
      <stop offset="1" stop-color="red" stop-opacity="0"/>
    </radialGradient>
    <radialGradient id="B" cx=".529" cy=".433" r=".376" gradientTransform="matrix(-1 0 0 1 1.057 0)" gradientUnits="objectBoundingBox">
      <stop offset="0" stop-color="#fff" stop-opacity=".176"/>
      <stop offset="1" stop-color="#fff" stop-opacity=".102"/>
    </radialGradient>
    <clipPath id="c">
      <path
        fill="none"
        d="M-800.673 593.041l106-78.388c53.25-14 99.985-24.305 142.875-31.493 23.922-4.009 47-7.081 68.579-9.132 22.931-2.179 45-3.284 65.6-3.284 14.806 0 29.249.57 42.93 1.693 14.135 1.161 27.89 2.948 40.884 5.313 42.03 7.672 72.664 14.262 99.328 21.368 15.135 4.034 28.892 8.209 42.056 12.765 13.71 4.745 26.493 9.8 39.078 15.461l64.591 61.29-.929 1.13L0 588.632-88.751 0l-711.922 28.742v564.3z"
        transform="translate(-.327)"/>
    </clipPath>
    <clipPath id="a">
      <path d="M0 0h4745v1750H0z"/>
    </clipPath>
  </defs>
  <g clip-path="url(#a)">
    <path
      fill="url(#b)"
      d="M4745 0v589.266c0 70.355-148.93 160.09-254.57 160.09s-344.437-39.9-544.016-39.9-362.383 87.338-494.148 87.338c-157.418 0-201.289-44.352-297.593-75.393s-356.313-155.1-494.1-161.048c-217.864-9.4-390.355 251.855-619.791 204S1765 796.792 1647.506 796.792a81.454 81.454 0 01-13.9-1.179c-54.706-3.285-96.7-18.391-138.868-30.12-47.574-13.234-156.359-51.751-296.922-51.751-139.157 0-319.3 39.809-477.027 35.615S371.223 729.133 0 800V0z"
      transform="translate(0 950)"/>
    <g data-name="Hill-with-shadow">
      <path
        fill="none"
        d="M2282 1649.3l106-78.388c53.25-14 99.985-24.305 142.875-31.493 23.922-4.009 47-7.081 68.579-9.132 22.931-2.179 45-3.284 65.6-3.284 14.806 0 29.249.57 42.93 1.693 14.135 1.161 27.89 2.948 40.884 5.313 42.03 7.672 72.664 14.262 99.328 21.368 15.135 4.034 28.892 8.209 42.056 12.765 13.71 4.745 26.493 9.8 39.078 15.461l64.591 61.29-.929 1.13 89.681-1.132-88.751-588.632L2282 1085.001v564.3z"
        data-name="Mask"/>
      <g clip-path="url(#c)" data-name="Hill-with-shadow" transform="translate(3083 1056.259)">
        <g data-name="Hill-with-shadow">
          <g data-name="Mask">
            <path
              fill="#c2eff2"
              d="M-739.127 444.675a47.09 47.09 0 014.109-9.853 66.22 66.22 0 0142.262-33.756c15.239-3.853 29.876.184 44.32 5 1.434.478 2.81 1.05 4.207 1.611.3.12.579.214.835.297a1.938 1.938 0 012.504.409 100.317 100.317 0 0112.484 1.122c12.256 1.851 24.742 3.745 34.9 11.285a173.753 173.753 0 00-19.826-6.281 31.56 31.56 0 00-1.146-.279l-.12-.029a44.99 44.99 0 00-6.241-.957l-.068-.008c-.277-.023-.556-.04-.834-.058a50.866 50.866 0 00-1.733-.085q-.301-.011-.593-.03c-2.939-.197-5.911-1.122-8.881-1.463q-1.022-.1-2.051-.167l-.121-.007a84.613 84.613 0 00-5.574-.147 6.248 6.248 0 01-2.208.119 12.08 12.08 0 01-1.94.046c-1.057.024-2.114.042-3.171.076l.034-.032q-1.537.067-3.062.139l-.67.032-1.075.06c-3.342.186-6.676.49-10.006.863-1.19.135-3.162.878-4.313.645-.044-.005-.08-.024-.119-.036a64.326 64.326 0 00-19.11 6.012c.917-.277 3.671-.474 4.257-.595 1.793-.372 3.535-.876 5.299-1.373a88.566 88.566 0 019.584-2.24 145.04 145.04 0 0117.777-1.665c.04-.01.079-.024.118-.034 2.198-.509 4.97-.152 7.22-.193-3.46 2.816-6.521 6.304-9.84 9.31a104.192 104.192 0 01-10.394 8.354 134.648 134.648 0 01-15.597 9.559 61.112 61.112 0 01-18.273 7.18c-7.492 1.814-14.849 3.237-22.549 2.58a57.458 57.458 0 01-11.213-2.04c-.159-.046-.334-.09-.515-.137a35.946 35.946 0 01-4.313-.184c-2.265-.239-5.187.379-4.353-3.048"/>
            <g data-name="Twisted Leaf">
              <path
                fill="#c2edf0"
                d="M-713.606 371.546a63.901 63.901 0 0111.45 1.013 227.312 227.312 0 0134.367 9.043c7.055 2.44 15.143 7.9 22.738 7.045 13.232-1.492 25.916.927 36.918 8.316 10.062 6.756 16.731 17.4 19.82 28.176.466 1.627 2.454 7.663 2.642 11.533.224.823.433 1.649.607 2.48.493 2.36.892 4.745 1.225 7.12.145 1.015.561 3.271-.448 3.516a62.624 62.624 0 012.532 8.617c1.819 8.485-.894 13.284-3.511.584-1.693-8.213-5.457-16.115-9.94-23.461a57.12 57.12 0 00-13.388-15.363 256.119 256.119 0 00-21.848-15.113c-4.902-3.158-9.82-6.258-14.925-9.134-1.135-.64-2.846-2.07-4.187-2.31-2.836-.508-7.198.728-10.066.972-9.432.792-19.096 2.231-28.626 1.807a38.55 38.55 0 01-16.82-4.964 16.76 16.76 0 01-2.46-1.84 40.718 40.718 0 01-10.43-8.061 44.636 44.636 0 01-4.439-6.33 2.742 2.742 0 01-.398-1.897c-.338-.244-.546-.496-.559-.75-.09-1.875 3.624-1.256 5.979-.732a12.08 12.08 0 013.767-.267z"
                data-name="Twisted Leaf"/>
              <path
                fill="none"
                d="M-713.606 371.546a63.901 63.901 0 0111.45 1.013 227.312 227.312 0 0134.367 9.043c7.055 2.44 15.143 7.9 22.738 7.045 13.232-1.492 25.916.927 36.918 8.316 10.062 6.756 16.731 17.4 19.82 28.176.466 1.627 2.454 7.663 2.642 11.533.224.823.433 1.649.607 2.48.493 2.36.892 4.745 1.225 7.12.145 1.015.561 3.271-.448 3.516a62.624 62.624 0 012.532 8.617c1.819 8.485-.894 13.284-3.511.584-1.693-8.213-5.457-16.115-9.94-23.461a57.12 57.12 0 00-13.388-15.363 256.119 256.119 0 00-21.848-15.113c-4.902-3.158-9.82-6.258-14.925-9.134-1.135-.64-2.846-2.07-4.187-2.31-2.836-.508-7.198.728-10.066.972-9.432.792-19.096 2.231-28.626 1.807a38.55 38.55 0 01-16.82-4.964 16.76 16.76 0 01-2.46-1.84 40.718 40.718 0 01-10.43-8.061 44.636 44.636 0 01-4.439-6.33 2.742 2.742 0 01-.398-1.897c-.338-.244-.546-.496-.559-.75-.09-1.875 3.624-1.256 5.979-.732a12.08 12.08 0 013.767-.267z"
                data-name="Twisted Leaf"/>
            </g>
            <g data-name="Path">
              <path
                fill="#bdf5f3"
                d="M-570.927 417.929c.128-2.197-4.817-10.09-13.713-13.327-8.567-3.119-21.932-5.275-33.522-9.494-6.447-2.346-7.862-5.568-15.534-8.36-12.225-4.45-20.139 5.709-21.608 9.745-2.163 5.942 1.793 10.981 4.505 11.968 3.78 1.376 7.037 1.357 11.221 2.88 8.178 2.976 8.17 6.187 15.322 8.453 20.923 6.61 44.157 5.442 51.445-.365z"
                data-name="Path"/>
              <path
                fill="none"
                d="M-570.927 417.929c.128-2.197-4.817-10.09-13.713-13.327-8.567-3.119-21.932-5.275-33.522-9.494-6.447-2.346-7.862-5.568-15.534-8.36-12.225-4.45-20.139 5.709-21.608 9.745-2.163 5.942 1.793 10.981 4.505 11.968 3.78 1.376 7.037 1.357 11.221 2.88 8.178 2.976 8.17 6.187 15.322 8.453 20.923 6.61 44.157 5.442 51.445-.365z"
                data-name="Path"/>
            </g>
            <path fill="none" stroke="rgba(255,255,255,0.07)" stroke-linecap="round" stroke-linejoin="round" stroke-miterlimit="10" stroke-width="4" d="M-571.882 417.639c-3.733-2-36.323-16.556-50.97-14.244" data-name="Path"/>
            <g data-name="Pie Chart">
              <path fill="#a8f7f4" d="M-188.327 103.454c0-32.144-26.106-58.454-58-58.454l-1.457 59 40.457 42.215a58.82 58.82 0 0019-42.761z" data-name="Value"/>
              <path fill="#9aedeb" d="M-247.111 104h-58.216a58.228 58.228 0 0015.843 39.637A58.508 58.508 0 00-247.111 162a59.307 59.307 0 0039.784-15.785z" data-name="Value"/>
              <path fill="#b9faf7" d="M-246.327 45l-.784 59h-58.216c0-31.894 27.381-59 59-59z" data-name="Path"/>
              <g filter="url(#d)" transform="translate(-3082.997 -1056.26)">
                <path fill="#c7fffa" d="M2860.873 1103.86c13.185 5.557 25.674 16.575 31.425 31.044l.242.622-57 25.334z" data-name="Path"/>
              </g>
            </g>
            <g data-name="Path">
              <path
                fill="#c7eff2"
                d="M-548.557 469.079c-2.72 2.126-70.193-29.488-80.208-45.348l-.76-1.21c-10.358-16.66-15.203-29.392-18.837-34.147-6.6-8.63-35.457-20.001-29.881-49.732 1.46-7.791 11.062-24.562 37.76-21.96l.815.084c8.97.997 22.743 2.208 38.643 25.64 10.714 15.783 3.237 30.549 14.515 49.412 8.118 13.58 23.808 15.684 34.866 29.197 8.83 10.803 18.795 35.766 3.087 48.064z"
                data-name="Path"/>
              <path
                fill="none"
                d="M-548.557 469.079c-2.72 2.126-70.193-29.488-80.208-45.348l-.76-1.21c-10.358-16.66-15.203-29.392-18.837-34.147-6.6-8.63-35.457-20.001-29.881-49.732 1.46-7.791 11.062-24.562 37.76-21.96l.815.084c8.97.997 22.743 2.208 38.643 25.64 10.714 15.783 3.237 30.549 14.515 49.412 8.118 13.58 23.808 15.684 34.866 29.197 8.83 10.803 18.795 35.766 3.087 48.064z"
                data-name="Path"/>
            </g>
            <path fill="none" stroke="rgba(255,255,255,0.15)" stroke-linecap="round" stroke-miterlimit="10" stroke-width="4.002" d="M-550.72 461.023c-17.727-3.576-88.999-77.375-96.945-102.755" data-name="Path"/>
            <path
              fill="#aef2f0"
              d="M-442.084 364.364a8.481 8.481 0 002.119-3.52 21.92 21.92 0 01-2.12 3.52zm1.614-3.218a46.375 46.375 0 003.688-17.215 91.569 91.569 0 00-1.034-17.502 82.815 82.815 0 00-9.67-27.5c.947-1.484 3.29-2.855 5.772-4.306 3.357-1.963 6.828-3.993 7.101-6.493.13-1.182-.458-2.365-1.796-3.603a5.718 5.718 0 00-5.65-1.285 9.113 9.113 0 00-5.41 4.568c-1.09 2.161-1.393 5.365-.902 9.525-1.46-2.59-3.05-5.2-4.735-7.759-2.032-3.094-4.295-6.386-7.123-10.359a23 23 0 006.891-6.58c2.213-3.104 3.467-6.164 3.532-8.617a4.8 4.8 0 00-2.246-4.515 5.03 5.03 0 00-4.012-.93c-4.703 1.348-5.009 12.99-5.123 17.374-.011.436-.021.81-.033 1.085a.623.623 0 00.36.014.541.541 0 00.154-.072c-.154.344-.305.663-.45.947a1232.069 1232.069 0 00-4.351-6.035c-3.183-4.4-6.474-8.948-9.594-13.504a7.567 7.567 0 001.527-1.176c.39-.343.79-.699 1.13-.948a30.644 30.644 0 005.321-4.662l.253-.3c1.263-1.527 3.339-4.487 3.043-7.165a4.521 4.521 0 00-1.846-3.136 3.984 3.984 0 00-3.668-.87c-2.412.692-4.422 3.81-5.091 6.394a25.318 25.318 0 00-.609 4.973c-.043.769-.087 1.563-.16 2.343a8.026 8.026 0 01-.231.98c-.22.817-.495 1.832-.28 2.045a.171.171 0 00.178.029 1.159 1.159 0 00.384-.245 7.3 7.3 0 00-.324 1.172 260.768 260.768 0 01-2.4-3.591 1.268 1.268 0 00.19-.377 1.142 1.142 0 00-.209-1.116 1.411 1.411 0 00-1.251-.457 194.93 194.93 0 01-3.047-4.886 596.584 596.584 0 01-6.3-10.698 1.686 1.686 0 00.717-.785 1.814 1.814 0 01.666-.77 2.778 2.778 0 01.623-.249c.26-.074.544-.132.82-.188l.011-.003c.266-.053.567-.115.836-.192a3.449 3.449 0 00.411-.143 16.6 16.6 0 005.338-3.98l.231-.256c1.951-2.205 3.893-5.472 3.49-8.028a3.984 3.984 0 00-2.061-2.869 4.728 4.728 0 00-3.832-.558 7.929 7.929 0 00-3.784 2.768 14.661 14.661 0 00-2.336 4.14l-.063.177a101.163 101.163 0 00-1.53 10.132c-4.379-7.672-7.902-14.405-10.772-20.586a6.377 6.377 0 002.666-.38 26.477 26.477 0 004.44-1.717l.267-.157c.95-.576 4.072-2.646 4.405-5.084a3.166 3.166 0 00-.957-2.666 4.67 4.67 0 00-4.91-1.08 8.616 8.616 0 00-4.147 2.706 39.817 39.817 0 00-2.68 6.355 156.016 156.016 0 01-3.626-8.713 75.518 75.518 0 01-1.94-5.826l.015-.004a2.346 2.346 0 00.825-.486 8.841 8.841 0 003.063-.368 12.964 12.964 0 004.547-2.376 6.717 6.717 0 002.5-3.615 3.746 3.746 0 00-1.618-3.747 4.514 4.514 0 00-4.223-.617 10.3 10.3 0 00-4.04 2.375 26.173 26.173 0 00-2.089 3.896l-.164.338a97.614 97.614 0 01-2.262-19.533 1.279 1.279 0 00.358-.048 1.122 1.122 0 00.77-.76l.723-.207.164-.047a14.576 14.576 0 006.598-3.473l.181-.174c.827-.806 2.728-2.863 2.517-4.589a2.292 2.292 0 00-1.247-1.703 3.62 3.62 0 00-2.931-.358c-2.788.8-5.3 4.462-6.12 6.686l-.063.189c-.162.524-.408 1.573-.544 2.146a1.443 1.443 0 00-.432-.1c.005-3.873.198-7.955.58-12.13a.864.864 0 00.18-.032c.736-.21 1.617-1.448 2.483-3.485 1.487-3.497 2.69-8.922 1.976-10.268-.8-1.5-1.822-2.122-2.962-1.796-1.682.483-3.332 2.996-3.687 4.921a18.5 18.5 0 001.163 9.61l.206.572c.011.04.025.062.036.059s.027-.045.052-.12c.016-.044.04-.115.07-.193a.83.83 0 00.082.497c-.135.438-.277.883-.415 1.315l-.003.012a32.9 32.9 0 00-1.05 3.762 121.59 121.59 0 00-1.786 13.78 65.988 65.988 0 00-.157 3.356 27.285 27.285 0 00-4.372-4.6c-2.19-1.708-5.373-3.579-8.106-2.795a4.541 4.541 0 00-.529.188 4.117 4.117 0 00-2.315 2.42 4.473 4.473 0 00.326 3.574c1.365 2.561 4.762 3.446 7.568 3.931l1.15.191c2.006.313 4.594.63 5.537.36.2-.057.317-.14.346-.244s-.021-.232-.155-.382a5.463 5.463 0 01.559.456c.013.536.034 1.094.06 1.663l-.13.037.13-.03a61.09 61.09 0 003.095 16.282 14.514 14.514 0 00-3.154-1.738 10.533 10.533 0 00-6.01-.165 4 4 0 00-2.74 2.002 3.684 3.684 0 00.328 3.159 5.107 5.107 0 004.026 2.903 19.478 19.478 0 005.416-.215 20.376 20.376 0 014.273-.275 197.552 197.552 0 009.112 19.305 1.278 1.278 0 00-.278.047 1.092 1.092 0 00-.538.342c-.483-.414-.972-.875-1.445-1.32a15.613 15.613 0 00-3.428-2.7c-1.803-.875-5.931-2.323-8.648-1.544a3.784 3.784 0 00-1.164.541 3 3 0 00-1.502 2.692 4.848 4.848 0 003.054 3.473c3.535 1.634 8.657 1.198 12.772.847l.801-.068a1.4 1.4 0 00.938.079 1.11 1.11 0 00.357-.175l.27-.017c3.344 6.14 6.84 12.045 9.512 16.504l1.216 2.024-.155-.048a13.572 13.572 0 00-3.633-2.875 16.632 16.632 0 00-4.457-1.618 9.873 9.873 0 00-4.65.106 7.956 7.956 0 00-1.47.585 7.691 7.691 0 00-3.912 4.644 5.583 5.583 0 00.692 4.545c1.425 2.261 3.75 2.893 7.107 1.93a32.8 32.8 0 006.168-2.743l.837-.448a24.033 24.033 0 013.946-1.893 2.356 2.356 0 01.787-.115c4.031 6.615 8.525 12.957 11.991 17.744a9.749 9.749 0 00-1.762-.84c-2.055-.724-5.498-.62-8.568.26a13.66 13.66 0 00-3.841 1.715 5.927 5.927 0 00-2.328 2.692 5.067 5.067 0 00.734 4.605c1.427 2.304 3.53 3.019 6.428 2.189 2.526-.725 5.33-2.53 7.804-4.124a41.366 41.366 0 014.38-2.594l3.395 4.63c2.563 3.497 5.531 7.568 8.364 11.664a14.8 14.8 0 00-8.096-1.969l-.527.032a15.8 15.8 0 00-3.176.535 6.574 6.574 0 00-3.062 1.68 3.6 3.6 0 00-.833 3.332c.883 4.406 6.874 4.122 10.367 3.56a15.972 15.972 0 001.768-.435c.323-.093.66-.19 1.015-.297l.047-.014c.405-.116.767-.227 1.152-.337a26.536 26.536 0 014.757-1.01 100.156 100.156 0 0113.474 29.647 86.809 86.809 0 012.642 19.464l.04 1.954.018.789c.095 4.55.226 10.788-1.321 15.427zm-70.612-196.135c-.242-.119-.424-1.686-.606-3.2a16.818 16.818 0 00-.377-2.428 14.745 14.745 0 00-4.36-5.774 5.485 5.485 0 00-4.883-1.236 3.21 3.21 0 00-1.931 1.45 4.453 4.453 0 00-.418 3.007c.364 2.3 2.049 4.221 5.01 5.712a33.469 33.469 0 007.563 2.464z"
              data-name="Compound-Leaf-Left"/>
            <path
              fill="url(#e)"
              d="M-28.414 229.4a8.481 8.481 0 003.007-2.8 21.92 21.92 0 01-3.008 2.8zm2.439-2.649a46.375 46.375 0 008.29-15.531 91.569 91.569 0 003.83-17.109 82.815 82.815 0 00-1.716-29.1c1.32-1.166 3.951-1.838 6.736-2.549 3.768-.961 7.664-1.956 8.616-4.284.451-1.1.211-2.4-.734-3.958a5.718 5.718 0 00-5.076-2.793 9.113 9.113 0 00-6.46 2.9c-1.643 1.777-2.818 4.773-3.492 8.907-.69-2.891-1.5-5.839-2.414-8.763-1.1-3.535-2.368-7.323-3.991-11.921a23 23 0 008.438-4.426c2.982-2.374 5.031-4.97 5.77-7.31a4.8 4.8 0 00-.915-4.959 5.03 5.03 0 00-3.6-2c-4.892 0-8.395 11.107-9.713 15.289-.131.416-.244.773-.331 1.034a.623.623 0 00.342.113.541.541 0 00.168-.027c-.243.288-.476.553-.694.786-.831-2.337-1.689-4.71-2.519-7-1.847-5.107-3.756-10.386-5.5-15.626a7.567 7.567 0 001.792-.709c.469-.223.953-.454 1.348-.6a30.644 30.644 0 006.4-3.015l.326-.219c1.635-1.119 4.446-3.392 4.9-6.048a4.521 4.521 0 00-.911-3.523 3.984 3.984 0 00-3.286-1.847c-2.509 0-5.3 2.443-6.656 4.742a25.318 25.318 0 00-1.956 4.613c-.253.727-.514 1.478-.8 2.208a8.026 8.026 0 01-.492.879c-.437.724-.981 1.624-.832 1.888a.171.171 0 00.163.077 1.159 1.159 0 00.436-.13 7.3 7.3 0 00-.634 1.038c-.421-1.276-.865-2.66-1.318-4.114a1.268 1.268 0 00.287-.31 1.142 1.142 0 00.107-1.13 1.411 1.411 0 00-1.077-.784 194.93 194.93 0 01-1.582-5.537 596.584 596.584 0 01-3.108-12.02 1.686 1.686 0 00.906-.557 1.814 1.814 0 01.853-.556 2.778 2.778 0 01.667-.068c.27 0 .56.023.841.045h.011c.27.022.576.046.856.046a3.449 3.449 0 00.435-.024 16.6 16.6 0 006.228-2.354l.293-.183c2.483-1.582 5.25-4.187 5.568-6.755a3.984 3.984 0 00-1.191-3.326 4.728 4.728 0 00-3.53-1.593 7.929 7.929 0 00-4.4 1.618 14.661 14.661 0 00-3.387 3.336l-.109.153a101.163 101.163 0 00-4.264 9.317c-2.094-8.581-3.625-16.025-4.68-22.757a6.377 6.377 0 002.667.37 26.477 26.477 0 004.742-.427l.3-.078c1.071-.292 4.643-1.421 5.635-3.673a3.166 3.166 0 00-.185-2.826A4.67 4.67 0 00-34 61.2a8.616 8.616 0 00-4.731 1.458 39.817 39.817 0 00-4.328 5.37c-.477-3.3-.842-6.452-1.084-9.375a75.518 75.518 0 01-.259-6.135h.016a2.346 2.346 0 00.927-.24 8.841 8.841 0 003.045.491 12.964 12.964 0 005.026-1.031 6.717 6.717 0 003.4-2.786 3.746 3.746 0 00-.523-4.048 4.514 4.514 0 00-3.889-1.757 10.3 10.3 0 00-4.538 1.17 26.173 26.173 0 00-3.082 3.169l-.251.28a97.614 97.614 0 013.21-19.4 1.279 1.279 0 00.357.052 1.122 1.122 0 00.949-.518h.923a14.576 14.576 0 007.3-1.519l.222-.118c1.017-.547 3.411-2 3.684-3.717a2.292 2.292 0 00-.729-1.981 3.62 3.62 0 00-2.719-1.152c-2.9 0-6.325 2.828-7.726 4.74l-.112.164c-.3.459-.826 1.4-1.115 1.913a1.443 1.443 0 00-.387-.215 136.035 136.035 0 013.9-11.5.864.864 0 00.183.019c.765 0 1.953-.947 3.347-2.666 2.393-2.952 5.046-7.835 4.73-9.325C-28.609.88-29.421 0-30.607 0c-1.749 0-4.028 1.961-4.9 3.714a18.5 18.5 0 00-1.531 9.559l.04.606c0 .042.007.066.019.066s.038-.035.083-.1c.027-.039.069-.1.121-.167a.83.83 0 00-.059.5c-.25.384-.51.773-.761 1.15l-.007.011a32.9 32.9 0 00-2.045 3.327 121.59 121.59 0 00-5.516 12.754 65.988 65.988 0 00-1.076 3.182 27.285 27.285 0 00-2.935-5.627c-1.634-2.245-4.178-4.921-7.021-4.921a4.541 4.541 0 00-.56.035 4.117 4.117 0 00-2.893 1.688 4.473 4.473 0 00-.672 3.526c.607 2.838 3.628 4.625 6.192 5.865l1.052.5c1.842.854 4.243 1.873 5.224 1.873.208 0 .343-.047.4-.14s.043-.229-.044-.41a5.463 5.463 0 01.411.593 79.757 79.757 0 00-.4 1.615h-.135l.133.006A61.09 61.09 0 00-49 55.71a14.514 14.514 0 00-2.553-2.54 10.533 10.533 0 00-5.732-1.815 4 4 0 00-3.185 1.169 3.684 3.684 0 00-.555 3.127 5.107 5.107 0 003.069 3.9 19.478 19.478 0 005.266 1.286 20.376 20.376 0 014.183.914 197.552 197.552 0 003.438 21.069 1.278 1.278 0 00-.28-.032 1.092 1.092 0 00-.612.181c-.35-.532-.693-1.109-1.025-1.667a15.613 15.613 0 00-2.551-3.541c-1.492-1.338-5.061-3.868-7.887-3.868a3.784 3.784 0 00-1.268.2 3 3 0 00-2.186 2.173 4.848 4.848 0 001.978 4.18c2.948 2.546 7.992 3.538 12.044 4.335l.789.156a1.4 1.4 0 00.88.334 1.11 1.11 0 00.391-.07l.265.058c1.521 6.824 3.254 13.464 4.594 18.487l.611 2.281-.136-.089a13.572 13.572 0 00-2.7-3.765A16.632 16.632 0 00-46 99.389a9.873 9.873 0 00-4.5-1.18 7.956 7.956 0 00-1.574.157 7.691 7.691 0 00-5.04 3.386 5.583 5.583 0 00-.588 4.56c.747 2.566 2.807 3.814 6.3 3.814a32.8 32.8 0 006.685-.937l.928-.2a24.033 24.033 0 014.315-.732 2.356 2.356 0 01.788.107c2.052 7.47 4.624 14.805 6.636 20.361a9.749 9.749 0 00-1.463-1.292c-1.775-1.263-5.113-2.112-8.307-2.112a13.66 13.66 0 00-4.165.589 5.927 5.927 0 00-2.98 1.946 5.067 5.067 0 00-.563 4.629c.736 2.608 2.56 3.875 5.575 3.876 2.628 0 5.821-.963 8.639-1.813a41.366 41.366 0 014.924-1.286l1.988 5.386c1.5 4.068 3.231 8.8 4.825 13.518a14.8 14.8 0 00-7.24-4.124l-.515-.115a15.8 15.8 0 00-3.2-.361 6.574 6.574 0 00-3.407.77 3.6 3.6 0 00-1.719 2.974c-.366 4.479 5.472 5.857 8.984 6.279a15.972 15.972 0 001.819.07c.337 0 .687 0 1.058-.006h.049c.421 0 .8-.007 1.2-.007a26.536 26.536 0 014.852.34 100.156 100.156 0 014.78 32.213 86.809 86.809 0 01-2.826 19.438l-.5 1.89-.2.763c-1.163 4.4-2.756 10.433-5.522 14.465zm-13.815-208c-.2-.181.057-1.738.3-3.243a16.818 16.818 0 00.307-2.438 14.745 14.745 0 00-2.6-6.752 5.485 5.485 0 00-4.353-2.534 3.21 3.21 0 00-2.256.861 4.453 4.453 0 00-1.231 2.775c-.284 2.311.806 4.623 3.241 6.872a33.469 33.469 0 006.592 4.454z"
              data-name="Compound-Leaf-Left"
              transform="rotate(-16 244.912 1768.59)"/>
            <g transform="translate(-275.327 126)">
              <rect width="6" height="31" fill="#b9faf7" data-name="Value" rx="3" transform="translate(-6 40)"/>
              <rect width="6" height="51" fill="#b9faf7" data-name="Value" rx="3" transform="translate(-20 20)"/>
              <rect width="6" height="61" fill="#b9faf7" data-name="Value" rx="3" transform="translate(-34 10)"/>
              <rect width="6" height="51" fill="#c7fffa" data-name="Value" rx="3" transform="translate(-47 20)"/>
              <rect width="6" height="71" fill="#b9faf7" data-name="Value" rx="3" transform="translate(-61)"/>
            </g>
            <g>
              <path
                fill="#c9f0f5"
                d="M-189.606 493.84a18.07 18.07 0 00-4.616 6.425 76.858 76.858 0 00-7.906 6.045c-20.749 21.408-8.544 58.9 3.6 81.435A195.651 195.651 0 00-186.208 607c2.854 4.076 10.422 19.373 15.226 20.539 7.595 1.845-2.115-10.488-2.892-11.658-4.744-7.152-9.721-14.191-14.173-21.532-13.3-21.933-29.021-60.53-9.906-83.522 1.771-2.132 9.8-7.152 16.546-11.344 2.979-1.143 5.651-1.65 7.141-.819 4.876 2.719-10.671 6.606-12.008 7.257-7.841 3.815-11.157 8.644-4.4 15.806 4.9 5.191 12.077 5.16 18.77 5.381 4.275.142 7.775-2.125 11.971-1.25 19.078 3.976 30.377 12.811 41.537 26.327 8.395 10.166 22.975 27.385 37.357 15.884 11.5-9.193 7.924-28.1 3.728-40.038-6.27-17.831-18.602-36.294-36.681-43.56-22.435-9.01-56.932-7.557-75.614 9.369z"
                data-name="Leaf Bottom"/>
              <path
                fill="#b9ebed"
                d="M-122.64 455.457c3.196-.112 6.376-.16 9.57-.106 2.434.04 6.13-.59 8.24.843 2.19 1.488 2.155 4.694 1.9 6.965-1.346 12.013-5.28 22.76-13.991 31.544-13.414 13.523-29.082 20.704-47.794 24.313-13.144 2.535-25.445.086-35.502-8.913a145.22 145.22 0 00-13.727 42.79 100.69 100.69 0 00-.747 21.774c.316 4.707.743 9.4 1.416 14.072.292 2.03 1.446 5.078.71 7.033a3.248 3.248 0 01-5.527.746c-1.243-1.563-1.136-4.723-1.446-6.613-.51-3.142-1-6.286-1.378-9.447-.615-5.116-1.117-10.25-1.274-15.401-.351-11.574 1.831-23.282 4.988-34.39 6.054-21.318 16.423-40.428 33.055-55.724 10.223-9.402 22.16-13.484 35.781-15.928 8.48-1.521 17.091-3.255 25.726-3.558"
                data-name="Leaf Simple"/>
              <path
                fill="#aeebe9"
                d="M-289.142 525.836c-.527-6.745 1.711-15.072 3.345-21.152l.144-.537.756-2.848a120.7 120.7 0 0110.022-25.506c6.625-12.377 15.69-23.911 27.712-35.261a44.745 44.745 0 017.471 3.828 35.973 35.973 0 003.457 1.914 23.884 23.884 0 008.755 2.2c3.027 0 5.113-1.176 6.2-3.5a5.09 5.09 0 00.2-4.321c-1.292-2.988-5.5-4.747-7.885-5.53l-.574-.18a19.486 19.486 0 00-5.713-.867 22.006 22.006 0 00-5.7.794c5.227-4.641 10.637-9.2 15.729-13.48l5.288-4.439a57.018 57.018 0 014.963 4.948c4.164 4.474 8.884 9.544 13.471 9.545a6.787 6.787 0 004.8-2.177 8.225 8.225 0 002.385-3.884 5.983 5.983 0 00-.331-3.715c-1.01-2.469-3.565-4.889-7.194-6.812a22.311 22.311 0 00-9.555-2.761c-.3 0-.583.013-.85.039a13.155 13.155 0 00-2.62.535c11.785-10.017 17.842-15.836 21.8-19.786 1.249.228 3.278 2.106 5.627 4.28 4.042 3.741 9.072 8.4 13.708 8.4a6.5 6.5 0 004.625-1.97 7.751 7.751 0 002.422-5.862 10.69 10.69 0 00-3.664-7.547 12.847 12.847 0 00-8.843-3 23.422 23.422 0 00-5.52.7 18.517 18.517 0 00-5.783 2.638l-.222.013c6.221-6.262 13.496-13.68 20.396-21.271l.353.114a1.71 1.71 0 001.341.595 2 2 0 00.348-.031l1.016.35.029.01c4.368 1.509 9.8 3.387 14.521 3.387a14.557 14.557 0 002.734-.243c2.551-.49 4.59-1.909 5.193-3.616a4.164 4.164 0 00-1.1-4.131c-1.738-2.058-5.309-2.49-8-2.49a27.12 27.12 0 00-5.371.541 21.3 21.3 0 00-5.449 2.474c-.775.438-1.577.891-2.357 1.286a1.559 1.559 0 00-.956-.8 271.961 271.961 0 0018.491-22.84 27.759 27.759 0 015.586 1.8c2.654 1.052 5.4 2.14 7.947 2.141a6.815 6.815 0 005.5-2.587c1.514-1.8 1.912-3.508 1.183-5.073a7.665 7.665 0 00-4.041-3.337 15.1 15.1 0 00-5.586-1.18 8.784 8.784 0 00-1.095.064 19.7 19.7 0 00-4.768 1.274 84.818 84.818 0 009.5-20.808l.057.031a1.053 1.053 0 00.1.053l-.158-.1c.22-.727.434-1.47.635-2.206a8.2 8.2 0 01.736-.363l.157-.064c-.259.179-.367.356-.323.525.111.421 1.156.811 3.106 1.158 1.278.228 2.9.431 4.828.6l1.431.119a37.68 37.68 0 002.88.123c4.036 0 6.834-.934 8.552-2.855a6.217 6.217 0 001.614-4.69 5.711 5.711 0 00-2.278-4.019 7.33 7.33 0 00-4.565-1.387 19.593 19.593 0 00-7.773 1.99l-.146.068a37.247 37.247 0 00-7.186 4.638 93.14 93.14 0 00.9-4.555 169.616 169.616 0 002.179-19.075 46.1 46.1 0 00-.151-5.41c-.041-.626-.083-1.273-.117-1.91a1.14 1.14 0 00.273-.64c.015.118.024.213.03.283.011.123.016.179.037.179s.025-.014.049-.047l.42-.635a34.705 34.705 0 003.2-5.973 20.887 20.887 0 001.574-6.616 10.682 10.682 0 00-2.35-7.096 3.145 3.145 0 00-2.294-1.135 4.441 4.441 0 00-3.151 1.81c-.741.832-1.211 3.514-1.256 7.174a38.823 38.823 0 001 9.735c.5 1.824 1.141 2.91 1.863 3.143-.879 5.727-1.971 11.269-3.247 16.471a1.955 1.955 0 00-.337-.029 1.968 1.968 0 00-.269.019c.02-1.525.015-2.569-.016-3.1l-.018-.233a19.912 19.912 0 00-2.541-7.369c-1.183-2-3.173-4.374-5.935-4.374a5.145 5.145 0 00-1.461.219 3.149 3.149 0 00-2.214 1.848c-.824 2.131.752 5.254 1.765 6.927l.24.387a20.114 20.114 0 007.654 6.891l1.064.612a1.582 1.582 0 001.231 1.462 135.685 135.685 0 01-9.464 25.45l-.1-.5a36.445 36.445 0 00-1.495-5.943 14.835 14.835 0 00-3.449-3.777 8.008 8.008 0 00-4.729-1.844 5.255 5.255 0 00-2.218.489c-2.513 1.162-3.669 3.073-3.342 5.529.605 4.542 6.3 10.031 11.284 10.877a3.2 3.2 0 00.955.94 103.972 103.972 0 01-4.505 7.167c-2.279 3.323-4.87 6.847-7.7 10.474a55.554 55.554 0 00-1.461-9.425 12.019 12.019 0 00-3.423-4.21 8.38 8.38 0 00-4.98-1.932 5.632 5.632 0 00-3.111.932 4.375 4.375 0 00-2.153 3.255c-.368 3.409 3.137 7.249 4.219 8.345l.257.255c1.107 1.079 6.765 5.178 8.752 5.2-5.853 7.323-12.762 15.176-21.123 24.007.592-3.374 1.343-12.4 1.322-13.946l-.006-.159a19.619 19.619 0 00-2.532-8.06c-1.2-2-3.294-4.382-6.5-4.382a7.375 7.375 0 00-2.122.329 5.466 5.466 0 00-3.674 3.136c-1.4 3.323.125 8.4 2.022 12.038l.18.338a22.948 22.948 0 005.779 7.131 9.047 9.047 0 001.548.869 6.973 6.973 0 011.787 1.077 2.521 2.521 0 01.631 1.256 2.344 2.344 0 00.693 1.3 813.497 813.497 0 01-11.912 12.242 260.58 260.58 0 01-5.665 5.533 1.915 1.915 0 00-.727-.141 1.806 1.806 0 00-1.313.532 1.612 1.612 0 00-.419 1.229 1.743 1.743 0 00.128.571 368.155 368.155 0 01-4.378 4.014 8.373 8.373 0 00-.007-1.211l-.036-.471c.235.334.43.5.578.5a.2.2 0 00.146-.066c.306-.312.278-1.69.256-2.8-.009-.449-.018-.872 0-1.166l.02-.227c.156-1.076.36-2.157.558-3.2a35.354 35.354 0 00.835-6.874 16.252 16.252 0 00-1.79-7.079c-.95-1.774-2.652-3.889-5.368-3.889a6.534 6.534 0 00-2.657.621 6.218 6.218 0 00-3.487 3.573 9.875 9.875 0 00-.163 5.383 23.492 23.492 0 001.871 5.338l.2.414a42.488 42.488 0 005.523 8.034c.371.446.787 1.056 1.189 1.647a10.492 10.492 0 001.642 2.09c-5.662 5.08-11.556 10.094-17.255 14.942-2.538 2.159-5.162 4.391-7.738 6.606-.1-.432-.192-.9-.284-1.421a.759.759 0 00.6.253h.067c.075-.373.186-.877.313-1.462a96.077 96.077 0 002.035-12.145c.49-5.708-.116-9.664-1.8-11.757a4.748 4.748 0 00-3.891-1.779 9.926 9.926 0 00-3.039.547 6.6 6.6 0 00-4.47 5.265 16.506 16.506 0 00-.035 6.038 32.748 32.748 0 001.862 6.723 31.9 31.9 0 006.992 11.164c-5.057 4.37-9.153 8.028-12.892 11.511a183.097 183.097 0 00-8.859 8.822c2.029-5.416 2.684-9.818 1.95-13.081a13.057 13.057 0 00-3.557-6.312 9.137 9.137 0 00-6.277-2.813 7.753 7.753 0 00-3.78 1.013c-2.185 1.214-3.356 2.595-3.578 4.222-.471 3.45 3.475 7.34 7.291 11.1 2.819 2.779 5.481 5.4 6.249 7.713a133.662 133.662 0 00-12.431 15.834 102.915 102.915 0 00-9.515 17.819 127.444 127.444 0 00-7.161 23.136c-1.835 9.172-2.1 17.361-.793 24.337zm161.567-238.852a37.06 37.06 0 0010.168-1.147c3.791-1.1 6.3-3.026 7.443-5.731.889-2.095.859-3.957-.087-5.385a5.833 5.833 0 00-4.969-2.316 8.331 8.331 0 00-3.68.868 20.646 20.646 0 00-7.877 6.367 23.518 23.518 0 00-1.336 3.173c-.77 2.027-1.566 4.124-1.921 4.143h.066a92.73 92.73 0 002.193.028z"
                data-name="Leaf compound bottom"/>
              <path
                fill="#aeebe9"
                d="M-276.834 461.052l-.232-2.572a120.585 120.585 0 01.694-27.4c2.167-15.113 7.2-29.105 13.98-42.612 4.275-.058 9.739 1.511 12.233 1.658 4.572.268 13.047-.047 13.608-6.338.552-6.186-6.842-6.843-11.187-6.6a20.026 20.026 0 00-10.749 3.835c2.738-5.062 5.579-10.066 8.447-15.055l5.174-8.972c7.713 2.714 21.317 13.549 26.05 3.624 5.431-11.39-13.817-13.95-20.467-10.783a13.281 13.281 0 00-2.28 1.4c4.853-8.53 9.553-17.143 13.721-26.049 1.5-.257 4.806 1.309 8.618 2.874 6.5 2.668 14.471 5.334 17.558-1.009 2.448-5.029-.917-10.25-5.753-12.175-4.856-1.934-10.168.005-14.285 2.75a18.606 18.606 0 00-4.531 4.456l-.2.087c4.076-8.831 8.14-17.822 11.882-26.952l.372-.013a1.774 1.774 0 001.78-.048c5.69-.105 13.505-.042 18.394-2.965 3.372-2.016 5.587-6.164 1.2-8.681-3.569-2.047-10.183.841-13.23 2.742-2.111 1.318-4.033 4.05-6.048 6.2a1.564 1.564 0 00-1.171-.421 273.785 273.785 0 009.558-27.788 28 28 0 015.9-.219c5.075.145 10.513.289 12.449-5.018 2.863-7.852-7.915-7.9-12.223-5.688a19.922 19.922 0 00-4.045 2.828 84.481 84.481 0 001.808-22.8l.182.024-.182-.037q-.065-1.146-.158-2.291a8.094 8.094 0 01.568-.592l.127-.114c-1.317 1.854 5.04.313 7.933-.454l1.955-.54c3.548-1.037 7.8-2.711 9.24-6.315a5.833 5.833 0 00-3.6-7.957c-4.165-1.305-8.643 2.122-11.388 4.786l-.115.113a37.3 37.3 0 00-5.179 6.818q-.3-2.3-.713-4.588a169.479 169.479 0 00-4.481-18.681 72.254 72.254 0 00-2.76-6.787 1.145 1.145 0 00.039-.695c.192.374.207.5.248.35l.178-.74c1.028-4.375 1.494-9.028.185-13.464-1.15-3.9-6.9-9.967-9.523-3.362-1.174 2.951 5.039 18.417 8.369 18.292 1.092 5.476 1.976 11.019 2.582 16.588a1.934 1.934 0 00-.573.2c-.389-1.118-.823-2.32-1.076-2.911l-.1-.212c-1.942-3.946-8.409-11.038-13.28-7.431-3.618 2.679.407 6.681 2.706 8.5l.231.181c3.364 2.582 6.343 3.295 9.948 3.929l.811.14a1.575 1.575 0 001.657.952 135.153 135.153 0 01-.189 27.152 42.027 42.027 0 00-3.7-5.5c-2.936-2.282-8.365-4.4-11.521-1.268-6.627 6.582 5.872 14.017 13.074 12.7a3.24 3.24 0 001.219.556q-.724 4.163-1.782 8.275c-1.061 4.118-2.3 8.285-3.654 12.477a55.415 55.415 0 00-4.6-8.357c-3.091-3.081-9.495-5.078-12.6-.959-3.491 4.639 2.7 8.751 6.237 10.345l.129.056c1.678.7 8.051 2.477 9.872 1.833-3.351 9.938-7.387 19.977-11.638 29.784-.592-3.34-2.95-12.033-3.528-13.557l-.06-.149c-2.3-4.995-8.685-12-14.621-7.569-5.616 4.192-.07 11.447 3.638 14.84l.278.25a22.86 22.86 0 007.87 4.724c1.138.361 2.775.227 3.8.688s1.055 1.543 2.118 1.944a801.222 801.222 0 01-7.007 15.576 262.857 262.857 0 01-3.432 7.138 1.719 1.719 0 00-1.758 2.363 1.807 1.807 0 00.316.493q-1.35 2.645-2.741 5.269a10.087 10.087 0 00-.616-1.566c2.043 1.426-.13-2.826-.346-3.866-.695-3.334-.932-6.725-2.138-9.946-1.744-4.657-7.553-11.414-12.763-6.366-4.584 4.434-.572 10.271 3.057 13.882l.491.479a42.08 42.08 0 007.939 5.66c1.245.727 3.059 2.283 3.938 2.543-5.18 9.7-10.73 19.2-16.115 28.8a26.791 26.791 0 01-.754-1.238.772.772 0 00.708.009c-.754-4.973-3.319-32.037-15.092-22.809-7.969 6.258 5.014 22.057 14.071 25.942-2.807 5.03-5.559 10.092-8.177 15.226q-2.842 5.571-5.308 11.319c.04-4.2-.4-9.462-2.641-12.959-3.264-5.089-11.011-8.2-15.567-2.965-8.571 9.875 12.768 12.6 17.24 18.239-5.1 12.462-8.574 25.51-9.113 39.129-.587 14.81.817 33.913 8.776 47.347-2.939-6.479-3.626-15.803-4.166-21.962zm88.5-270.254c.365-6.99-6.76-7.405-10.545-3.433a20.72 20.72 0 00-5.225 8.676c-.307 1.129.005 7.75-.559 7.989 5.79-1.963 15.934-5.741 16.326-13.232z"
                data-name="Leaf compound top"/>
              <path fill="#ace8e8" d="M-256.527 527.108c43.632 0 118.078-66.641 118.078-121.984 0-4.21-2-12.157-6.4-12.157-23.817-.037-111.678 71.011-111.678 134.141z" data-name="Leaf 2"/>
            </g>
            <g>
              <path
                fill="#96e3e3"
                d="M-292.14 547.398c-4.322 0-12.743-14.569-12.743-42.825 0-20.663 14.553-34.026 18.875-54.5 6.649-31.392 39.574-123.613 90.982-123.613 5.91 0 13.844 12.356 13.844 37.812 0 30.873-30.052 62.841-30.052 69.471-.029 75.704-67.128 113.655-80.906 113.655z"
                data-name="leaf-top"/>
              <path
                fill="none"
                stroke="rgba(255,255,255,0.14)"
                stroke-linecap="round"
                stroke-linejoin="round"
                stroke-miterlimit="10"
                stroke-width="2"
                d="M-271.108 500.377l41.571-3.7-41.571 3.7 4.122-9.272 45.32-9.086-45.32 9.086 20.5-46.113 33.818-10.317-33.818 10.317 50.685-114.023c-13.172 9.432-26.682 29.9-38.307 51.755l-13.422-17.937 13.422 17.938a414.929 414.929 0 00-4.6 8.912l-15.57-17.833 15.566 17.832a533.262 533.262 0 00-25.089 58.638l-.6.182.6-.182a77.231 77.231 0 00-2.444 7.92c-1.2 6.064-6.5 22.169-11.026 34.973l-.62.124.62-.124c-2.643 7.48-5.022 13.834-6.166 16.4-3.1 6.96-9.073 34.807-9.073 38.958zm-13.533-44.285l15.74 11.277z"
                data-name="Leaf veins"/>
            </g>
            <g transform="translate(-270.327 180)">
              <rect width="222.009" height="329" fill="#00aebc" data-name="Left Side" rx="2" transform="translate(-223 1)"/>
              <g filter="url(#f)" transform="translate(-2812.67 -1236.26)">
                <rect width="39.644" height="329" fill="#00b8c6" data-name="Right Side" rx="2" transform="translate(2773.03 1236.26)"/>
              </g>
              <g filter="url(#g)" transform="translate(-2812.67 -1236.254)">
                <rect width="137" height="27.915" fill="#04b5c4" data-name="Rectangle" rx="3" transform="translate(2617.42 1258.19)"/>
              </g>
              <g filter="url(#h)" transform="translate(-2812.67 -1236.254)">
                <rect width="137" height="27.915" fill="#04b5c4" data-name="Rectangle" rx="3" transform="translate(2617.42 1304.06)"/>
              </g>
              <g filter="url(#i)" transform="translate(-2812.67 -1236.254)">
                <rect width="137" height="27.915" fill="#04b5c4" data-name="Rectangle" rx="3" transform="translate(2617.42 1350.91)"/>
              </g>
              <g filter="url(#j)" transform="translate(-2812.67 -1236.254)">
                <rect width="137" height="27.915" fill="#04b5c4" data-name="Rectangle" rx="3" transform="translate(2617.42 1397.77)"/>
              </g>
              <g filter="url(#k)" transform="translate(-2812.67 -1236.254)">
                <rect width="137" height="27.915" fill="#04b5c4" data-name="Rectangle" rx="3" transform="translate(2617.42 1443.63)"/>
              </g>
              <g fill="#c2fdfe" transform="translate(-180.382 26.921)">
                <ellipse cx="4.956" cy="4.985" rx="4.956" ry="4.985" transform="translate(-9.911)"/>
                <ellipse cx="4.956" cy="4.985" data-name="Oval" rx="4.956" ry="4.985" transform="translate(-9.911 46.858)"/>
                <ellipse cx="4.956" cy="4.985" data-name="Oval" rx="4.956" ry="4.985" transform="translate(-9.911 92.718)"/>
                <ellipse cx="4.956" cy="4.985" data-name="Oval" rx="4.956" ry="4.985" transform="translate(-9.911 139.576)"/>
                <ellipse cx="4.956" cy="4.985" data-name="Oval" rx="4.956" ry="4.985" transform="translate(-9.911 186.433)"/>
              </g>
              <g fill="none" stroke="#c2fdfe" stroke-linecap="round" stroke-linejoin="round" stroke-miterlimit="10" stroke-width="4" data-name="Big Lines">
                <path d="M-102.084 32.406h-74.333M-102.084 78.267h-74.333M-102.084 125.124h-74.333M-102.084 171.982h-74.333M-102.084 217.842h-74.333" data-name="Path"/>
              </g>
              <g fill="none" stroke="#c0fffd" stroke-linecap="round" stroke-linejoin="round" stroke-miterlimit="10" stroke-width="2" data-name="Little lines">
                <path d="M-9.911 41.379h-20.813M-9.911 47.361h-20.813M-9.911 79.264h-20.813M-9.911 85.246h-20.813M-9.911 125.124h-20.813M-9.911 131.106h-20.813M-9.911 168.991h-20.813M-9.911 174.973h-20.813" data-name="Path"/>
              </g>
            </g>
          </g>
        </g>
      </g>
    </g>
    <g data-name="Computer Woman (drawkit)">
      <path
        fill="#0c3247"
        d="M2527.918 1262.723c-11.142.593-27.084 9.428-27.084 24.829s16.05 21.448 30.47 23.96c-9.782 11.663-13.794 13.919-12.791 18.936s10.031 18.815 10.772 34.62 43.639 102.722 51.785 105.234-7.917 18.586 48.27 20.391c14.979 0 42.158-22.223 42.158-51.179.673-63.119-64.913-75.1-101.381-145.517-16.737-32.324-37.028-31.557-42.199-31.274z"/>
      <path fill="#c0b19c" d="M2392.307 1615.651l-13.385-7.962-9.481 16.932 13.385 7.955z"/>
      <path fill="url(#l)" d="M0 7.962L-13.385 0l-9.481 16.932 13.385 7.955z" data-name="Ankle-Back Shadow" transform="translate(2392.307 1607.689)"/>
      <path fill="#c0b19c" d="M2493.23 1647.508l-14.429 6.734 8.43 17.157 14.436-6.691z"/>
      <path fill="url(#m)" d="M-8.437 0l-14.429 6.734 8.43 17.157L0 17.2z" data-name="Ankle-Front Shadow" transform="translate(2501.667 1647.508)"/>
      <path fill="#00415d" d="M2415.102 1499.182c-13.754 0-33.983 83.063-42.679 107.417 1.818 5.1 12.138 13.036 17.8 13.036 10.923-18.445 35.393-57.985 39.741-64.1 3.482-4.866-1.107-56.353-14.862-56.353z"/>
      <path
        fill="url(#n)"
        d="M-15.978 0c-13.754 0-33.983 83.063-42.679 107.417 1.818 5.1 12.138 13.036 17.8 13.036 10.923-18.445 35.393-57.985 39.741-64.1C2.366 51.487-2.223 0-15.978 0z"
        data-name="Leg-Back Shadow"
        transform="translate(2431.08 1499.182)"/>
      <path
        fill="#00415d"
        d="M2573.328 1484.312c11.949 0 21.793-2.583 21.793 25.63s-30.7 51.708-67.141 51.708-52.563-.971-55.884-1.781c-.982 9.328 20.5 73.248 22.8 89.706-1.647 4.4-12.305 9.874-16.81 9.874s-64.444-97.658-62.884-158c-.208-9.443 34.421-12.053 56.3-12.053s68.452 2.529 74.342 2.529"/>
      <g data-name="Leg-Front Gradient">
        <g filter="url(#o)" transform="translate(.003 -.001)">
          <path
            fill="url(#p)"
            d="M-21.793.062C-9.844.062 0-2.521 0 25.692S-30.7 77.4-67.141 77.4s-52.563-.971-55.884-1.781c-.982 9.328 20.5 73.248 22.8 89.706-1.647 4.4-12.305 9.874-16.81 9.874s-64.444-97.658-62.884-158c-.208-9.443 34.421-12.053 56.3-12.053s68.452 2.529 74.342 2.529"
            data-name="Leg-Front Gradient"
            transform="translate(2595.12 1484.25)"/>
        </g>
        <path
          fill="url(#q)"
          d="M-21.793.062C-9.844.062 0-2.521 0 25.692S-30.7 77.4-67.141 77.4s-52.563-.971-55.884-1.781c-.982 9.328 20.5 73.248 22.8 89.706-1.647 4.4-12.305 9.874-16.81 9.874s-64.444-97.658-62.884-158c-.208-9.443 34.421-12.053 56.3-12.053s68.452 2.529 74.342 2.529"
          data-name="Leg-Front Gradient"
          transform="translate(2595.121 1484.25)"/>
      </g>
      <path fill="#f2d566" d="M2590.693 1487.354c1.52-6.263 9.714-140.859-39.443-138.457s-48.654 122.345-43.056 141.276c22.436 9.499 80.898 3.792 82.499-2.819z"/>
      <g data-name="Shirt Gradient">
        <g filter="url(#r)" transform="translate(.003 -.001)">
          <path fill="url(#s)" d="M-1.445 138.489C.075 132.226 8.269-2.37-40.888.032s-48.654 122.345-43.056 141.276c22.436 9.499 80.898 3.792 82.499-2.819z" data-name="Shirt Gradient" transform="translate(2592.14 1348.86)"/>
        </g>
        <path
          fill="url(#t)"
          d="M-1.445 138.489C.075 132.226 8.269-2.37-40.888.032s-48.654 122.345-43.056 141.276c22.436 9.499 80.898 3.792 82.499-2.819z"
          data-name="Shirt Gradient"
          transform="translate(2592.138 1348.865)"
          style="mix-blend-mode:saturation;isolation:isolate"/>
        <path fill="url(#u)" d="M-1.445 138.489C.075 132.226 8.269-2.37-40.888.032s-48.654 122.345-43.056 141.276c22.436 9.499 80.898 3.792 82.499-2.819z" data-name="Shirt Gradient" transform="translate(2592.138 1348.865)"/>
      </g>
      <path fill="#c0b19c" d="M2534.263 1338.558c.761 1.854 4.865 11.73 5.626 15.765s21.553-1.066 20.388-3.084c-6.884-11.927-8.009-24.451-9.128-30.721-1.025-5.732-21.925 5.76-16.886 18.04z"/>
      <path fill="url(#v)" d="M-26.061 19.557c.761 1.854 4.865 11.73 5.626 15.765S1.118 34.256-.047 32.238C-6.931 20.311-8.056 7.787-9.175 1.517-10.2-4.215-31.1 7.277-26.061 19.557z" data-name="Neck Shadow" transform="translate(2560.324 1319.001)"/>
      <path fill="#1a445d" d="M2450.473 1487.424l-16.487-55.877s-.465-4.518-3.273-6.471-7.567-1.807-7.567-1.807h-8.338s-7.747 0-9.509 3.267 1.442 12.435 1.442 12.435l15.345 56.288h83.587v-7.835z"/>
      <g filter="url(#w)" transform="translate(.003 -.001)">
        <path fill="url(#x)" d="M-55.2 64.165L-71.687 8.288s-.465-4.518-3.273-6.471S-82.527.01-82.527.01h-8.338s-7.747 0-9.509 3.267 1.442 12.435 1.442 12.435L-83.587 72H0v-7.835z" data-name="Laptop-Base Gradient" transform="translate(2505.67 1423.26)"/>
      </g>
      <path fill="#f2f2f2" d="M2424.127 1467.018c-1.292 0-2.737-1.707-3.275-4.469s.062-5.531 1.32-5.531 2.737 1.707 3.28 4.469-.033 5.531-1.325 5.531z"/>
      <path fill="url(#y)" d="M-.029 0H-55.7v3.152L0 5.087z" data-name="Shadow from arm" transform="translate(2505.673 1487.259)"/>
      <path
        fill="#c0b19c"
        d="M2540.548 1417.553l30.337 3.238c2.069 2.55 1.169 8.581 1.205 11.684.134 11.468-.377 24.285-7.295 33.945-2.692 3.757-7.1 7.42-11.44 7.36-6.8 2.7-18.136 5.808-18.136 5.808l-17.208 3.8s-29.032 5.165-43.366 4.828c-4.771-.121-9.623-.675-14.388-.54-2.766.074-7.154.938-9.738 0-.754-.277-.572-1.943-.39-2.6.619-2.287 2.8-3.892 4.8-4.891 4.657-2.321 7.295-.85 12.073-.769 3.91.067 8.573-1.929 15.357-4.594 8-3.144 17.127-6.982 25.283-9.734 9.294-3.137 18.776-6.523 27.847-10.247 1.79-.735 3.695-1.268 5.572-1.855a98.619 98.619 0 01-1.448-14.833 89.874 89.874 0 01.491-16.384c.202-1.369-.128-2.948.444-4.216z"/>
      <path
        fill="url(#z)"
        d="M-31.706 0l30.337 3.238C.7 5.788-.2 11.819-.164 14.922-.03 26.39-.541 39.207-7.459 48.867c-2.692 3.757-7.1 7.42-11.44 7.36-6.8 2.7-18.136 5.808-18.136 5.808l-17.208 3.8S-83.275 71-97.609 70.663c-4.771-.121-9.623-.675-14.388-.54-2.766.074-7.154.938-9.738 0-.754-.277-.572-1.943-.39-2.6.619-2.287 2.8-3.892 4.8-4.891 4.657-2.321 7.295-.85 12.073-.769 3.91.067 8.573-1.929 15.357-4.594 8-3.144 17.127-6.982 25.283-9.734 9.294-3.137 18.776-6.523 27.847-10.247 1.79-.735 3.695-1.268 5.572-1.855A98.619 98.619 0 01-32.641 20.6a89.874 89.874 0 01.491-16.384c.202-1.369-.128-2.948.444-4.216z"
        data-name="Arm Shadow from Sleeve"
        transform="translate(2572.254 1417.553)"/>
      <path fill="#f2d566" d="M2579.169 1421.85c5.187-13.829.676-57.053-16.167-59.883-23.42-3.488-30.426 51.123-28.107 57.508 4.146 2.497 27.368 10.755 44.274 2.375z"/>
      <g data-name="Sleeve Highlight">
        <g filter="url(#A)" transform="translate(.003 -.001)" style="mix-blend-mode:saturation;isolation:isolate">
          <path fill="rgba(255,0,0,0.01)" d="M2579.167 1421.853c5.187-13.829.676-57.053-16.167-59.883-23.42-3.488-30.426 51.123-28.107 57.508 4.146 2.497 27.368 10.755 44.274 2.375z" data-name="Sleeve Highlight"/>
        </g>
        <path fill="url(#B)" d="M-2.033 60.043C3.154 46.214-1.357 2.99-18.2.16c-23.42-3.488-30.426 51.123-28.107 57.508 4.146 2.497 27.368 10.755 44.274 2.375z" data-name="Sleeve Highlight" transform="translate(2581.202 1361.807)"/>
      </g>
      <path fill="#c0b19c" d="M2509.5 1292.123a71.006 71.006 0 0046.584 19.243 5.707 5.707 0 011.258 3.55 6.041 6.041 0 01-5.2 5.924c-1.512 9.113-6.39 16.254-13.576 18.413-11.5 3.463-24.635-7.2-29.29-23.822-2.354-8.398-2.09-16.695.224-23.308z"/>
      <path fill="#00415d" d="M2499.371 1660.449l9.255 17.473-47.085 24.337-2.624-4.951 23.309-27.989z" data-name="Shoe Front"/>
      <path fill="#00415d" d="M2386.347 1627.614l-10.259 16.907-45.415-27.061 2.906-4.794 36.233 5.094z"/>
      <path fill="rgba(0,0,0,0.11)" d="M2386.347 1627.614l-10.259 16.907-45.415-27.061 2.906-4.794 36.233 5.094z" data-name="Shoe-Back Shadow"/>
    </g>
    <g data-name="Donut Chart">
      <path
        fill="#b9faf7"
        d="M2674.031 1164.414a14.732 14.732 0 00.024 11.536 14.392 14.392 0 0018.758 7.889 14.392 14.392 0 007.353-18.974l24.245-10.293c8.96 21.103-.496 45.505-21.007 54.213s-44.635-1.439-53.594-22.542a41.623 41.623 0 01-.05-32.948z"
        data-name="Value"/>
      <path fill="#a4f2ef" d="M2724.412 1154.865l-24.545 10.42a14.358 14.358 0 00-18.827-7.605l-10.42-24.545a41.15 41.15 0 0153.792 21.73z" data-name="Value"/>
      <g filter="url(#C)" transform="matrix(1 0 0 1 -1.606 -.523)">
        <path fill="#c7fffa" d="M2685.883 1157.136c-4.948 2.097-10.367 6.825-11.679 11.621l-27.36-11.546c3.75-13.735 12.197-22.21 26.287-26.862z" data-name="Value"/>
      </g>
    </g>
    <path class="animated-line" fill="none" stroke="#00bfc0" stroke-dasharray="1 7" stroke-linecap="round" stroke-miterlimit="10" stroke-width="4" d="M2419.673 1419.259v-257h212v72.063" data-name="Connection path"/>
    <path fill="#e4fefd" d="M0 0h4745v955H0z" data-name="Rectangle"/>
  </g>
</svg>