<svg xmlns="http://www.w3.org/2000/svg" viewBox="0 0 829 785">
  <defs/>
  <g fill="none" fill-rule="evenodd" transform="translate(81 44)">
    <path fill="#CBEFE8" fill-rule="nonzero" d="M529.11 196.16c60.5 79.91 134.28 145.12 130.28 204.77-4 59.5-85.76 113.3-176.37 162C392.27 611.69 292.81 655.35 215 628 137.19 600.65 81 502 64.74 402.4 48.48 302.8 71.77 202 130 122.67 188.23 43.34 281.11-14.89 351.31 3.38c70.2 18.27 117.3 112.73 177.8 192.78z"/>
    <path stroke="#B6D3D9" stroke-linecap="square" stroke-linejoin="round" stroke-width="5" d="M412.19 406.43v250.04"/>
    <rect width="31.3" height="44.02" x="502.09" y="144.2" fill="#4BC8D5" fill-rule="nonzero" rx="12"/>
    <path fill="#A78E7A" fill-rule="nonzero" d="M397.09 679.1c-1.11 2.77-8.68 19.76-8.68 19.76l24.46 9.32 7.3-24.28-23.08-4.8z"/>
    <path fill="#A1846E" fill-rule="nonzero" d="M505.6 299.44c-2.51 2.9-23.3 27.84-24.79 29.81-1.49 1.97-62.36 20.47-65.57 21.33-3.21.86-14.75 5.88-18 5.88s-13.68-3.45-18-2.74-18.11 8.78-16.78 12c1.33 3.22 150.21-7.53 150.21-7.53l16.23-50.51-23.3-8.24z"/>
    <path stroke="#D7E8ED" stroke-linecap="square" stroke-linejoin="round" stroke-width="5" d="M534.8 532.45l-37.83 194.88"/>
    <path fill="#A78E7A" fill-rule="nonzero" d="M537.16 655.08l5.03 18.56-22.02 10.77-14.52-15.11z"/>
    <path fill="#D7E8ED" fill-rule="nonzero" d="M674.21 214.45h85.56l-81.14 318H521.82v-20.7l87.8-58.3z"/>
    <path fill="#13ABBA" fill-rule="nonzero" d="M497 514.21c4.34 8.87 41 133.39 41.95 140.63-4.67 4.9-24.92 15.8-33.57 16.51-14.65-11.53-55.7-108.35-55.7-108.35s13.98-80.33 47.32-48.79z"/>
    <path fill="#4BC8D5" fill-rule="nonzero" d="M673.54 395.59c3.18 3.78 13.47 59.57 15 74 2.35 22.68-41.62 55.9-103.69 55.9-20.49 0-88.33-4.57-107.82-11.93-1 12.33-50.14 166.11-55.71 171.68-9.15 2.39-22.68-2.58-26.06-6-3.38-3.42 23.48-215.86 31-229.58C433.78 435.94 587 425.63 587 425.63l86.54-30.04z"/>
    <path fill="#CAAD3E" fill-rule="nonzero" d="M567.18 236.35c28.77 16.79-14.25 90.13-19.69 92-8.67-1-38.86-18.65-44.52-31.64-1.22-7.98 39.64-74.71 64.21-60.36z"/>
    <path fill="#EED268" fill-rule="nonzero" d="M583.12 205.91c48.09 0 94.4 183.59 92.5 190.94-3.89 15.07-82.67 42.63-95.31 30.79-31.97-29.92-90.93-221.73 2.81-221.73z"/>
    <path stroke="#D7E8ED" stroke-linecap="square" stroke-linejoin="round" stroke-width="5" d="M669.59 532.45l37.83 194.88"/>
    <path fill="#214145" fill-rule="nonzero" d="M414.72 708.92l-12.55 31.66-67.75-30.19 6.73-13.56 49.48 1.47zM542.6 671.35l16.65 29.71-66.17 33.52-6.27-13.79 32.36-37.45z"/>
    <path fill="#A1846E" fill-rule="nonzero" d="M571.73 185.69c1.09 6.08 8 24.41 11 27.77 3 3.36-13.15 23-31.11 19.4-.54-6.17-2.67-23.64-5.49-26.54-2.82-2.9 25.6-20.63 25.6-20.63z"/>
    <ellipse cx="540.21" cy="158.33" fill="#A78E7A" fill-rule="nonzero" rx="37.15" ry="50.46" transform="rotate(-18.07 540.21 158.33)"/>
    <path fill="#1F2629" fill-rule="nonzero" d="M510.63 89.64c19.92 0 71.11 35.39 71.11 71 0 19.11-3.38 24-4.66 24-1.28 0-13.64-9.59-13.64-16.48 0-6.89-2.43-17.08-4.8-17.08-4 0-4.59 4.45-14.65 4.45-3.85 0-11.08-4.59-11.08-9.86-8.17.14-8.17 2.84-19.38 2.84-12.7 0-43.9-6.42-43.9-16.28 0-6.68 8.71-11.28 17.29-9.65-5.81-3.11-11-9.53-11-13.78 0-5.95 7.5-10.06 13.31-10.06 6.89 0 12.83 2.9 15.8 5.74-2.37-4.1-.03-14.84 5.6-14.84z"/>
    <circle cx="557.05" cy="161.09" r="10.33" fill="#A78E7A" fill-rule="nonzero"/>
    <path fill="#B6D3D9" fill-rule="nonzero" d="M474 368.28H44.06L0 391.77H518.07z"/>
    <path stroke="#B6D3D9" stroke-linecap="square" stroke-linejoin="round" stroke-width="5" d="M65.31 406.43v304.96M106.41 406.43v250.04M453.3 406.43v304.96"/>
    <path fill="#669BA2" fill-rule="nonzero" d="M305.85 369.91h91.95v6.3h-91.95z"/>
    <path fill="#8DB4B9" fill-rule="nonzero" d="M0 391.9h518.61v14.54H0z"/>
    <path fill="#669BA2" fill-rule="nonzero" d="M190.79 362.07h17.6v20.95h-17.6z"/>
    <ellipse cx="373.99" cy="379.39" fill="#EAF1F9" fill-rule="nonzero" rx="20.62" ry="9.64"/>
    <path fill="#A78E7A" fill-rule="nonzero" d="M520.26 309.46c-3 3.27-21.36 29.67-23.34 32.46-42 4.9-97.5 18.37-99.54 18.44-2.04.07-25.38-7.49-28.51-6.94-3.13.55-9.53 11.77-9.26 14.08.27 2.31 18.65 13.41 39.81 13.13 4-.27 5.31-2.45 9.46-2.45 4.15 0 99 7.33 115.46-1.27 8.95-4.69 34.1-40.06 34.1-42.71 0-2.65-38.18-24.74-38.18-24.74z"/>
    <path fill="#F7E08D" fill-rule="nonzero" d="M580.13 244.91c28.76 16.79-14.25 90.13-19.69 92-8.68-1-38.86-18.65-44.53-31.64-1.22-7.98 39.64-74.71 64.22-60.36z"/>
    <path fill="#B6D3D9" fill-rule="nonzero" d="M175.87 102.08h8.43v271.37h-8.43z"/>
    <path fill="#8DB4B9" fill-rule="nonzero" d="M184.29 102.08v271.37l39.86-14.58V116.65z"/>
    <rect width="31.3" height="44.02" x="540.61" y="144.2" fill="#4BC8D5" fill-rule="nonzero" rx="12"/>
    <path stroke="#4BC8D5" stroke-linecap="round" stroke-linejoin="round" stroke-width="6" d="M557.05 149.75c0-5.55 1.92-38.24-16.44-47.89M556.26 188.22c0 3.19-1.26 21.28-15 21.28"/>
  </g>
</svg>
