<svg xmlns="http://www.w3.org/2000/svg" viewBox="0 0 186 50"><path d="M185.982 14.717a17.77 17.77 0 00-.11-1.435l-.006-.054-.007-.055-.001-.004c-.966-7.71-7.046-12.69-15.498-12.69h-16.515v49.485h4.521V30.475h11.994c8.455 0 14.536-4.984 15.5-12.699l.026-.196c.057-.516.084-.973.1-1.437.02-.46.019-.938-.004-1.426zm-4.603 2.303l-.025.186c-.74 5.992-5.346 8.763-10.994 8.763h-.52c-1.191.017-8.746 0-11.453 0V4.985h11.973c5.647 0 10.253 2.771 10.993 8.762l.009.062c.043.36.069.733.083 1.116.017.355.017.707.002 1.064a14.13 14.13 0 01-.068 1.031zM141.257.374l-34.77 49.558h5.593l10.507-14.976h17.958v14.976h4.52V.374h-3.808zm-.713 30.096h-14.81l14.81-21.11v21.11zM90.508 49.96a19.01 19.01 0 01-8.771-2.492 13.259 13.259 0 01-6.158-6.928l4.265-1.536a9.041 9.041 0 004.472 4.744 15.068 15.068 0 006.399 1.74 12.815 12.815 0 008.807-2.627 7.988 7.988 0 003.337-5.939c.183-4.277-3.762-7.542-11.834-9.795-5.826-1.615-9.988-3.867-12.488-6.757a10.393 10.393 0 01-2.683-7.44A12.085 12.085 0 0181.84 2.486 18.855 18.855 0 0192.744.063c5.138.228 9.243 1.98 12.317 5.256l-3.337 3.072a12.804 12.804 0 00-9.185-3.857 14.765 14.765 0 00-8.326 1.774 7.904 7.904 0 00-3.818 6.827c-.184 4.186 3.76 7.406 11.834 9.659 5.824 1.616 9.987 3.88 12.488 6.792a10.558 10.558 0 012.682 7.508 12.323 12.323 0 01-5.022 9.283 17.064 17.064 0 01-10.974 3.617c-.298 0-.596-.012-.895-.034zM65.393.374L30.624 49.932h5.592l10.507-14.976h17.958v14.976h4.521V.374h-3.81zM64.68 30.47H49.87L64.68 9.36v21.11zM14.93 49.96a19.01 19.01 0 01-8.772-2.492A13.26 13.26 0 010 40.54l4.265-1.536a9.042 9.042 0 004.473 4.744 15.068 15.068 0 006.398 1.74 12.815 12.815 0 008.807-2.627 7.988 7.988 0 003.337-5.939c.183-4.277-3.762-7.542-11.834-9.795C9.62 25.512 5.458 23.26 2.958 20.37a10.393 10.393 0 01-2.683-7.44A12.085 12.085 0 016.26 2.486 18.855 18.855 0 0117.166.063c5.137.228 9.242 1.98 12.315 5.256L26.145 8.39a12.804 12.804 0 00-9.185-3.857c-2.891-.238-5.788.38-8.325 1.774a7.904 7.904 0 00-3.82 6.827c-.183 4.186 3.762 7.406 11.835 9.659 5.825 1.616 9.987 3.88 12.488 6.792a10.558 10.558 0 012.682 7.508 12.323 12.323 0 01-5.022 9.283 17.064 17.064 0 01-10.974 3.617c-.298 0-.596-.012-.894-.034z" fill-rule="nonzero"/></svg>
