<svg xmlns="http://www.w3.org/2000/svg" viewBox="0 0 410 410"><path d="M389.07 115c13.403 27.216 20.93 57.834 20.93 90.207C410 318.31 318.119 410 204.778 410 125.853 410 57.335 365.54 23 300.35l1.592-1.312c30.585-24.816 66.198-37.224 106.838-37.224 60.96 0 110.38 18.797 148.82 15.505l5.909-.506 2.314-.206c38.089-3.442 89.876-11.474 106.04-79.107h-35.899c25.431-18.92 30.22-48.156 30.22-82.496l.236-.004zM204.817 0c74.579 0 139.683 40.042 175.5 99.699v7.787l-.167 7.018c-.588 22.234-1.462 30.607-4.52 40.817-2.435 8.13-6.705 17.312-15.267 26.87.873-10.62.873-20.93 0-30.93C354.41 83.076 309.62 2.673 204.817 2.673S46.72 95.882 46.72 155.321c0 39.626 11.674 73.712 35.023 102.258-12.413 2.687-23.702 6.796-33.866 12.326a174.433 174.433 0 00-27.586 18.628l-1.077.894-.888.573C6.556 264.125 0 235.372 0 205.085 0 91.82 91.7 0 204.817 0zM384 205.996c-5.824 14.478-19.472 31.89-28.478 39.21-9.006 7.318-19.448 13.559-31.847 17.254 16.207-20.095 26.395-38.677 30.562-55.744l.172-.72H384zM115.403 114C135.136 114 158 128.09 158 157.175c0 28.793-24.07 39.608-35.492 39.822l-.343.003H73v-83h42.403zm88.393 0c22.768 0 32.691 7.08 32.691 19.31 0 8.152-3.847 14.334-11.54 18.545C236.316 155.373 242 162.45 242 173.085c0 21.002-19.986 23.809-28.846 23.912l-.525.003H167v-83h36.796zm94.701-1c35.57 0 45.503 26.133 45.503 42.415 0 16.283-7.531 41.585-45.503 41.585S252 173.2 252 155s10.927-42 46.497-42zm-94.681 48.896h-11.654v20.336H204.5c8.13 0 12.452-4.433 12.452-10.168 0-7.329-5.913-10.168-13.136-10.168zm-93.089-30.634H98.07v47.826h13.313c7.38 0 20.776-2.632 20.776-23.914 0-21.068-12.933-23.858-21.432-23.912zm187.287 3.153c-13.625 0-20.427 10.305-20.427 20.585 0 10.28 6.479 21.666 20.413 21.666 13.934 0 20.992-10.43 20.992-21.25 0-10.821-7.353-21-20.978-21zM202.537 128h-10.375v18.99h11.3c5.416 0 9.454-2.679 9.454-9.496 0-6.232-5.198-9.494-10.379-9.494z" fill-rule="evenodd"/></svg>
