<svg xmlns="http://www.w3.org/2000/svg" viewBox="0 0 301 246"><path d="M20 99c2.4-1.3 4.2-2 5.5-2.3 3.8-.9 7.8-.9 10.2-.9 5.3 0 9.8.9 12.6.9 2.9 0 12-12 16.7-12 4.7 0 17-6.3 34 13.4 11.5 13.1 12.8 30.7 4 52.6 7.9-9.1 25-12.4 51.5-9.9 20.6 2 50.4 10 79.6 24.1 5.8 2.8 16.3 6.5 31.5 11l-5.3 4.4c4.4 1 6.2 2.2 5.3 3.8-1.3 2.4-49.3 13.2-106.8 13.2-38.3 0-74.4-3.3-108.2-9.9-3.2-11.6-1.9-21 4-28.1 8.6-10.7 24.3-15.5 24.3-28.4 0-13-14.9-12.6-20.5-14.5-3.8-1.3-7-3-9.5-5H35.7c-1.9 0-7.8.1-10.2-.3-3.1-.6-5.4-2-5.4-2s2-1.1 4.4-1.3c5.6-.5 13.7-.5 19-1a38 38 0 0011-2.7 62.8 62.8 0 00-16.9-3.6c-2.9 0-6.8-.2-12.5-.7-1 0-2.7-.4-5-.9z"/><path d="M274.7 180c5.5 0 18 6 21.7 8.9 2.5 2-6.5 4.7-27.1 8.4l1.8.2c12.8 1.5 20 3.5 21.7 6 3.1 4.6-65.7 8.4-56.7 8.5h1c11 .1 33.6 2.7 37.6 8.3 4 5.6-79.8 6.4-70.1 6.5h.7c13.9 0 5.1 10-7.4 13.4-12.5 3.3-54 2-76.7 2-22.8 0-71.5-8.9-77.5-10.2-6-1.3 11.4-7.2 18.8-9 7.4-1.7-40.7-3.5-45.1-6.8-4.4-3.3 21-5.7 29.2-7 8.2-1.3-36.8-3.8-42-8.3-5.1-4.4 23-7 29-7.1h.4c5.2 0-21.9-6.3-21.9-9.7 0-2.3 3.8-4.2 18-3.6l11.5.7a39 39 0 005 11.4c4.7 1.7 7.8 1.7 18 4a718 718 0 0094.2 6.7c24.8 0 49.8-2 72.2-5.3 17.3-3.2 23-4.1 27.2-5.4l.7-.2c10.3-3 13.8-6 13.8-8.3 0-2.4-3.4-4 2-4zM34 117.1H48v.1a23 23 0 0012 5.7l3.4.7.8.2 2 .5c5.2 1.3 7 3 7 6.5 0 3.9-2.3 7-9 12.1l-3.7 3-1 .7c-4.3 3.3-7 5.8-9.5 8.9a30 30 0 00-6 11.7 113.2 113.2 0 01-9.8-50.1zM147.7 7a113.7 113.7 0 01104.5 158.4l-2-.6c-5.8-2-10.2-3.7-13.2-5.2h-.3a257 257 0 00-81.6-24.7l-.8-.1a104 104 0 00-40.4 2.4l-.5.2v-.3c3.5-17 .3-31.4-9.8-43a47 47 0 00-20.9-15 30.5 30.5 0 00-15.1-.8l-2.5.4H65c-3.7 0-6.7 1.8-11 5.6l-.4.4-1.1 1-3 2.8-.7.7-.7.5-.3.4-.5.3-.2.2-1.1-.2-2.2-.4-5.4-.6A113.7 113.7 0 01147.7 7z"/></svg>
