<svg xmlns="http://www.w3.org/2000/svg" viewBox="0 0 261 261">
  <path d="M238.291783,125.274172 L188.297788,125.274172 C185.672744,112.537469 174.401217,103 160.903697,103 C149.54634,103 139.787418,109.796701 135.421261,119.505956 C135.421261,119.505956 135.393394,119.505956 135.393394,119.505956 L25.5606537,119.505956 C20.8522942,119.505956 17,123.361101 17,128.072945 L17,133.784272 C17,138.496116 20.8522942,142.351261 25.5606537,142.351261 L135.336546,142.351261 C139.702703,152.146409 149.489492,159 160.904811,159 C174.402331,159 185.644877,149.433529 188.298903,136.725828 L238.292898,136.725828 C241.431804,136.725828 244,134.155731 244,131.014501 C244,127.873272 241.431804,125.275288 238.292898,125.275288 L238.291783,125.274172 Z M172.163793,143.163793 C169.147831,146.150862 165.051724,148 160.5,148 C155.920494,148 151.823276,146.150862 148.836207,143.163793 C145.849138,140.147831 144,136.051724 144,131.5 C144,126.920494 145.849138,122.823276 148.836207,119.836207 C151.852169,116.849138 155.948276,115 160.5,115 C165.079506,115 169.176724,116.849138 172.163793,119.836207 C175.150862,122.851057 177,126.948276 177,131.5 C177,136.051724 175.150862,140.148943 172.163793,143.163793 Z"/>
</svg>
