<svg xmlns="http://www.w3.org/2000/svg" viewBox="0 0 261 261">
  <path d="M154.055522 187.040535C159.773265 187.040535 161.576503 190.587175 158.129581 195.001895L157.936352 195.243543 137.968543 219.60533C134.338365 224.039185 128.474553 224.129671 124.722115 219.876791L124.490376 219.60533 104.522567 195.243543C100.920671 190.799612 102.521093 187.174517 108.089942 187.044164L108.403397 187.040535 154.055522 187.040535zM219.359862 88.4234996C228.990595 88.4234996 236.771548 96.0819252 236.995061 105.678379L237 106.102992 237 155.428774C236.964695 165.044882 229.326103 172.841409 219.788184 173.101668L219.359862 173.108266 42.6401376 173.108266C33.0454349 173.072883 25.2676009 165.41859 25.0066422 155.85811L25 155.428774 25 106.102992C25.0339467 96.4868836 32.6725192 88.6903567 42.2117563 88.4300975L42.6401376 88.4234996 219.359862 88.4234996zM219.361241 102.568474L42.6415157 102.568474C41.6892239 102.568474 40.8416704 102.922064 40.1718964 103.594714 39.5690999 104.231175 39.1940264 104.981753 39.1250397 105.821273L39.1134882 106.104373 39.1134882 155.394244C39.1493197 156.383191 39.5021225 157.231254 40.1718964 157.903903 40.774693 158.47821 41.521491 158.850018 42.3590433 158.918637L42.6415157 158.930142 219.395694 158.930142C220.252757 158.930142 221.023865 158.643735 221.658786 158.096092L221.865313 157.903903C222.46935 157.299762 222.815524 156.552417 222.878718 155.713219L222.889268 155.430156 222.889268 106.104373C222.854815 105.115426 222.502012 104.267363 221.83086 103.594714 221.226823 103.020406 220.481017 102.648598 219.643676 102.57998L219.361241 102.568474zM124.068666 41.3946696C127.697495 36.9608154 133.561279 36.8703286 137.28133 41.1232092L137.511002 41.3946696 157.478811 65.7578384C161.080707 70.2017695 159.480285 73.8268645 153.911436 73.957217L153.597981 73.9608464 107.981688 73.9608464C102.263945 73.9608464 100.460707 70.4142058 103.907629 65.9994861L104.100857 65.7578384 124.068666 41.3946696z"/>
</svg>
