<svg xmlns="http://www.w3.org/2000/svg" viewbox="0 0 261 261">
  <g fill-rule="evenodd">
    <path
      fill-rule="nonzero"
      d="M214.359862,81 C223.990595,81 231.771548,89.8625823 231.995061,100.967915 L232,101.45929 L232,158.54071 C231.964695,169.668787 224.326103,178.691184 214.788184,178.992365 L214.359862,179 L37.6401376,179 C28.0454349,178.959053 20.2676009,170.101253 20.0066422,159.037552 L20,158.54071 L20,101.45929 C20.0339467,90.3312134 27.6725192,81.3088158 37.2117563,81.0076353 L37.6401376,81 L214.359862,81 Z M214.467668,95 L37.532332,95 C36.5788783,95 35.7302907,95.4454247 35.0596996,96.2927756 C34.4561676,97.09454 34.0806365,98.0400583 34.0115656,99.0976201 L34,99.4542469 L34,161.545753 C34.0358752,162.79155 34.3891084,163.859874 35.0596996,164.707224 C35.6632316,165.430692 36.4109408,165.899066 37.249515,165.985506 L37.532332,166 L214.502163,166 C215.360272,166 216.132321,165.639206 216.768016,164.949328 L216.974796,164.707224 C217.57957,163.946175 217.926166,163.004728 217.989437,161.947573 L218,161.590992 L218,99.4542469 C217.965505,98.2084497 217.612271,97.1401265 216.9403,96.2927756 C216.335527,95.5693084 215.588811,95.1009339 214.750448,95.0144937 L214.467668,95 Z"/>
    <path
      fill-rule="nonzero"
      d="M82.2461538 105C84.2787692 105 86.1058462 105.765075 87.4923077 106.989194 88.8402367 105.812156 90.5818844 105.059531 92.5203039 105.003378L92.7538462 105 98 105 98 110.095517 92.7538462 110.095517C91.3621719 110.095517 90.1936891 111.205332 90.1261587 112.529777L90.1230769 112.650747 90.1230769 148.349253C90.1230769 149.700387 91.2657008 150.835864 92.6292995 150.901488L92.7538462 150.904483 98 150.904483 98 156 92.7384615 156C90.7218462 156 88.8941538 155.234925 87.4923077 154.010806 86.1591716 155.187844 84.4180929 155.940469 82.4796952 155.996622L82.2461538 156 77 156 77 150.904483 82.2461538 150.904483C83.6378281 150.904483 84.8063109 149.794668 84.8738413 148.470223L84.8769231 148.349253 84.8769231 112.650747C84.8769231 111.299033 83.7342992 110.164102 82.3707005 110.09851L82.2461538 110.095517 77 110.095517 77 105 82.2461538 105zM60.171522 107L60.171522 117.126029 66 117.126029 66 122.105447 60.171522 122.105447 60.171522 145.804845C60.171522 147.070842 60.5902251 147.919828 61.4609967 148.353104 61.8988032 148.570479 62.6283991 148.701147 63.6221254 148.717603L63.8390995 148.719372C64.1400423 148.719372 64.4586492 148.719372 64.7936117 148.703107 65.0727471 148.689554 65.3982233 148.663803 65.7605754 148.617194L65.982336 148.586657 65.982336 153.433359C65.2790456 153.633732 64.5423898 153.783362 63.7887243 153.866634 63.0180489 153.949907 62.1976525 154 61.3098711 154 58.4456802 154 56.5026361 153.28438 55.4813931 151.818659 54.4882817 150.416665 53.9854002 148.633728 53.9435487 146.440812L53.9406966 146.139235 53.9406966 122.106748 49 122.106748 49 117.127331 53.9406966 117.127331 53.9406966 107.001301 60.1375024 107.001301 60.171522 107z"/>
  </g>
</svg>