<svg xmlns="http://www.w3.org/2000/svg" viewBox="0 0 261 261">
  <path d="M69.8127217,80 C53.3730288,80 40,93.3386374 40,109.736052 L40,151.265108 C40,167.662523 53.3730288,181 69.8127217,181 L192.188442,181 C208.628135,181 222,167.662523 222,151.265108 L222,109.736052 C222,93.3386374 208.628135,80 192.188442,80 L69.8115584,80 L69.8127217,80 Z M139,151.200959 C139,160.973889 130.974804,169 121.136043,169 L69.8639567,169 C60.0553835,169 52,161.003966 52,151.200959 L52,109.799041 C52,100.026111 60.0251962,92 69.8639567,92 L121.136043,92 C130.944616,92 139,99.9960337 139,109.799041 L139,151.200959 Z"/>
</svg>
