<svg viewBox="0 0 512 512">
  <defs/>
  <g fill="none" fill-rule="nonzero">
    <path fill="#8DF2F2" d="M17.656.012h476.688C504.094.012 512 7.914 512 17.668v370.758c0 9.75-7.906 17.652-17.656 17.652H17.656C7.906 406.078 0 398.176 0 388.426V17.668C0 7.914 7.906.012 17.656.012z"/>
    <path fill="#ACFFFF" d="M512 157.23v231.196c-.027 9.738-7.918 17.625-17.656 17.652H17.656C7.918 406.051.027 398.164 0 388.426V281.082c87.746-67.09 277.098-178.937 512-123.852z"/>
    <path fill="#1E526F" d="M512 335.46v52.966c-.027 9.738-7.918 17.625-17.656 17.652H17.656C7.918 406.051.027 398.164 0 388.426V335.46h512z"/>
    <path fill="#0C3247" d="M353.102 476.7c-52.664-8.829-43.887-70.622-43.887-70.622h-106.43s8.778 61.793-43.887 70.621h194.204z"/>
    <path fill="#1E526F" d="M414.898 512.012H97.102a8.826 8.826 0 01-7.059-14.125l7.941-10.594a26.49 26.49 0 0121.188-10.594h273.656a26.49 26.49 0 0121.188 10.594l7.941 10.594a8.826 8.826 0 01-7.059 14.125z"/>
    <path fill="#14ABBA" d="M509.441 449.16l-24.984 24.98a8.9 8.9 0 01-12.535 0l-12.445-12.535-68.68-68.68a8.79 8.79 0 010-12.445l24.984-24.984a8.79 8.79 0 0112.446 0l12.535 12.535 12.445 12.45 31.25 31.25 12.45 12.445 12.534 12.449c3.442 3.469 3.442 9.063 0 12.535z"/>
    <path fill="#34CAD9" d="M348.867 338.547l24.981-24.98 41.929 41.929-24.98 24.985zM403.332 405.46l37.43-37.428 12.445 12.449-37.43 37.426zM447.031 449.16l37.426-37.43 12.449 12.446-37.429 37.43zM44.137 44.148h-8.828c-4.875 0-8.825-3.953-8.825-8.828s3.95-8.828 8.825-8.828h8.828a8.829 8.829 0 010 17.656zM476.691 44.148H79.45a8.829 8.829 0 010-17.656h397.242c4.875 0 8.825 3.953 8.825 8.828s-3.95 8.828-8.825 8.828zM52.965 132.426c-14.617-.016-26.465-11.863-26.48-26.485V88.285c0-14.625 11.855-26.48 26.48-26.48s26.484 11.855 26.484 26.48v17.656c-.015 14.621-11.863 26.47-26.484 26.485zm0-52.965c-4.871.004-8.824 3.953-8.828 8.824v17.656a8.829 8.829 0 0017.656 0V88.285c-.004-4.87-3.953-8.82-8.828-8.824zM52.965 229.527c-14.617-.015-26.465-11.863-26.48-26.48V185.39c0-14.625 11.855-26.485 26.48-26.485s26.484 11.86 26.484 26.485v17.656c-.015 14.617-11.863 26.465-26.484 26.48zm0-52.964a8.836 8.836 0 00-8.828 8.828v17.656c0 4.875 3.953 8.824 8.828 8.824s8.828-3.95 8.828-8.824V185.39a8.834 8.834 0 00-8.828-8.828zM459.035 326.633c-14.62-.016-26.469-11.863-26.484-26.485v-17.656c0-14.625 11.86-26.48 26.484-26.48 14.625 0 26.48 11.855 26.48 26.48v17.656c-.015 14.622-11.863 26.47-26.48 26.485zm0-52.965c-4.875.004-8.824 3.953-8.828 8.824v17.656a8.829 8.829 0 0017.656 0v-17.656c-.004-4.87-3.957-8.82-8.828-8.824zM97.102 132.426c-4.875 0-8.825-3.953-8.825-8.828V70.633c0-4.875 3.95-8.828 8.825-8.828a8.826 8.826 0 018.828 8.828v52.965a8.826 8.826 0 01-8.828 8.828zM432.55 132.426c-14.616-.016-26.464-11.863-26.48-26.485V88.285c0-14.625 11.856-26.48 26.48-26.48 14.63 0 26.485 11.855 26.485 26.48v17.656c-.015 14.621-11.863 26.47-26.484 26.485zm0-52.965c-4.87.004-8.82 3.953-8.827 8.824v17.656a8.829 8.829 0 0017.656 0V88.285c-.004-4.87-3.953-8.82-8.828-8.824zM476.691 132.426a8.826 8.826 0 01-8.828-8.828V70.633a8.826 8.826 0 018.828-8.828c4.875 0 8.825 3.953 8.825 8.828v52.965c0 4.875-3.95 8.828-8.825 8.828zM467.863 229.527a8.829 8.829 0 01-8.828-8.828v-52.965a8.829 8.829 0 0117.656 0V220.7a8.829 8.829 0 01-8.828 8.828zM52.965 326.633a8.829 8.829 0 01-8.828-8.828V264.84a8.829 8.829 0 0117.656 0v52.965a8.829 8.829 0 01-8.828 8.828z"/>
    <path fill="#34CAD9" d="M406.07 220.7c0 82.882-67.191 150.07-150.07 150.07-82.879 0-150.07-67.188-150.07-150.07 0-82.88 67.191-150.067 150.07-150.067 82.879 0 150.07 67.187 150.07 150.066z"/>
    <path fill="#14ABBA" d="M379.586 220.7c.07 62.542-46.54 115.304-108.61 122.945-62.074 7.64-120.09-32.243-135.187-92.934-15.098-60.691 17.469-123.106 75.887-145.438 58.418-22.335 124.316 2.438 153.554 57.723a123.715 123.715 0 0114.356 57.703z"/>
    <path fill="#8DF2F2" d="M370.758 220.7c.066 58.073-43.215 107.066-100.852 114.16-57.64 7.093-111.508-29.938-125.527-86.294-14.02-56.355 16.219-114.312 70.465-135.05 54.242-20.739 115.433 2.265 142.586 53.601a114.844 114.844 0 0113.328 53.582z"/>
    <path fill="#ACFFFF" d="M370.758 220.7c.02 49.491-31.703 93.413-78.692 108.956-46.984 15.543-98.64-.8-128.136-40.543a322.003 322.003 0 01193.5-121.996 114.154 114.154 0 0113.328 53.582z"/>
    <path fill="#EED268" d="M197.863 220.7h17.653a8.826 8.826 0 018.828 8.827v35.313a8.826 8.826 0 01-8.828 8.828h-17.653a8.829 8.829 0 01-8.828-8.828v-35.313a8.829 8.829 0 018.828-8.828zM247.172 185.39h17.656a8.829 8.829 0 018.828 8.829v70.62a8.829 8.829 0 01-8.828 8.829h-17.656a8.829 8.829 0 01-8.828-8.828v-70.621a8.829 8.829 0 018.828-8.828zM295.484 158.906h17.653a8.829 8.829 0 018.828 8.828v97.106a8.829 8.829 0 01-8.828 8.828h-17.653a8.826 8.826 0 01-8.828-8.828v-97.106a8.826 8.826 0 018.828-8.828z"/>
  </g>
</svg>
