<svg viewBox="0 0 512 512" xmlns="http://www.w3.org/2000/svg">
  <g fill-rule="nonzero" fill="none">
    <path d="M17.7 0h476.6c9.8 0 17.7 8 17.7 17.7v370.7c0 9.8-8 17.7-17.7 17.7H17.7C7.9 406 0 398 0 388.4V17.7C0 7.9 8 0 17.7 0z" fill="#7186DA"/>
    <path d="M512 157.2v231.2c0 9.8-8 17.7-17.7 17.7H17.7C7.9 406 0 398 0 388.4V281.1C87.7 214 277.1 102 512 157.2z" fill="#697FD8"/>
    <path d="M512 335.5v53c0 9.7-8 17.6-17.7 17.6H17.7C7.9 406 0 398 0 388.4v-53h512z" fill="#CED6EA"/>
    <path d="M353.1 476.7c-52.7-8.8-43.9-70.6-43.9-70.6H202.8s8.8 61.8-43.9 70.6h194.2z" fill="#B7C2EC"/>
    <path d="M414.9 512H97.1a8.8 8.8 0 01-7-14.1l7.9-10.6c5-6.7 12.8-10.6 21.2-10.6h273.6c8.4 0 16.2 4 21.2 10.6l8 10.6a8.8 8.8 0 01-7.1 14.1z" fill="#CED6EA"/>
    <path d="M509.4 449.2l-25 25a8.9 8.9 0 01-12.5 0l-12.4-12.6-68.7-68.7a8.8 8.8 0 010-12.4l25-25a8.8 8.8 0 0112.4 0l12.6 12.5 12.4 12.5 31.3 31.2 12.4 12.5 12.5 12.4c3.5 3.5 3.5 9 0 12.6z" fill="#7B97E3"/>
    <path fill="#A4B2E7" d="M348.9 338.5l25-25 41.9 42-25 25z"/>
    <path fill="#6E8CE0" d="M403.3 405.5l37.5-37.5 12.4 12.5-37.4 37.4zM447 449.2l37.5-37.5 12.4 12.5-37.4 37.4z"/>
    <path d="M44.1 44.1h-8.8a8.8 8.8 0 010-17.6h8.8a8.8 8.8 0 010 17.6zM476.7 44.1H79.4a8.8 8.8 0 010-17.6h397.3a8.8 8.8 0 010 17.6zM53 132.4A26.5 26.5 0 0126.5 106V88.3a26.5 26.5 0 1153 0v17.6A26.5 26.5 0 0153 132.4zm0-53c-5 0-8.9 4-8.9 8.9v17.6a8.8 8.8 0 0017.7 0V88.3c0-4.9-4-8.8-8.8-8.8zM53 229.5A26.5 26.5 0 0126.5 203v-17.6a26.5 26.5 0 1153 0V203A26.5 26.5 0 0153 229.5zm0-53c-5 0-8.9 4-8.9 8.9V203a8.8 8.8 0 0017.7 0v-17.6c0-4.9-4-8.8-8.8-8.8zM459 326.6a26.5 26.5 0 01-26.4-26.5v-17.6a26.5 26.5 0 0153 0V300a26.5 26.5 0 01-26.6 26.5zm0-53c-4.8 0-8.8 4-8.8 8.9V300a8.8 8.8 0 0017.7 0v-17.6c0-4.9-4-8.8-8.9-8.8zM97.1 132.4c-4.9 0-8.8-4-8.8-8.8v-53a8.8 8.8 0 1117.6 0v53c0 4.9-4 8.8-8.8 8.8zM432.6 132.4A26.5 26.5 0 01406 106V88.3a26.5 26.5 0 1153 0v17.6a26.5 26.5 0 01-26.5 26.5zm0-53c-5 0-8.9 4-8.9 8.9v17.6a8.8 8.8 0 0017.7 0V88.3c0-4.9-4-8.8-8.8-8.8z" fill="#DEE3FF"/>
    <g fill="#DEE3FF">
      <path d="M476.7 132.4c-4.9 0-8.8-4-8.8-8.8v-53a8.8 8.8 0 1117.6 0v53c0 4.9-4 8.8-8.8 8.8zM467.9 229.5c-5 0-8.9-4-8.9-8.8v-53a8.8 8.8 0 0117.7 0v53c0 4.9-4 8.8-8.8 8.8zM53 326.6c-5 0-8.9-4-8.9-8.8v-53a8.8 8.8 0 0117.7 0v53c0 4.9-4 8.8-8.8 8.8z"/>
    </g>
    <path d="M406 220.7a150 150 0 11-300 0 150 150 0 01300 0z" fill="#B7C2EC"/>
    <path d="M379.6 220.7a123.7 123.7 0 11-247.5.3 123.7 123.7 0 01247.5-.3z" fill="#CED6EA"/>
    <path d="M370.8 220.7a114.9 114.9 0 11-229.8.3 114.9 114.9 0 01229.8-.3z" fill="#B9C3ED"/>
    <path d="M370.8 220.7a114.7 114.7 0 01-206.9 68.4 322 322 0 01193.5-122 114.2 114.2 0 0113.4 53.6z" fill="#A4B2E7"/>
    <path d="M211.9 220.7h17.6c4.9 0 8.8 4 8.8 8.8v35.3c0 5-4 8.9-8.8 8.9H212c-5 0-8.9-4-8.9-8.9v-35.3c0-4.8 4-8.8 8.9-8.8zM247.2 185.4h17.6c4.9 0 8.9 4 8.9 8.8v70.6c0 5-4 8.9-8.9 8.9h-17.6c-4.9 0-8.9-4-8.9-8.9v-70.6c0-4.9 4-8.8 8.9-8.8z" fill="#DEE3FF"/>
    <path d="M282.5 159H300c5 0 8.9 3.9 8.9 8.7v97.1c0 5-4 8.9-8.9 8.9h-17.6c-4.9 0-8.8-4-8.8-8.9v-97c0-5 4-8.9 8.8-8.9z" fill="#DEE3FF"/>
  </g>
</svg>
