<svg viewBox="0 0 511 460">
  <defs/>
  <g fill="none" fill-rule="nonzero">
    <path fill="#245773" d="M27 438V90.22c0-9.342 3.707-18.3 10.313-24.907A35.25 35.25 0 0162.229 55h387.542a35.25 35.25 0 0124.916 10.313A35.221 35.221 0 01485 90.22V438H27z"/>
    <path fill="#8DF2F2" d="M27 90h458v282H27z"/>
    <path fill="#A2E8E8" d="M485 203.988V372H27v-56.3c84.817-66.709 245.12-156.363 458-111.712z"/>
    <path fill="#0C3247" d="M511 407v26.498C511 448.137 499.168 460 484.567 460H26.433C11.833 460 0 448.137 0 433.498V407h185.017c4.865 0 8.81 3.956 8.81 8.834s3.946 8.834 8.812 8.834H308.36c4.866 0 8.811-3.956 8.811-8.834s3.946-8.834 8.811-8.834H511z"/>
    <path fill="#EED268" d="M359 76.908v192.273c0 7.079-5.738 12.819-12.813 12.819H166.813c-7.075 0-12.813-5.74-12.813-12.819V12.819C154 5.74 159.738 0 166.813 0h115.313L359 76.908z"/>
    <path fill="#CFB44F" d="M282 64.166V0l77 77h-64.166C287.741 77 282 71.253 282 64.166z"/>
    <g fill="#CFB44F">
      <path d="M257.817 141.256h-50.979c-7.044 0-12.746-5.878-12.746-13.128S199.794 115 206.838 115h50.979c7.039 0 12.746 5.879 12.746 13.128 0 7.25-5.707 13.128-12.746 13.128zM308.793 141.256a13.076 13.076 0 01-4.977-1.052 15.249 15.249 0 01-4.327-2.763 13.659 13.659 0 01-2.756-4.339 13.162 13.162 0 01-1.044-4.99c.017-.884.104-1.762.261-2.628a8.29 8.29 0 01.783-2.367c.29-.838.685-1.635 1.184-2.368.522-.657 1.05-1.314 1.572-1.971a13.498 13.498 0 014.327-2.757 13.128 13.128 0 0114.288 2.757c.568.622 1.09 1.28 1.572 1.971.493.733.893 1.53 1.183 2.368.372.744.639 1.54.784 2.367.15.866.237 1.744.26 2.628a11.058 11.058 0 01-1.044 4.99 12.533 12.533 0 01-2.755 4.34 13.832 13.832 0 01-9.31 3.814zM257.817 192.675h-50.979c-7.044 0-12.746-5.878-12.746-13.128s5.702-13.128 12.746-13.128h50.979c7.039 0 12.746 5.878 12.746 13.128s-5.707 13.128-12.746 13.128zM308.793 192.675a13.076 13.076 0 01-4.977-1.052 15.23 15.23 0 01-4.327-2.757 13.789 13.789 0 01-2.756-4.339 13.215 13.215 0 01-1.044-4.996c.017-.884.104-1.762.261-2.629a8.29 8.29 0 01.783-2.367 9.998 9.998 0 011.184-2.361c.522-.657 1.05-1.315 1.572-1.972a13.416 13.416 0 014.327-2.762 13.12 13.12 0 0114.288 2.762c.568.623 1.09 1.28 1.572 1.972.493.733.893 1.524 1.183 2.361.372.75.639 1.547.784 2.367.15.867.237 1.75.26 2.63a11.066 11.066 0 01-1.044 4.995 12.533 12.533 0 01-2.755 4.339 13.799 13.799 0 01-9.31 3.81zM257.817 243h-50.979c-7.044 0-12.746-5.874-12.746-13.125 0-7.257 5.702-13.131 12.746-13.131h50.979c7.039 0 12.746 5.874 12.746 13.13 0 7.252-5.707 13.126-12.746 13.126zM308.793 243a13.069 13.069 0 01-4.977-1.047 15.249 15.249 0 01-4.327-2.763 13.661 13.661 0 01-2.756-4.34 13.166 13.166 0 01-1.044-4.99c.017-.884.104-1.763.261-2.63.14-.825.406-1.622.783-2.367a10.04 10.04 0 011.184-2.367c.522-.658 1.05-1.315 1.572-1.972a13.514 13.514 0 014.327-2.763 13.14 13.14 0 0114.288 2.763c.568.622 1.09 1.28 1.572 1.972.493.733.893 1.53 1.183 2.367.372.745.639 1.542.784 2.368.15.866.237 1.745.26 2.629a11.06 11.06 0 01-1.044 4.99 12.535 12.535 0 01-2.755 4.34 13.797 13.797 0 01-9.31 3.81z"/>
    </g>
    <path fill="#34CAD9" d="M117 242.428v81c-.02 6.385-5.25 11.552-11.7 11.572H11.7C5.246 334.98.02 329.813 0 323.428V184.572c.02-6.385 5.245-11.557 11.7-11.572h35.097L117 242.428z"/>
    <path fill="#14ABBA" d="M46 231.332V173l71 70H57.833c-6.524-.02-11.812-5.23-11.833-11.668z"/>
    <path fill="#34CAD9" d="M511 242.428v81c-.02 6.385-5.2 11.552-11.6 11.572h-92.8c-6.395-.02-11.58-5.187-11.6-11.572V184.572c.02-6.385 5.205-11.557 11.6-11.572h34.802L511 242.428z"/>
    <path fill="#14ABBA" d="M442 231.332V173l69 70h-57.5c-6.345-.02-11.485-5.23-11.5-11.668z"/>
  </g>
</svg>
