<svg viewBox="0 0 511 511">
  <g fill-rule="nonzero" fill="none">
    <path d="M27 489V141.2A35.2 35.2 0 0162.2 106h387.6a35.3 35.3 0 0135.2 35.2V489H27z" fill="#CCD2D6"/>
    <path fill="#C5CEF0" d="M27 141h458v282H27z"/>
    <path d="M485 255v168H27v-56.3C111.8 300 272.1 210.3 485 255z" fill="#DEE3FF"/>
    <path d="M511 458v26.5a26.5 26.5 0 01-26.4 26.5H26.4A26.5 26.5 0 010 484.5V458h185c4.9 0 8.8 4 8.8 8.8 0 5 4 8.9 8.8 8.9h105.8c4.8 0 8.8-4 8.8-8.9 0-4.8 4-8.8 8.8-8.8h185z" fill="#BDC3C7"/>
    <path d="M359 128v192.2c0 7-5.7 12.8-12.8 12.8H166.8c-7 0-12.8-5.7-12.8-12.8V63.8c0-7 5.7-12.8 12.8-12.8h115.3l76.9 77z" fill="#96A6E4"/>
    <path d="M282 115.2V51l77 77h-64.2c-7 0-12.8-5.7-12.8-12.8z" fill="#6E8CE0"/>
    <g fill="#6E8CE0">
      <path d="M257.8 192.3h-51a13 13 0 01-12.7-13.2 13 13 0 0112.7-13.1h51a13 13 0 0112.8 13.1 13 13 0 01-12.8 13.2zM308.8 192.3a13 13 0 01-5-1.1c-1.6-.7-3-1.6-4.3-2.8a13.7 13.7 0 01-2.8-4.3 13.2 13.2 0 01-.7-7.6c0-.8.4-1.6.7-2.4l1.2-2.4 1.6-2c1.2-1.1 2.7-2 4.3-2.7a13.1 13.1 0 0115.9 4.7l1.2 2.4c.3.8.6 1.6.7 2.4.2.9.3 1.7.3 2.6a11 11 0 01-1 5c-.6 1.6-1.6 3.1-2.8 4.3a13.8 13.8 0 01-9.3 3.9zM257.8 243.7h-51a13 13 0 01-12.7-13.2 13 13 0 0112.7-13h51a13 13 0 0112.8 13 13 13 0 01-12.8 13.2zM308.8 243.7a13 13 0 01-5-1c-1.6-.7-3-1.7-4.3-2.8a13.8 13.8 0 01-2.8-4.4 13.2 13.2 0 01-.7-7.6c0-.8.4-1.6.7-2.4.3-.8.7-1.6 1.2-2.3l1.6-2c1.2-1.2 2.7-2.1 4.3-2.8a13.1 13.1 0 0115.9 4.8c.5.7.9 1.5 1.2 2.3.3.8.6 1.6.7 2.4l.3 2.6a11 11 0 01-1 5c-.6 1.6-1.6 3.1-2.8 4.4a13.8 13.8 0 01-9.3 3.8zM257.8 294h-51a13 13 0 01-12.7-13.1 13 13 0 0112.7-13.2h51a13 13 0 0112.8 13.2 13 13 0 01-12.8 13.1zM308.8 294a13 13 0 01-5-1c-1.6-.7-3-1.7-4.3-2.8a13.7 13.7 0 01-2.8-4.3 13.2 13.2 0 01-.7-7.7c0-.8.4-1.6.7-2.3.3-.9.7-1.7 1.2-2.4l1.6-2c1.2-1.2 2.7-2.1 4.3-2.7a13.1 13.1 0 0115.9 4.7c.5.7.9 1.5 1.2 2.4.3.7.6 1.5.7 2.3l.3 2.7a11 11 0 01-1 5c-.6 1.6-1.6 3-2.8 4.3a13.8 13.8 0 01-9.3 3.8z"/>
    </g>
    <path d="M117 293.4v81c0 6.4-5.2 11.6-11.7 11.6H11.7C5.2 386 0 380.8 0 374.4V235.6c0-6.4 5.2-11.6 11.7-11.6h35.1l70.2 69.4z" fill="#96A6E4"/>
    <path d="M46 282.3V224l71 70H57.8c-6.5 0-11.8-5.2-11.8-11.7z" fill="#6E8CE0"/>
    <path d="M511 293.4v81c0 6.4-5.2 11.6-11.6 11.6h-92.8c-6.4 0-11.6-5.2-11.6-11.6V235.6c0-6.4 5.2-11.6 11.6-11.6h34.8l69.6 69.4z" fill="#96A6E4"/>
    <path d="M442 282.3V224l69 70h-57.5c-6.3 0-11.5-5.2-11.5-11.7z" fill="#6E8CE0"/>
  </g>
</svg>
