<svg viewBox="0 0 512 512" xmlns="http://www.w3.org/2000/svg">
  <g fill-rule="nonzero" fill="none">
    <path d="M196.8 406L67.3 510a8.8 8.8 0 01-14.3-6.8V406l61.8-17.7 82 17.7z" fill="#93A3E3"/>
    <rect fill="#95A4E3" width="512" height="406.1" rx="35.3"/>
    <path d="M220.6 218.7l-26 26a8.9 8.9 0 01-12.5 0l-21-21a8.9 8.9 0 010-12.5l26-26 33.5 33.5z" fill="#778BDC"/>
    <path d="M250.8 224a17.5 17.5 0 01-24.9 0l-44.1-44a17.7 17.7 0 1124.9-25l9.6 9.6 24.9 25 9.6 9.5a17.5 17.5 0 010 25z" fill="#7082CB"/>
    <path fill="#BDC3C7" d="M265 165.7l-23.7 23.8h-.1l-24.8-24.9 23.7-23.8zM324 106.7l-34.5 34.5-24.8-25L299 82c.3 4.3 2 8.3 5.1 11.3 8.9 9 12 13.2 19.9 13.5z"/>
    <path d="M360.6 78.6l-23 23c-7 6.9-18 6.9-25 0l-8.5-8.4a17.7 17.7 0 010-25l23.1-23a4.4 4.4 0 016.2 0l27.2 27.1a4.4 4.4 0 010 6.3zM320.4 196.5a8.8 8.8 0 000 12.4l24.1 24.2a35.3 35.3 0 01-51.9-39.8l-80.1-80.1a35.3 35.3 0 01-39.8-52l24 24.2a8.8 8.8 0 1012.6-12.5l-24.1-24A35.2 35.2 0 01237 88.5l80.2 80.2a35.3 35.3 0 0139.9 51.9l-24.2-24.2a8.9 8.9 0 00-12.5 0z" fill="#ECF0F1"/>
    <g fill="#C5CEF0">
      <path d="M79.4 300.1H61.8a8.8 8.8 0 010-17.6h17.6a8.8 8.8 0 010 17.6zM450.2 300.1H335.4a8.8 8.8 0 010-17.6h114.8a8.8 8.8 0 010 17.6zM300.1 300.1H114.8a8.8 8.8 0 010-17.6H300a8.8 8.8 0 010 17.6zM450.2 335.4h-17.6a8.8 8.8 0 010-17.6h17.6a8.8 8.8 0 010 17.6zM176.6 335.4H61.8a8.8 8.8 0 010-17.6h114.8a8.8 8.8 0 010 17.6zM397.2 335.4H212a8.8 8.8 0 010-17.6h185.3a8.8 8.8 0 010 17.6zM79.4 370.8H61.8a8.8 8.8 0 010-17.7h17.6a8.8 8.8 0 010 17.7zM300.1 370.8H114.8a8.8 8.8 0 010-17.7H300a8.8 8.8 0 010 17.7z"/>
    </g>
  </g>
</svg>
