<svg viewBox="0 0 512 512">
  <defs/>
  <g fill="none" fill-rule="nonzero">
    <path fill="#14ABBA" d="M196.77 406.07L67.27 510.06a8.83 8.83 0 01-14.3-6.89v-97.1l61.79-17.66 82 17.66z"/>
    <rect width="512" height="406.07" fill="#34CAD9" rx="35.31"/>
    <path fill="#EED268" d="M220.6 218.75l-25.95 25.86a8.9 8.9 0 01-12.54 0L161.2 223.7a8.9 8.9 0 010-12.53l25.95-25.87 33.46 33.46z"/>
    <path fill="#FFEF71" d="M250.8 224.04a17.48 17.48 0 01-24.9 0l-44.14-44.13a17.66 17.66 0 1124.9-24.99l9.62 9.71h.08l24.81 24.9h.09l9.53 9.53a17.53 17.53 0 010 24.98z"/>
    <path fill="#A2E8E8" d="M265 165.69l-23.74 23.84h-.09l-24.81-24.9 23.75-23.83zM323.97 106.73l-34.43 34.42-24.89-24.9L299 81.93c.28 4.26 2.1 8.28 5.12 11.3 8.88 9 11.92 13.17 19.86 13.5z"/>
    <path fill="#ACFFFF" d="M360.6 78.57l-23.03 23.12a17.84 17.84 0 01-24.99 0l-8.47-8.47a17.66 17.66 0 010-24.98l23.13-23.13a4.41 4.41 0 016.18 0L360.6 72.3a4.41 4.41 0 010 6.27zM320.35 196.5a8.83 8.83 0 000 12.45l24.2 24.19a35.31 35.31 0 01-51.92-39.82l-80.15-80.15a35.31 35.31 0 01-39.81-51.9l24.1 24.1a8.83 8.83 0 1012.53-12.45l-24.1-24.1a35.25 35.25 0 0151.82 39.8l80.16 80.16a35.31 35.31 0 0139.9 51.91l-24.2-24.19a8.9 8.9 0 00-12.53 0z"/>
    <g fill="#ACFFFF">
      <path d="M79.45 300.14H61.79a8.83 8.83 0 010-17.66h17.66a8.83 8.83 0 010 17.66zM450.2 300.14H335.46a8.83 8.83 0 010-17.66H450.2a8.83 8.83 0 010 17.66zM300.14 300.14H114.76a8.83 8.83 0 010-17.66h185.38a8.83 8.83 0 010 17.66zM450.2 335.45h-17.65a8.83 8.83 0 010-17.66h17.66a8.83 8.83 0 010 17.66zM176.55 335.45H61.8a8.83 8.83 0 010-17.66h114.76a8.83 8.83 0 010 17.66zM397.24 335.45H211.86a8.83 8.83 0 010-17.66h185.38a8.83 8.83 0 010 17.66zM79.45 370.76H61.79a8.83 8.83 0 010-17.66h17.66a8.83 8.83 0 010 17.66zM300.14 370.76H114.76a8.83 8.83 0 010-17.66h185.38a8.83 8.83 0 010 17.66z"/>
    </g>
  </g>
</svg>
