<svg viewBox="0 0 511 511" xmlns="http://www.w3.org/2000/svg">
  <g transform="translate(-1)" fill-rule="nonzero" fill="none">
    <path d="M280.6 431.7a48.5 48.5 0 00-24.1-77.4V239.2c0-44.5-40.3-80.6-90-80.6h-13.8c-49.7 0-90 36.1-90 80.6v115a48.5 48.5 0 00-24.2 77.5h242.1z" fill="#7090FD"/>
    <path d="M62.7 282c-4.9 0-8.8-4-8.8-8.9v-53.5c0-54.9 45.4-96.3 105.7-96.3 60.3 0 105.7 41.4 105.7 96.3v53.3a8.8 8.8 0 01-17.6 0v-53.3c0-45.6-37-78.6-88.1-78.6-51 0-88.1 33-88.1 78.6V273c0 4.9-4 8.8-8.8 8.8z" fill="#E1E3E1"/>
    <path d="M62.7 387.7c-4.9 0-8.8-4-8.8-8.9v-79.2a8.8 8.8 0 0117.6 0v79.2c0 5-4 8.9-8.8 8.9z" fill="#5B80FC"/>
    <path d="M318.1 504a6.5 6.5 0 01-6.3 7H7.3a6.5 6.5 0 01-6.3-7v-18.6C3 443.3 22.8 437 22.8 437l92.7-31.8h88.1l92.7 31.8s19.9 6.2 21.8 48.3V504z" fill="#6B8CFD"/>
    <path d="M300.5 502.9c0 4.5-2.4 8.1-5.6 8.1H24.3c-3.2 0-5.7-3.6-5.6-8.1.2-20-1.1-48.5 10-67.8l86.8-29.8h88.1l86.8 29.8c11.4 19.7 10 51.4 10.1 67.8z" fill="#7799DC"/>
    <path d="M256.5 387.7c-4.9 0-8.8-4-8.8-8.9v-79.2a8.8 8.8 0 0117.6 0v79.2c0 5-4 8.9-8.8 8.9z" fill="#5B80FC"/>
    <path d="M393.3 220.3l-67.7 51.9a4.6 4.6 0 01-7.4-3.7v-65.9l75.1 17.7z" fill="#557FD4"/>
    <rect fill="#7799DC" x="291.7" width="220.3" height="220.3" rx="18.3"/>
    <g transform="translate(335.8 26.4)" fill="#FFF">
      <circle cx="70.5" cy="8.8" r="8.8"/>
      <path d="M70.5 88.1c-4.9 0-8.8-4-8.8-8.8V52.9a8.8 8.8 0 010-17.7h8.8c4.8 0 8.8 4 8.8 8.9v35.2c0 4.9-4 8.8-8.8 8.8z"/>
      <path d="M79.3 88.1H61.7a8.8 8.8 0 010-17.6h17.6a8.8 8.8 0 010 17.6zM123.3 123.3H8.8a8.8 8.8 0 010-17.6h114.5a8.8 8.8 0 010 17.6zM88.1 158.6H8.8a8.8 8.8 0 010-17.6h79.3a8.8 8.8 0 010 17.6z"/>
    </g>
    <rect fill="#98AFFD" x="53.9" y="255.5" width="211.4" height="70.5" rx="13.9"/>
    <path d="M203.6 365.5v33.6a41.4 41.4 0 01-44 41.4 41.4 41.4 0 01-44-41.4v-33.6h88z" fill="#C7D4FE"/>
    <path d="M155.3 213c2.5-2 6-2 8.6 0 19.4 15.1 56 35.5 63.3 41 1.9 1.6 3 4 2.9 6.5 0 43.9.6 45.2-2 53.2a249.3 249.3 0 01-17.3 40c-42.1 76.6-92.4 42.4-119.7-40-2.7-8-2-9.5-2-53.2 0-2.5 1-4.9 2.9-6.5 7.2-5.5 44-25.9 63.3-41z" fill="#DEE3FF"/>
    <path d="M159.6 370H89a35.2 35.2 0 01-35.2-35.2v-26.4a8.8 8.8 0 0117.6 0v26.4c0 9.7 7.9 17.6 17.6 17.6h70.5a8.8 8.8 0 010 17.6z" fill="#E1E3E1"/>
  </g>
</svg>
