<svg viewBox="0 0 511 511">
  <defs/>
  <g fill="none" fill-rule="nonzero" transform="translate(-1)">
    <path fill="#0C3247" d="M280.64 431.7a48.46 48.46 0 00-24.14-77.43V239.19c0-44.48-40.3-80.6-89.99-80.6h-13.85c-49.7 0-89.99 36.12-89.99 80.6v115.08a48.46 48.46 0 00-24.14 77.44h242.1z"/>
    <path fill="#A2E8E8" d="M62.67 281.93a8.81 8.81 0 01-8.81-8.8v-53.58c0-54.85 45.45-96.2 105.72-96.2 60.28 0 105.73 41.35 105.73 96.2v53.34a8.81 8.81 0 01-17.62 0v-53.34c0-45.54-37.06-78.58-88.1-78.58-51.05 0-88.1 33.04-88.1 78.58v53.57a8.81 8.81 0 01-8.82 8.81zM62.67 387.66a8.81 8.81 0 01-8.81-8.81v-79.3a8.81 8.81 0 0117.62 0v79.3a8.81 8.81 0 01-8.8 8.8z"/>
    <path fill="#0C3247" d="M318.13 504.04a6.55 6.55 0 01-6.3 6.96H7.34A6.55 6.55 0 011 504.04v-18.68c1.94-42.11 21.8-48.28 21.8-48.28l92.73-31.8h88.1l92.7 31.8s19.86 6.17 21.8 48.28v18.68z"/>
    <path fill="#245773" d="M300.5 502.9c.05 4.49-2.42 8.1-5.59 8.1H24.26c-3.17 0-5.64-3.61-5.6-8.1.2-20.06-1.1-48.46 10.1-67.84l86.77-29.78h88.1l86.79 29.78c11.43 19.77 9.93 51.44 10.09 67.84z"/>
    <path fill="#A2E8E8" d="M256.5 387.66a8.81 8.81 0 01-8.81-8.81v-79.3a8.81 8.81 0 0117.62 0v79.3a8.81 8.81 0 01-8.81 8.8z"/>
    <path fill="#EED268" d="M393.32 220.26l-67.75 51.9a4.56 4.56 0 01-7.4-3.62v-65.9l75.15 17.62z"/>
    <rect width="220.26" height="220.26" x="291.74" fill="#FFEF71" rx="18.27"/>
    <g fill="#CFB44F" transform="translate(335.8 26.43)">
      <circle cx="70.48" cy="8.81" r="8.81"/>
      <path d="M61.67 88.1a8.81 8.81 0 010-17.62V52.86a8.81 8.81 0 010-17.62h8.81a8.81 8.81 0 018.81 8.81v26.43a8.81 8.81 0 010 17.62H61.67zM123.35 123.35H8.8a8.81 8.81 0 010-17.63h114.54a8.81 8.81 0 010 17.63zM88.1 158.59H8.81a8.81 8.81 0 010-17.62h79.3a8.81 8.81 0 010 17.62z"/>
    </g>
    <rect width="211.45" height="70.48" x="53.86" y="255.5" fill="#0C3247" rx="13.86"/>
    <path fill="#14ABBA" d="M203.64 365.54v33.57a41.4 41.4 0 01-44.06 41.4 41.4 41.4 0 01-44.05-41.4v-33.57h88.1z"/>
    <path fill="#34CAD9" d="M155.28 213.05a6.99 6.99 0 018.61 0c19.39 15.08 56.09 35.45 63.3 40.9a8.41 8.41 0 012.88 6.56c0 43.89.64 45.24-1.98 53.22a249.33 249.33 0 01-17.25 39.96c-42.15 76.65-92.42 42.42-119.76-39.96-2.64-8.04-1.98-9.49-1.98-53.22-.06-2.51 1-4.91 2.88-6.56 7.21-5.45 43.93-25.82 63.3-40.9z"/>
    <path fill="#A2E8E8" d="M159.58 370.04H89.1a35.24 35.24 0 01-35.24-35.25v-26.43a8.81 8.81 0 0117.62 0v26.43c0 9.74 7.89 17.63 17.62 17.63h70.48a8.81 8.81 0 010 17.62z"/>
  </g>
</svg>
