<svg viewBox="0 0 508 504">
  <defs/>
  <g fill="none" fill-rule="evenodd">
    <rect width="384" height="333" fill="#1AD8AF" rx="4"/>
    <path fill="#00B58D" d="M48 106h40v189H48zM113 51h39v243h-39zM177 108h41v187h-41z"/>
    <path fill="#245773" d="M388.14 393l97.02 33.4h.02c.8.27 20.82 7.35 22.8 50.68v19.61l.02.3a6.88 6.88 0 01-1.77 4.75l-.2.22a6.85 6.85 0 01-4.64 2.04H182.65l-.29-.02a6.85 6.85 0 01-4.57-2.22l-.2-.22a6.89 6.89 0 01-1.58-4.85v-19.6l.07-1.32c2.38-43.03 22.76-49.38 22.76-49.38L295.91 393h92.23z"/>
    <path fill="#0C3247" d="M388.6 393l90.84 31.26.36.63c11.57 20.8 10.03 53.56 10.2 70.6v.28c-.06 4.59-2.6 8.23-5.86 8.23H200.66c-3.22-.15-5.7-3.89-5.66-8.51v-.7c.18-21-1.02-50.4 10.56-70.53L296.39 393h92.22z"/>
    <path fill="#938F89" d="M388 351v35.91a43.74 43.74 0 01-13.63 31.26l-.42.4c-8.67 8-20.2 12.1-31.95 11.34l-.58.03a43.04 43.04 0 01-31.8-11.77l-.41-.4A43.75 43.75 0 01296 386.33V351h92z"/>
    <path fill="#A59F96" d="M342 190h.32c1.49.07 2.96.59 4.2 1.56l.62.47c20.48 15.77 58.28 36.77 65.77 42.43l.22.2a8.82 8.82 0 012.8 6.68v2.7c.02 43.4.62 44.92-2.08 53.13l-.52 1.55a261.66 261.66 0 01-17.57 40.37l-1.32 2.38c-43.94 77.3-95.9 41.26-124.28-44.3l-.09-.25c-2.67-8.21-2-10.16-2-55.58v-.3a8.82 8.82 0 013.03-6.58l.24-.17c8.09-5.98 46.04-27.08 66.14-42.73A7.32 7.32 0 01342 190z"/>
    <path fill="#245773" d="M383.74 392c-2.68 9.97-7.4 17.8-14.14 23.49-10.1 8.52-19.38 19.18-26.21 19.18-6.84 0 13.62 13.52 17.1 19.64A889.1 889.1 0 00373.5 476c11.24-4.8 18.65-12.03 22.22-21.69 5.35-14.48 11.55-52.06 8.45-55.9-2.06-2.57-8.87-4.7-20.43-6.41zM295.57 395c2.47 9.26 6.81 16.53 13.02 21.8 9.3 7.92 17.84 17.82 24.13 17.82 6.3 0-12.54 12.55-15.74 18.24A827.1 827.1 0 01305 473c-10.35-4.46-17.17-11.17-20.46-20.14-4.93-13.44-10.63-48.35-7.78-51.92 1.9-2.38 8.17-4.36 18.81-5.94z"/>
    <path fill="#0C3247" stroke="#979797" d="M267.84 288.15c-11.07-49.27-12.8-80.72-5.2-94.34 11.4-20.43 32.28-49.79 61.5-49.79 29.2 0 66.24-1.58 79.37 21.78C416.65 189.16 421 214.17 421 236.8c0 15.08-1.75 33.82-5.24 56.21 1.95-34.75-.13-52.8-6.23-54.17-9.16-2.04-56.46-42.08-67.29-42.08-10.82 0-67.52 40.46-70.61 43.79-2.07 2.22-3.33 18.1-3.8 47.61z"/>
  </g>
</svg>
