<svg viewBox="0 0 512 512" xmlns="http://www.w3.org/2000/svg">
  <g fill="none" fill-rule="evenodd">
    <rect fill="#DEE3FF" x="23" y="30" width="367" height="318" rx="4"/>
    <path fill="#B8C8FE" d="M69 131h38v180H69zM131 79h37v232h-37zM192 133h39v178h-39z"/>
    <path d="M393.7 405.3l92.6 31.8c.4.1 20 6.6 21.8 48.3V504.3c0 1.7-.5 3.3-1.6 4.6l-.2.2a6.6 6.6 0 01-4.5 1.9H197.1a6.6 6.6 0 01-4.4-2.1l-.2-.3c-1-1.2-1.6-2.9-1.5-4.6V484.1c2.3-41 21.8-47 21.8-47l92.7-31.8h88.2z" fill="#6B8CFD"/>
    <path d="M393.7 405.3l86.7 29.8.4.6c11 19.8 9.6 51 9.7 67.2v.3c0 4.3-2.5 7.8-5.6 7.8H214.1c-3.1-.1-5.5-3.7-5.4-8.1v-.7c.1-20-1-48 10-67.1l86.8-29.8h88.2z" fill="#9EB4FD"/>
    <path d="M393.7 365.5v34.2c-.2 11.2-4.9 22-13.1 29.7l-.4.4a41.4 41.4 0 01-30.6 10.7h-.6a41.4 41.4 0 01-30.4-11.1l-.4-.4a41.4 41.4 0 01-12.7-29.9v-33.6h88.2z" fill="#8091D0"/>
    <path d="M349.6 211.6h.3a7 7 0 014 1.5l.6.4c19.5 15 55.6 35 62.7 40.5l.2.2c1.8 1.6 2.7 3.9 2.7 6.3v1.3c0 42.6.6 44-2 52l-.5 1.5c-4.5 13.2-10.1 26-16.7 38.4l-1.3 2.3c-41.9 73.7-91.4 39.3-118.5-42.3v-.2c-2.6-7.8-2-9.7-2-53v-.3c0-2.4 1-4.7 2.9-6.2l.2-.2c7.7-5.7 44-25.8 63-40.7a7 7 0 014.4-1.5z" fill="#96A6E4"/>
    <path d="M389.8 404a43 43 0 01-13.5 22.5c-9.6 8.1-18.5 18.3-25 18.3s13 13 16.3 18.8c2.2 4 6.3 10.8 12.4 20.8a36.2 36.2 0 0021.2-20.8c5-13.8 11-49.8 8-53.5-2-2.4-8.4-4.5-19.4-6.1zM305.5 407a40.1 40.1 0 0012.6 21c9 7.5 17.2 17 23.2 17s-12 12-15.1 17.5c-2 3.6-6 10-11.6 19.3a33.7 33.7 0 01-19.7-19.3c-4.7-12.9-10.2-46.4-7.5-49.8 1.9-2.3 7.9-4.2 18.1-5.7z" fill="#D8DEF5"/>
    <path d="M279 305c-10.6-47-12.2-77-5-90 11-19.5 30.8-47.5 58.7-47.5 27.9 0 63.2-1.5 75.8 20.8a137.2 137.2 0 0116.7 67.7c0 14.4-1.7 32.3-5 53.6 1.8-33.1-.2-50.3-6-51.6-8.7-2-53.9-40.2-64.2-40.2-10.3 0-64.4 38.6-67.4 41.8-2 2.1-3.2 17.2-3.6 45.4z" stroke="#979797" fill="#6B8CFD"/>
  </g>
</svg>
