<svg viewBox="0 0 512 512" xmlns="http://www.w3.org/2000/svg">
  <g fill-rule="nonzero" fill="none">
    <path d="M513 123.6v370.7c0 9.8-8 17.7-17.7 17.7H204c-9.7 0-17.6-8-17.6-17.7V17.7C186.4 7.9 194.3 0 204 0h185.4L513 123.6z" fill="#B8C8FE"/>
    <path d="M513 123.6H407c-9.7 0-17.6-8-17.6-17.7V0L513 123.6z" fill="#C4D1FE"/>
    <g fill="#FBFBFB">
      <path d="M318.8 114.8c-4.9 0-8.8-4-8.8-8.9V70.6a26.5 26.5 0 00-53 0V106a8.8 8.8 0 01-17.7 0V70.6a44.1 44.1 0 0188.3 0V106c0 5-4 8.9-8.8 8.9zM239.3 256h-8.8a8.8 8.8 0 010-17.7h8.8a8.8 8.8 0 010 17.7zM354.1 256h-79.4a8.8 8.8 0 010-17.7H354a8.8 8.8 0 010 17.7zM468.9 256h-79.5a8.8 8.8 0 010-17.7H469a8.8 8.8 0 010 17.7zM318.8 291.3h-88.3a8.8 8.8 0 010-17.6h88.3a8.8 8.8 0 010 17.6zM468.9 291.3H354a8.8 8.8 0 010-17.6h114.8a8.8 8.8 0 010 17.6zM257 485.5h-26.5a8.8 8.8 0 010-17.6H257a8.8 8.8 0 010 17.6zM371.8 485.5h-79.5a8.8 8.8 0 010-17.6h79.5a8.8 8.8 0 010 17.6zM468.9 485.5H407a8.8 8.8 0 010-17.6h61.8a8.8 8.8 0 010 17.6z"/>
    </g>
    <path d="M193.6 336.2c-7.7 0-14.8-4.4-18.3-11.2a92.8 92.8 0 00-81.8-51A96.1 96.1 0 000 372.5c-1.4 52.9 40.4 97 93.4 98.5 34.6-.4 66.2-20 81.8-51a20.6 20.6 0 0118.3-11.2h72c5.6 0 7.3-3 17.7-13.4 4-4 10.6-4 14.7 0l6 6c4 4 10.7 4 14.8 0l6-6c4-4 10.6-4 14.7 0 10.7 10.6 12.2 13.4 17.6 13.4 23.2 0 19.8 1 27-6v-62.2c-8.7-6.3 11.9-4.4-190.5-4.4zM67 399a26 26 0 110-52 26 26 0 010 52z" fill="#7E9EDE"/>
    <path d="M193.6 347.7c-7 .3-13.7-2.5-18.3-7.7a103 103 0 00-81.9-35C48.2 305 0 330.9 0 372.6c0 41.4 47.9 67.4 93.4 67.4a103 103 0 0082-35c4.5-5.1 11.3-8 18.2-7.7 76.5 0 74.8.9 79.3-2l10.4-7a14 14 0 0114.7 0l6 4a14 14 0 0014.7 0l6-4a14 14 0 0114.8 0c9 6 11.7 9 17.6 9 22.3 0 19.6.9 27-4v-42.5c-8.6-4.3 11.3-3-190.5-3zM67 399a26 26 0 110-52 26 26 0 010 52zM239.3 106h88.3c4.9 0 8.8 3.9 8.8 8.8v61.8c0 9.7-7.9 17.6-17.6 17.6h-70.6c-9.8 0-17.7-7.9-17.7-17.6v-61.8c0-5 4-8.9 8.8-8.9z" fill="#9AB3E5"/>
  </g>
</svg>
