<svg viewBox="0 0 512 512">
  <defs/>
  <g fill="none" fill-rule="nonzero">
    <path fill="#34CAD9" d="M513 123.586v370.759c-.03 9.738-7.917 17.626-17.655 17.655h-291.31c-9.74-.03-17.627-7.917-17.656-17.655V17.655C186.41 7.917 194.296.03 204.034 0h185.38L513 123.586z"/>
    <path fill="#14ABBA" d="M513 123.586H407.069c-9.739-.029-17.626-7.916-17.655-17.655V0L513 123.586z"/>
    <g fill="#ACFFFF">
      <path d="M318.793 114.759a8.828 8.828 0 01-8.827-8.828v-35.31c0-14.626-11.857-26.483-26.483-26.483C268.857 44.138 257 55.995 257 70.62v35.31a8.828 8.828 0 01-17.655 0v-35.31c0-24.377 19.761-44.138 44.138-44.138 24.376 0 44.138 19.761 44.138 44.138v35.31a8.828 8.828 0 01-8.828 8.828zM239.345 256h-8.828a8.828 8.828 0 010-17.655h8.828a8.828 8.828 0 010 17.655zM354.103 256h-79.448a8.828 8.828 0 010-17.655h79.448a8.828 8.828 0 010 17.655zM468.862 256h-79.448a8.828 8.828 0 010-17.655h79.448a8.828 8.828 0 010 17.655zM318.793 291.31h-88.276a8.828 8.828 0 010-17.655h88.276a8.828 8.828 0 010 17.655zM468.862 291.31H354.103a8.828 8.828 0 010-17.655h114.76a8.828 8.828 0 010 17.655zM257 485.517h-26.483a8.828 8.828 0 010-17.655H257a8.828 8.828 0 010 17.655zM371.759 485.517H292.31a8.828 8.828 0 010-17.655h79.449a8.828 8.828 0 010 17.655zM468.862 485.517H407.07a8.828 8.828 0 010-17.655h61.793a8.828 8.828 0 010 17.655z"/>
    </g>
    <path fill="#CFB44F" d="M93.456 273.966c34.691.377 66.275 20.054 81.88 51.012a20.612 20.612 0 0018.264 11.198l17.618-.005c181.651-.099 164.777-1.64 172.558 4.276l.251.187v62.211l-.811.787c-5.93 5.815-4.012 5.171-24.057 5.125l-2.01-.002c-5.406 0-6.973-2.717-17.642-13.375-4.005-3.972-10.423-4.042-14.515-.213l-.22.213-6.02 6.013c-4.005 3.972-10.423 4.043-14.515.213l-.22-.213-6.02-6.013c-4.078-4.044-10.657-4.044-14.736 0l-1.784 1.801c-8.703 8.84-10.611 11.506-15.66 11.573l-72.217.001a20.612 20.612 0 00-18.265 11.198c-15.604 30.958-47.188 50.635-81.879 51.013-52.975-1.52-94.74-45.567-93.397-98.5-1.349-52.937 40.42-96.986 93.397-98.5zm-26.429 73c-14.36 0-26 11.64-26 26 0 14.359 11.64 26 26 26s26-11.641 26-26c0-14.36-11.64-26-26-26z"/>
    <path fill="#EED268" d="M175.318 340.008a23.132 23.132 0 0018.266 7.674l23.174-.006 34.075-.029c139.112-.168 125.9-.753 132.947 2.916l.247.126v42.516l-2.529 1.696c-4.519 2.967-5.141 2.348-24.351 2.348-5.926 0-8.739-2.986-17.643-9.125a13.98 13.98 0 00-14.428-.187l-.31.187-6.019 4.148a13.98 13.98 0 01-14.428.186l-.31-.186-6.019-4.148a13.98 13.98 0 00-14.428-.187l-.309.187-10.378 7.155-.63.393-.342.202c-3.678 2.08-7.787 1.375-78.32 1.375a23.132 23.132 0 00-18.265 7.674 103.066 103.066 0 01-81.886 34.946c-45.581 0-93.405-25.924-93.405-67.403 0-41.625 48.187-67.404 93.405-67.404a103.066 103.066 0 0181.886 34.946zm-108.291 6.958c-14.36 0-26 11.64-26 26 0 14.359 11.64 26 26 26s26-11.641 26-26c0-14.36-11.64-26-26-26zM239.345 105.931h88.276a8.828 8.828 0 018.827 8.828v61.793c0 9.75-7.904 17.655-17.655 17.655h-70.62c-9.751 0-17.656-7.905-17.656-17.655v-61.793a8.828 8.828 0 018.828-8.828z"/>
  </g>
</svg>
