<svg viewBox="0 0 512 512" xmlns="http://www.w3.org/2000/svg">
  <g fill-rule="nonzero" fill="none">
    <path d="M158.9 211.9c-4.9 0-8.8-4-8.8-8.9 0-44 33-55.8 59.6-65.3 24-8.6 37.5-14.3 37.5-31.8a8.8 8.8 0 0117.6 0c0 30.8-26.1 40.2-49.2 48.4-25.7 9.2-47.9 17.1-47.9 48.7 0 5-4 8.9-8.8 8.9z" fill="#76B3F5"/>
    <path d="M353.1 211.9c-4.9 0-8.8-4-8.8-8.9 0-5-.6-10-2-14.8a8.8 8.8 0 0116.9-5 68.7 68.7 0 012.7 19.8c0 5-4 8.9-8.8 8.9zm-24-44.1c-1.6 0-3.2-.5-4.6-1.3a95.5 95.5 0 00-14.5-7.1 8.8 8.8 0 116.6-16.4c6 2.3 11.7 5.2 17.1 8.4a8.8 8.8 0 01-4.6 16.4zm-48.8-20.4c-1.3 0-2.6-.3-3.8-.9a62 62 0 01-17-11 8.8 8.8 0 1112-12.8c3.8 3.2 8 5.9 12.5 7.8a8.8 8.8 0 01-3.7 16.9z" fill="#90BAE1"/>
    <path d="M61.8 414.9c-4.9 0-8.8-4-8.8-8.8 0-44.1 33-55.9 59.6-65.4 24-8.5 37.5-14.2 37.5-31.7a8.8 8.8 0 1117.6 0c0 30.8-26.1 40.1-49.2 48.3-25.7 9.2-47.9 17.1-47.9 48.8 0 4.8-4 8.8-8.8 8.8zM256 414.9c-4.9 0-8.8-4-8.8-8.8 0-44.1 33-55.9 59.6-65.4 24-8.5 37.5-14.2 37.5-31.7a8.8 8.8 0 1117.6 0c0 30.8-26.1 40.1-49.2 48.3-25.7 9.2-47.9 17.1-47.9 48.8 0 4.8-4 8.8-8.8 8.8z" fill="#76B3F5"/>
    <path d="M70.6 291.3v-70.6c0-9.8 8-17.7 17.7-17.7h123.6c9.7 0 17.6 8 17.6 17.7v70.6c0 9.8-7.9 17.7-17.6 17.7H88.3c-9.8 0-17.7-8-17.7-17.7z" fill="#90BAE1"/>
    <path d="M106 512H17.6C7.9 512 0 504 0 494.3v-70.6c0-9.7 8-17.6 17.7-17.6h88.2c9.8 0 17.7 7.9 17.7 17.6v70.6c0 9.8-8 17.7-17.7 17.7z" fill="#6E8CE0"/>
    <path d="M194.2 247.2H106a8.8 8.8 0 010-17.7h88.3a8.8 8.8 0 010 17.7zM150 282.5h-44a8.8 8.8 0 010-17.7h44a8.8 8.8 0 010 17.7z" fill="#B0D3F0"/>
    <path d="M282.5 291.3v-70.6c0-9.8 7.9-17.7 17.6-17.7h123.6c9.8 0 17.7 8 17.7 17.7v70.6c0 9.8-8 17.7-17.7 17.7H300.1c-9.7 0-17.6-8-17.6-17.7z" fill="#90BAE1"/>
    <path d="M370.8 247.2h-53a8.8 8.8 0 010-17.7h53a8.8 8.8 0 010 17.7zM406 282.5h-88.2a8.8 8.8 0 010-17.7H406a8.8 8.8 0 010 17.7z" fill="#B0D3F0"/>
    <path d="M450.2 414.9c-4.9 0-8.8-4-8.8-8.8 0-5-.6-10-2-14.8a8.8 8.8 0 1116.9-5.1A68.8 68.8 0 01459 406c0 4.8-4 8.8-8.8 8.8zm-24-44c-1.6 0-3.2-.5-4.6-1.4a95.8 95.8 0 00-14.5-7 8.8 8.8 0 116.6-16.5c6 2.4 11.7 5.2 17.2 8.5a8.8 8.8 0 01-4.7 16.3zm-48.8-20.5c-1.3 0-2.6-.3-3.8-.8-6.2-2.8-12-6.5-17-11.1a8.8 8.8 0 1112-12.8c3.8 3.3 8 6 12.5 7.9a8.8 8.8 0 01-3.7 16.8z" fill="#90BAE1"/>
    <path fill="#7B97E3" d="M0 441.4h123.6v35.3H0z"/>
    <path d="M300.1 106H212c-9.8 0-17.7-8-17.7-17.7V17.7c0-9.8 8-17.7 17.7-17.7H300c9.8 0 17.7 8 17.7 17.7v70.6c0 9.7-8 17.6-17.7 17.6z" fill="#90BAE1"/>
    <path fill="#B0D3F0" d="M194.2 35.3h123.6v35.3H194.2z"/>
    <path d="M494.3 512h-88.2c-9.8 0-17.7-8-17.7-17.7v-70.6c0-9.7 8-17.6 17.7-17.6h88.2c9.8 0 17.7 7.9 17.7 17.6v70.6c0 9.8-8 17.7-17.7 17.7z" fill="#6E8CE0"/>
    <path fill="#7B97E3" d="M388.4 441.4H512v35.3H388.4z"/>
    <path d="M256 414.9c-4.9 0-8.8-4-8.8-8.8 0-5-.6-10-2-14.8a8.8 8.8 0 1116.9-5.1 68.8 68.8 0 012.7 19.9c0 4.8-4 8.8-8.8 8.8zm-24-44c-1.6 0-3.2-.5-4.6-1.4a95.8 95.8 0 00-14.5-7 8.8 8.8 0 116.6-16.5c6 2.4 11.7 5.2 17.1 8.5a8.8 8.8 0 01-4.6 16.3zm-48.8-20.5c-1.3 0-2.6-.3-3.8-.8a62 62 0 01-17-11.1 8.8 8.8 0 0112-12.8c3.8 3.3 8 6 12.5 7.9a8.8 8.8 0 01-3.7 16.8z" fill="#90BAE1"/>
    <path d="M300.1 512H212c-9.8 0-17.7-8-17.7-17.7v-70.6c0-9.7 8-17.6 17.7-17.6H300c9.8 0 17.7 7.9 17.7 17.6v70.6c0 9.8-8 17.7-17.7 17.7z" fill="#6E8CE0"/>
    <path fill="#7B97E3" d="M194.2 441.4h123.6v35.3H194.2z"/>
  </g>
</svg>
