<svg xmlns="http://www.w3.org/2000/svg" viewBox="0 0 512 512">
  <defs/>
  <g id="Icons" stroke="none" stroke-width="1" fill="none" fill-rule="evenodd">
    <g id="provenance" fill-rule="nonzero">
      <g id="1671418">
        <path d="M158.898 211.863a8.826 8.826 0 01-8.828-8.828c0-44.07 33.059-55.87 59.63-65.363 23.929-8.543 37.472-14.23 37.472-31.742a8.829 8.829 0 0117.656 0c0 30.804-26.129 40.14-49.191 48.375-25.707 9.183-47.914 17.11-47.914 48.73 0 4.875-3.95 8.828-8.825 8.828z" id="Path" fill="#0C3247"/>
        <path d="M353.102 211.863c-4.875 0-8.825-3.953-8.825-8.828a51.466 51.466 0 00-1.992-14.793 8.831 8.831 0 012.008-8.597 8.819 8.819 0 018.445-2.56 8.814 8.814 0 016.442 6.036 68.694 68.694 0 012.75 19.914 8.826 8.826 0 01-8.828 8.828zm-23.989-44.07a8.805 8.805 0 01-4.62-1.309 95.543 95.543 0 00-14.52-7.113 8.832 8.832 0 01-5.606-6.965 8.832 8.832 0 013.356-8.293 8.83 8.83 0 018.87-1.105 112.175 112.175 0 0117.157 8.441 8.827 8.827 0 01-4.637 16.344zm-48.855-20.422a8.819 8.819 0 01-3.723-.828 62.047 62.047 0 01-17.12-11.113 8.816 8.816 0 01-2.716-8.567 8.825 8.825 0 0114.887-4.207A46.53 46.53 0 00284 130.543a8.822 8.822 0 014.883 9.918 8.828 8.828 0 01-8.625 6.91z" id="Shape" fill="#245773"/>
        <path d="M61.793 414.898a8.829 8.829 0 01-8.828-8.828c0-44.07 33.062-55.87 59.629-65.363 23.933-8.543 37.476-14.234 37.476-31.742a8.826 8.826 0 018.828-8.828c4.875 0 8.825 3.953 8.825 8.828 0 30.805-26.13 40.14-49.188 48.375-25.707 9.18-47.914 17.11-47.914 48.73a8.829 8.829 0 01-8.828 8.828zM256 414.898a8.829 8.829 0 01-8.828-8.828c0-44.07 33.062-55.87 59.629-65.363 23.933-8.543 37.476-14.234 37.476-31.742 0-4.875 3.95-8.828 8.825-8.828a8.826 8.826 0 018.828 8.828c0 30.805-26.13 40.14-49.188 48.375-25.707 9.18-47.914 17.11-47.914 48.73a8.829 8.829 0 01-8.828 8.828z" id="Path" fill="#0C3247"/>
        <path d="M70.621 291.309V220.69c0-9.754 7.902-17.656 17.656-17.656h123.586c9.75 0 17.653 7.903 17.653 17.656v70.618c0 9.753-7.903 17.656-17.653 17.656H88.277c-9.754 0-17.656-7.902-17.656-17.656z" id="Path" fill="#EED268"/>
        <path d="M105.93 512H17.656C7.906 512 0 504.094 0 494.344v-70.621c0-9.75 7.906-17.653 17.656-17.653h88.274c9.754 0 17.656 7.903 17.656 17.653v70.62c0 9.75-7.902 17.657-17.656 17.657z" id="Path" fill="#14ABBA"/>
        <path d="M194.207 247.172H105.93a8.829 8.829 0 010-17.656h88.277a8.829 8.829 0 010 17.656zM150.07 282.484h-44.14a8.829 8.829 0 010-17.656h44.14a8.829 8.829 0 010 17.656z" id="Path" fill="#CFB44F"/>
        <path d="M282.484 291.309V220.69c0-9.754 7.903-17.656 17.653-17.656h123.586c9.754 0 17.656 7.903 17.656 17.656v70.618c0 9.753-7.902 17.656-17.656 17.656H300.137c-9.75 0-17.653-7.902-17.653-17.656z" id="Path" fill="#EED268"/>
        <path d="M370.758 247.172h-52.965a8.829 8.829 0 010-17.656h52.965a8.829 8.829 0 010 17.656zM406.07 282.484h-88.277a8.829 8.829 0 010-17.656h88.277a8.829 8.829 0 010 17.656z" id="Path" fill="#CFB44F"/>
        <path d="M450.207 414.898a8.829 8.829 0 01-8.828-8.828 51.177 51.177 0 00-1.992-14.793 8.83 8.83 0 015.89-11.011c4.664-1.414 9.594 1.222 11.008 5.89a68.81 68.81 0 012.75 19.914 8.829 8.829 0 01-8.828 8.828zm-23.992-44.07a8.783 8.783 0 01-4.621-1.312 95.848 95.848 0 00-14.516-7.11 8.825 8.825 0 01-5.605-6.969 8.826 8.826 0 013.351-8.289 8.837 8.837 0 018.875-1.105 112.475 112.475 0 0117.153 8.437 8.828 8.828 0 01-4.637 16.348zm-48.852-20.422a8.896 8.896 0 01-3.726-.828 62.124 62.124 0 01-17.125-11.113 8.825 8.825 0 01-2.715-8.567 8.827 8.827 0 0114.887-4.21 46.508 46.508 0 0012.414 7.89 8.826 8.826 0 01-3.743 16.828h.008z" id="Shape" fill="#245773"/>
        <path id="Path" fill="#34CAD9" d="M0 441.379h123.586v35.312H0z"/>
        <path d="M300.137 105.93h-88.274c-9.75 0-17.656-7.903-17.656-17.653v-70.62c0-9.75 7.906-17.657 17.656-17.657h88.274c9.75 0 17.656 7.906 17.656 17.656v70.621c0 9.75-7.906 17.653-17.656 17.653z" id="Path" fill="#EED268"/>
        <path id="Path" fill="#CFB44F" d="M194.207 35.309h123.586V70.62H194.207z"/>
        <path d="M494.344 512H406.07c-9.754 0-17.656-7.906-17.656-17.656v-70.621c0-9.75 7.902-17.653 17.656-17.653h88.274c9.75 0 17.656 7.903 17.656 17.653v70.62c0 9.75-7.906 17.657-17.656 17.657z" id="Path" fill="#14ABBA"/>
        <path id="Path" fill="#34CAD9" d="M388.414 441.379H512v35.312H388.414z"/>
        <path d="M256 414.898a8.829 8.829 0 01-8.828-8.828 51.177 51.177 0 00-1.992-14.793 8.83 8.83 0 015.89-11.011c4.664-1.414 9.594 1.222 11.008 5.89a68.81 68.81 0 012.75 19.914 8.829 8.829 0 01-8.828 8.828zm-23.992-44.07a8.783 8.783 0 01-4.621-1.312 95.848 95.848 0 00-14.516-7.11 8.825 8.825 0 01-5.605-6.969 8.826 8.826 0 013.351-8.289 8.837 8.837 0 018.875-1.105 112.475 112.475 0 0117.153 8.437 8.828 8.828 0 01-4.637 16.348zm-48.852-20.422a8.896 8.896 0 01-3.726-.828 62.047 62.047 0 01-17.121-11.113 8.83 8.83 0 0112.176-12.777 46.385 46.385 0 0012.413 7.89 8.828 8.828 0 01-3.742 16.828z" id="Shape" fill="#245773"/>
        <path d="M300.137 512h-88.274c-9.75 0-17.656-7.906-17.656-17.656v-70.621c0-9.75 7.906-17.653 17.656-17.653h88.274c9.75 0 17.656 7.903 17.656 17.653v70.62c0 9.75-7.906 17.657-17.656 17.657z" id="Path" fill="#14ABBA"/>
        <path id="Path" fill="#34CAD9" d="M194.207 441.379h123.586v35.312H194.207z"/>
      </g>
    </g>
  </g>
</svg>
