<svg viewBox="0 0 455 450">
  <defs>
    <path id="reuse-0" fill="#03BF96" d="M165 108.73C73.87 108.73 0 84.23 0 54v80.49h.3C5.35 163.2 77.15 186 165 186c87.86 0 159.67-22.79 164.7-51.51h.3V54c0 30.22-73.87 54.73-165 54.73z"/>
  </defs>
  <g fill="none" fill-rule="nonzero">
    <g transform="translate(0 250)">
      <ellipse cx="166" cy="54.5" fill="#1AD8AF" rx="165" ry="54.5"/>
      <use xlink:href="#reuse-0"/>
    </g>
    <g transform="translate(0 127)">
      <ellipse cx="166" cy="54.5" fill="#1AD8AF" rx="165" ry="54.5"/>
      <use xlink:href="#reuse-0"/>
    </g>
    <g>
      <ellipse cx="166" cy="54.5" fill="#1AD8AF" rx="165" ry="54.5"/>
      <use xlink:href="#reuse-0"/>
    </g>
    <g transform="translate(225 220)">
      <circle cx="114.76" cy="114.76" r="114.76" fill="#0C3247"/>
      <path fill="#FFF" d="M167.72 97.1h-35.3V61.8a17.66 17.66 0 00-35.32 0v35.3H61.8a17.66 17.66 0 100 35.31h35.3v35.31a17.66 17.66 0 0035.31 0v-35.3h35.31a17.66 17.66 0 000-35.32z"/>
    </g>
  </g>
</svg>
