<svg viewBox="0 0 24 24" width="24" height="24">
  <title>Search</title>
  <path d="M9.5,0 C14.7467051,0 19,4.25329488 19,9.5 C19,11.763376 18.2084733,13.841881 16.887125,15.4738098 L17.3445342,15.9730235 L17.5448547,16.1823064 C17.7541922,16.3959493 17.8782355,16.5027708 17.9169844,16.5027708 C18.0216064,16.5027708 18.9378262,16.2259657 19.0543928,16.2259657 L19.1070331,16.2670277 C19.6388539,16.7371648 23.9497475,21.0868642 23.9497475,21.1213203 L23.9064704,21.1724053 C23.5550804,21.5550299 21.1809882,23.9428245 21.1213203,23.949797 C21.0783595,23.9547416 20.315509,23.2098764 18.8327689,21.7151768 L17.2937123,20.1902675 C16.5818812,19.4756266 16.2259657,19.0970017 16.2259657,19.0543928 C16.2259657,18.9175415 16.5027708,18.0266724 16.5027708,17.9169844 C16.5027708,17.8441878 16.159774,17.5008638 15.4737805,16.8870123 C13.841881,18.2084733 11.763376,19 9.5,19 C4.25329488,19 0,14.7467051 0,9.5 C0,4.25329488 4.25329488,0 9.5,0 Z M9.5,3 C5.91014913,3 3,5.91014913 3,9.5 C3,13.0898509 5.91014913,16 9.5,16 C13.0898509,16 16,13.0898509 16,9.5 C16,5.91014913 13.0898509,3 9.5,3 Z" id="Shape">
  </path>
</svg>
